<svg width="55" height="49" viewBox="0 0 55 49" fill="none" xmlns="http://www.w3.org/2000/svg">
<path d="M49.1544 20.6363C46.7895 20.6363 44.5066 20.6363 42.1397 20.6363C42.1397 20.0794 42.1663 19.5389 42.1356 19.0004C41.9247 15.362 39.4207 12.7371 35.7946 12.6737C30.1005 12.5733 24.4004 12.5754 18.7063 12.6798C15.1171 12.7453 12.4963 15.5995 12.4308 19.199C12.4226 19.6576 12.4288 20.1183 12.4288 20.6158C10.1069 20.6158 7.81582 20.6158 5.45508 20.6158C5.45508 20.4356 5.45508 20.2534 5.45508 20.0732C5.45508 14.4284 5.45508 8.78141 5.45508 3.13652C5.45508 1.22008 6.6549 0.00387667 8.58157 0.00387667C21.0671 -0.00021828 33.5526 -0.00226576 46.0381 0.00387667C47.9197 0.00387667 49.1503 1.23646 49.1523 3.11195C49.1605 8.80803 49.1544 14.5062 49.1544 20.2022C49.1544 20.3353 49.1544 20.4684 49.1544 20.6363Z" fill="#4476DF"/>
<path d="M1.12838 43.3775C1.1509 44.7247 1.12633 46.072 1.14885 47.4192C1.15499 47.7837 1.18775 48.2014 1.36998 48.4921C1.50511 48.7071 1.7549 48.8525 1.99241 48.9999H5.04724C5.73315 48.7644 5.96861 48.3877 5.97475 47.6076C5.98089 46.805 5.9768 46.0044 5.9768 45.2018C5.9768 44.6797 5.9768 44.1576 5.9768 43.6232C20.215 43.6232 34.3814 43.6232 48.6032 43.6232C48.6032 44.8722 48.6216 46.0986 48.5971 47.323C48.5807 48.1072 48.7547 48.7378 49.5041 48.9999H52.5323C53.1793 48.7849 53.4578 48.3795 53.4619 47.6526C53.4701 46.2378 53.4578 44.821 53.4721 43.4062C53.4742 43.2198 53.5131 42.968 53.6339 42.8595C54.3894 42.1879 54.5941 41.33 54.5921 40.3718C54.588 35.6462 54.545 30.9207 54.6126 26.1971C54.6371 24.5182 53.466 22.9539 51.3591 22.958C35.3233 22.9887 19.2895 22.9744 3.25366 22.9785C2.88102 22.9785 2.49814 22.9969 2.13778 23.0788C1.15704 23.2999 -0.0182133 24.3667 0.000213995 25.9678C0.0391161 29.3277 0.0104509 32.6897 0.0124984 36.0496C0.0124984 37.6528 0.0084049 39.2559 0.0268322 40.8591C0.0370696 41.6044 0.325761 42.2391 0.8622 42.7735C1.01371 42.9168 1.12633 43.1707 1.12838 43.3775Z" fill="#4476DF"/>
</svg>
