<svg width="53" height="54" viewBox="0 0 53 54" fill="none" xmlns="http://www.w3.org/2000/svg">
<path d="M26.1942 53.1574C40.6608 53.1574 52.3883 41.4298 52.3883 26.9632C52.3883 12.4966 40.6608 0.769043 26.1942 0.769043C11.7275 0.769043 0 12.4966 0 26.9632C0 41.4298 11.7275 53.1574 26.1942 53.1574Z" fill="#CC952D"/>
<path d="M24.3526 13.499C24.3526 12.5068 24.3526 11.4117 24.3526 10.2778C25.538 10.2778 26.6976 10.2778 27.9345 10.2778C27.9345 11.2055 27.9474 12.1203 27.9216 13.0351C27.9088 13.4732 27.9989 13.6665 28.4886 13.7953C31.336 14.5039 33.5908 15.9985 34.7118 18.846C34.9823 19.5289 35.0596 20.302 35.2529 21.0879C33.9516 21.0879 32.8049 21.0879 31.5808 21.0879C31.4778 20.0572 30.9753 19.2197 30.1764 18.5239C27.8443 16.501 23.7342 16.7072 21.634 18.962C20.2038 20.4952 20.4357 22.5696 22.304 23.6133C23.5409 24.2962 24.9195 24.76 26.2853 25.1465C28.3597 25.7392 30.447 26.2675 32.2379 27.5302C34.2221 28.9346 35.3173 30.8157 35.1112 33.2895C34.9179 35.6216 33.7325 37.4126 31.8127 38.7268C30.6531 39.5256 29.3647 40.041 27.9345 40.3116C27.9345 41.4067 27.9345 42.489 27.9345 43.6358C26.7234 43.6358 25.5767 43.6358 24.3526 43.6358C24.3526 42.5535 24.3526 41.4454 24.3526 40.3631C19.0442 39.1648 17.0729 35.5185 17.176 32.8386C18.2583 32.8386 19.3406 32.8257 20.4357 32.8514C20.5517 32.8514 20.7321 33.0318 20.7579 33.1478C21.0671 34.9259 22.2782 35.9051 23.8373 36.4333C26.1565 37.2193 28.3855 36.9874 30.3053 35.3253C31.2587 34.5007 31.8643 33.4184 31.4262 32.1299C31.2201 31.5115 30.7305 30.8415 30.1893 30.5322C29.0684 29.888 27.8572 29.3726 26.6203 28.999C24.5588 28.3805 22.4457 27.9553 20.5904 26.8086C18.2067 25.3527 16.8796 23.304 17.1889 20.4566C17.4594 17.9183 18.9283 16.1016 21.0929 14.8776C22.085 14.3107 23.2059 13.9757 24.3526 13.499Z" fill="white"/>
</svg>
