<svg width="20" height="20" viewBox="0 0 20 20" fill="none" xmlns="http://www.w3.org/2000/svg">
<path d="M19.3706 0.0441168L0.251711 8.37853C0.175108 8.41452 0.110573 8.47194 0.0659169 8.54385C0.0212603 8.61576 -0.00160479 8.69906 8.75853e-05 8.7837C0.00177996 8.86833 0.0279575 8.95065 0.075453 9.02072C0.122948 9.09078 0.189727 9.14557 0.267708 9.17847L5.43858 12.0953C5.58782 12.1794 5.75934 12.2155 5.92981 12.1987C6.10029 12.1819 6.26145 12.1129 6.39138 12.0013L16.5892 3.20889C16.6571 3.1519 16.8181 3.04191 16.8811 3.1089C16.9441 3.1759 16.8451 3.33289 16.7871 3.40088L7.96404 13.3392C7.84429 13.4736 7.77145 13.6434 7.75649 13.8228C7.74152 14.0022 7.78524 14.1817 7.88105 14.3341L11.2613 19.7567C11.2983 19.8307 11.3553 19.8927 11.4259 19.9357C11.4965 19.9787 11.5777 20.001 11.6604 20C11.743 19.9989 11.8237 19.9746 11.8932 19.9298C11.9626 19.885 12.0181 19.8216 12.0531 19.7467L19.9594 0.622076C19.9974 0.540053 20.0091 0.44828 19.9929 0.35935C19.9767 0.27042 19.9333 0.188689 19.8688 0.125373C19.8043 0.0620571 19.7218 0.0202575 19.6326 0.00570929C19.5434 -0.00883893 19.4518 0.00457704 19.3706 0.0441168Z" fill="white"/>
</svg>
