<svg width="56" height="84" viewBox="0 0 56 84" fill="none" xmlns="http://www.w3.org/2000/svg">
<path d="M2.83 0.769998C2.08117 0.769993 1.36286 1.06678 0.832415 1.59535C0.301973 2.12391 0.00264605 2.84117 0 3.59V21.51C0 25.14 2.06 32.86 8.34 34.6V78.8C8.39879 80.141 8.97287 81.4075 9.94256 82.3356C10.9122 83.2637 12.2027 83.7818 13.545 83.7818C14.8873 83.7818 16.1777 83.2637 17.1474 82.3356C18.1171 81.4075 18.6912 80.141 18.75 78.8V34.59C21.01 33.93 26.75 31.29 26.66 21.51V3.59C26.66 2.84209 26.3629 2.12481 25.834 1.59596C25.3052 1.0671 24.5879 0.769998 23.84 0.769998C23.0921 0.769998 22.3748 1.0671 21.846 1.59596C21.3171 2.12481 21.02 2.84209 21.02 3.59V20.14C21.0151 20.1899 21.0151 20.2401 21.02 20.29C21.0174 20.4686 20.9446 20.639 20.8173 20.7644C20.6901 20.8897 20.5186 20.96 20.34 20.96C20.252 20.96 20.1649 20.9427 20.0836 20.909C20.0023 20.8753 19.9285 20.826 19.8662 20.7638C19.804 20.7015 19.7547 20.6277 19.721 20.5464C19.6873 20.4651 19.67 20.378 19.67 20.29V3.59C19.67 2.84209 19.3729 2.12481 18.844 1.59596C18.3152 1.0671 17.5979 0.769998 16.85 0.769998C16.1021 0.769998 15.3848 1.0671 14.856 1.59596C14.3271 2.12481 14.03 2.84209 14.03 3.59V20.16C14.0254 20.2032 14.0254 20.2468 14.03 20.29C14.0274 20.4686 13.9546 20.639 13.8273 20.7644C13.7001 20.8897 13.5286 20.96 13.35 20.96C13.262 20.96 13.1749 20.9427 13.0936 20.909C13.0123 20.8753 12.9385 20.826 12.8762 20.7638C12.814 20.7015 12.7647 20.6277 12.731 20.5464C12.6973 20.4651 12.68 20.378 12.68 20.29C12.6849 20.2502 12.6849 20.2098 12.68 20.17V3.59C12.68 2.84209 12.3829 2.12481 11.854 1.59596C11.3252 1.0671 10.6079 0.769998 9.86 0.769998C9.11209 0.769998 8.39481 1.0671 7.86596 1.59596C7.33711 2.12481 7.04 2.84209 7.04 3.59V20.13C7.03535 20.1832 7.03535 20.2368 7.04 20.29C7.01989 20.4549 6.94014 20.6067 6.81579 20.7168C6.69144 20.8269 6.53109 20.8877 6.365 20.8877C6.19891 20.8877 6.03856 20.8269 5.91421 20.7168C5.78986 20.6067 5.7101 20.4549 5.69 20.29V3.59C5.69004 3.21628 5.61579 2.84628 5.47158 2.50151C5.32737 2.15674 5.11606 1.84407 4.84995 1.58168C4.58384 1.31929 4.26822 1.11241 3.92146 0.973067C3.57469 0.833724 3.20368 0.764697 2.83 0.769998ZM6.32 23C7.00289 23.0011 7.66024 22.7405 8.15686 22.2717C8.65349 21.803 8.95164 21.1618 8.99 20.48C8.99988 20.4204 8.99988 20.3596 8.99 20.3V3.59C8.99 3.37252 9.07639 3.16395 9.23017 3.01017C9.38395 2.85639 9.59252 2.77 9.81 2.77C10.0275 2.77 10.236 2.85639 10.3898 3.01017C10.5436 3.16395 10.63 3.37252 10.63 3.59V20.29C10.63 20.35 10.63 20.4 10.63 20.45C10.6717 21.1312 10.9716 21.7708 11.4687 22.2384C11.9658 22.706 12.6225 22.9664 13.305 22.9664C13.9875 22.9664 14.6442 22.706 15.1413 22.2384C15.6384 21.7708 15.9383 21.1312 15.98 20.45C15.98 20.4 15.98 20.35 15.98 20.3V3.59C15.98 3.37424 16.065 3.16717 16.2166 3.01368C16.3682 2.86018 16.5743 2.77263 16.79 2.77C17.0084 2.76998 17.218 2.85605 17.3734 3.00955C17.5288 3.16305 17.6174 3.37161 17.62 3.59V20.35C17.6094 21.0581 17.8805 21.7415 18.3737 22.2497C18.867 22.7579 19.5419 23.0494 20.25 23.06C20.9581 23.0706 21.6415 22.7995 22.1497 22.3063C22.6579 21.813 22.9494 21.1381 22.96 20.43C22.9648 20.3734 22.9648 20.3166 22.96 20.26V3.59C22.96 3.37252 23.0464 3.16395 23.2002 3.01017C23.354 2.85639 23.5625 2.77 23.78 2.77C23.9975 2.77 24.206 2.85639 24.3598 3.01017C24.5136 3.16395 24.6 3.37252 24.6 3.59V21.52C24.67 31.79 17.86 32.77 17.6 32.81C17.3525 32.8349 17.1231 32.9511 16.9567 33.136C16.7903 33.3209 16.6988 33.5612 16.7 33.81V78.81C16.6542 79.6291 16.2966 80.3995 15.7006 80.9632C15.1046 81.5268 14.3153 81.8409 13.495 81.8409C12.6747 81.8409 11.8854 81.5268 11.2894 80.9632C10.6934 80.3995 10.3358 79.6291 10.29 78.81V33.81C10.2924 33.5673 10.2065 33.3321 10.0482 33.1481C9.89001 32.9641 9.67028 32.844 9.43 32.81C3.22 31.64 1.95 23.6 1.95 21.5V3.59C1.95263 3.37161 2.04124 3.16305 2.19661 3.00955C2.35198 2.85605 2.56159 2.76998 2.78 2.77C2.99748 2.77 3.20605 2.85639 3.35983 3.01017C3.51361 3.16395 3.6 3.37252 3.6 3.59V20.29C3.59457 20.6482 3.66129 21.0039 3.79618 21.3358C3.93108 21.6677 4.1314 21.9691 4.3852 22.2219C4.639 22.4748 4.94109 22.674 5.27349 22.8077C5.60589 22.9413 5.96179 23.0067 6.32 23Z" fill="black"/>
<path d="M43.07 84C45.93 84 48.17 81.35 48.17 78V36.82C48.17 32.97 49.69 31.19 51.45 29.12C53.45 26.75 55.78 24.05 55.78 18C55.78 8.08 49.93 0 42.78 0C35.68 0.2 30.12 8.1 30.12 18C30.12 24 32.41 26.75 34.44 29.12C36.2 31.19 37.72 32.97 37.72 36.82V78C37.66 81.12 40.24 84 43.07 84ZM35.89 27.83C33.89 25.51 32.05 23.31 32.05 18C32.05 9.35 36.85 2.17 42.76 2C48.76 2 53.76 9.34 53.76 18C53.76 23.31 51.89 25.51 49.91 27.83C48.06 29.99 46.15 32.24 46.15 36.83V78C46.15 80 44.99 82 43.05 82C41.51 82 39.64 80.2 39.64 78V36.82C39.66 32.24 37.75 30 35.89 27.83Z" fill="black"/>
</svg>
