<?xml version="1.0" encoding="UTF-8"?>
<svg width="27px" height="27px" viewBox="0 0 27 27" version="1.1" xmlns="http://www.w3.org/2000/svg" xmlns:xlink="http://www.w3.org/1999/xlink">
    <!-- Generator: Sketch 52.6 (67491) - http://www.bohemiancoding.com/sketch -->
    <title>green-check</title>
    <desc>Created with Sketch.</desc>
    <g id="Symbols" stroke="none" stroke-width="1" fill="none" fill-rule="evenodd">
        <g id="Signup-Content" transform="translate(1.000000, -263.000000)">
            <g id="Check" transform="translate(0.000000, 264.000000)">
                <g id="Group-2">
                    <circle id="Oval-Copy" stroke="#00A45F" stroke-width="1.88999992" fill="#00A45F" fill-rule="nonzero" cx="12.5" cy="12.5" r="12.5"></circle>
                    <path d="M17.1715368,10.1673079 L16.3666075,9.35159364 C16.2562376,9.23966086 16.1220067,9.18367347 15.9642258,9.18367347 C15.8062998,9.18367347 15.6720689,9.23966086 15.561699,9.35159364 L11.6789745,13.2922869 L9.93886534,11.5228541 C9.82837103,11.4108794 9.69422306,11.354955 9.53644216,11.354955 C9.37855761,11.354955 9.24440964,11.4108794 9.13391533,11.5228541 L8.32898604,12.3385894 C8.21849173,12.4505432 8.16326531,12.5865306 8.16326531,12.7465096 C8.16326531,12.9063625 8.21849173,13.042476 8.32898604,13.1544088 L10.4715184,15.3256062 L11.2765099,16.1413205 C11.386942,16.2533373 11.5211314,16.3092617 11.6789745,16.3092617 C11.8367554,16.3092617 11.9709449,16.2531903 12.0814392,16.1413205 L12.8864099,15.3256062 L17.1715368,10.9830852 C17.2819275,10.8711104 17.3372576,10.7351441 17.3372576,10.5751651 C17.3373405,10.4152701 17.2819275,10.2792827 17.1715368,10.1673079 Z" id="Path" fill="#FFFFFF"></path>
                </g>
            </g>
        </g>
    </g>
</svg>