<?xml version="1.0" encoding="utf-8"?>
<!-- Generator: Adobe Illustrator 23.0.4, SVG Export Plug-In . SVG Version: 6.00 Build 0)  -->
<svg version="1.1" id="Layer_1" xmlns="http://www.w3.org/2000/svg" xmlns:xlink="http://www.w3.org/1999/xlink" x="0px" y="0px"
	 viewBox="0 0 192 41" style="enable-background:new 0 0 192 41;" xml:space="preserve">
<style type="text/css">
	.st0{fill:#FFFFFF;}
</style>
<path class="st0" d="M0,12h3.1v13.1H9V28H0V12z"/>
<path class="st0" d="M13,12h3v16h-3V12z"/>
<path class="st0" d="M20,20c0-4.4,3.4-8,7.7-8c2.3,0,4.3,1,5.6,2.5l-2.2,2c-0.9-1-2.1-1.5-3.4-1.5c-2.6,0-4.7,2.3-4.7,5.1
	s2,5.2,4.7,5.2c2,0,3.5-1,3.9-2.6c0-0.1,0.1-0.2,0.1-0.4h-4.3v-2.6H35c0,5.8-3,8.3-7.3,8.3S20,24.4,20,20z"/>
<path class="st0" d="M51,12v16h-3.1v-6.5h-5.8V28H39V12h3.1v6.6h5.8V12H51z"/>
<path class="st0" d="M66,14.9h-4V28h-3V14.9h-4V12h11V14.9L66,14.9z"/>
<path class="st0" d="M126,12v16h-2.9v-6.5h-5.3V28H115V12h2.9v6.6h5.3V12H126z"/>
<path class="st0" d="M131,20c0-4.4,3.3-8,7.5-8s7.5,3.6,7.5,8s-3.3,8-7.5,8S131,24.4,131,20z M143,20c0-2.8-1.9-5-4.5-5
	c-2.7,0-4.5,2.2-4.5,5s1.9,5,4.5,5C141.1,25.1,143,22.8,143,20z"/>
<path class="st0" d="M150,22.2V12h3.2v10c0,2.1,1.4,3,2.8,3c1.5,0,2.8-0.9,2.8-3V12h3.2v10.2c0,3.6-2.8,5.8-6,5.8S150,25.8,150,22.2
	z"/>
<path class="st0" d="M166,23.2h3.1c0,1.1,1.1,2.1,2.5,2.1s2.3-0.7,2.3-1.8c0-0.9-0.6-1.5-1.9-1.9l-1.9-0.5c-3.4-0.9-4-3-4-4.4
	c0-2.8,2.4-4.6,5.3-4.6c2.9,0,5.1,1.8,5.1,4.8h-3.1c0-1.1-0.8-2-2.1-2c-1.2,0-2.1,0.7-2.1,1.8c0,0.4,0.1,1.2,1.7,1.7l1.7,0.5
	c2.3,0.7,4.3,1.9,4.3,4.5c0,3.1-2.6,4.7-5.5,4.7C168.2,28,166,26,166,23.2z"/>
<path class="st0" d="M191,25.1V28h-10V12h9.8v2.9h-6.6v3.8h5.8v2.9h-5.8v3.6L191,25.1L191,25.1z"/>
<path class="st0" d="M104,9.4c-2.3-4.9-8-6.9-12.6-4.4c-1,0.5-1.9,1.3-2.6,2.1l0,0l-12.2,13l0,0c-2.6,3-3.3,7.5-1.5,11.3
	c1.1,2.4,3.1,4.1,5.5,5c2.4,0.8,4.9,0.6,7.2-0.6c0.8-0.4,1.5-1,2.1-1.6l0,0l0.2-0.2c0,0,0,0,0-0.1l0,0l12-12.7l0,0
	c0.1-0.1,0.2-0.2,0.2-0.2C105,18.1,105.9,13.4,104,9.4z M100.8,17.7c0,0.4-0.3,0.7-0.6,0.7H97V15h-2.9v3.4h-3
	c-0.4,0-0.6-0.3-0.6-0.7V12c0-0.2,0.1-0.4,0.2-0.5l4.5-4.4c0.2-0.2,0.6-0.2,0.9,0l4.5,4.4c0.1,0.1,0.2,0.3,0.2,0.5
	C100.8,12,100.8,17.7,100.8,17.7z"/>
</svg>
