
<svg width="243" height="41" viewBox="0 0 243 41" fill="none" xmlns="http://www.w3.org/2000/svg">
<path d="M26 12H29.1286V25.1444H35V28H26V12Z" fill="black"/>
<path d="M39 12H42V28H39V12Z" fill="black"/>
<path d="M46 20.0116C46 15.5747 49.3636 12 53.6872 12C55.9595 12 57.9469 12.9716 59.2558 14.4904L57.0508 16.4601C56.1995 15.5084 54.9994 14.9215 53.6872 14.9215C51.0661 14.9215 49.0371 17.2294 49.0371 20.0116C49.0371 22.7938 51.0693 25.1946 53.6872 25.1946C55.6522 25.1946 57.2044 24.223 57.598 22.5915C57.6428 22.4788 57.662 22.3428 57.6844 22.2068H53.4216V19.6502H61C61 25.4201 58.0077 28 53.684 28C49.3604 27.9967 46 24.422 46 20.0116Z" fill="black"/>
<path d="M77 12V28H73.8841V21.4959H68.1191V28H65V12H68.1191V18.596H73.8841V12H77Z" fill="black"/>
<path d="M92 14.8556H87.972V28H85.028V14.8556H81V12H91.9969V14.8556H92Z" fill="black"/>
<path d="M152 12V28H149.142V21.4972H143.858V28H141V12H143.858V18.5946H149.142V12H152Z" fill="black"/>
<path d="M157 20.0116C157 15.5747 160.296 12 164.489 12C168.663 12 172 15.5747 172 20.0116C172 24.4253 168.663 28 164.489 28C160.296 28 157 24.422 157 20.0116ZM169.005 20.0116C169.005 17.2062 167.123 14.9646 164.489 14.9646C161.836 14.9646 159.973 17.2029 159.973 20.0116C159.973 22.817 161.836 25.0587 164.489 25.0587C167.12 25.0553 169.005 22.817 169.005 20.0116Z" fill="black"/>
<path d="M176 22.1549V12H179.166V21.9702C179.166 24.1033 180.53 24.9733 181.988 24.9733C183.47 24.9733 184.834 24.1033 184.834 21.9702V12H188V22.1549C188 25.7997 185.201 28 181.988 28C178.799 28.0034 176 25.7997 176 22.1549Z" fill="black"/>
<path d="M192 23.2063H195.09C195.113 24.3375 196.178 25.2664 197.601 25.2664C198.978 25.2664 199.89 24.5399 199.89 23.4319C199.89 22.5727 199.268 21.9623 197.956 21.5542L196.09 21.0101C192.736 20.1045 192.134 18.0444 192.134 16.6411C192.134 13.8578 194.488 12 197.422 12C200.31 12 202.531 13.7881 202.531 16.7539H199.441C199.441 15.6459 198.685 14.7833 197.353 14.7833C196.152 14.7833 195.243 15.5297 195.243 16.5714C195.243 16.9562 195.354 17.7723 196.953 18.2235L198.666 18.7211C200.975 19.378 203 20.622 203 23.2693C203 26.3711 200.398 28 197.513 28C194.244 28.0066 192 25.9664 192 23.2063Z" fill="black"/>
<path d="M217 25.145V28H207V12H216.797V14.855H210.154V18.6627H215.983V21.5653H210.154V25.1416H217V25.145Z" fill="black"/>
<path d="M129.978 9.44554C127.631 4.54334 121.972 2.58929 117.366 5.08651C116.358 5.6331 115.482 6.34708 114.753 7.18404L114.747 7.17721L102.498 20.2133L102.514 20.2304C99.9135 23.2127 99.1849 27.7152 101.018 31.5447C102.157 33.9224 104.093 35.6817 106.478 36.505C108.86 37.3317 111.399 37.1165 113.633 35.9072C114.416 35.4802 115.125 34.9438 115.755 34.3221L115.764 34.3323L115.966 34.1171C115.983 34.1 115.999 34.0829 116.015 34.0659C116.027 34.0556 116.034 34.042 116.047 34.0317L128.013 21.2962L128.004 21.286C128.087 21.204 128.171 21.1254 128.251 21.04C131.047 18.0645 131.869 13.3946 129.978 9.44554ZM126.794 17.7468C126.794 18.126 126.508 18.4301 126.152 18.4301H122.993V14.9866H120.12V18.4301H117.093C116.74 18.4301 116.451 18.126 116.451 17.7468V12.0043C116.451 11.8129 116.528 11.6319 116.66 11.5021L121.189 7.06106C121.433 6.81851 121.812 6.81851 122.059 7.06106L126.588 11.5021C126.72 11.6319 126.794 11.8129 126.794 12.0043V17.7468Z" fill="black"/>
</svg>
