<svg width="76" height="90" viewBox="0 0 76 90" fill="none" xmlns="http://www.w3.org/2000/svg">
<g clip-path="url(#clip0)">
<path d="M13.3374 37.6153C16.9232 27.4817 20.5032 17.3643 24.089 7.23066C25.585 3.00295 29.4663 1.05366 33.7185 2.54015C42.7635 5.68625 51.8076 8.8865 60.8183 12.1294C65.0429 13.6424 66.8611 17.6267 65.3708 21.8382C58.1878 42.1377 51.0049 62.4372 43.8219 82.7367C42.3259 86.9644 38.3369 88.8574 34.0742 87.349C25.1111 84.1774 16.1481 81.0059 7.18507 77.8343C2.93857 76.3317 1.0384 72.3729 2.53438 68.1452C6.13728 57.9632 9.73448 47.7973 13.3374 37.6153ZM27.9741 10.1669C21.7104 27.8684 15.481 45.4731 9.25157 63.0778C20.1271 66.9262 30.9703 70.763 41.7811 74.5884C48.0333 56.9191 54.2685 39.2983 60.5036 21.6774C49.6442 17.8349 38.8335 14.0095 27.9741 10.1669ZM18.7846 74.2766C17.9509 76.6325 19.2059 79.2191 21.5561 80.0507C23.89 80.8766 26.5316 79.5962 27.3538 77.2726C28.176 74.9489 26.8895 72.2967 24.5499 71.487C22.1721 70.6819 19.602 71.915 18.7846 74.2766Z" fill="#4476DF"/>
<path d="M27.9746 10.1653C38.834 14.0079 49.6447 17.8333 60.5041 21.6758C54.2632 39.3128 48.0338 56.9175 41.7815 74.5868C30.9546 70.7557 20.1276 66.9246 9.25206 63.0762C15.4815 45.4715 21.7109 27.8668 27.9746 10.1653Z" fill="white"/>
<path d="M18.7857 74.2751C19.6194 71.9192 22.1733 70.6804 24.5673 71.4912C26.8964 72.279 28.1991 74.937 27.3712 77.2767C26.549 79.6004 23.9074 80.8808 21.5735 80.0549C19.1909 79.2118 17.9521 76.631 18.7857 74.2751Z" fill="white"/>
</g>
<g clip-path="url(#clip1)">
<path d="M57.8101 66.8648C67.4165 66.8648 75.2041 59.0772 75.2041 49.4707C75.2041 39.8642 67.4165 32.0767 57.8101 32.0767C48.2036 32.0767 40.416 39.8642 40.416 49.4707C40.416 59.0772 48.2036 66.8648 57.8101 66.8648Z" fill="#4476DF"/>
<path d="M56.5873 40.5298C56.5873 39.871 56.5873 39.1438 56.5873 38.3909C57.3744 38.3909 58.1444 38.3909 58.9658 38.3909C58.9658 39.0069 58.9744 39.6144 58.9572 40.2218C58.9487 40.5127 59.0086 40.6411 59.3337 40.7266C61.2245 41.1972 62.7218 42.1897 63.4662 44.0805C63.6459 44.534 63.6972 45.0473 63.8255 45.5692C62.9614 45.5692 62.1999 45.5692 61.3871 45.5692C61.3187 44.8848 60.985 44.3286 60.4545 43.8666C58.9059 42.5233 56.1766 42.6602 54.782 44.1575C53.8323 45.1757 53.9863 46.5532 55.2269 47.2462C56.0483 47.6996 56.9637 48.0077 57.8707 48.2643C59.2481 48.6579 60.6342 49.0087 61.8235 49.8472C63.1411 50.7797 63.8683 52.0289 63.7314 53.6716C63.6031 55.2202 62.8159 56.4095 61.5411 57.2822C60.7711 57.8127 59.9155 58.1549 58.9658 58.3346C58.9658 59.0618 58.9658 59.7805 58.9658 60.542C58.1616 60.542 57.4001 60.542 56.5873 60.542C56.5873 59.8233 56.5873 59.0875 56.5873 58.3688C53.0623 57.5731 51.7532 55.1518 51.8217 53.3722C52.5404 53.3722 53.259 53.3636 53.9863 53.3807C54.0633 53.3807 54.1831 53.5005 54.2002 53.5775C54.4055 54.7582 55.2098 55.4085 56.245 55.7593C57.7851 56.2812 59.2653 56.1272 60.5401 55.0235C61.1732 54.4759 61.5753 53.7572 61.2844 52.9016C61.1475 52.4909 60.8224 52.046 60.4631 51.8407C59.7187 51.4129 58.9145 51.0706 58.0931 50.8225C56.7242 50.4118 55.321 50.1295 54.089 49.368C52.5061 48.4012 51.6249 47.0408 51.8302 45.15C52.0099 43.4645 52.9853 42.2581 54.4226 41.4453C55.0814 41.0689 55.8258 40.8464 56.5873 40.5298Z" fill="white"/>
</g>
<defs>
<clipPath id="clip0">
<rect width="43.8072" height="79.8838" fill="white" transform="translate(26.6484) rotate(19.4863)"/>
</clipPath>
<clipPath id="clip1">
<rect width="34.7881" height="34.7881" fill="white" transform="translate(40.416 32.0767)"/>
</clipPath>
</defs>
</svg>
