<svg width="19" height="16" viewBox="0 0 19 16" fill="none" xmlns="http://www.w3.org/2000/svg">
<path d="M18.3577 15.0463H17.7961V14.5235C17.7961 14.4654 17.7574 14.4267 17.6993 14.4267H17.1377V8.48171C17.1377 8.30742 17.0021 8.17186 16.8279 8.17186H12.1223V6.50651H12.5483C12.8968 6.50651 13.0711 6.08048 12.8 5.84811L9.48867 2.76914C9.44994 2.74978 9.43058 2.71105 9.39185 2.71105V1.60726H10.8442C10.941 1.60726 11.0378 1.5298 11.0378 1.41362V0.484116C11.0378 0.387293 10.9604 0.290469 10.8442 0.290469H9.39185V0.116183C9.39185 0.0580892 9.33375 0 9.27565 0H9.17883C9.12073 0 9.06265 0.0580892 9.06265 0.116183V2.71105C9.02392 2.73041 9.00455 2.74978 8.96582 2.76914L5.65447 5.84811C5.40273 6.08048 5.57701 6.50651 5.90621 6.50651H6.33224V8.1525H1.62662C1.45234 8.1525 1.31679 8.28805 1.31679 8.46233V14.4073H0.755214C0.69712 14.4073 0.65839 14.446 0.65839 14.5041V15.0269H0.0968232C0.0387293 15.0269 0 15.0657 0 15.1238V15.5885C0 15.6466 0.0387293 15.6854 0.0968232 15.6854H18.2996C18.3577 15.6854 18.3964 15.6466 18.3964 15.5885V15.1238C18.4545 15.1044 18.4158 15.0463 18.3577 15.0463ZM3.79546 13.381H2.49803V11.9286H3.79546V13.381ZM3.79546 10.7474H2.49803V9.29502H3.79546V10.7474ZM6.23541 13.381H4.93798V11.9286H6.23541V13.381ZM6.23541 10.7474H4.93798V9.29502H6.23541V10.7474ZM7.39729 9.29502H8.69471V10.7474H7.39729V9.29502ZM9.04329 15.0657H7.39729V11.9286H9.04329V15.0657ZM9.12074 7.68775V8.03632C8.75281 8.01696 8.42361 7.86203 8.1525 7.62966L8.38488 7.37792L8.2106 7.20363L7.97823 7.43601C7.74585 7.16491 7.6103 6.83571 7.57157 6.46778H7.92013V6.19668H7.57157C7.59093 5.82875 7.74585 5.49956 7.97823 5.22845L8.2106 5.46082L8.38488 5.26717L8.1525 5.0348C8.44297 4.78306 8.83027 4.62814 9.25629 4.62814C9.68231 4.62814 10.0696 4.78306 10.3601 5.0348L10.1277 5.26717L10.302 5.46082L10.5344 5.22845C10.7667 5.49956 10.9023 5.82875 10.941 6.19668H10.5925V6.46778H10.941C10.9217 6.83571 10.7667 7.16491 10.5344 7.43601L10.302 7.20363L10.1277 7.37792L10.3601 7.62966C10.089 7.86203 9.75977 7.99759 9.39185 8.03632V7.68775H9.12074ZM11.1153 9.29502V10.7474H9.81787V9.29502H11.1153ZM11.1153 15.0657H9.4693V11.9286H11.1153V15.0657ZM13.5746 13.381H12.2772V11.9286H13.5746V13.381ZM13.5746 10.7474H12.2772V9.29502H13.5746V10.7474ZM16.0146 13.381H14.7171V11.9286H16.0146V13.381ZM16.0146 10.7474H14.7171V9.29502H16.0146V10.7474Z" fill="white"/>
<path d="M10.244 6.1967H9.39196V4.97672H9.12085V6.46779H10.244V6.1967Z" fill="white"/>
</svg>
