<svg width="26" height="24" viewBox="0 0 26 24" fill="none" xmlns="http://www.w3.org/2000/svg">
<path d="M14.8991 4.73197C13.2296 1.2085 10.0501 -0.779897 7.79664 0.288994C5.54322 1.35789 5.07247 5.08484 6.74196 8.60832C8.33428 11.9695 11.3003 13.927 13.5254 13.1724C13.5434 12.6212 13.4354 11.3205 12.2572 9.99916C9.89058 7.33852 8.91307 5.22135 8.65583 2.17951C8.64662 2.07329 8.67993 1.96776 8.74843 1.88613C8.81693 1.80449 8.91502 1.75345 9.02111 1.74423C9.1272 1.73501 9.2326 1.76836 9.31413 1.83695C9.39566 1.90554 9.44663 2.00375 9.45584 2.10997C9.71308 4.95606 10.6314 6.9496 12.872 9.46085C13.7125 10.3678 14.2259 11.5301 14.3306 12.7628C16.1518 11.4286 16.4425 7.99274 14.8991 4.73197Z" fill="white"/>
<path d="M9.49685 19.135C6.12957 18.9418 4.53982 18.3314 2.10633 16.2863C2.06305 16.2534 2.02689 16.2121 2.00003 16.1648C1.97317 16.1176 1.95618 16.0653 1.95008 16.0113C1.94398 15.9573 1.9489 15.9025 1.96454 15.8505C1.98018 15.7984 2.00622 15.75 2.04108 15.7083C2.07594 15.6666 2.11889 15.6324 2.16733 15.6078C2.21578 15.5832 2.2687 15.5687 2.3229 15.5652C2.37711 15.5617 2.43146 15.5692 2.48266 15.5874C2.53387 15.6055 2.58087 15.6339 2.62081 15.6707C4.95141 17.6231 6.30706 18.1459 9.54315 18.3314C11.0048 18.4465 12.4037 18.9753 13.5767 19.8561C14.014 17.5844 11.776 14.8929 8.33155 13.6746C4.6633 12.3507 1.00791 13.1955 0.171877 15.5497C-0.664155 17.9038 1.63043 20.8684 5.30125 22.1768C8.77143 23.4157 12.2236 22.7254 13.2963 20.6572C12.7381 20.2167 11.3181 19.238 9.49685 19.135Z" fill="white"/>
<path d="M23.2232 10.0584C20.8746 9.21874 17.9112 11.5188 16.6019 15.1917C15.362 18.6791 16.0591 22.1459 18.1453 23.2071C18.9595 22.2411 19.4372 21.0358 19.5061 19.7737C19.699 16.3868 20.4502 14.4241 22.485 11.9927C22.5564 11.9226 22.6514 11.8815 22.7514 11.8774C22.8514 11.8734 22.9493 11.9067 23.0262 11.9708C23.1031 12.035 23.1534 12.1255 23.1675 12.2247C23.1816 12.3239 23.1583 12.4248 23.1023 12.5078C21.1705 14.8156 20.4913 16.5928 20.3216 19.8201C20.2505 21.151 19.7778 22.429 18.9659 23.4852C21.227 23.8947 23.8972 21.6642 25.1217 18.2283C26.4156 14.5529 25.5718 10.8955 23.2232 10.0584Z" fill="white"/>
</svg>
