<svg width="22" height="19" viewBox="0 0 22 19" fill="none" xmlns="http://www.w3.org/2000/svg">
<path d="M18.9112 5.91404V3.53008L20.7908 2.59026C20.9054 2.52149 20.9054 2.38395 20.7908 2.31518L18.9112 1.37536V1.12321C18.9112 0.825214 18.6819 0.595988 18.3839 0.595988C18.0859 0.595988 17.8567 0.825214 17.8567 1.12321V5.68481C16.5501 5.45558 15.106 5.31805 13.8911 5.24928V2.95702L15.7708 2.01719C15.8854 1.97135 15.8854 1.81089 15.7708 1.74212L13.8911 0.802292V0.550143C13.8911 0.252149 13.6619 0.0229227 13.3639 0.0229227C13.0659 0.0229227 12.8367 0.275072 12.8367 0.550143V5.18051C11.7593 5.13467 10.9799 5.13467 10.8653 5.13467C10.7507 5.13467 9.97134 5.13467 8.87105 5.18051V2.9341L10.7507 1.99427C10.8653 1.94842 10.8653 1.78796 10.7507 1.7192L8.87105 0.779369V0.52722C8.87105 0.229226 8.64183 0 8.34383 0C8.04584 0 7.81661 0.252149 7.81661 0.52722V5.22636C6.57879 5.29512 5.13467 5.43266 3.851 5.66189V3.48424L5.73065 2.54441C5.84527 2.47564 5.84527 2.33811 5.73065 2.26934L3.851 1.32951V1.07736C3.851 0.779369 3.59885 0.550143 3.32378 0.550143C3.02579 0.550143 2.79656 0.779369 2.79656 1.07736V5.86819C1.19198 6.25787 0 6.83094 0 7.702C0 7.72492 0.916905 15.2665 0.916905 15.2665C0.985672 15.7708 1.30659 16.2292 1.76504 16.4126C3.30086 17.0773 5.75358 17.5129 8.55014 17.6733C8.57306 18.0172 8.84813 18.2693 9.16905 18.2693H12.6074C12.9284 18.2693 13.2034 18.0172 13.2264 17.6733C16.0229 17.5129 18.4756 17.0773 20.0114 16.4126C20.4928 16.2063 20.8137 15.7708 20.8825 15.2665L21.7994 7.702C21.7306 6.87678 20.5157 6.30372 18.9112 5.91404ZM12.149 17.2837H9.53581L9.30658 14.1203C10.2693 13.4556 11.4155 13.4556 12.3782 14.1203L12.149 17.2837ZM19.7822 15.1977C19.7593 15.3352 19.6905 15.4498 19.553 15.5186C18.1776 16.1146 15.8625 16.5272 13.2722 16.6877L13.4556 14.0974C13.4785 13.8223 13.3639 13.5473 13.1805 13.4097C11.7593 12.3324 9.97134 12.3324 8.55014 13.4097C8.34383 13.5473 8.25214 13.8223 8.27506 14.0974L8.45845 16.6877C5.84527 16.5272 3.55301 16.1146 2.17765 15.5186C2.06304 15.4498 1.97135 15.3582 1.94842 15.1977L1.19198 9.05443C3.94269 10.3152 10.4986 10.3381 10.8424 10.3381C11.1862 10.3381 17.7421 10.3152 20.5157 9.05443L19.7822 15.1977ZM18.8195 8.52721C18.0172 7.97707 14.7622 7.54154 10.8424 7.54154C6.92263 7.54154 3.6447 7.95415 2.86533 8.52721C1.78796 8.25214 1.16905 7.97707 1.03152 7.74785C1.37536 7.17478 4.85959 6.21203 10.8424 6.21203C16.8252 6.21203 20.3094 7.17478 20.6533 7.74785C20.5157 7.97707 19.8968 8.25214 18.8195 8.52721Z" fill="white"/>
</svg>
