<svg width="20" height="20" viewBox="0 0 20 20" fill="none" xmlns="http://www.w3.org/2000/svg">
<path d="M19.413 15.6922V14.8833C19.413 14.8154 19.3916 14.7493 19.3519 14.6942C19.3122 14.6391 19.2561 14.5979 19.1917 14.5765C19.1273 14.555 19.0577 14.5544 18.9929 14.5746C18.9281 14.5949 18.8713 14.635 18.8306 14.6893L18.2484 15.4657C18.1262 15.6287 17.9557 15.7491 17.7613 15.8098C17.5668 15.8706 17.3582 15.8686 17.1649 15.8042C16.9716 15.7398 16.8035 15.6162 16.6843 15.4509C16.5652 15.2856 16.5011 15.0871 16.5011 14.8833V12.6185C16.5006 12.1896 16.33 11.7784 16.0267 11.4751C15.7234 11.1718 15.3122 11.0012 14.8833 11.0007H14.506C14.3955 10.7667 14.2456 10.5534 14.0629 10.3701L13.5891 9.89626V3.55906C13.5881 2.61546 13.2128 1.71082 12.5455 1.0436C11.8783 0.37638 10.9737 0.00106618 10.0301 1.09427e-08C9.98758 -1.10414e-05 9.9455 0.00835034 9.90624 0.0246064C9.86698 0.0408624 9.83131 0.0646945 9.80126 0.0947412C9.77122 0.124788 9.74738 0.16046 9.73113 0.19972C9.71487 0.23898 9.70651 0.281058 9.70652 0.323551V1.64398C9.59944 1.62746 9.49131 1.6187 9.38297 1.61775H7.11812C6.68906 1.61775 6.27758 1.78819 5.97419 2.09158C5.6708 2.39497 5.50036 2.80645 5.50036 3.23551C5.50036 3.66456 5.6708 4.07604 5.97419 4.37943C6.27758 4.68282 6.68906 4.85326 7.11812 4.85326C7.37546 4.85354 7.62219 4.9559 7.80416 5.13787C7.98613 5.31984 8.08849 5.56657 8.08877 5.82391V6.47101H6.41303C6.19391 6.47082 5.97706 6.51534 5.77573 6.60183L4.21611 7.27041C3.84518 7.42876 3.54709 7.72042 3.3807 8.08782L1.97037 11.1903C1.94796 11.2396 1.93828 11.2937 1.9422 11.3477C1.94613 11.4017 1.96354 11.4539 1.99284 11.4994C2.02214 11.5449 2.0624 11.5823 2.10992 11.6083C2.15744 11.6342 2.21072 11.6478 2.26485 11.6478H3.88261C3.94594 11.6478 4.00789 11.6293 4.06075 11.5944C4.11361 11.5595 4.15506 11.5098 4.17995 11.4516L5.02437 9.48187C5.0441 9.43609 5.07409 9.39546 5.11203 9.36313C5.14998 9.33081 5.19485 9.30765 5.24318 9.29545L5.87022 9.13873C5.92446 9.12502 5.98134 9.12564 6.03526 9.14054C6.08919 9.15544 6.13831 9.18411 6.17782 9.22372L6.51037 9.55612C6.65635 9.70181 6.82888 9.8182 7.01864 9.89898C7.30087 10.9243 7.84402 11.859 8.59512 12.6118L9.11264 13.1292C9.1173 13.5494 9.28658 13.9509 9.5841 14.2476L10.705 15.3687L8.6019 17.4717H0.323551C0.281058 17.4717 0.23898 17.4801 0.19972 17.4963C0.16046 17.5126 0.124788 17.5364 0.0947412 17.5665C0.0646945 17.5965 0.0408624 17.6322 0.0246064 17.6715C0.00835034 17.7107 -1.10414e-05 17.7528 1.09427e-08 17.7953V19.0895C-1.10414e-05 19.132 0.00835034 19.1741 0.0246064 19.2133C0.0408624 19.2526 0.0646945 19.2883 0.0947412 19.3183C0.124788 19.3483 0.16046 19.3722 0.19972 19.3884C0.23898 19.4047 0.281058 19.4131 0.323551 19.413H19.0895C19.132 19.4131 19.1741 19.4047 19.2133 19.3884C19.2526 19.3722 19.2883 19.3483 19.3183 19.3183C19.3483 19.2883 19.3722 19.2526 19.3884 19.2133C19.4047 19.1741 19.4131 19.132 19.413 19.0895V17.7953C19.4131 17.7528 19.4047 17.7107 19.3884 17.6715C19.3722 17.6322 19.3483 17.5965 19.3183 17.5665C19.2883 17.5364 19.2526 17.5126 19.2133 17.4963C19.1741 17.4801 19.132 17.4717 19.0895 17.4717H18.6307C18.8771 17.2454 19.0739 16.9704 19.2086 16.6641C19.3432 16.3578 19.4129 16.0268 19.413 15.6922ZM14.5598 13.5891V15.6922C14.56 16.0268 14.6296 16.3578 14.7642 16.6641C14.8989 16.9704 15.0957 17.2454 15.3422 17.4717H11.4583L13.8179 15.1121C13.848 15.082 13.8718 15.0464 13.8881 15.0071C13.9043 14.9679 13.9127 14.9258 13.9127 14.8833C13.9127 14.8408 13.9043 14.7988 13.8881 14.7595C13.8718 14.7203 13.848 14.6846 13.8179 14.6546L13.3996 14.2362L14.063 13.5727C14.1526 13.4821 14.2344 13.3842 14.3077 13.2801C14.3786 13.2953 14.4422 13.3342 14.488 13.3904C14.5338 13.4466 14.5591 13.5167 14.5598 13.5891V13.5891ZM10.3536 0.66511C11.0651 0.745552 11.7221 1.08496 12.1995 1.61866C12.6768 2.15236 12.9411 2.84303 12.942 3.55906V9.24916L11.932 8.23917C11.8416 8.14919 11.77 8.04219 11.7212 7.92433C11.6724 7.80648 11.6475 7.68012 11.6478 7.55257V4.97711C12.0078 4.56619 12.1982 4.0339 12.1806 3.4879C12.163 2.94191 11.9387 2.42298 11.553 2.0361C11.523 2.00605 11.4873 1.98221 11.4481 1.96595C11.4088 1.94968 11.3668 1.94131 11.3243 1.94131C11.2818 1.94131 11.2397 1.94968 11.2005 1.96595C11.1612 1.98221 11.1255 2.00605 11.0955 2.0361L10.9153 2.21626C10.748 2.06311 10.5587 1.93594 10.3536 1.83901V0.66511ZM11.3912 15.5974C11.4213 15.5674 11.4451 15.5317 11.4614 15.4925C11.4777 15.4532 11.486 15.4111 11.486 15.3686C11.486 15.3262 11.4777 15.2841 11.4614 15.2448C11.4451 15.2056 11.4213 15.1699 11.3912 15.1399L10.0416 13.7901C9.95144 13.7 9.87992 13.593 9.83113 13.4752C9.78234 13.3575 9.75722 13.2313 9.75722 13.1038C9.75722 12.9763 9.78234 12.8501 9.83113 12.7324C9.87992 12.6146 9.95144 12.5076 10.0416 12.4175L11.553 10.9059L11.0955 10.4484L9.58409 11.96C9.46185 12.085 9.36079 12.229 9.28487 12.3865L9.05263 12.1543C8.45611 11.5567 8.00502 10.8299 7.73421 10.0301H8.73587V9.38297H7.65415C7.39688 9.38221 7.15028 9.28003 6.96787 9.0986L6.63532 8.7662C6.51657 8.64799 6.36936 8.56238 6.20788 8.51766C6.0464 8.47294 5.87612 8.47061 5.71348 8.5109L5.08628 8.66762C4.94124 8.7043 4.80658 8.77384 4.6927 8.87087C4.57883 8.9679 4.48879 9.08982 4.42955 9.2272L3.66933 11.0007H2.7674L3.96982 8.35576C4.06962 8.13529 4.24842 7.96021 4.47094 7.86506L6.0304 7.19679C6.15127 7.14485 6.28147 7.11808 6.41303 7.11812H8.41232C8.45481 7.11813 8.49689 7.10976 8.53615 7.09351C8.57541 7.07725 8.61108 7.05342 8.64113 7.02337C8.67117 6.99333 8.69501 6.95766 8.71126 6.9184C8.72752 6.87914 8.73588 6.83706 8.73587 6.79456V5.82391C8.73537 5.39501 8.56476 4.98382 8.26148 4.68054C7.95821 4.37727 7.54702 4.20666 7.11812 4.20616C6.86068 4.20616 6.61379 4.10389 6.43176 3.92186C6.24973 3.73983 6.14746 3.49294 6.14746 3.23551C6.14746 2.97807 6.24973 2.73118 6.43176 2.54915C6.61379 2.36712 6.86068 2.26485 7.11812 2.26485H9.38297C9.77913 2.2653 10.1614 2.41092 10.4574 2.67417L9.47777 3.65386L9.93527 4.11136L11.2995 2.74701C11.484 3.0365 11.5644 3.38027 11.5273 3.72159C11.4903 4.06291 11.338 4.3814 11.0955 4.62451L10.772 4.94806L11.0007 5.17681V7.55257C11.0001 7.76513 11.0417 7.9757 11.123 8.17209C11.2043 8.36848 11.3238 8.54678 11.4745 8.69669L13.6054 10.8276C13.7556 10.9778 13.8748 11.1561 13.9561 11.3524C14.0374 11.5486 14.0792 11.759 14.0792 11.9714C14.0792 12.1838 14.0374 12.3941 13.9561 12.5904C13.8748 12.7867 13.7556 12.965 13.6054 13.1152L12.942 13.7787L12.5237 13.3604L12.0662 13.8179L13.1316 14.8833L10.5432 17.4717H9.51694L11.3912 15.5974ZM18.7659 18.1188V18.7659H0.647101V18.1188H18.7659ZM15.2069 15.6922V13.5891C15.2066 13.3972 15.1495 13.2096 15.0428 13.0501C14.9361 12.8906 14.7845 12.7663 14.6071 12.6928C14.6857 12.4604 14.7259 12.2167 14.7263 11.9714C14.7255 11.8631 14.7169 11.7549 14.7008 11.6478H14.8833C15.1407 11.6481 15.3874 11.7505 15.5694 11.9324C15.7513 12.1144 15.8537 12.3611 15.854 12.6185V14.8833C15.854 15.2217 15.9601 15.5515 16.1574 15.8264C16.3546 16.1013 16.633 16.3074 16.9535 16.4158C17.274 16.5242 17.6205 16.5294 17.9441 16.4307C18.2677 16.3319 18.5522 16.1342 18.7576 15.8654C18.7131 16.3202 18.4954 16.7404 18.1495 17.0391C17.8037 17.3377 17.3562 17.4919 16.8998 17.4697C16.4433 17.4474 16.013 17.2504 15.6978 16.9195C15.3827 16.5886 15.2069 16.1492 15.2069 15.6922V15.6922Z" fill="white"/>
</svg>
