<svg width="19" height="12" viewBox="0 0 19 12" fill="none" xmlns="http://www.w3.org/2000/svg">
<path d="M18.3189 11.1347H17.8542V10.6893C17.8542 10.6505 17.8155 10.6118 17.7767 10.6118H17.312V7.06808H12.2578V11.6769H18.3189C18.3577 11.6769 18.3964 11.6381 18.3964 11.5994V11.2121C18.3964 11.154 18.3577 11.1347 18.3189 11.1347ZM14.3105 9.5274H13.226V8.30743H14.3105V9.5274ZM16.3438 9.5274H15.2593V8.30743H16.3438V9.5274Z" fill="white"/>
<path d="M1.08441 10.6118H0.619671C0.580941 10.6118 0.542207 10.6505 0.542207 10.6893V11.1347H0.0774633C0.038734 11.1347 0 11.1734 0 11.2121V11.5994C0 11.6381 0.038734 11.6769 0.0774633 11.6769H6.13859V7.06808H1.10379V10.6118H1.08441ZM4.08593 8.30743H5.17036V9.5274H4.08593V8.30743ZM2.05265 8.30743H3.13707V9.5274H2.05265V8.30743Z" fill="white"/>
<path d="M12.2578 6.77762H17.7767C17.9704 6.77762 18.1059 6.58398 18.0285 6.4097L16.4987 2.74978C16.46 2.65296 16.3631 2.57549 16.2469 2.57549H9.29504V1.33616H10.515C10.5925 1.33616 10.6699 1.25871 10.6699 1.18125V0.406664C10.6699 0.329206 10.5925 0.251738 10.515 0.251738H9.29504V0.0968232C9.29504 0.0387293 9.25631 0 9.19822 0H9.12076C9.06266 0 9.02393 0.0387293 9.02393 0.0968232V2.57549H2.13013C2.01394 2.57549 1.91712 2.63359 1.87839 2.74978L0.348579 6.4097C0.271121 6.58398 0.406671 6.77762 0.600317 6.77762H6.11924V4.06657H12.2578V6.77762V6.77762Z" fill="white"/>
<path d="M9.8759 6.19669H9.29496V5.36401H9.10132V6.39034H9.8759V6.19669Z" fill="white"/>
<path d="M6.40991 11.6962H11.9676V4.35706H6.40991V11.6962ZM10.9025 11.1347H9.39207V8.30745H10.9025V11.1347ZM8.03655 6.1967C8.05591 5.94496 8.15274 5.71259 8.30766 5.53831L8.48193 5.71258L8.61748 5.57703L8.4432 5.40275C8.63684 5.22847 8.90795 5.13164 9.19842 5.13164C9.48889 5.13164 9.74064 5.22847 9.95365 5.40275L9.77936 5.57703L9.91492 5.71258L10.0892 5.53831C10.2441 5.71259 10.3409 5.94496 10.3603 6.1967H10.1279V6.37098H10.3603C10.3409 6.62272 10.2441 6.85509 10.0892 7.02937L9.91492 6.8551L9.77936 6.99065L9.95365 7.16493C9.77937 7.31984 9.54699 7.41667 9.29525 7.43604V7.20366H9.12096V7.43604C8.86922 7.41667 8.63685 7.31984 8.46257 7.16493L8.63684 6.99065L8.5013 6.8551L8.32702 7.02937C8.1721 6.85509 8.07527 6.62272 8.05591 6.37098H8.28828V6.1967H8.03655ZM7.49434 8.30745H9.00478V11.1347H7.49434V8.30745Z" fill="white"/>
</svg>
