<svg width="22" height="19" viewBox="0 0 22 19" fill="none" xmlns="http://www.w3.org/2000/svg">
<path d="M10.9998 5.63327C11.3971 5.63374 11.7856 5.51623 12.1161 5.29561C12.4466 5.07499 12.7043 4.76117 12.8566 4.39389C13.0088 4.0266 13.0488 3.62236 12.9714 3.23234C12.894 2.84231 12.7028 2.48403 12.4219 2.20286C12.1409 1.92168 11.783 1.73024 11.3933 1.65278C11.0037 1.57532 10.5998 1.61532 10.2329 1.76771C9.86591 1.9201 9.55239 2.17804 9.33197 2.50887C9.11156 2.83969 8.99415 3.22854 8.99463 3.62618C8.99527 4.1583 9.20673 4.66844 9.58265 5.0447C9.95856 5.42097 10.4682 5.63263 10.9998 5.63327V5.63327ZM10.9998 1.97768C11.3257 1.9772 11.6444 2.07348 11.9155 2.25433C12.1867 2.43518 12.3981 2.69248 12.5232 2.99366C12.6482 3.29484 12.6811 3.62638 12.6179 3.94631C12.5546 4.26625 12.3979 4.56021 12.1677 4.791C11.9375 5.02179 11.644 5.17903 11.3244 5.24284C11.0049 5.30664 10.6736 5.27413 10.3725 5.14943C10.0715 5.02473 9.81409 4.81344 9.63301 4.54229C9.45194 4.27115 9.35528 3.95233 9.35528 3.62618C9.35528 3.18939 9.52847 2.77045 9.83682 2.46137C10.1452 2.15228 10.5635 1.97832 10.9998 1.97768V1.97768Z" fill="white"/>
<path d="M21.8195 17.5579H21.0093V16.7637C21.0086 16.7161 20.9894 16.6705 20.9558 16.6368C20.9221 16.6031 20.8766 16.5839 20.8289 16.5832H20.1966V15.7891C20.196 15.7414 20.1768 15.6958 20.1431 15.6621C20.1094 15.6284 20.0639 15.6092 20.0163 15.6086H19.5354V13.1587C19.5354 13.1108 19.5164 13.0649 19.4826 13.0311C19.4488 12.9972 19.4029 12.9782 19.3551 12.9782H19.0738V8.49955H19.3551C19.4027 8.49893 19.4482 8.47971 19.4819 8.446C19.5156 8.41228 19.5348 8.36674 19.5354 8.31906V7.59709H20.1966C20.2442 7.59646 20.2897 7.57725 20.3234 7.54353C20.3571 7.50982 20.3763 7.46427 20.3769 7.41659V6.37936H21.8195C21.8597 6.37865 21.8985 6.36488 21.9302 6.34014C21.9619 6.31539 21.9846 6.28101 21.995 6.24218C22.0043 6.20339 22.0006 6.16264 21.9845 6.12615C21.9684 6.08965 21.9409 6.05941 21.9061 6.04003L11.0866 0.0235931C11.0603 0.0081456 11.0304 0 11 0C10.9696 0 10.9397 0.0081456 10.9134 0.0235931L0.0939169 6.04003C0.059099 6.05941 0.0315636 6.08965 0.0155039 6.12615C-0.000555755 6.16264 -0.00425963 6.20339 0.00495633 6.24218C0.0153837 6.28101 0.0381451 6.31539 0.0698062 6.34014C0.101467 6.36488 0.14031 6.37865 0.180473 6.37936H1.50286V7.40215C1.50348 7.44983 1.52268 7.49538 1.55636 7.52909C1.59005 7.56281 1.63555 7.58202 1.68319 7.58265H2.40449V8.30462C2.40285 8.32943 2.40629 8.35431 2.41458 8.37775C2.42288 8.40119 2.43586 8.42268 2.45274 8.44093C2.46962 8.45917 2.49003 8.47378 2.51274 8.48386C2.53545 8.49394 2.55997 8.49928 2.58481 8.49955H2.86612V12.9782H2.58481C2.53699 12.9782 2.49112 12.9972 2.4573 13.0311C2.42349 13.0649 2.40449 13.1108 2.40449 13.1587V15.6086H1.98373C1.9361 15.6092 1.89059 15.6284 1.85691 15.6621C1.82322 15.6958 1.80402 15.7414 1.8034 15.7891V16.5832H1.17347C1.12564 16.5832 1.07977 16.6023 1.04596 16.6361C1.01214 16.67 0.99314 16.7159 0.99314 16.7637V17.5579H0.180473C0.132648 17.5579 0.0867813 17.5769 0.0529637 17.6108C0.0191461 17.6446 0.000147653 17.6905 0.000147653 17.7384V18.7155C0.000770368 18.7631 0.0199688 18.8087 0.0536523 18.8424C0.0873358 18.8761 0.132841 18.8953 0.180473 18.896H21.8195C21.8672 18.8953 21.9127 18.8761 21.9463 18.8424C21.98 18.8087 21.9992 18.7631 21.9999 18.7155V17.7384C21.9999 17.6905 21.9809 17.6446 21.947 17.6108C21.9132 17.5769 21.8674 17.5579 21.8195 17.5579ZM21.6392 18.535H0.360799V17.9189H21.6392V18.535ZM2.76514 13.3392H5.00358V15.6062H2.76514V13.3392ZM11 0.386986L21.1247 6.01837H0.875327L11 0.386986ZM1.86351 6.37936H20.0163V7.22166H1.86351V6.37936ZM18.7131 12.9782H17.4004V8.49955H18.7131V12.9782ZM5.1839 12.9782H4.90019V8.49955H5.1839C5.23153 8.49893 5.27704 8.47971 5.31072 8.446C5.34441 8.41228 5.36361 8.36674 5.36423 8.31906V7.59709H6.36924V8.31906C6.36987 8.36674 6.38906 8.41228 6.42275 8.446C6.45643 8.47971 6.50194 8.49893 6.54957 8.49955H6.83088V12.9782H6.54957C6.50174 12.9782 6.45588 12.9972 6.42206 13.0311C6.38824 13.0649 6.36924 13.1108 6.36924 13.1587V15.6086H5.36423V13.1587C5.36423 13.1108 5.34523 13.0649 5.31141 13.0311C5.2776 12.9972 5.23173 12.9782 5.1839 12.9782ZM16.756 8.49955H17.0397V12.9782H16.756C16.7082 12.9782 16.6623 12.9972 16.6285 13.0311C16.5947 13.0649 16.5757 13.1108 16.5757 13.1587V15.6086H15.5682V13.1587C15.5682 13.1108 15.5492 13.0649 15.5154 13.0311C15.4816 12.9972 15.4357 12.9782 15.3879 12.9782H15.109V8.49955H15.3903C15.438 8.49893 15.4835 8.47971 15.5171 8.446C15.5508 8.41228 15.57 8.36674 15.5706 8.31906V7.59709H16.5757V8.31906C16.5763 8.36674 16.5955 8.41228 16.6292 8.446C16.6629 8.47971 16.7084 8.49893 16.756 8.49955ZM9.32898 15.6086V13.1587C9.32898 13.1108 9.30999 13.0649 9.27617 13.0311C9.24235 12.9972 9.19648 12.9782 9.14866 12.9782H8.86735V8.49955H9.14866C9.19629 8.49893 9.2418 8.47971 9.27548 8.446C9.30916 8.41228 9.32836 8.36674 9.32898 8.31906V7.59709H12.6109V8.31906C12.6115 8.36674 12.6307 8.41228 12.6644 8.446C12.6981 8.47971 12.7436 8.49893 12.7912 8.49955H13.0749V12.9782H12.7912C12.7434 12.9782 12.6975 12.9972 12.6637 13.0311C12.6299 13.0649 12.6109 13.1108 12.6109 13.1587V15.6086H9.32898ZM8.96833 15.6086H6.72989V13.3392H8.96833V15.6086ZM6.72989 7.58505H8.96833V8.13375H6.72989V7.58505ZM8.5067 8.49955V12.9782H7.19153V8.49955H8.5067ZM12.9716 7.58505H15.21V8.13375H12.9716V7.58505ZM14.7484 12.9782H13.4356V8.49955H14.7484V12.9782ZM15.21 15.6062H12.9716V13.3392H15.21V15.6062ZM19.1748 15.6062H16.9363V13.3392H19.1748V15.6062ZM19.1748 8.13375H16.9363V7.58505H19.1748V8.13375ZM2.76514 7.58505H5.00358V8.13375H2.76514V7.58505ZM4.53954 8.49955V12.9782H3.22677V8.49955H4.53954ZM19.8359 15.9599V16.5736H2.16405V15.9599H19.8359ZM20.6486 16.9226V17.5362H1.35379V16.9442L20.6486 16.9226Z" fill="white"/>
<path d="M12.0609 3.82741H11.129V2.45685H10.8325V4.13197H12.0609V3.82741Z" fill="white"/>
</svg>
