<svg width="21" height="23" viewBox="0 0 21 23" fill="none" xmlns="http://www.w3.org/2000/svg">
<path d="M15.2206 15.5556H4.90161V16.2522H15.2206V15.5556Z" fill="white"/>
<path d="M5.24968 16.2522H0.683594V0.812637H1.38014V15.5556H4.55313V12.9525C4.55313 11.9558 4.30667 10.9663 3.84065 10.091L3.70795 9.84167L3.92442 9.66039C6.50279 7.50058 8.08269 4.47522 8.3732 1.14132L9.06709 1.20175C8.76851 4.6295 7.17886 7.74826 4.58235 10.0142C5.01982 10.9262 5.24979 11.936 5.24979 12.9525V16.2522H5.24968Z" fill="white"/>
<path d="M4.4368 10.2766H1.03162C0.839393 10.2766 0.68335 10.1207 0.68335 9.92829C0.68335 9.73595 0.839393 9.58012 1.03162 9.58012H4.4368C4.62925 9.58012 4.78507 9.73595 4.78507 9.92829C4.78507 10.1207 4.62925 10.2766 4.4368 10.2766Z" fill="white"/>
<path d="M19.4377 16.2522H14.8716V12.9525C14.8716 11.936 15.1017 10.9261 15.5393 10.0142C12.9405 7.74627 11.3505 4.62463 11.054 1.19401L11.7478 1.13392C12.0365 4.47058 13.6166 7.49871 16.1972 9.66029L16.4136 9.84168L16.2807 10.0909C15.8146 10.9661 15.5683 11.9556 15.5683 12.9524V15.5555H18.7413V0.836548H19.4378V16.2522H19.4377Z" fill="white"/>
<path d="M19.0899 10.2766H15.6846C15.4924 10.2766 15.3364 10.1208 15.3364 9.92833C15.3364 9.73599 15.4924 9.58017 15.6846 9.58017H19.0899C19.2821 9.58017 19.438 9.73599 19.438 9.92833C19.438 10.1208 19.2821 10.2766 19.0899 10.2766Z" fill="white"/>
<path d="M20.1216 21.4372H0V22.1338H20.1216V21.4372Z" fill="white"/>
<path d="M12.0862 18.535H11.3897V18.3803C11.3897 18.2254 11.3292 18.0796 11.2196 17.97C11.11 17.8604 10.9642 17.7999 10.8093 17.7999H9.31303C9.15809 17.7999 9.01223 17.8602 8.90267 17.97C8.79289 18.0796 8.73257 18.2254 8.73257 18.3803V18.535H8.03613V18.3803C8.03613 18.0394 8.16905 17.7186 8.41008 17.4775C8.65123 17.2362 8.97195 17.1034 9.31314 17.1034H10.8094C11.1504 17.1034 11.4711 17.2362 11.7122 17.4775C11.9534 17.7187 12.0863 18.0394 12.0863 18.3803V18.535H12.0862Z" fill="white"/>
<path d="M16.9878 18.535H16.2912V18.3803C16.2912 18.2254 16.2307 18.0796 16.1211 17.97C16.0114 17.8604 15.8657 17.7999 15.7108 17.7999H14.2144C14.0595 17.7999 13.9137 17.8604 13.804 17.97C13.6945 18.0796 13.6339 18.2254 13.6339 18.3803V18.535H12.9375V18.3803C12.9375 18.0394 13.0703 17.7186 13.3116 17.4775C13.5528 17.2363 13.8734 17.1034 14.2144 17.1034H15.7108C16.0517 17.1034 16.3724 17.2362 16.6136 17.4775C16.8547 17.7187 16.9878 18.0394 16.9878 18.3803V18.535V18.535Z" fill="white"/>
<path d="M7.18454 18.5351H6.48799V18.3803C6.48799 18.2254 6.42756 18.0796 6.31778 17.97C6.208 17.8604 6.06224 17.7999 5.90753 17.7999H4.41118C4.25613 17.7999 4.11038 17.8602 4.00082 17.97C3.89125 18.0796 3.83072 18.2254 3.83072 18.3803V18.5351H3.13428V18.3803C3.13428 18.0394 3.26697 17.7186 3.50823 17.4775C3.74949 17.2362 4.07009 17.1034 4.41129 17.1034H5.90764C6.24872 17.1034 6.56922 17.2362 6.81037 17.4775C7.05162 17.7188 7.18465 18.0394 7.18465 18.3803V18.5351H7.18454Z" fill="white"/>
<path d="M4.73372 21.7856H4.03717V20.5473C4.03717 20.3925 3.97674 20.2467 3.86696 20.137C3.75751 20.0273 3.61165 19.967 3.45671 19.967H1.96036C1.80542 19.967 1.65956 20.0273 1.55011 20.137C1.44044 20.2467 1.3799 20.3925 1.3799 20.5473V21.7856H0.68335V20.5473C0.68335 20.2064 0.816263 19.8858 1.0573 19.6445C1.29856 19.4032 1.61928 19.2704 1.96036 19.2704H3.45671C3.79779 19.2704 4.1184 19.4032 4.35977 19.6445C4.60081 19.8859 4.73372 20.2064 4.73372 20.5473V21.7856V21.7856Z" fill="white"/>
<path d="M9.63489 21.7856H8.93834V20.5474C8.93834 20.3925 8.87802 20.2467 8.76846 20.137C8.65868 20.0273 8.51293 19.967 8.35788 19.967H6.86186C6.70681 19.967 6.56106 20.0273 6.45128 20.137C6.34172 20.2467 6.2814 20.3925 6.2814 20.5474V21.7856H5.58496V20.5474C5.58496 20.2064 5.71765 19.8858 5.95891 19.6445C6.20006 19.4033 6.52067 19.2705 6.86197 19.2705H8.3581C8.6994 19.2705 9.02001 19.4033 9.26116 19.6445C9.50242 19.8859 9.63511 20.2064 9.63511 20.5474V21.7856H9.63489Z" fill="white"/>
<path d="M14.536 21.7856H13.8394V20.5474C13.8394 20.3925 13.7789 20.2467 13.6693 20.137C13.5598 20.0273 13.414 19.967 13.259 19.967H11.7628C11.6079 19.967 11.4622 20.0274 11.3525 20.137C11.2429 20.2467 11.1824 20.3925 11.1824 20.5474V21.7856H10.4858V20.5474C10.4858 20.2064 10.6188 19.8858 10.86 19.6445C11.1013 19.4033 11.4219 19.2705 11.7628 19.2705H13.259C13.6005 19.2705 13.921 19.4033 14.1621 19.6447C14.4031 19.8859 14.536 20.2064 14.536 20.5474V21.7856Z" fill="white"/>
<path d="M19.4376 21.7856H18.7412V20.5474C18.7412 20.3925 18.6806 20.2467 18.5711 20.137C18.4615 20.0273 18.3158 19.967 18.1607 19.967H16.6643C16.5094 19.967 16.3637 20.0274 16.254 20.137C16.1444 20.2467 16.0839 20.3925 16.0839 20.5474V21.7856H15.3875V20.5474C15.3875 20.2064 15.5203 19.8858 15.7615 19.6445C16.0028 19.4033 16.3234 19.2705 16.6643 19.2705H18.1607C18.5021 19.2705 18.8227 19.4033 19.0639 19.6447C19.3048 19.8859 19.4376 20.2064 19.4376 20.5474V21.7856V21.7856Z" fill="white"/>
<path d="M11.9958 9.49905H11.2219V10.1956H11.9958V9.49905Z" fill="white"/>
<path d="M10.448 9.49905H9.67407V10.1956H10.448V9.49905Z" fill="white"/>
<path d="M8.90062 9.49904H8.12671V10.1956H8.90062V9.49904Z" fill="white"/>
<path d="M2.32125 2.45053C1.41819 2.45053 0.68335 1.7158 0.68335 0.812633V0.348267H1.3799V0.812633C1.3799 1.33167 1.80221 1.75398 2.32125 1.75398C2.84073 1.75398 3.26326 1.33167 3.26326 0.812633V0.348267H3.9597V0.812633C3.95981 1.71569 3.22486 2.45053 2.32125 2.45053Z" fill="white"/>
<path d="M4.90084 2.45049C3.99789 2.45049 3.26294 1.71576 3.26294 0.812587V0.348221H3.95938V0.812587C3.95938 1.33162 4.38169 1.75394 4.90073 1.75394C5.42021 1.75394 5.84274 1.33162 5.84274 0.812587V0.348221H6.53929V0.812587C6.5394 1.71565 5.80445 2.45049 4.90084 2.45049Z" fill="white"/>
<path d="M7.48116 2.45049C6.5781 2.45049 5.84326 1.71576 5.84326 0.812587V0.348221H6.53981V0.812587C6.53981 1.33162 6.96212 1.75394 7.48116 1.75394C8.00064 1.75394 8.42317 1.33162 8.42317 0.812587V0.348221H9.11972V0.812587C9.11972 1.71565 8.38477 2.45049 7.48116 2.45049Z" fill="white"/>
<path d="M10.0605 2.45049C9.15745 2.45049 8.42261 1.71576 8.42261 0.812587V0.348221H9.11916V0.812587C9.11916 1.33162 9.54147 1.75394 10.0605 1.75394C10.58 1.75394 11.0025 1.33162 11.0025 0.812587V0.348221H11.6991V0.812587C11.6991 1.71565 10.9639 2.45049 10.0605 2.45049Z" fill="white"/>
<path d="M12.6403 2.45049C11.7372 2.45049 11.0024 1.71576 11.0024 0.812587V0.348221H11.699V0.812587C11.699 1.33162 12.1212 1.75394 12.6403 1.75394C13.1597 1.75394 13.5824 1.33162 13.5824 0.812587V0.348221H14.2789V0.812587C14.2789 1.71565 13.544 2.45049 12.6403 2.45049Z" fill="white"/>
<path d="M15.2204 2.45049C14.3174 2.45049 13.5825 1.71576 13.5825 0.812587V0.348221H14.2791V0.812587C14.2791 1.33162 14.7014 1.75394 15.2204 1.75394C15.7398 1.75394 16.1625 1.33162 16.1625 0.812587V0.348221H16.859V0.812587C16.859 1.71565 16.1239 2.45049 15.2204 2.45049Z" fill="white"/>
<path d="M17.8 2.45049C16.8968 2.45049 16.1621 1.71576 16.1621 0.812587V0.348221H16.8585V0.812587C16.8585 1.33162 17.2809 1.75394 17.8 1.75394C18.3193 1.75394 18.742 1.33162 18.742 0.812587V0.348221H19.4386V0.812587C19.4386 1.71565 18.7035 2.45049 17.8 2.45049Z" fill="white"/>
<path d="M20.1216 0H0V0.69655H20.1216V0Z" fill="white"/>
</svg>
