<svg width="21" height="24" viewBox="0 0 21 24" fill="none" xmlns="http://www.w3.org/2000/svg">
<path d="M12.2829 1.5849H2.77342C2.66834 1.5849 2.56756 1.62664 2.49325 1.70095C2.41894 1.77526 2.3772 1.87604 2.3772 1.98113V9.90566C2.3772 10.0107 2.41894 10.1115 2.49325 10.1858C2.56756 10.2601 2.66834 10.3019 2.77342 10.3019H12.2829C12.3879 10.3019 12.4887 10.2601 12.563 10.1858C12.6373 10.1115 12.6791 10.0107 12.6791 9.90566V1.98113C12.6791 1.87604 12.6373 1.77526 12.563 1.70095C12.4887 1.62664 12.3879 1.5849 12.2829 1.5849ZM11.8866 9.50943H3.16965V2.37735H11.8866V9.50943Z" fill="white"/>
<path d="M4.48927 5.64624C4.58695 5.64707 4.68149 5.61179 4.75475 5.54718L6.37135 3.93058C6.41283 3.89506 6.44652 3.85134 6.4703 3.80219C6.49408 3.75303 6.50745 3.69949 6.50955 3.64492C6.51166 3.59035 6.50247 3.53594 6.48255 3.48509C6.46263 3.43424 6.43241 3.38806 6.3938 3.34945C6.35518 3.31084 6.309 3.28062 6.25816 3.2607C6.20731 3.24078 6.1529 3.23159 6.09833 3.23369C6.04376 3.2358 5.99022 3.24917 5.94106 3.27295C5.8919 3.29673 5.84819 3.33042 5.81267 3.3719L4.19607 4.9885C4.14019 5.04392 4.10208 5.11473 4.0866 5.19189C4.07112 5.26906 4.07897 5.34908 4.10915 5.42177C4.13933 5.49445 4.19047 5.5565 4.25605 5.60001C4.32163 5.64352 4.39869 5.66651 4.47739 5.66605L4.48927 5.64624Z" fill="white"/>
<path d="M4.60809 8.32078C4.68158 8.38987 4.77864 8.42834 4.87951 8.42834C4.98037 8.42834 5.07744 8.38987 5.15092 8.32078L9.42621 4.04549C9.49112 3.9697 9.52504 3.87219 9.52119 3.77247C9.51733 3.67275 9.47599 3.57816 9.40543 3.50759C9.33486 3.43703 9.24027 3.39569 9.14055 3.39184C9.04083 3.38798 8.94333 3.4219 8.86753 3.48682L4.60809 7.74229C4.5685 7.77935 4.53695 7.82415 4.51537 7.8739C4.4938 7.92365 4.48267 7.9773 4.48267 8.03153C4.48267 8.08576 4.4938 8.13941 4.51537 8.18917C4.53695 8.23892 4.5685 8.28372 4.60809 8.32078V8.32078Z" fill="white"/>
<path d="M18.6226 5.33321L18.4641 5.23019L17.8302 4.80623L17.1526 4.35849H15.4528V5.15094H16.9109L17.8302 5.76113V10.6981H20.2075V19.0189C20.2075 19.3341 20.0823 19.6365 19.8594 19.8594C19.6365 20.0823 19.3341 20.2075 19.0189 20.2075H18.6226C18.3074 20.2075 18.005 20.0823 17.7821 19.8594C17.5592 19.6365 17.434 19.3341 17.434 19.0189V13.0755C17.434 11.9581 16.1542 11.0943 15.0566 11.0943H14.2642V2.37736C14.2642 1.74684 14.0137 1.14215 13.5678 0.696312C13.122 0.250471 12.5173 0 11.8868 0H3.16981C2.5393 0 1.93461 0.250471 1.48876 0.696312C1.04292 1.14215 0.792453 1.74684 0.792453 2.37736V20.6038H0.396226C0.291141 20.6038 0.190359 20.6455 0.116052 20.7198C0.0417449 20.7941 0 20.8949 0 21V22.9811C0 23.0862 0.0417449 23.187 0.116052 23.2613C0.190359 23.3356 0.291141 23.3774 0.396226 23.3774H14.6604C14.7655 23.3774 14.8662 23.3356 14.9406 23.2613C15.0149 23.187 15.0566 23.0862 15.0566 22.9811V21C15.0566 20.8949 15.0149 20.7941 14.9406 20.7198C14.8662 20.6455 14.7655 20.6038 14.6604 20.6038H14.2642V11.8868H15.0566C15.75 11.8868 16.6415 12.4613 16.6415 13.0755V19.0189C16.6415 19.5443 16.8502 20.0482 17.2218 20.4197C17.5933 20.7913 18.0972 21 18.6226 21H19.0189C19.5443 21 20.0482 20.7913 20.4197 20.4197C20.7913 20.0482 21 19.5443 21 19.0189V6.91811L18.6226 5.33321ZM14.2642 22.5849H0.792453V21.3962H14.2642V22.5849ZM1.58491 20.6038V2.37736C1.58491 1.95702 1.75189 1.55389 2.04911 1.25666C2.34634 0.959434 2.74947 0.792453 3.16981 0.792453H11.8868C12.3071 0.792453 12.7103 0.959434 13.0075 1.25666C13.3047 1.55389 13.4717 1.95702 13.4717 2.37736V20.6038H1.58491ZM20.2075 7.34604V9.90566H18.6226V6.28811L20.2075 7.34604Z" fill="white"/>
<path d="M10.0664 15.6829C10.4712 16.1181 11.1407 16.8545 11.1407 17.4236C11.1407 17.7584 10.8729 18.4948 10.0695 18.4948C9.26609 18.4948 8.99829 17.7584 8.99829 17.4236C8.99829 16.8545 9.7013 16.1181 10.0664 15.6829ZM10.8729 17.2897C10.806 17.2897 10.6051 17.9592 10.103 18.1935C10.6721 18.3274 11.0738 17.5575 10.8729 17.2897Z" fill="white"/>
<path d="M4.2192 13.3516L4.94323 13.8324L3.62988 15.6829L6.36375 14.052L5.63928 13.5712L6.95307 11.7206L4.2192 13.3516Z" fill="white"/>
<path d="M4.91072 18.3829C4.98714 18.4548 5.08809 18.4948 5.19299 18.4948C5.29789 18.4948 5.39884 18.4548 5.47527 18.3829L9.9216 13.9348C9.98911 13.856 10.0244 13.7545 10.0204 13.6508C10.0164 13.547 9.97338 13.4486 9.89999 13.3752C9.8266 13.3017 9.72822 13.2587 9.62451 13.2547C9.5208 13.2507 9.4194 13.286 9.34057 13.3536L4.91072 17.7811C4.86955 17.8196 4.83673 17.8662 4.81429 17.918C4.79185 17.9698 4.78027 18.0256 4.78027 18.082C4.78027 18.1384 4.79185 18.1942 4.81429 18.246C4.83673 18.2978 4.86955 18.3444 4.91072 18.3829V18.3829Z" fill="white"/>
</svg>
