<svg width="23" height="19" viewBox="0 0 23 19" fill="none" xmlns="http://www.w3.org/2000/svg">
<path d="M22.8436 7.59676C22.8137 7.30757 22.5576 7.09942 22.2652 7.12742C21.303 7.22778 20.515 7.6597 19.9884 8.37485C19.9804 8.38576 19.9735 8.39765 19.9658 8.4088C19.923 8.23385 19.8764 8.05965 19.823 7.88792C21.3971 6.77256 21.6296 5.1279 20.464 3.22205C20.312 2.97326 19.9879 2.8952 19.74 3.0476C18.9563 3.52735 18.4613 4.20583 18.2662 4.98021C18.1706 4.86251 18.0723 4.74678 17.971 4.63329C18.3982 2.66053 17.4253 1.26491 15.2081 0.695959C15.0727 0.661018 14.9286 0.681586 14.8085 0.752953C14.6889 0.824568 14.6015 0.940292 14.567 1.07609C14.1047 2.88777 15.0566 4.46255 16.9486 5.08949C18.3791 6.55995 19.171 8.48364 19.171 10.5454C19.171 13.7323 17.2683 16.5769 14.3244 17.7916C14.0552 17.9024 13.9272 18.2106 14.0384 18.4795C14.1221 18.6829 14.3182 18.8058 14.5254 18.8058C14.5923 18.8058 14.6601 18.793 14.726 18.7657C15.1982 18.5709 15.6444 18.3353 16.0666 18.0706C16.7003 18.5132 17.3359 18.7404 17.9589 18.7404C18.9664 18.7404 19.9094 18.1668 20.7602 17.035C20.9343 16.8031 20.8882 16.4723 20.6557 16.2976C20.0557 15.8451 19.3775 15.6055 18.6938 15.6055C18.6775 15.6055 18.6611 15.6089 18.6445 15.6089C18.6899 15.544 18.7339 15.4796 18.7773 15.4137C18.7822 15.4147 18.7864 15.4164 18.7911 15.4169C19.034 15.4541 19.2693 15.4729 19.4911 15.4729C20.6943 15.4729 22.2127 14.923 22.6119 12.3018C22.6557 12.0146 22.4581 11.7457 22.1709 11.7014C21.9814 11.6729 21.7932 11.658 21.609 11.658C21.0489 11.658 20.5401 11.7893 20.0963 12.0317C20.1231 11.8704 20.1441 11.7083 20.1627 11.5455C22.127 11.2476 23.0801 9.85646 22.8436 7.59676ZM19.847 4.28587C20.36 5.36158 20.2385 6.17685 19.4617 6.84071C19.0363 5.85049 19.1767 4.93189 19.847 4.28587ZM21.4528 12.7176C21.0566 14.2111 20.18 14.415 19.5154 14.4197C19.8264 13.3966 20.5212 12.7795 21.4528 12.7176ZM20.8362 9.00006C21.0808 8.66751 21.4191 8.42788 21.8291 8.2911C21.8301 9.48377 21.3691 10.1667 20.3831 10.4316C20.4041 9.86538 20.5576 9.37796 20.8362 9.00006ZM15.5067 1.89012C16.6255 2.30469 17.1066 2.9745 17.012 3.99247C16.0168 3.57815 15.476 2.82161 15.5067 1.89012ZM19.5429 16.8512C19.0207 17.4067 18.4898 17.6875 17.9584 17.6875C17.6637 17.6875 17.353 17.6018 17.0306 17.432C17.7868 16.6814 18.7116 16.4698 19.5429 16.8512Z" fill="white"/>
<path d="M8.99579 17.7921C6.05138 16.5773 4.1487 13.7328 4.1487 10.5458C4.1487 8.4841 4.94057 6.56041 6.37081 5.08996C8.2626 4.46302 9.21469 2.88823 8.75263 1.07655C8.71822 0.941251 8.63105 0.825032 8.51121 0.753417C8.39062 0.68205 8.247 0.661482 8.1123 0.696422C5.8939 1.26538 4.92176 2.661 5.34889 4.63375C5.24737 4.74725 5.14882 4.86297 5.05374 4.98068C4.85837 4.2058 4.36313 3.52781 3.57942 3.04807C3.46007 2.97472 3.31695 2.95192 3.1815 2.98512C3.04581 3.01759 2.92819 3.10333 2.85589 3.22252C1.69011 5.12837 1.92262 6.77278 3.49672 7.88839C3.44324 8.05987 3.39668 8.23382 3.35385 8.40877C3.34567 8.39787 3.33948 8.38597 3.33206 8.37532C2.80488 7.66016 2.01746 7.22849 1.05472 7.12788C0.766746 7.09963 0.506253 7.30803 0.476291 7.59722C0.240065 9.85643 1.19289 11.2481 3.15773 11.5467C3.17581 11.7095 3.19686 11.8716 3.2236 12.0329C2.77913 11.7903 2.27077 11.6587 1.71066 11.6587C1.52693 11.6587 1.338 11.6736 1.14882 11.7021C1.01065 11.7236 0.886345 11.7985 0.803888 11.9107C0.721184 12.0232 0.68627 12.1642 0.707318 12.303C1.10697 14.9237 2.62536 15.4736 3.82853 15.4736C4.0499 15.4736 4.28563 15.455 4.52904 15.4176C4.53324 15.4171 4.5377 15.4154 4.54241 15.4144C4.58524 15.4803 4.63056 15.5447 4.67488 15.6097C4.65879 15.6097 4.64244 15.6062 4.62635 15.6062C3.94268 15.6062 3.26421 15.8458 2.66374 16.2983C2.43172 16.473 2.38517 16.8038 2.56048 17.0358C3.41129 18.1672 4.35372 18.7411 5.36078 18.7411C5.98453 18.7411 6.62016 18.5139 7.25332 18.0708C7.67624 18.3357 8.12171 18.5716 8.59416 18.7664C8.65978 18.7937 8.72812 18.8066 8.79448 18.8066C9.00174 18.8066 9.19785 18.6836 9.28179 18.4802C9.39223 18.2113 9.26421 17.9031 8.99579 17.7921ZM3.47245 4.28584C4.143 4.93186 4.28241 5.85096 3.85775 6.84068C3.08147 6.17731 2.95865 5.36155 3.47245 4.28584ZM1.86641 12.7176C2.79819 12.7795 3.49301 13.3965 3.80377 14.4197C3.13916 14.415 2.26309 14.2111 1.86641 12.7176ZM7.81293 1.89009C7.84339 2.82157 7.30234 3.57861 6.30668 3.99244C6.21308 2.97496 6.69395 2.30441 7.81293 1.89009ZM1.49028 8.29107C1.90083 8.42785 2.23833 8.66748 2.48347 9.00003C2.76204 9.37793 2.91532 9.86535 2.93686 10.4316C1.95035 10.1667 1.48929 9.48374 1.49028 8.29107ZM3.77678 16.8511C4.60753 16.47 5.53213 16.6814 6.2891 17.432C5.38653 17.9068 4.58846 17.7155 3.77678 16.8511Z" fill="white"/>
<path d="M8.13462 7.18937L11.3957 10.4524C11.3957 10.4524 11.3962 10.4529 11.3962 10.4534L11.8355 10.893L12.4699 10.2584C12.2379 10.0096 12.1076 9.68895 12.1076 9.34624C12.1081 8.98743 12.2478 8.65041 12.5013 8.39691L14.1936 6.70319C14.3991 6.49776 14.7331 6.49776 14.9386 6.70319C15.1439 6.90911 15.1439 7.24265 14.9386 7.44833L13.2459 9.1428C13.191 9.19707 13.1607 9.26942 13.1607 9.34674C13.1607 9.42356 13.1905 9.49542 13.2449 9.54969L13.9227 10.2274C14.0343 10.3402 14.2173 10.3402 14.3293 10.2274L16.0234 8.53345C16.229 8.32852 16.5625 8.32802 16.768 8.53395C16.9733 8.73987 16.9733 9.07317 16.7675 9.27909L15.0738 10.9728C14.8124 11.2342 14.4694 11.3646 14.126 11.3646C13.7974 11.3646 13.471 11.2419 13.2145 11.0035L12.5803 11.6374L14.7804 13.8394C14.9862 14.0451 14.9862 14.3794 14.7809 14.5845C14.6781 14.6876 14.5434 14.7389 14.4082 14.7389C14.2733 14.7389 14.1386 14.6876 14.0363 14.585L11.8355 12.3831L9.63518 14.585C9.53242 14.6876 9.39772 14.7389 9.26301 14.7389C9.12831 14.7389 8.99361 14.6876 8.89085 14.5845C8.68508 14.3794 8.68508 14.0451 8.89085 13.8394L11.0909 11.6374L8.77595 9.32146L8.28171 8.82685C8.40255 9.52169 8.76456 10.4338 9.73448 11.2796C9.95411 11.4707 9.97689 11.8032 9.78598 12.0228C9.68173 12.1422 9.53564 12.2034 9.38856 12.2034C9.26623 12.2034 9.14292 12.1615 9.04313 12.0741C6.67195 10.0081 7.22538 7.54373 7.25014 7.4399C7.25014 7.4399 7.30288 7.13585 7.60621 7.05804C7.91697 6.97948 8.05836 7.1133 8.13462 7.18937Z" fill="white"/>
</svg>
