<svg width="21" height="23" viewBox="0 0 21 23" fill="none" xmlns="http://www.w3.org/2000/svg">
<path d="M16.6778 8.97686V7.0525C16.6778 6.6997 16.3891 6.41105 16.0363 6.41105H12.1876H8.33889H4.49017H0.641453C0.288654 6.41105 0 6.6997 0 7.0525V17.3671C0.0192436 20.1638 2.36696 22.4474 5.24067 22.4474H11.4307C14.0863 22.4474 16.2865 20.5038 16.6265 17.9572H17.3192C19.0897 17.9572 20.5265 16.5204 20.5265 14.7499V12.1841C20.5265 10.4137 19.0897 8.97686 17.3192 8.97686H16.6778ZM15.3949 9.61832V17.3158V17.3607C15.3821 19.4582 13.6052 21.1645 11.4371 21.1645H5.24709C3.07898 21.1645 1.30215 19.4582 1.28932 17.3158V7.69396H15.4013V9.61832H15.3949ZM19.2436 12.1841V14.7499C19.2436 15.8083 18.3776 16.6743 17.3192 16.6743H16.6778V10.2598H17.3192C18.3776 10.2598 19.2436 11.1257 19.2436 12.1841Z" fill="white"/>
<path d="M5.98491 4.44178C5.98491 3.77467 5.60004 3.17812 4.84313 2.67137C4.63145 2.53025 4.27223 2.24801 4.27223 1.97219C4.27223 1.66429 4.6571 1.29866 4.84313 1.17037C5.13819 0.971519 5.21517 0.573817 5.01632 0.285163C4.81747 -0.00990526 4.41977 -0.0868795 4.1247 0.105557C4.00924 0.182531 2.98291 0.894544 2.98291 1.97219C2.98291 2.6393 3.36778 3.23585 4.1247 3.7426C4.33638 3.88372 4.69559 4.16596 4.69559 4.44178C4.69559 4.74968 4.31072 5.11531 4.1247 5.2436C3.82963 5.44245 3.75265 5.84015 3.95151 6.1288C4.07338 6.31482 4.27865 6.41746 4.48391 6.41746C4.60579 6.41746 4.72766 6.38539 4.83671 6.30841C4.965 6.22502 5.98491 5.51301 5.98491 4.44178Z" fill="white"/>
<path d="M9.83306 4.44178C9.83306 3.77467 9.44818 3.17812 8.69127 2.67137C8.47959 2.53025 8.12038 2.24801 8.12038 1.97219C8.12038 1.66429 8.50525 1.29866 8.69127 1.17037C8.98634 0.971519 9.06331 0.573817 8.86446 0.285163C8.66561 -0.00990526 8.26791 -0.0868795 7.97284 0.105557C7.85738 0.182531 6.83105 0.894544 6.83105 1.97219C6.83105 2.6393 7.21593 3.23585 7.97284 3.7426C8.18452 3.88372 8.54374 4.16596 8.54374 4.44178C8.54374 4.74968 8.15886 5.11531 7.97284 5.2436C7.67777 5.44245 7.6008 5.84015 7.79965 6.1288C7.92153 6.31482 8.12679 6.41746 8.33206 6.41746C8.45393 6.41746 8.57581 6.38539 8.68486 6.30841C8.81315 6.22502 9.83306 5.51301 9.83306 4.44178Z" fill="white"/>
<path d="M13.6824 4.44178C13.6824 3.77467 13.2975 3.17812 12.5406 2.67137C12.329 2.53025 11.9697 2.24801 11.9697 1.97219C11.9697 1.66429 12.3546 1.29866 12.5406 1.17037C12.8357 0.971519 12.9127 0.573817 12.7138 0.285163C12.515 -0.00990526 12.1173 -0.0868795 11.8222 0.105557C11.7067 0.182531 10.6804 0.894544 10.6804 1.97219C10.6804 2.6393 11.0653 3.23585 11.8222 3.7426C12.0339 3.88372 12.3931 4.16596 12.3931 4.44178C12.3931 4.74968 12.0082 5.11531 11.8222 5.2436C11.5271 5.44245 11.4502 5.84015 11.649 6.1288C11.7709 6.31482 11.9762 6.41746 12.1814 6.41746C12.3033 6.41746 12.4252 6.38539 12.5342 6.30841C12.6625 6.22502 13.6824 5.51301 13.6824 4.44178Z" fill="white"/>
</svg>
