<svg width="19" height="11" viewBox="0 0 19 11" fill="none" xmlns="http://www.w3.org/2000/svg">
<path d="M18.3189 9.62421H17.7767V9.10138C17.7767 9.04328 17.738 9.00455 17.6799 9.00455H17.1377V2.80787H11.0959C11.0378 2.69168 10.9604 2.57549 10.8636 2.47867H17.5831C17.8155 2.47867 17.951 2.20757 17.7961 2.03329L16.4793 0.426024C16.2469 0.154919 15.9177 0 15.5692 0H2.84659C2.49803 0 2.14947 0.154919 1.93646 0.426024L0.619659 2.03329C0.464742 2.20757 0.600301 2.47867 0.832677 2.47867H7.55221C7.47475 2.57549 7.39729 2.69168 7.31983 2.80787H1.27806V9.00455H0.735854C0.67776 9.00455 0.63903 9.04328 0.63903 9.10138V9.62421H0.0968232C0.0387293 9.62421 0 9.66294 0 9.72103V10.1858C0 10.2439 0.0387293 10.2826 0.0968232 10.2826H18.2996C18.3577 10.2826 18.3964 10.2439 18.3964 10.1858V9.72103C18.4158 9.66294 18.377 9.62421 18.3189 9.62421ZM7.45538 3.67928C7.49411 3.29199 7.62966 2.94342 7.8814 2.67232L8.13315 2.92405L8.32679 2.73041L8.07504 2.47867C8.38488 2.20757 8.79154 2.05265 9.21756 2.05265C9.66295 2.05265 10.0502 2.20757 10.3794 2.47867L10.1277 2.73041L10.3213 2.92405L10.5731 2.67232C10.8055 2.94342 10.9604 3.29199 10.9991 3.67928H10.6312V3.95039H10.9991C10.9604 4.33768 10.8248 4.68624 10.5731 4.95734L10.3213 4.7056L10.1277 4.89925L10.3794 5.15099C10.1083 5.38336 9.75977 5.53828 9.37247 5.57701V5.20909H9.10138V5.57701C8.71408 5.53828 8.36552 5.40273 8.09441 5.15099L8.34615 4.89925L8.1525 4.7056L7.90077 4.95734C7.66839 4.68624 7.51347 4.33768 7.47474 3.95039H7.84268V3.67928H7.45538ZM3.67928 7.97823H2.40121V6.56461H3.67928V7.97823ZM3.67928 5.40274H2.40121V3.98911H3.67928V5.40274ZM6.06113 7.97823H4.78305V6.56461H6.06113V7.97823ZM6.06113 5.40274H4.78305V3.98911H6.06113V5.40274ZM8.98518 9.62421H7.22301V6.54524H8.98518V9.62421ZM11.2121 9.62421H9.44994V6.54524H11.2121V9.62421ZM13.6327 7.97823H12.3546V6.56461H13.6327V7.97823ZM13.6327 5.40274H12.3546V3.98911H13.6327V5.40274ZM16.0145 7.97823H14.7365V6.56461H16.0145V7.97823ZM16.0145 5.40274H14.7365V3.98911H16.0145V5.40274Z" fill="white"/>
<path d="M10.263 3.67928H9.3529V2.40121H9.08179V3.96975H10.263V3.67928Z" fill="white"/>
</svg>
