<svg width="16" height="25" viewBox="0 0 16 25" fill="none" xmlns="http://www.w3.org/2000/svg">
<path d="M9.19293 1.89169C9.71441 1.89169 10.139 1.46732 10.139 0.945731C10.139 0.424369 9.71441 0 9.19293 0C8.67168 0 8.24731 0.424369 8.24731 0.945731C8.2472 1.46732 8.67157 1.89169 9.19293 1.89169Z" fill="white"/>
<path d="M2.88736 4.41428C3.40873 4.41428 3.8331 3.98968 3.8331 3.4682C3.8331 2.94673 3.40873 2.52213 2.88736 2.52213C2.36578 2.52213 1.94141 2.94673 1.94141 3.4682C1.94141 3.98957 2.36578 4.41428 2.88736 4.41428Z" fill="white"/>
<path d="M14.5533 23.9624H11.2542C10.4591 22.9734 9.25779 22.386 7.94952 22.386H7.932V16.5929L15.2332 5.36001H0L1.23614 7.26165C1.26022 7.25588 1.28498 7.25181 1.31064 7.25181H8.87785C9.05228 7.25181 9.19313 7.39278 9.19313 7.56721C9.19313 7.74107 9.05228 7.88226 8.87785 7.88226H1.6396L7.30133 16.5929V22.386H7.28381C5.97565 22.386 4.77433 22.9734 3.97917 23.9624H0.680189C0.506101 23.9624 0.364909 24.1036 0.364909 24.2778C0.364909 24.4519 0.506101 24.5931 0.680189 24.5931H14.5533C14.7272 24.5931 14.8685 24.4519 14.8685 24.2778C14.8685 24.1036 14.7272 23.9624 14.5533 23.9624Z" fill="white"/>
</svg>
