<svg width="22" height="23" viewBox="0 0 22 23" fill="none" xmlns="http://www.w3.org/2000/svg">
<path fill-rule="evenodd" clip-rule="evenodd" d="M16.0191 0C17.8029 0 19.2369 1.4441 19.2369 3.24043V6.83308H21.1955C21.1955 7.11485 21.1955 7.39663 21.1955 7.64319H21.5803C21.8251 7.64319 22 7.85452 22 8.06585V10.4962C22 10.7075 21.8251 10.9188 21.5803 10.9188H20.531C20.2862 10.9188 20.1113 10.7075 20.1113 10.4962V8.06585C20.1113 7.85452 20.2862 7.64319 20.531 7.64319H20.9157V7.11485H19.2369V18.1394C19.2369 19.83 17.9078 21.2389 16.2639 21.3798V22.6478C16.2639 22.8239 16.124 23 15.9141 23H13.8156C13.6057 23 13.4658 22.8239 13.4658 22.6478V21.3798H8.53418V22.6478C8.53418 22.8239 8.3593 23 8.18442 23H6.08585C5.87599 23 5.73609 22.8239 5.73609 22.6478V21.3798C4.05723 21.2389 2.72814 19.83 2.72814 18.1394V7.11485H1.04928V7.64319H1.469C1.67886 7.64319 1.88871 7.85452 1.88871 8.06585V10.4962C1.88871 10.7075 1.67886 10.9188 1.469 10.9188H0.419714C0.174881 10.9188 0 10.7075 0 10.4962V8.06585C0 7.85452 0.174881 7.64319 0.419714 7.64319H0.804451C0.804451 7.39663 0.804451 7.11485 0.804451 6.83308H2.72814V3.24043C2.72814 1.4441 4.19714 0 5.94595 0H16.0191ZM8.56916 18.2802H13.4308C13.5358 18.2802 13.6407 18.3859 13.6407 18.5268C13.6407 18.6325 13.5358 18.7381 13.4308 18.7381H8.56916C8.46423 18.7381 8.3593 18.6325 8.3593 18.5268C8.3593 18.3859 8.46423 18.2802 8.56916 18.2802ZM9.40858 17.2588H12.5914C12.6963 17.2588 12.8013 17.3645 12.8013 17.4701C12.8013 17.5758 12.6963 17.6815 12.5914 17.6815H9.40858C9.26868 17.6815 9.19873 17.5758 9.19873 17.4701C9.19873 17.3645 9.26868 17.2588 9.40858 17.2588ZM8.56916 16.2021H13.4308C13.5358 16.2021 13.6407 16.3078 13.6407 16.4135C13.6407 16.5544 13.5358 16.6248 13.4308 16.6248H8.56916C8.46423 16.6248 8.3593 16.5544 8.3593 16.4135C8.3593 16.3078 8.46423 16.2021 8.56916 16.2021ZM14.5851 2.95865V1.05666H7.41494V2.95865H14.5851ZM4.16216 6.05819H10.7027V13.4548H4.16216V6.05819ZM5.77106 16.5896C6.43561 16.5896 6.99523 17.1531 6.99523 17.8224C6.99523 18.5268 6.43561 19.0551 5.77106 19.0551C5.07154 19.0551 4.51192 18.5268 4.51192 17.8224C4.51192 17.1531 5.07154 16.5896 5.77106 16.5896ZM17.8378 6.05819H11.2973V13.4548H17.8378V6.05819ZM16.2289 16.5896C15.5294 16.5896 15.0048 17.1531 15.0048 17.8224C15.0048 18.5268 15.5294 19.0551 16.2289 19.0551C16.9285 19.0551 17.4531 18.5268 17.4531 17.8224C17.4531 17.1531 16.9285 16.5896 16.2289 16.5896Z" fill="white"/>
</svg>
