<svg width="23" height="15" viewBox="0 0 23 15" fill="none" xmlns="http://www.w3.org/2000/svg">
<path d="M5.70029 14.447C4.65263 14.447 3.80029 13.5942 3.80029 12.5461V1.90092C3.80029 0.852751 4.65263 0 5.70029 0C6.74795 0 7.60029 0.852751 7.60029 1.90092V12.5461C7.60029 13.5942 6.74795 14.447 5.70029 14.447ZM5.70029 0.760367C5.07177 0.760367 4.56029 1.27209 4.56029 1.90092V12.5461C4.56029 13.1749 5.07177 13.6866 5.70029 13.6866C6.32881 13.6866 6.84029 13.1749 6.84029 12.5461V1.90092C6.84029 1.27209 6.32881 0.760367 5.70029 0.760367Z" fill="white"/>
<path d="M3.04002 11.4055C2.20174 11.4055 1.52002 10.7234 1.52002 9.88474V4.56218C1.52002 3.72349 2.20174 3.04144 3.04002 3.04144C3.8783 3.04144 4.56002 3.72349 4.56002 4.56218V9.88474C4.56002 10.7234 3.8783 11.4055 3.04002 11.4055ZM3.04002 3.80181C2.62088 3.80181 2.28002 4.14283 2.28002 4.56218V9.88474C2.28002 10.3041 2.62088 10.6451 3.04002 10.6451C3.45916 10.6451 3.80002 10.3041 3.80002 9.88474V4.56218C3.80002 4.14283 3.45916 3.80181 3.04002 3.80181Z" fill="white"/>
<path d="M1.9 9.12441H0.38C0.17024 9.12441 0 8.95408 0 8.74422V5.70275C0 5.49289 0.17024 5.32257 0.38 5.32257H1.9C2.10976 5.32257 2.28 5.49289 2.28 5.70275V8.74422C2.28 8.95408 2.10976 9.12441 1.9 9.12441ZM0.76 8.36404H1.52V6.08294H0.76V8.36404Z" fill="white"/>
<path d="M15.5801 9.12441H7.22009C7.01033 9.12441 6.84009 8.95408 6.84009 8.74422V5.70275C6.84009 5.49289 7.01033 5.32257 7.22009 5.32257H15.5801C15.7898 5.32257 15.9601 5.49289 15.9601 5.70275V8.74422C15.9601 8.95408 15.7898 9.12441 15.5801 9.12441ZM7.60009 8.36404H15.2001V6.08294H7.60009V8.36404Z" fill="white"/>
<path d="M17.1002 14.447C16.0525 14.447 15.2002 13.5942 15.2002 12.5461V1.90092C15.2002 0.852751 16.0525 0 17.1002 0C18.1479 0 19.0002 0.852751 19.0002 1.90092V12.5461C19.0002 13.5942 18.1479 14.447 17.1002 14.447ZM17.1002 0.760367C16.4717 0.760367 15.9602 1.27209 15.9602 1.90092V12.5461C15.9602 13.1749 16.4717 13.6866 17.1002 13.6866C17.7287 13.6866 18.2402 13.1749 18.2402 12.5461V1.90092C18.2402 1.27209 17.7287 0.760367 17.1002 0.760367Z" fill="white"/>
<path d="M19.7602 11.4055C18.922 11.4055 18.2402 10.7234 18.2402 9.88474V4.56218C18.2402 3.72349 18.922 3.04144 19.7602 3.04144C20.5985 3.04144 21.2802 3.72349 21.2802 4.56218V9.88474C21.2802 10.7234 20.5985 11.4055 19.7602 11.4055ZM19.7602 3.80181C19.3411 3.80181 19.0002 4.14283 19.0002 4.56218V9.88474C19.0002 10.3041 19.3411 10.6451 19.7602 10.6451C20.1794 10.6451 20.5202 10.3041 20.5202 9.88474V4.56218C20.5202 4.14283 20.1794 3.80181 19.7602 3.80181Z" fill="white"/>
<path d="M22.4203 9.12441H20.9003C20.6905 9.12441 20.5203 8.95408 20.5203 8.74422V5.70275C20.5203 5.49289 20.6905 5.32257 20.9003 5.32257H22.4203C22.63 5.32257 22.8003 5.49289 22.8003 5.70275V8.74422C22.8003 8.95408 22.63 9.12441 22.4203 9.12441ZM21.2803 8.36404H22.0403V6.08294H21.2803V8.36404Z" fill="white"/>
<path d="M12.9201 7.60366H7.22009C7.01033 7.60366 6.84009 7.43333 6.84009 7.22347C6.84009 7.01361 7.01033 6.84329 7.22009 6.84329H12.9201C13.1298 6.84329 13.3001 7.01361 13.3001 7.22347C13.3001 7.43333 13.1298 7.60366 12.9201 7.60366Z" fill="white"/>
<path d="M15.5801 7.60366H14.4401C14.2303 7.60366 14.0601 7.43333 14.0601 7.22347C14.0601 7.01361 14.2303 6.84329 14.4401 6.84329H15.5801C15.7898 6.84329 15.9601 7.01361 15.9601 7.22347C15.9601 7.43333 15.7898 7.60366 15.5801 7.60366Z" fill="white"/>
<path d="M5.70031 7.60369C5.49055 7.60369 5.32031 7.43337 5.32031 7.2235V4.18204C5.32031 3.97218 5.49055 3.80185 5.70031 3.80185C5.91007 3.80185 6.08031 3.97218 6.08031 4.18204V7.2235C6.08031 7.43337 5.91007 7.60369 5.70031 7.60369Z" fill="white"/>
<path d="M5.70031 3.04146C5.49055 3.04146 5.32031 2.87114 5.32031 2.66128V1.90091C5.32031 1.69105 5.49055 1.52073 5.70031 1.52073C5.91007 1.52073 6.08031 1.69105 6.08031 1.90091V2.66128C6.08031 2.87114 5.91007 3.04146 5.70031 3.04146Z" fill="white"/>
<path d="M17.1002 10.6451C16.8905 10.6451 16.7202 10.4748 16.7202 10.2649V7.22347C16.7202 7.01361 16.8905 6.84329 17.1002 6.84329C17.31 6.84329 17.4802 7.01361 17.4802 7.22347V10.2649C17.4802 10.4748 17.31 10.6451 17.1002 10.6451Z" fill="white"/>
<path d="M17.1002 12.9262C16.8905 12.9262 16.7202 12.7559 16.7202 12.546V11.7857C16.7202 11.5758 16.8905 11.4055 17.1002 11.4055C17.31 11.4055 17.4802 11.5758 17.4802 11.7857V12.546C17.4802 12.7559 17.31 12.9262 17.1002 12.9262Z" fill="white"/>
</svg>
