<svg width="18" height="23" viewBox="0 0 18 23" fill="none" xmlns="http://www.w3.org/2000/svg">
<path d="M16.5612 9.92544C17.3502 7.36343 17.7823 4.85298 17.8458 2.4615C17.8616 1.77539 17.5643 0.998061 17.1044 0.522146C16.5533 -0.0410207 15.8039 -0.16 15.0665 0.220733C13.881 0.835457 13.0325 2.63204 12.3506 4.07961C12.3109 4.1629 12.2713 4.24618 12.2356 4.3255C12.085 3.63543 11.629 3.0445 10.9788 2.73515C10.8242 1.99748 10.2413 1.42242 9.50785 1.27171C9.49992 1.23205 9.48803 1.18843 9.47613 1.14877C9.32547 0.633193 8.86952 0.244529 8.34221 0.181073C8.03692 0.145379 7.74749 0.208835 7.49771 0.355575C7.28362 0.236597 7.04176 0.173141 6.79595 0.173141C6.10608 0.173141 5.52722 0.653022 5.37656 1.29947C4.62325 1.5057 4.06819 2.19578 4.06422 3.00087C3.20387 3.22297 2.57743 4.00029 2.57743 4.92436C2.57743 5.17025 2.62501 5.41218 2.71223 5.6422C2.49021 5.91982 2.3673 6.26486 2.3673 6.62576C2.3673 6.84389 2.41091 7.05408 2.49814 7.24445C2.10166 6.81216 1.54659 6.45919 0.920157 6.48299C0.702094 6.49092 0.527644 6.67335 0.535574 6.89148C0.543503 7.10564 0.717953 7.27618 0.932051 7.27618C0.943945 7.27618 0.959805 7.27618 0.971699 7.27618C1.34439 7.27618 1.68932 7.52207 1.9391 7.80762C1.3087 7.99005 0.551433 8.28353 0.198568 8.94981C-0.0155294 9.35038 -0.039318 9.84216 0.099449 10.4053C0.0280831 10.5203 -0.00363505 10.6552 0.000329721 10.8019L0.678306 20.3876C0.741742 21.5893 1.73294 22.5332 2.93426 22.5332H14.0634C15.2687 22.5332 16.2599 21.5893 16.3193 20.3956L17.0132 10.4608C17.0211 10.3181 16.9696 10.1793 16.8704 10.0761C16.7911 9.9889 16.6801 9.9413 16.5612 9.92544ZM12.5607 5.45977C12.7193 5.16629 12.8898 4.80142 13.0722 4.41672C13.6669 3.15158 14.4836 1.41845 15.4312 0.93064C15.8594 0.708546 16.2242 0.756137 16.5374 1.07738C16.8903 1.43828 17.0647 2.03714 17.0568 2.44167C16.9973 4.78555 16.5691 7.25238 15.7841 9.77473C15.7603 9.85802 15.7008 10.0246 15.6215 10.2546L14.9475 10.556C14.9317 10.564 14.9198 10.5719 14.9039 10.5798C14.7136 10.6948 14.4916 10.7504 14.2695 10.7543C14.0475 10.7504 13.8295 10.6948 13.6352 10.5798L13.3537 10.4093C13.0365 10.2189 12.6717 10.1158 12.2991 10.1158C12.1999 10.1158 12.1008 10.1237 12.0017 10.1396C11.7281 10.1753 11.4585 10.2665 11.2206 10.4093L10.9391 10.5798C10.7845 10.671 10.6101 10.7186 10.4316 10.7385C10.4396 10.7067 10.4515 10.679 10.4594 10.6512C10.5704 10.2784 10.6894 9.90561 10.8123 9.54074C10.8559 9.4059 10.9035 9.27502 10.951 9.14018C11.0541 8.85067 11.1612 8.56115 11.2761 8.2756C11.3237 8.15266 11.3713 8.02971 11.4189 7.91073C11.7559 7.06202 12.1405 6.24503 12.5607 5.45977ZM7.35102 4.78952C7.26379 4.80935 7.1726 4.74986 7.15674 4.66261C7.13692 4.57536 7.19639 4.48811 7.28362 4.46828L9.50785 3.98443C9.58318 3.98443 9.65058 4.03995 9.67041 4.11531C9.6823 4.17083 9.66248 4.21842 9.64662 4.23825C9.63473 4.25808 9.60301 4.29774 9.54354 4.30964L7.35102 4.78952ZM7.50564 6.3997C7.55322 6.34021 7.59683 6.28072 7.64045 6.2252C7.67216 6.18157 7.69992 6.14191 7.72371 6.09829C7.82282 5.91585 7.84265 5.70962 7.79904 5.50736L9.45235 5.14646C9.46424 5.19801 9.47613 5.24561 9.49596 5.2932C9.57129 5.47563 9.70213 5.62634 9.88847 5.73342C9.94794 5.76515 10.0114 5.80084 10.0748 5.83257C10.1264 5.86033 10.1819 5.89206 10.2374 5.91982C10.2651 5.93568 10.2889 5.94758 10.3167 5.96344C10.3642 5.99121 10.4079 6.01897 10.4554 6.04673C10.4951 6.07053 10.5347 6.09432 10.5704 6.12208C10.614 6.15381 10.6576 6.18554 10.6973 6.22123C10.733 6.25296 10.7687 6.28469 10.8043 6.31642C10.844 6.35211 10.8797 6.39177 10.9153 6.43143C10.9748 6.50282 11.0343 6.58213 11.0819 6.66939C10.9153 7.04219 10.7568 7.41895 10.6021 7.79969C10.5783 7.85917 10.5546 7.9147 10.5308 7.97419C10.0946 8.08523 9.67437 8.29146 9.15895 8.6603C8.50477 9.12432 8.0171 9.24726 7.21621 9.13225L6.97436 8.02971C6.80784 7.28808 7.16467 6.83596 7.50564 6.3997ZM7.39066 9.94924C7.50564 9.95717 7.61666 9.96907 7.72371 9.96907C8.41358 9.96907 8.97261 9.76284 9.61094 9.30675C9.81314 9.16398 9.99156 9.05293 10.162 8.96568C10.1264 9.06879 10.0907 9.17191 10.055 9.27502C10.0312 9.35038 10.0034 9.42176 9.9757 9.49712C9.86072 9.85009 9.7497 10.207 9.64265 10.564L9.38098 10.4053C9.0638 10.215 8.69904 10.1118 8.32635 10.1118C8.2312 10.1118 8.13604 10.1198 8.04089 10.1356C8.0171 10.1396 7.99727 10.1436 7.97349 10.1475C7.92987 10.1555 7.88626 10.1634 7.84265 10.1713C7.71181 10.1991 7.58494 10.2388 7.46203 10.2943L7.39066 9.94924ZM3.44968 6.02293L3.70739 5.80877L3.53691 5.51926C3.42986 5.33682 3.37435 5.13059 3.37435 4.9204C3.37435 4.27791 3.87788 3.7544 4.52017 3.72664L4.99991 3.70681L4.88889 3.23883C4.86907 3.15951 4.86114 3.08416 4.86114 3.0088C4.86114 2.49719 5.26158 2.06887 5.76907 2.02921L6.13383 2.00145V1.60485C6.14573 1.24792 6.43912 0.962367 6.79991 0.962367C7.00608 0.962367 7.15674 1.05755 7.24397 1.13687L7.5215 1.38673L7.78714 1.12497C7.91005 1.00599 8.07261 0.946504 8.25102 0.966333C8.46512 0.990129 8.65543 1.1567 8.71886 1.37086C8.73869 1.44225 8.74662 1.50967 8.73869 1.58106L8.69111 2.02525H9.13913C9.71006 2.02525 10.1858 2.46943 10.2255 3.04053L10.2453 3.30228L10.4911 3.38954C11.1096 3.60766 11.518 4.19463 11.5061 4.84901C11.5021 5.13059 11.4109 5.40028 11.2444 5.63427C10.9788 5.40821 10.6933 5.2575 10.4515 5.13059C10.388 5.09887 10.3286 5.06714 10.2691 5.03144C10.2532 5.02351 10.2334 5.00368 10.2255 4.96402C10.2175 4.9085 10.2374 4.83711 10.281 4.78952C10.4554 4.58726 10.5228 4.3136 10.4673 4.05582L10.4198 3.83769C10.3246 3.3935 9.85675 3.09209 9.4127 3.19124L9.30169 3.21503H9.29772L8.13208 3.46885L6.99815 3.71871C6.5422 3.81786 6.25278 4.26998 6.35189 4.72606L6.37568 4.83315L6.39947 4.94023C6.45894 5.20595 6.64132 5.42804 6.8911 5.53512C6.95454 5.56288 7.00608 5.61047 7.02194 5.66203C7.03384 5.68979 7.02591 5.70566 7.00212 5.74532C6.96247 5.79687 6.91886 5.8524 6.87921 5.90792C6.8356 5.96344 6.78802 6.02293 6.74441 6.08242C6.72855 6.10225 6.71665 6.12208 6.70079 6.13795C6.66511 6.18554 6.63339 6.23313 6.59771 6.28072C6.58185 6.30452 6.56599 6.33228 6.54617 6.35608C6.51445 6.40367 6.4867 6.45126 6.45894 6.50282C6.44308 6.53058 6.42723 6.55834 6.41137 6.5861C6.37965 6.64162 6.35586 6.70111 6.32811 6.7606C6.31621 6.7844 6.30432 6.80819 6.29639 6.83596C6.2607 6.92321 6.22899 7.01442 6.2052 7.10961C6.20123 7.12547 6.20123 7.14134 6.19727 7.15323C6.17744 7.23652 6.16159 7.3198 6.15366 7.40706C6.14969 7.44275 6.14969 7.47844 6.14573 7.51414C6.14176 7.56173 6.1378 7.60535 6.1378 7.65294C6.1259 7.63708 6.11401 7.62518 6.10211 7.60932C6.07436 7.57363 6.05057 7.54586 6.02282 7.51017C5.96335 7.43878 5.90388 7.3674 5.8444 7.30394C5.81665 7.27221 5.78493 7.24048 5.75718 7.21272C5.69374 7.14927 5.63031 7.08978 5.57083 7.03822C5.54705 7.01839 5.52326 6.9946 5.49947 6.97477C5.41621 6.90734 5.33295 6.84785 5.24572 6.79233C5.22193 6.77647 5.19418 6.76457 5.16643 6.74871C5.10299 6.71301 5.04352 6.68128 4.98008 6.65749C4.9444 6.64162 4.91268 6.62973 4.877 6.61783C4.82149 6.598 4.76202 6.58213 4.70651 6.56627C4.67083 6.55834 4.63911 6.55041 4.60343 6.54248C4.53206 6.53058 4.4607 6.52265 4.38537 6.52265C4.36951 6.52265 4.35365 6.51868 4.33383 6.51868C3.92149 6.51868 3.54484 6.68128 3.21576 6.89545C3.18008 6.80423 3.16025 6.70905 3.16025 6.6099C3.16422 6.3878 3.2673 6.16967 3.44968 6.02293ZM0.900333 9.31468C1.06685 8.99741 1.47522 8.75548 2.18095 8.55322C2.51003 8.45803 2.81928 8.28353 3.06906 8.04558C3.18008 7.93849 3.28316 7.84728 3.38624 7.76399C3.47743 7.68864 3.56466 7.62518 3.64792 7.56966C3.65188 7.56569 3.65585 7.56569 3.65585 7.56569C3.82237 7.45861 3.977 7.38723 4.11973 7.34757C4.12369 7.34757 4.13162 7.3436 4.13559 7.3436C4.20695 7.32774 4.27435 7.31584 4.34175 7.31584C4.84132 7.31584 5.37656 7.81158 5.93163 8.79514C6.22502 9.31072 6.32018 10.0682 6.1933 10.7305C6.16555 10.7266 6.13383 10.7226 6.10608 10.7186C5.96335 10.6909 5.82458 10.6472 5.70167 10.5719L5.42017 10.4014C5.10299 10.211 4.73823 10.1079 4.36554 10.1079C4.26642 10.1079 4.16731 10.1158 4.06819 10.1317C3.79462 10.1674 3.52501 10.2586 3.28713 10.4014L3.14836 10.4846C2.91444 10.6274 2.64087 10.6948 2.37126 10.6988C2.09769 10.7028 1.82809 10.6314 1.5902 10.4926L1.05496 10.1713C0.983593 10.1317 0.908262 10.0999 0.832932 10.088C0.77346 9.77077 0.793284 9.51695 0.900333 9.31468ZM15.5303 20.348C15.4907 21.1293 14.8484 21.74 14.0673 21.74H2.93823C2.15717 21.74 1.51487 21.1293 1.47126 20.3401L0.813108 10.9645L1.15804 11.1708C1.5228 11.3889 1.94703 11.4999 2.37126 11.496C2.79549 11.4999 3.21576 11.3889 3.58448 11.1708L3.72325 11.0875C3.91356 10.9725 4.13559 10.9169 4.35761 10.913C4.57964 10.9169 4.7977 10.9725 4.99198 11.0875L5.27348 11.258C5.51533 11.4047 5.7889 11.492 6.0704 11.5277C6.16159 11.5396 6.25674 11.5475 6.35189 11.5475C6.41533 11.5475 6.48273 11.5436 6.54617 11.5396C6.56203 11.5396 6.57392 11.5317 6.58978 11.5277C6.85146 11.496 7.10917 11.4127 7.33912 11.2818C7.36291 11.2739 7.3867 11.2739 7.41049 11.262L7.69199 11.0914C7.8823 10.9764 8.10432 10.9209 8.32635 10.9169C8.54838 10.9209 8.76644 10.9764 8.96071 11.0914L9.24221 11.262C9.50785 11.4206 9.80521 11.5079 10.1105 11.5356C10.1264 11.5356 10.1383 11.5396 10.1541 11.5436H10.1581C10.166 11.5436 10.1898 11.5475 10.1898 11.5475C10.1938 11.5475 10.1977 11.5475 10.2057 11.5475C10.2255 11.5475 10.2453 11.5475 10.2691 11.5475C10.3484 11.5475 10.4237 11.5436 10.503 11.5356C10.6061 11.5277 10.7092 11.5079 10.8123 11.4841C10.8281 11.4801 10.8479 11.4761 10.8638 11.4722C11.0462 11.4246 11.2206 11.3611 11.3832 11.262L11.6647 11.0914C11.855 10.9764 12.077 10.9209 12.2991 10.9169C12.5211 10.9209 12.7391 10.9764 12.9334 11.0914L13.2149 11.262C13.4528 11.4047 13.7184 11.496 13.992 11.5317C14.0911 11.5475 14.1942 11.5555 14.2933 11.5555C14.6541 11.5555 15.011 11.4603 15.3242 11.2778L16.1013 10.9328C16.1171 10.9249 16.129 10.909 16.1449 10.9011L16.2044 10.8733L15.5303 20.348Z" fill="white"/>
</svg>
