<svg width="15" height="20" viewBox="0 0 15 20" fill="none" xmlns="http://www.w3.org/2000/svg">
<path d="M3.71173 15.3145C3.70862 15.6168 3.83445 15.8969 4.07492 16.1234C4.62697 16.6438 5.82332 16.753 6.73006 16.753C7.09616 16.753 7.34783 16.7348 7.35861 16.7337L7.42557 16.7205C7.68387 16.634 8.54024 16.3171 8.71603 15.8695C8.77159 15.7283 8.76268 15.5786 8.69136 15.4478C8.63767 15.3496 8.78527 14.9992 8.86467 14.811C9.01766 14.448 9.20796 13.9963 8.85804 13.7627C8.8116 13.7322 8.83793 13.4598 8.95464 13.2083L8.98905 13.1352L8.72723 11.1359L8.36299 11.3646C7.56653 11.8644 6.87103 11.9693 6.42782 11.9693C6.14091 11.9693 5.96864 11.9245 5.96843 11.9243L5.54947 11.808L5.72609 12.8383L4.3411 14.089C4.27725 14.1466 3.71712 14.6748 3.71173 15.3145ZM4.71134 14.4974L6.32064 13.0439L6.23005 12.5147C6.66373 12.5421 7.41189 12.4946 8.2894 12.0414L8.42166 13.0518C8.33107 13.2761 8.13372 13.8823 8.50396 14.1862C8.4909 14.2782 8.4113 14.4669 8.35636 14.5967C8.20544 14.9545 8.03525 15.3587 8.19383 15.6858C8.11713 15.811 7.69734 16.0426 7.28356 16.186C7.2052 16.191 6.99894 16.2016 6.72986 16.2016C5.60607 16.2016 4.77644 16.0266 4.45346 15.7221C4.3241 15.6004 4.26212 15.469 4.26315 15.3208C4.26502 14.9816 4.5882 14.6105 4.71134 14.4974Z" fill="white"/>
<path d="M0.634033 0V0.62191H13.9015V13.2674H14.5234V0H0.634033Z" fill="white"/>
<path d="M14.5235 14.3039H13.9016V15.5478H14.5235V14.3039Z" fill="white"/>
<path d="M13.0724 4.51715L13.0738 4.51569L13.0724 4.51383V1.45113H0.0122309V4.36498L0 4.37701L0.0122309 4.38924V19.2554L0 19.2678L0.0122309 19.2796V19.6938H13.0724V19.2796L13.0844 19.2676L13.0724 19.2554V4.51715ZM3.98251 12.1658C3.8092 11.8992 3.62968 11.6233 3.56935 11.3884C3.36454 10.5938 3.73457 9.18624 3.7383 9.17235L3.7495 9.13172L3.74763 9.09005C3.71737 8.34646 3.80796 7.42354 4.00738 7.22888C4.16929 7.07092 4.23272 6.83708 4.30652 6.56655C4.46905 5.97034 4.66661 5.24354 6.01387 5.18715C5.94588 5.34574 5.90981 5.50246 5.88991 5.62912C5.45478 5.73796 4.37846 6.08685 4.29015 6.90528C4.21179 7.63064 4.27024 8.23078 4.28704 8.37589C4.25615 8.7281 4.06937 11.5377 5.95811 11.8408C6.09452 11.8625 6.23009 11.8739 6.3609 11.8739C6.954 11.8739 7.48739 11.6451 7.90365 11.212C8.50504 10.586 8.74841 9.65247 8.7225 9.00485C8.71773 8.88234 8.71856 8.74966 8.71898 8.61035C8.72354 7.6182 8.72478 5.99024 6.449 5.63182C6.48176 5.47675 6.54789 5.28666 6.68264 5.15937C6.79727 5.05116 6.94778 5.00369 7.14762 5.01675C7.81969 5.05841 9.41759 5.44421 9.747 8.11365C10.0654 10.6871 10.2912 12.8451 10.2937 12.8669L10.292 12.944L11.2066 14.1499V17.6208H1.87796V15.9421C2.08527 15.6672 2.8384 14.5902 3.8289 14.1474C4.16804 13.9957 4.37162 13.7871 4.44832 13.5278C4.58161 13.0759 4.27377 12.6134 3.98251 12.1658ZM8.17211 9.02641C8.19346 9.55732 7.99549 10.3204 7.50646 10.8291C7.12129 11.2307 6.62646 11.3884 6.0458 11.2958C4.58618 11.0617 4.8366 8.42648 4.83929 8.39973L4.84261 8.36739L4.83846 8.33547C4.83743 8.32925 4.75803 7.71605 4.83888 6.96416C4.88884 6.50166 5.76718 6.21703 6.12312 6.14033C8.17854 6.35489 8.17315 7.55083 8.16797 8.60704C8.16755 8.75505 8.16693 8.89622 8.17211 9.02641ZM10.8248 12.7315C10.7814 12.3227 10.575 10.3505 10.2901 8.04566C9.89957 4.87951 7.81161 4.50512 7.18058 4.46573C6.9001 4.44625 6.65755 4.50574 6.45439 4.63842C4.29139 4.53622 3.96717 5.71184 3.77417 6.42123C3.72835 6.58977 3.67653 6.78069 3.62242 6.83376C3.16532 7.27946 3.18232 8.69431 3.19517 9.07098C3.13028 9.32742 2.81394 10.6647 3.03534 11.5255C3.11826 11.8478 3.32266 12.1623 3.52043 12.4662C3.73291 12.7931 3.9738 13.1636 3.91244 13.3715C3.88362 13.4693 3.78909 13.561 3.60397 13.6437C2.87696 13.9687 2.08527 14.5685 1.87796 15.039V3.31686H11.2066V13.2432L10.8248 12.7315ZM11.2792 2.69495H1.62484L0.81719 2.07304H12.0866L11.2792 2.69495ZM0.634141 10.3177V4.94067V4.16079V2.87219V2.47997L1.25605 3.32743V4.98793V5.56009V10.3177V15.7777V18.0841L1.25481 17.9801L0.634141 18.704V10.3177ZM0.812837 19.0719L1.58463 18.2989L1.52949 18.2427H11.547L11.4919 18.2989L12.2637 19.0719H0.812837ZM12.4504 4.2717V5.01364V11.9722V18.7038L11.83 17.9801L11.8285 18.0841V13.9631V11.9722V5.57004V5.01633V3.15102L12.4504 2.30356V2.8724V4.2717Z" fill="white"/>
</svg>
