<svg width="22" height="21" viewBox="0 0 22 21" fill="none" xmlns="http://www.w3.org/2000/svg">
<path d="M1.52262 0H19.677C19.9255 0 20.0939 0.196945 20.0939 0.438807V2.20471C20.0939 2.45286 19.8969 2.62153 19.6551 2.62153H1.50095C1.25249 2.62153 1.08382 2.42428 1.08382 2.18241V0.417134C1.08382 0.168361 1.28107 0 1.52262 0V0ZM4.21232 17.5036C4.69447 17.5036 5.08616 17.982 5.08616 18.3771C5.08616 18.772 4.92597 18.9551 4.68411 19.1118V19.3785H4.95549C5.41974 19.3785 5.79981 19.7583 5.79981 20.2225V20.9836H2.62419V20.2225C2.62419 19.7583 3.00395 19.3785 3.4682 19.3785H3.7399V19.1118C3.49898 18.9551 3.3391 18.772 3.3391 18.3771C3.3391 17.982 3.73048 17.5036 4.21232 17.5036ZM8.46375 17.5036C8.94559 17.5036 9.33697 17.982 9.33697 18.3771C9.33697 18.772 9.17709 18.9551 8.93491 19.1118V19.3785H9.2063C9.67086 19.3785 10.0506 19.7583 10.0506 20.2225V20.9836H6.87531V20.2225C6.87531 19.7583 7.25507 19.3785 7.71963 19.3785H7.99102V19.1118C7.7501 18.9551 7.58991 18.772 7.58991 18.3771C7.58991 17.982 7.98128 17.5036 8.46375 17.5036V17.5036ZM12.7146 17.5036C13.1964 17.5036 13.5881 17.982 13.5881 18.3771C13.5881 18.772 13.4282 18.9551 13.186 19.1118V19.3785H13.4577C13.922 19.3785 14.3017 19.7583 14.3017 20.2225V20.9836H11.1261V20.2225C11.1261 19.7583 11.5062 19.3785 11.9704 19.3785H12.2418V19.1118C12.0009 18.9551 11.8413 18.772 11.8413 18.3771C11.8413 17.982 12.2324 17.5036 12.7146 17.5036V17.5036ZM16.9654 17.5036C17.4472 17.5036 17.8389 17.982 17.8389 18.3771C17.8389 18.772 17.6793 18.9551 17.4368 19.1118V19.3785H17.7085C18.1728 19.3785 18.5525 19.7583 18.5525 20.2225V20.9836H15.3772V20.2225C15.3772 19.7583 15.757 19.3785 16.2212 19.3785H16.4926V19.1118C16.2517 18.9551 16.0921 18.772 16.0921 18.3771C16.0921 17.982 16.4835 17.5036 16.9654 17.5036V17.5036ZM10.7837 19.1084H10.393C10.1511 19.1084 9.9388 19.2296 9.81033 19.4124C10.0572 19.5968 10.2174 19.8917 10.2174 20.2222V20.7213H10.959V20.2222C10.959 19.8917 11.1189 19.5977 11.3658 19.4124C11.2373 19.2296 11.025 19.1084 10.7837 19.1084V19.1084ZM10.589 17.5284C10.2033 17.5284 9.8898 17.8397 9.8898 18.226C9.8898 18.6133 10.2033 18.9246 10.589 18.9246C10.9747 18.9246 11.2873 18.6133 11.2873 18.226C11.2873 17.8397 10.9747 17.5284 10.589 17.5284ZM6.52289 19.1084H6.13151C5.88996 19.1084 5.67731 19.2296 5.54884 19.4124C5.79573 19.5968 5.95655 19.8917 5.95655 20.2222V20.7213H6.69784V20.2222C6.69784 19.8917 6.85804 19.5977 7.10493 19.4124C6.97646 19.2296 6.76349 19.1084 6.52289 19.1084V19.1084ZM6.32783 17.5284C5.9421 17.5284 5.62894 17.8397 5.62894 18.226C5.62894 18.6133 5.9421 18.9246 6.32783 18.9246C6.71355 18.9246 7.0264 18.6133 7.0264 18.226C7.0264 17.8397 6.71355 17.5284 6.32783 17.5284ZM15.0471 19.1084H14.6564C14.4145 19.1084 14.2019 19.2296 14.0737 19.4124C14.3206 19.5968 14.4808 19.8917 14.4808 20.2222V20.7213H15.2224V20.2222C15.2224 19.8917 15.3823 19.5977 15.6292 19.4124C15.5007 19.2296 15.2883 19.1084 15.0471 19.1084V19.1084ZM14.8524 17.5284C14.4666 17.5284 14.1532 17.8397 14.1532 18.226C14.1532 18.6133 14.4666 18.9246 14.8524 18.9246C15.2381 18.9246 15.5506 18.6133 15.5506 18.226C15.5506 17.8397 15.2381 17.5284 14.8524 17.5284ZM2.96092 3.28587C2.96092 2.73775 3.79518 2.73775 3.79518 3.28587C3.79518 4.84981 3.5596 6.17094 3.05421 7.33879C2.96092 7.55458 2.8582 7.76252 2.74638 7.96826C3.88376 7.08593 4.78462 5.90615 4.78462 3.32765C4.78462 2.7789 5.61889 2.7789 5.61889 3.32765C5.61889 6.35626 4.53302 7.67488 3.19084 8.67971C4.98502 8.24499 6.78642 7.50307 6.78642 3.32765C6.78642 2.7789 7.62069 2.7789 7.62069 3.32765C7.62069 8.52423 5.15464 9.08805 2.9116 9.59941C2.16654 9.76872 1.28641 9.94713 0.692124 10.4528C0.279388 10.8109 -0.265901 10.1827 0.147149 9.82463C1.0524 9.04847 1.8116 8.11934 2.29218 7.01055C2.74732 5.95766 2.96092 4.7427 2.96092 3.28587V3.28587ZM1.49687 11.0264C1.80406 11.1436 4.51103 12.2206 4.51103 14.0167V15.6139C4.51103 16.162 3.67708 16.162 3.67708 15.6139V14.0167C3.67708 13.3577 3.01337 12.7885 2.36537 12.3893C2.5419 12.8379 2.67979 13.3888 2.67979 14.0167V15.6139C2.67979 16.162 1.84584 16.162 1.84584 15.6139V14.0167C1.84584 12.6761 1.11334 11.8082 1.02037 11.7039C0.700919 11.3845 0.988641 10.8744 1.49687 11.0264V11.0264ZM18.2168 3.28587C18.2168 2.73775 17.3828 2.73775 17.3828 3.28587C17.3828 4.84981 17.6181 6.17094 18.1241 7.33879C18.2168 7.55458 18.3198 7.76252 18.4313 7.96826C17.2942 7.08593 16.3934 5.90615 16.3934 3.32765C16.3934 2.7789 15.5594 2.7789 15.5594 3.32765C15.5594 6.35626 16.6453 7.67488 17.9868 8.67971C16.193 8.24499 14.3916 7.50307 14.3916 3.32765C14.3916 2.7789 13.5576 2.7789 13.5576 3.32765C13.5576 8.52423 16.0234 9.08805 18.2661 9.59941C19.0118 9.76872 19.8916 9.94713 20.4859 10.4528C20.8986 10.8109 21.4436 10.1827 21.0312 9.82463C20.1259 9.04847 19.3661 8.11934 18.8855 7.01055C18.4304 5.95766 18.2168 4.7427 18.2168 3.28587V3.28587ZM19.6814 11.0264C19.3739 11.1436 16.667 12.2206 16.667 14.0167V15.6139C16.667 16.162 17.5012 16.162 17.5012 15.6139V14.0167C17.5012 13.3577 18.1643 12.7885 18.8123 12.3893C18.6364 12.8379 18.4985 13.3888 18.4985 14.0167V15.6139C18.4985 16.162 19.3325 16.162 19.3325 15.6139V14.0167C19.3325 12.6761 20.0643 11.8082 20.1576 11.7039C20.4774 11.3845 20.1894 10.8744 19.6814 11.0264V11.0264ZM0.543237 17.0346C-0.00519279 17.0346 -0.00519279 16.2007 0.543237 16.2007H20.6351C21.1832 16.2007 21.1832 17.0346 20.6351 17.0346H0.543237ZM19.2599 0.833953H1.91777V1.78758H19.2599V0.833953V0.833953Z" fill="white"/>
</svg>
