<svg width="17" height="17" viewBox="0 0 17 17" fill="none" xmlns="http://www.w3.org/2000/svg">
<path d="M12.4299 16.0726H3.90656C3.83685 16.0726 3.7703 16.0434 3.72321 15.992C3.67611 15.9405 3.65278 15.8717 3.65893 15.8022L4.72435 3.72744C4.73567 3.5991 4.84314 3.50069 4.97198 3.50069H13.4953C13.5651 3.50069 13.6316 3.52999 13.6787 3.58141C13.7258 3.63283 13.7491 3.70166 13.743 3.77113L12.6776 15.8459C12.6662 15.9742 12.5588 16.0726 12.4299 16.0726ZM4.17807 15.5754H12.2023L13.2239 3.99788H5.19959L4.17807 15.5754Z" fill="white"/>
<path d="M15.626 16.0726H12.4297C12.36 16.0726 12.2935 16.0434 12.2464 15.992C12.1993 15.9405 12.176 15.8717 12.1821 15.8022L13.2428 3.77709L13.2432 3.76992C13.26 3.51283 13.4557 3.49983 13.4948 3.49983C13.6148 3.49983 13.718 3.58638 13.7397 3.70436L14.4606 7.63956L15.871 15.7816C15.8835 15.8539 15.8635 15.928 15.8162 15.9841C15.769 16.0403 15.6993 16.0726 15.626 16.0726ZM12.7013 15.5754H15.3307L13.9711 7.72678L13.5812 5.59864L12.7013 15.5754Z" fill="white"/>
<path d="M11.5097 5.77358C11.3724 5.77358 11.2611 5.66228 11.2611 5.52498V2.52064C11.2611 1.4049 10.3534 0.497196 9.23768 0.497196C8.12194 0.497196 7.21424 1.40493 7.21424 2.52064V5.52498C7.21424 5.66228 7.10294 5.77358 6.96564 5.77358C6.82834 5.77358 6.71704 5.66228 6.71704 5.52498V2.52064C6.71704 1.13077 7.84777 0 9.23765 0C10.6276 0 11.7583 1.13077 11.7583 2.52064V5.52498C11.7583 5.66228 11.647 5.77358 11.5097 5.77358Z" fill="white"/>
<path d="M9.3585 14.6521H4.44269C4.30539 14.6521 4.19409 14.5408 4.19409 14.4035C4.19409 14.2662 4.30539 14.1549 4.44269 14.1549H9.3585C9.4958 14.1549 9.6071 14.2662 9.6071 14.4035C9.6071 14.5408 9.4958 14.6521 9.3585 14.6521Z" fill="white"/>
<path d="M12.5999 13.2315H4.26153C4.16099 13.2315 4.07032 13.171 4.03186 13.0781C3.9934 12.9852 4.01467 12.8782 4.08577 12.8071L8.16988 8.72302C8.26697 8.626 8.42437 8.626 8.52147 8.72302C8.61853 8.82012 8.61853 8.97751 8.52147 9.07461L4.86171 12.7343H12.6C12.7373 12.7343 12.8486 12.8456 12.8486 12.9829C12.8486 13.1202 12.7372 13.2315 12.5999 13.2315Z" fill="white"/>
<path d="M15.6258 16.0726C15.5713 16.0726 15.5165 16.0549 15.4707 16.0182L13.8687 14.7366L12.6055 15.9998C12.5084 16.0969 12.351 16.0969 12.2539 15.9998C12.1569 15.9027 12.1569 15.7453 12.2539 15.6482L13.6745 14.2277C13.7641 14.1382 13.9066 14.1302 14.0056 14.2094L15.7813 15.6299C15.8885 15.7157 15.9059 15.8721 15.8201 15.9793C15.771 16.0407 15.6987 16.0726 15.6258 16.0726Z" fill="white"/>
<path d="M13.8506 14.6521C13.7134 14.6521 13.6021 14.5408 13.6021 14.4035V12.2726C13.6021 12.1353 13.7134 12.024 13.8506 12.024C13.9879 12.024 14.0992 12.1353 14.0992 12.2726V14.4035C14.0992 14.5408 13.9879 14.6521 13.8506 14.6521Z" fill="white"/>
<path d="M3.90654 16.0726H1.7757C1.6384 16.0726 1.5271 15.9613 1.5271 15.824V6.5904C1.5271 6.45311 1.6384 6.3418 1.7757 6.3418H4.61682C4.75411 6.3418 4.86542 6.45311 4.86542 6.5904C4.86542 6.7277 4.75411 6.839 4.61682 6.839H2.0243V15.5754H3.90654C4.04383 15.5754 4.15514 15.6867 4.15514 15.824C4.15514 15.9613 4.04383 16.0726 3.90654 16.0726Z" fill="white"/>
<path d="M4.6164 6.839H1.065C0.927707 6.839 0.816406 6.7277 0.816406 6.5904V5.16984C0.816406 5.03254 0.927707 4.92124 1.065 4.92124H4.6164C4.7537 4.92124 4.865 5.03254 4.865 5.16984C4.865 5.30714 4.7537 5.41844 4.6164 5.41844H1.3136V6.3418H4.6164C4.7537 6.3418 4.865 6.4531 4.865 6.5904C4.865 6.7277 4.7537 6.839 4.6164 6.839Z" fill="white"/>
<path d="M1.59771 3.2876C1.16689 3.2876 0.816406 2.93711 0.816406 2.50629C0.816406 2.07547 1.16689 1.72498 1.59771 1.72498C2.02853 1.72498 2.37902 2.07547 2.37902 2.50629C2.37902 2.93711 2.0285 3.2876 1.59771 3.2876ZM1.59771 2.22218C1.44106 2.22218 1.3136 2.34964 1.3136 2.50629C1.3136 2.66294 1.44106 2.7904 1.59771 2.7904C1.75437 2.7904 1.88183 2.66294 1.88183 2.50629C1.88183 2.34964 1.75437 2.22218 1.59771 2.22218Z" fill="white"/>
<path d="M15.6259 2.22218C15.0971 2.22218 14.667 1.79204 14.667 1.26331C14.667 0.734574 15.0971 0.304428 15.6259 0.304428C16.1546 0.304428 16.5847 0.734574 16.5847 1.26331C16.5847 1.79204 16.1546 2.22218 15.6259 2.22218ZM15.6259 0.801624C15.3713 0.801624 15.1642 1.00874 15.1642 1.26331C15.1642 1.51787 15.3713 1.72499 15.6259 1.72499C15.8804 1.72499 16.0876 1.51787 16.0876 1.26331C16.0876 1.00874 15.8804 0.801624 15.6259 0.801624Z" fill="white"/>
<path d="M10.1868 14.7404C10.0007 14.6784 9.90016 14.4772 9.96216 14.2912C10.0242 14.1051 10.2253 14.0046 10.4114 14.0666C10.5974 14.1286 10.698 14.3297 10.636 14.5158C10.574 14.7019 10.3728 14.8024 10.1868 14.7404Z" fill="white"/>
<path d="M0.242919 9.76851C0.0568614 9.70651 -0.0437143 9.50539 0.0183287 9.3193C0.0803361 9.13324 0.281452 9.0327 0.46751 9.09471C0.653603 9.15672 0.754143 9.35787 0.692136 9.54392C0.630093 9.72998 0.428977 9.83056 0.242919 9.76851Z" fill="white"/>
<path d="M0.242919 9.76851C0.0568614 9.70651 -0.0437143 9.50539 0.0183287 9.3193C0.0803361 9.13324 0.281452 9.0327 0.46751 9.09471C0.653603 9.15672 0.754143 9.35787 0.692136 9.54392C0.630093 9.72998 0.428977 9.83056 0.242919 9.76851Z" fill="white"/>
<path d="M15.8691 6.92733C15.6831 6.86528 15.5825 6.66417 15.6445 6.47811C15.7065 6.29205 15.9077 6.19148 16.0938 6.25352C16.2798 6.31553 16.3804 6.51668 16.3183 6.70274C16.2563 6.88879 16.0552 6.98937 15.8691 6.92733Z" fill="white"/>
<path d="M4.26154 2.57732C4.12424 2.57732 4.01294 2.46602 4.01294 2.32872V1.2633C4.01294 1.126 4.12424 1.0147 4.26154 1.0147C4.39883 1.0147 4.51014 1.126 4.51014 1.2633V2.32872C4.51014 2.46602 4.39883 2.57732 4.26154 2.57732Z" fill="white"/>
<path d="M4.79473 2.04461H3.72931C3.59201 2.04461 3.48071 1.93331 3.48071 1.79601C3.48071 1.65872 3.59201 1.54742 3.72931 1.54742H4.79473C4.93203 1.54742 5.04333 1.65872 5.04333 1.79601C5.04333 1.93331 4.93203 2.04461 4.79473 2.04461Z" fill="white"/>
<path d="M10.4764 9.68012C10.3391 9.68012 10.2278 9.56882 10.2278 9.43153V8.36611C10.2278 8.22881 10.3391 8.11751 10.4764 8.11751C10.6137 8.11751 10.725 8.22881 10.725 8.36611V9.43153C10.725 9.56882 10.6137 9.68012 10.4764 9.68012Z" fill="white"/>
<path d="M11.0091 9.14742H9.94367C9.80637 9.14742 9.69507 9.03612 9.69507 8.89882C9.69507 8.76152 9.80637 8.65022 9.94367 8.65022H11.0091C11.1464 8.65022 11.2577 8.76152 11.2577 8.89882C11.2577 9.03612 11.1464 9.14742 11.0091 9.14742Z" fill="white"/>
<path d="M16.3363 16.0726H0.355043C0.217746 16.0726 0.106445 15.9613 0.106445 15.824C0.106445 15.6867 0.217746 15.5754 0.355043 15.5754H16.3363C16.4736 15.5754 16.5849 15.6867 16.5849 15.824C16.5849 15.9613 16.4736 16.0726 16.3363 16.0726Z" fill="white"/>
</svg>
