<svg width="22" height="22" viewBox="0 0 22 22" fill="none" xmlns="http://www.w3.org/2000/svg">
<path d="M10.9023 21.8046C4.87734 21.8046 0 16.9012 0 10.9023C0 4.87734 4.90342 0 10.9023 0C16.9272 0 21.8046 4.90342 21.8046 10.9023C21.8046 16.9272 16.9012 21.8046 10.9023 21.8046ZM10.9023 0.495558C5.16424 0.495558 0.521641 5.16424 0.521641 10.8762C0.521641 16.5882 5.19032 21.2569 10.9023 21.2569C16.6403 21.2569 21.2829 16.5882 21.2829 10.8762C21.2829 5.16424 16.6143 0.495558 10.9023 0.495558Z" fill="white"/>
<path d="M10.9021 19.405C6.20735 19.405 2.37329 15.5971 2.37329 10.8762C2.37329 6.18144 6.18127 2.34738 10.9021 2.34738C15.5969 2.34738 19.4309 6.15536 19.4309 10.8762C19.4049 15.5971 15.5969 19.405 10.9021 19.405ZM10.9021 2.8951C6.49425 2.8951 2.89493 6.49442 2.89493 10.9023C2.89493 15.3102 6.49425 18.9095 10.9021 18.9095C15.31 18.9095 18.9093 15.3102 18.9093 10.9023C18.8832 6.49442 15.31 2.8951 10.9021 2.8951Z" fill="white"/>
<path d="M15.91 15.2841C15.7535 15.2841 15.6492 15.1797 15.6492 15.0232V12.6237C15.0493 12.4411 14.5798 11.9195 14.4494 11.3196C14.0321 9.20696 14.5276 7.92894 14.9971 7.22472C15.4144 6.57267 15.7535 6.41618 15.7796 6.3901L16.1708 6.18144V12.415V15.0232C16.1708 15.1797 16.0404 15.2841 15.91 15.2841ZM15.6492 7.19864C15.597 7.27689 15.5188 7.38122 15.4405 7.48554C15.0232 8.11151 14.6059 9.25912 14.971 11.1892C15.0493 11.5543 15.3101 11.8934 15.6492 12.0499V7.19864Z" fill="white"/>
<path d="M11.8678 15.2058C11.7113 15.2058 11.607 15.1015 11.607 14.945V10.5111C11.3461 10.485 10.981 10.3285 10.6419 9.93725C10.2246 9.38952 10.2246 7.19863 10.2246 6.78132C10.2246 6.65091 10.355 6.5205 10.4854 6.5205C10.6419 6.5205 10.7462 6.65091 10.7462 6.78132C10.7462 7.77244 10.8245 9.31128 11.0592 9.62426C11.3983 10.0677 11.8156 10.0155 11.8156 10.0155L12.1025 9.98941V14.945C12.1286 15.1015 12.0243 15.2058 11.8678 15.2058Z" fill="white"/>
<path d="M11.8673 15.2058C11.7108 15.2058 11.6064 15.1015 11.6064 14.945V9.98941L11.8933 10.0155C11.9194 10.0155 12.3367 10.0677 12.6497 9.62426C12.8845 9.31128 12.9888 7.77244 12.9627 6.78132C12.9627 6.62483 13.067 6.5205 13.2235 6.5205C13.3539 6.5205 13.4844 6.62483 13.4844 6.78132C13.4844 7.22472 13.4844 9.38952 13.067 9.96333C12.7541 10.3806 12.3628 10.5111 12.102 10.5371V14.9711C12.1281 15.1015 12.0238 15.2058 11.8673 15.2058Z" fill="white"/>
<path d="M11.4499 9.83292C11.3195 9.83292 11.1891 9.72859 11.1891 9.5721L11.1108 6.80741C11.1108 6.65091 11.2152 6.54659 11.3717 6.54659C11.5021 6.54659 11.6325 6.65091 11.6325 6.80741L11.7107 9.5721C11.7368 9.70251 11.6064 9.83292 11.4499 9.83292C11.476 9.83292 11.476 9.83292 11.4499 9.83292Z" fill="white"/>
<path d="M12.2845 9.83292C12.128 9.83292 12.0237 9.70251 12.0237 9.5721L12.1019 6.78132C12.1019 6.62483 12.2323 6.5205 12.3627 6.5205C12.5192 6.5205 12.6236 6.65091 12.6236 6.78132L12.5453 9.54601C12.5453 9.70251 12.4149 9.83292 12.2845 9.83292Z" fill="white"/>
<path d="M7.19881 15.2319C7.04232 15.2319 6.93799 15.1275 6.93799 14.971V12.0238C6.93799 11.8673 7.04232 11.763 7.19881 11.763C7.3553 11.763 7.45963 11.8673 7.45963 12.0238V14.971C7.45963 15.1275 7.3553 15.2319 7.19881 15.2319Z" fill="white"/>
<path d="M7.19866 12.2846C5.34683 12.2846 4.6687 10.3285 4.6687 9.10262C4.6687 7.90285 5.21642 6.67699 5.21642 6.62483L5.29467 6.46834H9.10265L9.18089 6.62483C9.20697 6.67699 9.72861 7.92893 9.72861 9.10262C9.72861 10.3285 9.05048 12.2846 7.19866 12.2846ZM5.65982 6.98998C5.52941 7.35513 5.21642 8.268 5.21642 9.10262C5.21642 10.1198 5.76415 11.763 7.22474 11.763C8.68533 11.763 9.23306 10.1198 9.23306 9.10262C9.23306 8.24192 8.92007 7.32904 8.78966 6.98998H5.65982V6.98998Z" fill="white"/>
<path d="M9.25975 15.2319H5.16487C5.00838 15.2319 4.90405 15.1275 4.90405 14.971C4.90405 14.8145 5.00838 14.7102 5.16487 14.7102H9.28583C9.44233 14.7102 9.54665 14.8145 9.54665 14.971C9.52057 15.1275 9.41624 15.2319 9.25975 15.2319Z" fill="white"/>
<path d="M9.4683 8.94609H6.33846C6.18196 8.94609 6.07764 8.84177 6.07764 8.68527C6.07764 8.52878 6.18196 8.42445 6.33846 8.42445H9.44222C9.59871 8.42445 9.70304 8.52878 9.70304 8.68527C9.72912 8.84177 9.59871 8.94609 9.4683 8.94609Z" fill="white"/>
</svg>
