<svg width="14" height="22" viewBox="0 0 14 22" fill="none" xmlns="http://www.w3.org/2000/svg">
<path d="M1.08743 0.986977C0.905573 0.986976 0.731126 1.05905 0.602304 1.18742C0.473483 1.31579 0.400789 1.48998 0.400146 1.67183V6.02383C0.400146 6.90541 0.900432 8.78026 2.42558 9.20283V19.9371C2.43985 20.2628 2.57927 20.5704 2.81477 20.7958C3.05026 21.0212 3.36367 21.147 3.68965 21.147C4.01563 21.147 4.32903 21.0212 4.56453 20.7958C4.80002 20.5704 4.93944 20.2628 4.95372 19.9371V9.20041C5.50257 9.04012 6.89657 8.39898 6.87472 6.02383V1.67183C6.87472 1.4902 6.80256 1.316 6.67413 1.18757C6.54569 1.05913 6.3715 0.986977 6.18986 0.986977C6.00822 0.986977 5.83403 1.05913 5.70559 1.18757C5.57716 1.316 5.505 1.4902 5.505 1.67183V5.69112C5.5038 5.70323 5.5038 5.71544 5.505 5.72755C5.50437 5.77093 5.48668 5.81231 5.45578 5.84276C5.42488 5.8732 5.38324 5.89027 5.33986 5.89026C5.31849 5.89026 5.29733 5.88605 5.27759 5.87788C5.25785 5.8697 5.23991 5.85771 5.2248 5.8426C5.20969 5.8275 5.19771 5.80956 5.18953 5.78982C5.18135 5.77007 5.17715 5.74892 5.17715 5.72755V1.67183C5.17715 1.4902 5.10499 1.316 4.97656 1.18757C4.84812 1.05913 4.67392 0.986977 4.49229 0.986977C4.31065 0.986977 4.13646 1.05913 4.00802 1.18757C3.87959 1.316 3.80743 1.4902 3.80743 1.67183V5.69598C3.80633 5.70647 3.80633 5.71705 3.80743 5.72755C3.80679 5.77093 3.78911 5.81231 3.75821 5.84276C3.72731 5.8732 3.68567 5.89027 3.64229 5.89026C3.62092 5.89026 3.59976 5.88605 3.58002 5.87788C3.56028 5.8697 3.54234 5.85771 3.52723 5.8426C3.51212 5.8275 3.50014 5.80956 3.49196 5.78982C3.48378 5.77007 3.47957 5.74892 3.47957 5.72755C3.48077 5.71787 3.48077 5.70808 3.47957 5.69841V1.67183C3.47957 1.4902 3.40742 1.316 3.27899 1.18757C3.15055 1.05913 2.97635 0.986977 2.79472 0.986977C2.61308 0.986977 2.43889 1.05913 2.31045 1.18757C2.18202 1.316 2.10986 1.4902 2.10986 1.67183V5.68869C2.10873 5.70162 2.10873 5.71462 2.10986 5.72755C2.10498 5.76759 2.08561 5.80446 2.05541 5.8312C2.02521 5.85794 1.98627 5.8727 1.94593 5.8727C1.9056 5.8727 1.86665 5.85794 1.83645 5.8312C1.80625 5.80446 1.78689 5.76759 1.782 5.72755V1.67183C1.78201 1.58107 1.76398 1.49122 1.72896 1.40749C1.69394 1.32376 1.64262 1.24782 1.57799 1.1841C1.51336 1.12038 1.43672 1.07013 1.3525 1.03629C1.26828 1.00245 1.17818 0.985689 1.08743 0.986977ZM1.935 6.38569C2.10085 6.38595 2.26049 6.32266 2.3811 6.20883C2.50171 6.09499 2.57412 5.93927 2.58343 5.77369C2.58583 5.75922 2.58583 5.74445 2.58343 5.72998V1.67183C2.58343 1.61902 2.60441 1.56837 2.64176 1.53102C2.67911 1.49367 2.72976 1.47269 2.78257 1.47269C2.83539 1.47269 2.88604 1.49367 2.92339 1.53102C2.96074 1.56837 2.98172 1.61902 2.98172 1.67183V5.72755C2.98172 5.74212 2.98172 5.75426 2.98172 5.76641C2.99184 5.93184 3.06469 6.08717 3.18541 6.20073C3.30613 6.31429 3.46562 6.37752 3.63136 6.37752C3.7971 6.37752 3.95659 6.31429 4.07731 6.20073C4.19803 6.08717 4.27088 5.93184 4.281 5.76641C4.281 5.75426 4.281 5.74212 4.281 5.72998V1.67183C4.281 1.61944 4.30165 1.56915 4.33847 1.53187C4.37529 1.49459 4.42532 1.47333 4.47772 1.47269C4.53076 1.47269 4.58167 1.49359 4.6194 1.53087C4.65713 1.56815 4.67865 1.6188 4.67929 1.67183V5.74212C4.67671 5.91409 4.74256 6.08005 4.86234 6.20347C4.98212 6.3269 5.14603 6.39769 5.318 6.40026C5.48998 6.40284 5.65593 6.33699 5.77936 6.21721C5.90278 6.09743 5.97357 5.93352 5.97615 5.76155C5.97732 5.74781 5.97732 5.734 5.97615 5.72026V1.67183C5.97615 1.61902 5.99713 1.56837 6.03447 1.53102C6.07182 1.49367 6.12247 1.47269 6.17529 1.47269C6.2281 1.47269 6.27876 1.49367 6.3161 1.53102C6.35345 1.56837 6.37443 1.61902 6.37443 1.67183V6.02626C6.39143 8.52041 4.73757 8.75841 4.67443 8.76812C4.61432 8.77416 4.55862 8.80239 4.5182 8.8473C4.47778 8.8922 4.45556 8.95056 4.45586 9.01098V19.9395C4.44475 20.1385 4.3579 20.3256 4.21315 20.4625C4.06839 20.5994 3.87673 20.6756 3.6775 20.6756C3.47828 20.6756 3.28661 20.5994 3.14186 20.4625C2.99711 20.3256 2.91026 20.1385 2.89915 19.9395V9.01098C2.89973 8.95205 2.87886 8.89492 2.84043 8.85023C2.80201 8.80555 2.74864 8.77637 2.69029 8.76812C1.18215 8.48398 0.873718 6.53141 0.873718 6.02141V1.67183C0.874357 1.6188 0.895875 1.56815 0.933608 1.53087C0.971341 1.49359 1.02225 1.47269 1.07529 1.47269C1.1281 1.47269 1.17876 1.49367 1.2161 1.53102C1.25345 1.56837 1.27443 1.61902 1.27443 1.67183V5.72755C1.27311 5.81455 1.28932 5.90092 1.32208 5.98153C1.35484 6.06213 1.40349 6.13532 1.46512 6.19673C1.52676 6.25814 1.60013 6.30652 1.68085 6.33898C1.76158 6.37145 1.84801 6.38733 1.935 6.38569Z" fill="white"/>
<path d="M10.8598 21.2C11.5544 21.2 12.0984 20.5564 12.0984 19.7428V9.74199C12.0984 8.80699 12.4676 8.3747 12.895 7.87199C13.3807 7.29642 13.9466 6.6407 13.9466 5.17142C13.9466 2.76227 12.5258 0.799988 10.7894 0.799988C9.06513 0.848559 7.71484 2.76713 7.71484 5.17142C7.71484 6.62856 8.27099 7.29642 8.76399 7.87199C9.19142 8.3747 9.56056 8.80699 9.56056 9.74199V19.7428C9.54599 20.5006 10.1726 21.2 10.8598 21.2ZM9.11613 7.5587C8.63042 6.99527 8.18356 6.46099 8.18356 5.17142C8.18356 3.0707 9.34927 1.32699 10.7846 1.2857C12.2417 1.2857 13.456 3.06827 13.456 5.17142C13.456 6.46099 13.0018 6.99527 12.521 7.5587C12.0717 8.08327 11.6078 8.6297 11.6078 9.74442V19.7428C11.6078 20.2286 11.3261 20.7143 10.855 20.7143C10.481 20.7143 10.0268 20.2771 10.0268 19.7428V9.74199C10.0317 8.6297 9.56784 8.0857 9.11613 7.5587Z" fill="white"/>
</svg>
