<svg width="23" height="15" viewBox="0 0 23 15" fill="none" xmlns="http://www.w3.org/2000/svg">
<path fill-rule="evenodd" clip-rule="evenodd" d="M22.4679 10.2406C21.3075 10.2406 21.5686 9.54432 20.5823 9.60234C20.7273 9.45728 20.6403 9.2252 20.4372 9.2252C20.2342 9.2252 20.1471 9.48629 20.3212 9.60234V13.0255H17.7683V10.8498C18.4936 10.2406 19.1608 11.1399 19.654 10.2406C18.4936 10.2406 18.7256 9.54432 17.7683 9.60234C17.9134 9.45728 17.8263 9.2252 17.6233 9.2252C17.4202 9.2252 17.3332 9.48629 17.5072 9.60234V13.0255H14.9543V10.8498C15.6796 10.2406 16.3468 11.1399 16.84 10.2406C15.6796 10.2406 15.9117 9.54432 14.9543 9.60234C15.0994 9.45728 15.0124 9.2252 14.8093 9.2252C14.6062 9.2252 14.5192 9.48629 14.6932 9.60234V13.0255H13.1847C17.014 7.89074 7.06359 12.1842 5.70012 12.9095C5.72913 12.3873 5.72913 11.0238 5.20695 9.74739C7.84686 7.94876 10.2547 5.83103 13.3008 4.75765C16.1147 3.80032 21.2495 2.55289 21.7137 6.81737C20.1471 3.82933 14.8673 4.96072 12.6625 6.46925C14.8383 6.20816 19.5089 5.27983 21.0464 7.33955C21.5686 8.03579 21.6557 8.9351 21.7427 9.74739C22.0908 8.90609 22.1778 7.94876 21.8297 7.10747C22.0618 6.35321 22.1198 5.56993 21.8297 4.81567C22.0618 0.580202 16.6659 -0.377131 13.3878 0.261091C8.89123 1.18941 5.67111 5.22181 2.79911 7.02044C-0.479029 9.10916 2.04485 1.82763 9.61648 0C0.130183 0.14505 -2.59676 10.5016 2.59604 8.9351C3.40832 9.54432 4.24961 10.7337 3.95951 13.0255H2.56703V14.0409H22.2068V13.0255H20.5823V10.8498C21.3075 10.2406 21.9748 11.1399 22.4679 10.2406ZM13.6779 1.65357C16.4919 0.986343 20.8434 0.783272 21.6557 4.38052C19.828 1.10238 13.8229 2.49487 11.038 3.91636C8.63013 5.13478 6.68646 7.13648 4.97486 9.2252C4.77179 8.81906 4.48169 8.44193 4.10456 8.12282C7.52775 5.65696 9.03628 2.78497 13.6779 1.65357Z" fill="white"/>
</svg>
