<svg width="33" height="33" viewBox="0 0 33 33" fill="none" xmlns="http://www.w3.org/2000/svg">
<path d="M24.2571 21.3503H22.728L22.1866 20.8236C24.312 18.3491 25.3956 15.1477 25.2098 11.8916C25.024 8.63553 23.5833 5.57804 21.1902 3.36113C18.7971 1.14422 15.6378 -0.0596586 12.3756 0.00227654C9.11336 0.0642117 6.00204 1.38714 3.69489 3.69329C1.38774 5.99944 0.0642395 9.10941 0.00227753 12.3702C-0.0596845 15.631 1.14471 18.789 3.36259 21.181C5.58046 23.5731 8.63928 25.0132 11.8968 25.1989C15.1543 25.3846 18.3571 24.3015 20.8327 22.177L21.3595 22.7181V24.2453L29.5835 32.4643C29.9704 32.8189 30.4792 33.0106 31.004 32.9995C31.5289 32.9885 32.0292 32.7756 32.4008 32.4051C32.7725 32.0346 32.9869 31.535 32.9994 31.0105C33.0119 30.486 32.8215 29.9768 32.4679 29.5891L24.2571 21.3503ZM12.6456 21.3503C10.9238 21.3497 9.24088 20.8389 7.80954 19.8824C6.37819 18.9259 5.26273 17.5666 4.6042 15.9764C3.94566 14.3862 3.77363 12.6366 4.10985 10.9487C4.44607 9.2608 5.27545 7.71046 6.49311 6.4937C7.71077 5.27693 9.26203 4.44839 10.9508 4.11282C12.6395 3.77726 14.3898 3.94975 15.9805 4.60847C17.5712 5.2672 18.9307 6.38259 19.8872 7.8136C20.8437 9.24462 21.3542 10.927 21.3542 12.648C21.356 13.7915 21.1319 14.9241 20.6948 15.9809C20.2578 17.0376 19.6163 17.9978 18.8073 18.8062C17.9982 19.6147 17.0375 20.2556 15.9801 20.6921C14.9228 21.1287 13.7896 21.3523 12.6456 21.3503Z" fill="black"/>
</svg>
