<svg width="57" height="57" viewBox="0 0 57 57" fill="none" xmlns="http://www.w3.org/2000/svg">
<path d="M43.4079 48.6425C43.491 52.6473 40.6145 55.8722 36.5138 56.358C34.0049 56.6552 31.6685 56.2173 29.3321 55.4119C24.6561 53.7947 19.9067 52.4427 15.0294 51.5893C12.4405 51.1355 9.96347 50.5026 7.72937 49.0228C5.44732 47.511 4.07937 45.4336 3.80451 42.7552C3.3986 38.7952 4.79531 35.583 8.25993 33.4672C9.08134 32.9654 10.0658 32.7001 11.0086 32.4444C14.1568 31.5879 16.8256 29.8843 19.3154 27.8452C21.0413 26.4325 22.6841 24.8951 24.5379 23.671C26.9222 22.0953 30.0225 22.5236 32.0233 24.6586C33.5798 26.3174 34.3884 28.3629 35.1842 30.4213C36.7695 34.5315 38.7288 38.4308 41.3336 42.0041C42.9445 44.2254 43.475 46.1111 43.4079 48.6425Z" fill="#4476DF"/>
<path d="M15.1374 10.6467C15.2205 7.55279 15.9524 4.82329 17.8957 2.52846C20.9608 -1.08958 25.477 -0.785943 28.0594 3.19006C30.7794 7.3802 30.2871 14.0697 26.9791 17.806C23.9172 21.2642 19.5098 20.9478 16.9624 17.0837C15.7799 15.2971 15.1119 12.884 15.1374 10.6467Z" fill="#4476DF"/>
<path d="M49.665 12.3245C49.4061 16.6905 47.6962 20.235 44.1836 22.8047C42.5951 23.9681 40.7925 24.6201 38.7917 24.2813C36.254 23.853 34.4449 21.8714 33.9432 19.1099C33.0738 14.3413 35.5828 8.78001 39.7378 6.27423C41.0865 5.45922 42.5376 4.93505 44.1229 5.09806C46.9163 5.38251 48.8723 7.30978 49.4221 10.2438C49.5531 10.947 49.5883 11.6661 49.665 12.3245Z" fill="#4476DF"/>
<path d="M41.9492 35.3529C41.9556 30.466 45.4969 25.5631 49.7638 24.3294C53.4521 23.2619 56.6099 25.4225 56.9583 29.2546C57.4345 34.4931 53.7526 39.9649 48.9328 41.1858C45.5513 42.0392 42.5597 40.0256 42.0867 36.5706C42.0227 36.0944 41.978 35.6182 41.9492 35.3529Z" fill="#4476DF"/>
<path d="M13.491 21.9452C13.4111 24.4733 12.8677 26.7713 11.3176 28.7306C8.89171 31.8021 5.12345 31.8947 2.53458 28.9543C1.15704 27.3914 0.412339 25.5248 0.140667 23.4857C-0.233282 20.6987 0.0959208 18.0107 1.64285 15.588C2.85419 13.6895 4.48742 12.4302 6.87814 12.5261C8.36754 12.5836 9.58207 13.2676 10.5953 14.3064C12.6919 16.451 13.3919 19.1262 13.491 21.9452Z" fill="#4476DF"/>
</svg>
