<svg width="17" height="25" viewBox="0 0 17 25" fill="none" xmlns="http://www.w3.org/2000/svg">
<path d="M10.2178 17.0232C10.1394 16.4688 10.2164 16.0074 10.4722 15.6219C10.7087 15.2652 10.9437 14.9053 11.1761 14.5423C11.347 14.2745 11.5499 14.1105 11.7937 14.089C12.0091 14.0701 12.209 14.1577 12.3811 14.363C12.4464 14.4408 12.5058 14.5306 12.5644 14.6205C13.3239 15.7845 14.0825 16.949 14.8415 18.114C15.0347 18.4105 15.2293 18.7043 15.4199 19.0049C15.623 19.3252 15.7003 19.7116 15.6672 20.1546C15.6499 20.3837 15.5925 20.5859 15.5082 20.7728C15.4889 20.8159 15.4684 20.8586 15.4444 20.8954C15.169 21.3196 14.8962 21.7477 14.6155 22.1642C14.4423 22.4212 14.1481 22.6108 13.7761 22.4728C13.6944 22.5878 13.6078 22.7069 13.5229 22.8287C13.15 23.3642 12.7051 23.685 12.212 23.8561C11.7071 24.0318 11.1989 24.0269 10.6867 23.9253C9.93101 23.7753 9.21801 23.4154 8.52521 22.9446C7.61113 22.3232 6.77286 21.5114 5.98289 20.576C5.23916 19.6954 4.55836 18.7115 3.92966 17.6423C3.4192 16.7743 2.9547 15.8497 2.54171 14.8671C2.15302 13.9421 1.81496 12.973 1.54714 11.9509C1.3727 11.2855 1.22928 10.6026 1.13503 9.89863C1.04752 9.24539 0.986055 8.58766 1.00274 7.91779C1.02469 7.03857 1.14528 6.20023 1.44236 5.43557C1.56295 5.12468 1.71134 4.84882 1.87789 4.59409C1.91886 4.53119 1.95691 4.46335 1.99789 4.39506C1.96306 4.16279 1.95399 3.9359 1.99087 3.70453C2.02657 3.48124 2.08628 3.27637 2.1896 3.11374C2.46532 2.67974 2.74133 2.2453 3.02816 1.82837C3.32291 1.39977 3.77043 1.36787 4.08449 1.66843C4.17464 1.75469 4.25776 1.86342 4.33328 1.97843C5.27311 3.4161 6.21089 4.85646 7.14868 6.29772C7.31054 6.54662 7.42586 6.83056 7.45132 7.19402C7.47796 7.57141 7.41854 7.90566 7.26693 8.19949C7.20048 8.32798 7.12204 8.44209 7.04653 8.5589C6.85423 8.85677 6.66018 9.15194 6.46729 9.44891C6.35197 9.62637 6.22202 9.76654 6.06426 9.84112C5.89684 9.92064 5.72854 9.91391 5.55029 9.8546C5.46424 9.98579 5.37438 10.1224 5.28452 10.2585C5.23272 10.3371 5.21516 10.4333 5.21194 10.5429C5.20316 10.8331 5.25204 11.1067 5.31438 11.374C5.51517 12.2362 5.83566 12.995 6.2027 13.7062C6.70466 14.6789 7.27776 15.5442 7.93134 16.2769C8.33349 16.7276 8.75643 17.1274 9.23001 17.3817C9.39538 17.4706 9.56397 17.5421 9.74251 17.5385C9.83588 17.5367 9.91227 17.4967 9.97725 17.3902C10.0534 17.2653 10.1356 17.1481 10.2178 17.0232ZM10.7546 18.1266C10.7008 18.2146 10.6484 18.304 10.5937 18.389C10.2992 18.8472 9.93393 18.9672 9.53265 18.9025C9.16474 18.8432 8.82288 18.6441 8.49243 18.4042C7.9969 18.0448 7.54352 17.578 7.11678 17.0528C6.65579 16.4854 6.22553 15.8667 5.83654 15.1821C5.45429 14.5095 5.10481 13.8006 4.82149 13.0197C4.57855 12.3503 4.37864 11.6557 4.32362 10.8825C4.27825 10.2446 4.37425 9.68073 4.68714 9.22787C4.73573 9.15778 4.78022 9.08141 4.813 9.02974C4.05112 7.86163 3.29715 6.70521 2.53761 5.5407C2.53176 5.54834 2.51273 5.5699 2.49576 5.59551C2.27185 5.93246 2.1176 6.33501 2.02511 6.79282C1.87496 7.53726 1.87554 8.29878 1.94579 9.05849C2.0257 9.91975 2.19341 10.7478 2.41146 11.5497C2.77177 12.8746 3.24944 14.0966 3.81024 15.2436C4.4123 16.4751 5.0931 17.5942 5.84503 18.6122C6.46056 19.4456 7.11707 20.1932 7.82304 20.837C8.3054 21.2769 8.80561 21.6605 9.3304 21.9661C9.8552 22.2716 10.392 22.5061 10.9537 22.5851C11.28 22.631 11.6034 22.6229 11.9283 22.533C12.2617 22.4409 12.5629 22.2509 12.8287 21.9319C12.9071 21.838 12.9908 21.7459 13.0312 21.6246C12.2714 20.457 11.5206 19.3037 10.7546 18.1266ZM6.54778 7.34138C6.1945 6.74565 3.72067 2.97312 3.63345 2.88775C3.38261 3.27278 3.135 3.65286 2.90436 4.00689C3.86936 5.48948 4.84315 6.98511 5.81049 8.47085C6.04728 8.10739 6.29548 7.72775 6.54778 7.34138ZM14.0255 21.0958C14.2658 20.7265 14.5134 20.346 14.7464 19.9884C13.779 18.5035 12.802 17.0039 11.8399 15.5271C11.6043 15.8888 11.357 16.2684 11.1179 16.6359C12.0811 18.1131 13.0529 19.6038 14.0255 21.0958Z" fill="#4476DF" stroke="#4476DF" stroke-width="0.5"/>
<path d="M9.34228 1.00136C10.2373 1.04539 11.0844 1.32035 11.8925 1.86127C12.7899 2.46194 13.5688 3.32095 14.2241 4.43514C15.0161 5.7816 15.552 7.33788 15.8137 9.1125C15.9249 9.86637 15.9826 10.6288 15.9852 11.4011C15.9864 11.7488 15.867 12.0067 15.6685 12.1019C15.4329 12.2152 15.1818 12.0184 15.1121 11.6536C15.0893 11.5336 15.0823 11.4029 15.0817 11.2771C15.079 10.7065 15.0357 10.1422 14.9593 9.58603C14.8197 8.56978 14.5777 7.61328 14.22 6.72777C13.9282 6.00534 13.5813 5.3557 13.1736 4.77793C12.7949 4.2415 12.3784 3.78954 11.9253 3.42069C11.481 3.05902 11.0118 2.79171 10.5204 2.62098C10.1299 2.4853 9.73536 2.40354 9.33467 2.39141C9.24745 2.38871 9.15818 2.38242 9.07417 2.35187C8.857 2.2728 8.71387 1.9655 8.73202 1.63978C8.75133 1.29204 8.93631 1.02023 9.16754 1.00316C9.23018 0.99732 9.29369 1.00136 9.34228 1.00136Z" fill="#4476DF" stroke="#4476DF" stroke-width="0.5"/>
<path d="M9.2907 4.50098C10.0903 4.55758 10.8048 4.85905 11.4657 5.45478C12.0648 5.99481 12.5565 6.71005 12.9432 7.59107C13.2505 8.29104 13.4659 9.0566 13.5865 9.88326C13.6623 10.4035 13.7065 10.9287 13.7024 11.4616C13.6998 11.7981 13.5394 12.0721 13.3214 12.1296C13.1267 12.1813 12.911 11.9962 12.8431 11.6992C12.8147 11.5748 12.8024 11.4359 12.8009 11.3034C12.7948 10.6609 12.7123 10.0423 12.5624 9.44432C12.4105 8.8387 12.1948 8.29149 11.9167 7.80178C11.6486 7.32959 11.3395 6.93334 10.9857 6.62109C10.5803 6.26392 10.1474 6.02536 9.68203 5.94044C9.49383 5.90585 9.30358 5.89776 9.11567 5.85958C8.89528 5.81465 8.74249 5.55317 8.7302 5.227C8.7182 4.91026 8.86015 4.60161 9.06621 4.52524C9.1505 4.49514 9.24065 4.50592 9.2907 4.50098Z" fill="#4476DF" stroke="#4476DF" stroke-width="0.5"/>
<path d="M9.27322 8.00792C10.134 8.09913 10.7736 8.72406 11.1834 9.88812C11.3552 10.376 11.4307 10.9075 11.4228 11.4637C11.4181 11.8011 11.2621 12.0734 11.0432 12.1331C10.8465 12.187 10.6223 11.9871 10.559 11.6825C10.5312 11.5495 10.5239 11.4044 10.5157 11.2638C10.4762 10.5629 10.2461 10.0449 9.86622 9.67607C9.6868 9.50175 9.48865 9.40336 9.27322 9.39797C9.21995 9.39662 9.16697 9.37955 9.114 9.36607C8.8816 9.30766 8.71856 9.00575 8.73115 8.65892C8.74403 8.3004 8.93399 8.01871 9.17078 8.00792C9.20503 8.00658 9.23927 8.00792 9.27322 8.00792Z" fill="#4476DF" stroke="#4476DF" stroke-width="0.5"/>
</svg>
