<svg width="68" height="60" viewBox="0 0 68 60" fill="none" xmlns="http://www.w3.org/2000/svg">
<path d="M23.4499 51.6562C23.3855 52.7643 23.4241 53.8337 23.2309 54.8645C22.7799 57.4413 21.1436 58.9875 18.6698 59.6575C16.5567 60.2373 14.1344 59.2709 12.7429 57.4156C11.7766 56.1271 11.3385 54.697 11.3385 53.1122C11.3385 51.8495 11.3127 50.5739 11.3514 49.3112C11.3643 48.8474 11.1968 48.6155 10.8102 48.3707C5.61777 45.1496 2.12607 40.6013 0.708781 34.6745C-1.32697 26.132 1.06955 18.8394 7.44737 12.861C10.2304 10.2584 13.516 8.53185 17.1752 7.51397C19.1722 6.95994 21.2338 6.74091 23.3082 6.74091C28.3331 6.74091 33.3581 6.75379 38.383 6.72802C38.7567 6.72802 39.1819 6.59918 39.504 6.40591C42.2741 4.74381 45.0185 3.04306 47.7758 1.36808C49.0127 0.607891 50.2496 0.775389 50.9325 1.87057C51.2031 2.30864 51.319 2.90133 51.3319 3.41671C51.3835 5.3365 51.3577 7.25628 51.3448 9.17607C51.3448 9.53684 51.4479 9.74299 51.7571 9.93626C55.0298 11.8303 57.5165 14.5102 59.5522 17.6541C60.7634 19.5223 62.5414 20.4371 64.7576 20.5273C66.4583 20.5917 67.5793 21.7384 67.5793 23.4392C67.5793 27.2401 67.5793 31.041 67.5793 34.842C67.5793 36.5427 66.6902 37.5992 65.0024 37.7796C63.6495 37.9342 62.3095 38.1017 61.2014 38.9779C60.6345 39.4288 60.0418 39.9313 59.6553 40.5369C57.5809 43.7709 55.0169 46.4767 51.6927 48.4609C51.4994 48.5768 51.3577 48.9247 51.3448 49.1695C51.2804 50.9991 51.3577 52.8416 51.2031 54.6712C51.0098 57.029 49.1416 58.9617 46.6549 59.6188C44.5547 60.1729 42.1324 59.2838 40.7538 57.4671C39.7617 56.1658 39.2334 54.7098 39.2978 53.0606C39.3236 52.5968 39.2978 52.1329 39.2978 51.6176C34.0152 51.6562 28.7325 51.6562 23.4499 51.6562ZM29.5571 15.7214C28.4104 16.1852 27.2895 16.5202 26.2974 17.0871C24.1328 18.3112 22.6639 20.1279 22.3934 22.6661C22.0841 25.5265 23.4112 27.5622 25.7949 29.0182C27.6631 30.1649 29.7762 30.5901 31.8248 31.2085C33.0617 31.5822 34.2729 32.0976 35.3938 32.7418C35.9478 33.051 36.4246 33.721 36.6307 34.3395C37.0817 35.6279 36.4632 36.7102 35.5098 37.5348C33.6029 39.1969 31.3739 39.4417 29.0418 38.6429C27.4827 38.1146 26.2716 37.1354 25.9624 35.3573C25.9366 35.2414 25.7562 35.061 25.6403 35.061C24.558 35.0352 23.4628 35.0481 22.3805 35.0481C22.2774 37.7281 24.2616 41.3744 29.5571 42.5727C29.5571 43.655 29.5571 44.763 29.5571 45.8453C30.7941 45.8453 31.9408 45.8453 33.139 45.8453C33.139 44.7115 33.139 43.6163 33.139 42.5211C34.5821 42.2505 35.8577 41.7223 37.0173 40.9363C38.937 39.6221 40.1224 37.844 40.3157 35.4991C40.5218 33.0252 39.4267 31.1441 37.4424 29.7397C35.6515 28.477 33.5642 27.9488 31.4898 27.3561C30.1241 26.9567 28.7454 26.5057 27.5085 25.8228C25.6274 24.7921 25.4083 22.7048 26.8385 21.1715C28.9387 18.9296 33.0488 18.7235 35.3809 20.7335C36.1669 21.4163 36.6823 22.2538 36.7853 23.2975C38.0094 23.2975 39.1561 23.2975 40.4574 23.2975C40.277 22.4986 40.1868 21.7384 39.9163 21.0556C38.7953 18.221 36.5405 16.7264 33.6931 16.0048C33.1906 15.876 33.1133 15.6827 33.1261 15.2447C33.1519 14.3299 33.139 13.4022 33.139 12.4874C31.9021 12.4874 30.7554 12.4874 29.5571 12.4874C29.5571 13.6341 29.5571 14.7293 29.5571 15.7214Z" fill="#4476DF"/>
<path d="M29.5577 15.7206C29.5577 14.7285 29.5577 13.6333 29.5577 12.4995C30.7431 12.4995 31.9027 12.4995 33.1396 12.4995C33.1396 13.4272 33.1525 14.342 33.1267 15.2568C33.1138 15.6949 33.204 15.8881 33.6936 16.017C36.5411 16.7256 38.7959 18.2202 39.9168 21.0677C40.1874 21.7506 40.2647 22.5236 40.458 23.3096C39.1567 23.3096 38.0099 23.3096 36.7859 23.3096C36.6828 22.2788 36.1803 21.4413 35.3815 20.7456C33.0494 18.7227 28.9393 18.9289 26.8391 21.1837C25.4089 22.7169 25.6408 24.7913 27.5091 25.835C28.746 26.5178 30.1246 26.9817 31.4904 27.3682C33.5648 27.9609 35.6521 28.4892 37.443 29.7518C39.4272 31.1562 40.5224 33.0374 40.3163 35.5112C40.123 37.8433 38.9376 39.6342 37.0178 40.9485C35.8582 41.7473 34.5698 42.2627 33.1396 42.5332C33.1396 43.6284 33.1396 44.7107 33.1396 45.8574C31.9285 45.8574 30.7817 45.8574 29.5577 45.8574C29.5577 44.7751 29.5577 43.6671 29.5577 42.5848C24.2493 41.3865 22.278 37.7402 22.3811 35.0602C23.4634 35.0602 24.5456 35.0474 25.6408 35.0731C25.7568 35.0731 25.9372 35.2535 25.9629 35.3695C26.2722 37.1475 27.4833 38.1268 29.0423 38.655C31.3615 39.441 33.5906 39.209 35.5103 37.5469C36.4638 36.7223 37.0694 35.64 36.6313 34.3516C36.4251 33.7331 35.9355 33.0631 35.3944 32.7539C34.2734 32.1097 33.0623 31.5943 31.8254 31.2207C29.7639 30.6022 27.6508 30.177 25.7954 29.0303C23.4118 27.5744 22.0847 25.5257 22.3939 22.6783C22.6645 20.14 24.1333 18.3233 26.2979 17.0993C27.29 16.5195 28.411 16.1845 29.5577 15.7206Z" fill="white"/>
</svg>
