<svg width="44" height="61" viewBox="0 0 44 61" fill="none" xmlns="http://www.w3.org/2000/svg">
<path d="M21.5577 61C18.933 57.6495 16.3312 54.4497 13.864 51.1494C9.94517 45.9069 6.40069 40.4178 3.57287 34.4974C2.00718 31.2177 0.653751 27.8421 0.190435 24.2109C-0.61295 17.9071 1.13533 12.3199 5.25039 7.50414C8.79031 3.36169 13.323 0.876217 18.7071 0.198361C25.634 -0.673494 31.7073 1.32812 36.7536 6.21462C39.942 9.30263 41.9459 13.0594 42.8337 17.4027C43.4751 20.5455 43.313 23.6654 42.5165 26.7648C41.8341 29.4215 40.8458 31.9709 39.659 34.4335C35.9502 42.1273 31.1002 49.0884 25.8189 55.762C24.4609 57.4783 23.0595 59.1559 21.5577 61ZM10.4473 21.6387C10.4587 27.8056 15.4616 32.7925 21.6285 32.7857C27.752 32.7788 32.7595 27.7348 32.7595 21.5725C32.7618 15.417 27.7338 10.3959 21.5897 10.4164C15.4753 10.437 10.4336 15.5152 10.4473 21.6387Z" fill="#CC952D"/>
</svg>
