<svg width="24" height="24" viewBox="0 0 24 24" fill="none" xmlns="http://www.w3.org/2000/svg">
<g clip-path="url(#clip0)">
<path d="M20.5716 0C20.0982 0 19.7144 0.383755 19.7144 0.857159V3.98827C15.3015 -0.284062 8.26077 -0.170056 3.98843 4.2428C1.97499 6.3225 0.851746 9.10531 0.85732 12C0.85732 12.4734 1.24108 12.8571 1.71448 12.8571C2.18788 12.8571 2.57159 12.4734 2.57159 12C2.57264 6.79274 6.79475 2.57223 12.002 2.57329C14.6466 2.57379 17.1694 3.68497 18.955 5.63569L15.1579 6.90167C14.7082 7.05128 14.4649 7.53709 14.6145 7.98679C14.7641 8.43649 15.2499 8.67982 15.6996 8.53021L20.8425 6.81594C21.1935 6.69902 21.4299 6.36996 21.4288 5.99996V0.857109C21.4287 0.383755 21.045 0 20.5716 0Z" fill="white"/>
<path d="M22.2863 11.1429C21.8129 11.1429 21.4291 11.5266 21.4291 12C21.4281 17.2072 17.206 21.4277 11.9987 21.4267C9.35407 21.4262 6.83131 20.315 5.04568 18.3643L8.8428 17.0983C9.2925 16.9487 9.53583 16.4629 9.38622 16.0132C9.2366 15.5635 8.75079 15.3202 8.30109 15.4698L3.15824 17.184C2.80718 17.301 2.57078 17.63 2.57193 18V23.1428C2.57193 23.6163 2.95569 24 3.42909 24C3.9025 24 4.28625 23.6163 4.28625 23.1428V20.0117C8.69916 24.284 15.74 24.1701 20.0122 19.7572C22.0257 17.6775 23.1489 14.8947 23.1433 12C23.1434 11.5266 22.7597 11.1429 22.2863 11.1429Z" fill="white"/>
</g>
<defs>
<clipPath id="clip0">
<rect width="24" height="24" fill="white"/>
</clipPath>
</defs>
</svg>
