<svg width="14" height="27" viewBox="0 0 14 27" fill="none" xmlns="http://www.w3.org/2000/svg">
<path d="M4.49263 17.1069C4.32013 16.6776 4.15311 16.2673 3.98996 15.8536C3.87259 15.5557 3.76329 15.2504 3.64528 14.9525C3.46021 14.4846 3.26385 14.0269 3.08619 13.5532C2.89595 13.0452 2.67734 12.5627 2.51645 12.0283C2.38071 11.5766 2.27817 11.1101 2.19821 10.6315C2.15081 10.3487 2.12051 10.061 2.09374 9.77136C2.07665 9.58674 2.07859 9.40456 2.0673 9.22238C2.05699 9.05583 2.01443 8.89025 2.03893 8.7237C2.07504 8.47656 2.05118 8.22552 2.07246 7.98033C2.11019 7.54466 2.16145 7.11046 2.2398 6.68602C2.35072 6.08527 2.51258 5.51528 2.71346 4.97119C2.84372 4.61806 2.9972 4.28887 3.15648 3.96407C3.26449 3.7433 3.39507 3.55526 3.51308 3.35159C3.64399 3.12545 3.80746 2.93888 3.96126 2.74156C4.12248 2.53496 4.29208 2.34838 4.47038 2.18036C4.74026 1.9259 5.01948 1.70269 5.31966 1.53468C5.52376 1.42039 5.72883 1.3144 5.93809 1.22795C6.07802 1.17032 6.21763 1.10878 6.36531 1.09754C6.47364 1.08924 6.58166 1.05212 6.68838 1.01744C6.72578 1.00523 6.7619 1.00572 6.79865 1.00523C7.035 1.00328 7.27166 1.01256 7.508 1.00083C7.65245 0.993508 7.79432 1.036 7.93297 1.06628C8.10998 1.10487 8.28957 1.15127 8.46498 1.22844C8.63909 1.30463 8.80804 1.40085 8.98151 1.47753C9.12241 1.54054 9.25074 1.64115 9.38326 1.732C9.60703 1.88536 9.8208 2.06363 10.0223 2.27365C10.2126 2.47195 10.4038 2.66781 10.574 2.91055C10.6743 3.05366 10.7858 3.18065 10.8784 3.33596C11.1389 3.77407 11.3875 4.22195 11.59 4.73333C11.8079 5.28475 11.9804 5.86011 12.1097 6.46819C12.1652 6.72852 12.2271 6.99031 12.2516 7.25845C12.2668 7.42207 12.2793 7.59155 12.2967 7.75468C12.3242 8.01159 12.3148 8.26752 12.328 8.52296C12.3341 8.6397 12.3538 8.75545 12.358 8.8756C12.3632 9.0148 12.3109 9.13642 12.3222 9.27757C12.3325 9.40602 12.3396 9.54327 12.3203 9.66684C12.2535 10.0937 12.2529 10.5436 12.1317 10.9519C12.1117 11.2713 12.0098 11.5516 11.9318 11.8398C11.855 12.1231 11.7596 12.3961 11.6516 12.6604C11.4023 13.2709 11.1753 13.9024 10.9271 14.5139C10.7549 14.9383 10.5908 15.3696 10.4212 15.796C10.2761 16.1613 10.1274 16.5237 9.98169 16.8886C9.95493 16.956 9.93462 17.0297 9.9085 17.1098C10.0223 17.1934 10.1352 17.293 10.2561 17.3604C10.4025 17.4425 10.5424 17.5455 10.6833 17.6442C10.8007 17.7262 10.928 17.776 11.0338 17.8996C11.0938 17.9695 11.1457 18.0417 11.1786 18.1463C11.3388 18.6513 11.5055 19.1519 11.6583 19.6618C11.7164 19.8557 11.778 20.0467 11.8386 20.2382C11.9692 20.6504 12.0994 21.0636 12.2268 21.4783C12.4048 22.057 12.5895 22.6314 12.7681 23.2097C12.9535 23.809 13.1389 24.4088 13.3282 25.0056C13.384 25.1824 13.394 25.3583 13.3859 25.5409C13.3779 25.7251 13.1934 25.9991 13.0715 26.0098C12.9561 26.0201 12.8436 26.0137 12.7323 25.9317C12.4896 25.7529 12.2406 25.5922 11.9943 25.4247C11.6961 25.222 11.3988 25.0144 11.0986 24.8181C10.8935 24.6837 10.6881 24.5519 10.4876 24.4019C10.3805 24.3218 10.2696 24.2535 10.1613 24.1782C10.1207 24.1499 10.0813 24.1455 10.0397 24.1734C9.86433 24.292 9.68925 24.4107 9.5132 24.527C9.25171 24.6994 8.99505 24.8889 8.72873 25.0452C8.61749 25.1106 8.5127 25.201 8.40371 25.2752C8.15738 25.4432 7.9104 25.6083 7.66341 25.7744C7.59248 25.8223 7.51639 25.8574 7.45061 25.918C7.36484 25.9966 7.27585 26.0171 7.17848 26.0152C7.10238 26.0137 7.03661 25.9859 6.96729 25.9375C6.70805 25.7568 6.44849 25.578 6.1841 25.4149C6.07415 25.347 5.96839 25.2591 5.85877 25.1863C5.61146 25.0217 5.36513 24.8537 5.11814 24.6881C4.86665 24.5196 4.61451 24.3536 4.36398 24.1821C4.31626 24.1494 4.27531 24.148 4.22888 24.1817C4.107 24.2705 3.9848 24.358 3.86131 24.4405C3.58112 24.6276 3.29963 24.8098 3.01944 24.9968C2.91014 25.0701 2.80374 25.1526 2.69443 25.2274C2.4481 25.3954 2.20337 25.5693 1.95349 25.7246C1.82387 25.8047 1.70489 25.9185 1.56786 25.9761C1.35312 26.0665 1.19416 26.0157 1.061 25.7275C0.981357 25.5551 0.991675 25.3666 1.02456 25.1761C1.06325 24.9524 1.14902 24.7604 1.21254 24.5533C1.32668 24.1812 1.45049 23.8163 1.55819 23.4402C1.64137 23.1501 1.741 22.8732 1.82967 22.5879C2.02055 21.975 2.21562 21.3645 2.40005 20.7466C2.47937 20.4804 2.56836 20.2216 2.64897 19.9568C2.82598 19.3771 3.00397 18.7983 3.18807 18.2239C3.25224 18.0232 3.34252 17.8835 3.47181 17.8034C3.59659 17.7262 3.71622 17.6315 3.84132 17.5553C4.0567 17.4239 4.26564 17.2652 4.49263 17.1069ZM7.1975 2.27561V2.27609C7.09529 2.27609 6.99276 2.28586 6.89151 2.27365C6.7835 2.26047 6.68322 2.32054 6.57876 2.33715C6.49847 2.34985 6.4127 2.3562 6.3321 2.39038C6.12348 2.47928 5.91068 2.54619 5.70819 2.66732C5.50023 2.79186 5.28936 2.91006 5.09944 3.08882C4.89567 3.28077 4.69512 3.48395 4.50456 3.70374C4.36108 3.86931 4.22018 4.05052 4.10507 4.25907C3.97384 4.49742 3.83326 4.72405 3.71202 4.97754C3.52695 5.36534 3.3609 5.77024 3.24224 6.20737C3.11714 6.66942 3.00526 7.14221 2.96592 7.64967C2.94593 7.90902 2.90369 8.16398 2.90691 8.4287C2.9082 8.52296 2.92368 8.62211 2.87886 8.71003C2.86983 8.7281 2.87499 8.77987 2.88596 8.80087C2.91659 8.85948 2.90756 8.92444 2.90724 8.98745C2.90627 9.31567 2.92626 9.63705 2.96463 9.96282C2.99494 10.2202 3.0404 10.4693 3.08619 10.7174C3.17711 11.2112 3.32156 11.6747 3.49438 12.1148C3.73459 12.7258 3.98609 13.3266 4.22759 13.9361C4.38558 14.3351 4.53035 14.7464 4.68802 15.1454C4.9292 15.7555 5.18231 16.3548 5.41994 16.9677C5.62049 17.4854 5.82878 17.9963 6.02708 18.516C6.27503 19.1651 6.54845 19.7908 6.7806 20.4536C6.82187 20.5713 6.87152 20.6914 6.94665 20.773C7.09271 20.9307 7.18525 20.9913 7.33808 20.8775C7.42933 20.8096 7.49704 20.7056 7.55508 20.5737C7.60763 20.4536 7.646 20.3241 7.69469 20.2025C7.81625 19.8982 7.94135 19.5974 8.06258 19.2926C8.17028 19.0225 8.27378 18.7485 8.3805 18.4779C8.52495 18.1121 8.67166 17.7482 8.81514 17.3814C8.93766 17.0693 9.0547 16.7523 9.17819 16.4407C9.36359 15.9733 9.55383 15.5103 9.7389 15.0429C9.85659 14.7449 9.96621 14.4402 10.0833 14.1417C10.2329 13.7617 10.3867 13.3857 10.5379 13.0076C10.6514 12.7239 10.762 12.4376 10.8768 12.1558C11.0193 11.8061 11.136 11.4388 11.2266 11.0515C11.3114 10.6891 11.392 10.3272 11.4239 9.94035C11.442 9.72203 11.482 9.50762 11.4839 9.28343C11.4852 9.1247 11.4629 8.96108 11.5132 8.8082C11.5197 8.78866 11.5194 8.75643 11.5132 8.7364C11.461 8.56692 11.4833 8.3867 11.4852 8.21233C11.4868 8.03406 11.4494 7.86653 11.4436 7.68923C11.4375 7.49777 11.382 7.3112 11.3546 7.12023C11.3075 6.78859 11.2298 6.47405 11.1363 6.16781C11.0531 5.89576 10.9661 5.62616 10.8632 5.36925C10.7265 5.02784 10.5724 4.70549 10.3928 4.41488C10.2077 4.11499 10.0097 3.8361 9.79178 3.58652C9.60284 3.37015 9.40325 3.18406 9.19786 3.01165C8.87414 2.74058 8.52785 2.55059 8.1677 2.4275C7.91265 2.34057 7.65374 2.27121 7.38967 2.27609C7.32647 2.27658 7.26199 2.27561 7.1975 2.27561ZM12.1078 24.1108C12.0433 23.894 11.9908 23.7147 11.9363 23.5365C11.7531 22.9357 11.5568 22.3447 11.3801 21.7386C11.2921 21.4363 11.185 21.1466 11.0954 20.8438C10.9632 20.3979 10.8168 19.9617 10.6788 19.5197C10.6391 19.3922 10.5937 19.2687 10.5653 19.1319C10.533 18.9761 10.4637 18.8721 10.3576 18.8061C10.0565 18.6186 9.76018 18.4144 9.4658 18.2195C9.43001 18.3114 9.39261 18.4056 9.35553 18.5009C9.21237 18.8677 9.07115 19.2364 8.92605 19.6013C8.73808 20.075 8.54687 20.5459 8.35825 21.0191C8.26314 21.2575 8.16995 21.4939 8.03582 21.6937C7.8098 22.0302 7.53251 22.1572 7.22974 22.2016C7.14527 22.2138 7.06369 22.1787 6.9805 22.1591C6.64324 22.0815 6.39046 21.8172 6.19313 21.4055C6.05126 21.11 5.9455 20.7828 5.81782 20.4746C5.67402 20.1273 5.54279 19.7678 5.40317 19.4162C5.24325 19.0127 5.08042 18.6122 4.92178 18.2186C4.66545 18.3915 4.40847 18.5619 4.15311 18.7382C4.06831 18.7968 3.96836 18.8193 3.90161 18.9199C3.83487 19.021 3.8181 19.1715 3.78102 19.3009C3.68784 19.6262 3.56983 19.9329 3.48181 20.2631C3.41023 20.5322 3.31318 20.7867 3.23289 21.0519C3.04008 21.6893 2.83759 22.3198 2.64091 22.9547C2.52838 23.3186 2.42391 23.6893 2.2972 24.0429C2.29365 24.0532 2.30042 24.0722 2.30397 24.0991C2.45325 23.9682 2.61221 23.8744 2.76795 23.7748C3.00655 23.6219 3.23966 23.45 3.4802 23.303C3.70138 23.1677 3.91451 23.0011 4.13473 22.8619C4.20631 22.8165 4.2824 22.7916 4.37011 22.8263C4.45652 22.8605 4.53809 22.9049 4.61805 22.9601C4.75992 23.0583 4.90018 23.1613 5.04302 23.2566C5.37029 23.4754 5.69884 23.6893 6.02643 23.9081C6.27341 24.0732 6.51717 24.2505 6.76673 24.4058C6.89603 24.4864 7.01501 24.6027 7.15172 24.6588C7.18331 24.672 7.20202 24.6857 7.23684 24.6613C7.38258 24.5592 7.53251 24.4708 7.67921 24.3721C7.82173 24.2764 7.96134 24.1714 8.10385 24.0757C8.4308 23.8564 8.75936 23.641 9.08662 23.4222C9.33361 23.2571 9.57994 23.0891 9.8266 22.923C9.9746 22.8234 10.1194 22.7623 10.2819 22.8781C10.5398 23.0617 10.8049 23.2229 11.0654 23.3987C11.4065 23.6297 11.746 23.8637 12.1078 24.1108Z" fill="#4476DF" stroke="#4476DF" stroke-width="0.5"/>
<path d="M7.28607 11.6086C6.68118 11.6096 6.23751 11.3346 5.878 10.7925C5.51042 10.2386 5.32147 9.55236 5.32728 8.76015C5.33276 7.97673 5.52429 7.31102 5.89347 6.7596C6.25879 6.21403 6.70279 5.93759 7.20804 5.94345C7.7191 5.94931 8.16503 6.2365 8.52777 6.80062C8.88987 7.36377 9.07108 8.03583 9.06688 8.81827C9.06269 9.59193 8.87213 10.2601 8.5123 10.7998C8.15085 11.34 7.70653 11.6106 7.28607 11.6086ZM7.18999 10.3309C7.48147 10.3568 7.72265 10.18 7.92417 9.88254C8.12731 9.58314 8.22662 9.20168 8.22533 8.7748C8.22404 8.32595 8.10667 7.95378 7.88935 7.6363C7.69105 7.34667 7.44632 7.27634 7.19515 7.20747C7.02845 7.26022 6.8524 7.27781 6.70376 7.40919C6.55286 7.54253 6.42227 7.72324 6.32618 7.94987C6.21946 8.2014 6.16819 8.48371 6.16754 8.77871C6.16658 9.19826 6.26428 9.5719 6.45967 9.86788C6.65861 10.1687 6.89818 10.3524 7.18999 10.3309Z" fill="#4476DF" stroke="#4476DF" stroke-width="0.5"/>
</svg>
