<svg width="21" height="20" viewBox="0 0 21 20" fill="none" xmlns="http://www.w3.org/2000/svg">
<path d="M15.3184 19.6533H5.17527C5.09231 19.6533 5.0131 19.6185 4.95706 19.5573C4.90102 19.4961 4.87326 19.4142 4.88057 19.3315L6.14846 4.96206C6.16194 4.80933 6.28983 4.69221 6.44316 4.69221H16.5863C16.6693 4.69221 16.7484 4.72708 16.8045 4.78828C16.8605 4.84948 16.8882 4.93138 16.881 5.01405L15.6131 19.3835C15.5996 19.5362 15.4717 19.6533 15.3184 19.6533ZM5.49837 19.0616H15.0475L16.2632 5.2839H6.71402L5.49837 19.0616Z" fill="#49454F"/>
<path d="M19.1221 19.6534H15.3184C15.2354 19.6534 15.1563 19.6185 15.1002 19.5573C15.0442 19.4961 15.0165 19.4142 15.0237 19.3315L16.286 5.02119L16.2865 5.01265C16.3064 4.70671 16.5394 4.69124 16.5859 4.69124C16.7287 4.69124 16.8515 4.79423 16.8773 4.93463L17.7352 9.61767L19.4136 19.3071C19.4286 19.3931 19.4047 19.4813 19.3485 19.548C19.2923 19.6148 19.2094 19.6534 19.1221 19.6534ZM15.6415 19.0617H18.7706L17.1527 9.72147L16.6887 7.1889L15.6415 19.0617Z" fill="#49454F"/>
<path d="M14.2233 7.39706C14.0599 7.39706 13.9275 7.2646 13.9275 7.10121V3.52593C13.9275 2.19816 12.8472 1.11796 11.5195 1.11796C10.1917 1.11796 9.11152 2.1982 9.11152 3.52593V7.10121C9.11152 7.2646 8.97907 7.39706 8.81568 7.39706C8.65229 7.39706 8.51984 7.2646 8.51984 7.10121V3.52593C8.51984 1.87193 9.86545 0.526276 11.5195 0.526276C13.1735 0.526276 14.5192 1.87193 14.5192 3.52593V7.10121C14.5192 7.2646 14.3867 7.39706 14.2233 7.39706Z" fill="#49454F"/>
<path d="M11.6634 17.9627H5.81338C5.64999 17.9627 5.51754 17.8302 5.51754 17.6668C5.51754 17.5035 5.64999 17.371 5.81338 17.371H11.6634C11.8268 17.371 11.9592 17.5035 11.9592 17.6668C11.9592 17.8302 11.8268 17.9627 11.6634 17.9627Z" fill="#49454F"/>
<path d="M15.5209 16.2724H5.59793C5.47828 16.2724 5.37039 16.2003 5.32461 16.0897C5.27884 15.9792 5.30416 15.8519 5.38877 15.7673L10.249 10.9071C10.3646 10.7916 10.5519 10.7916 10.6674 10.9071C10.7829 11.0226 10.7829 11.2099 10.6674 11.3255L6.31217 15.6807H15.521C15.6844 15.6807 15.8168 15.8131 15.8168 15.9765C15.8168 16.1399 15.6843 16.2724 15.5209 16.2724Z" fill="#49454F"/>
<path d="M19.1218 19.6532C19.0571 19.6532 18.9918 19.632 18.9372 19.5884L17.0309 18.0633L15.5276 19.5666C15.4121 19.682 15.2248 19.682 15.1092 19.5666C14.9937 19.451 14.9937 19.2637 15.1092 19.1482L16.7997 17.4576C16.9063 17.3511 17.076 17.3416 17.1938 17.4358L19.3069 19.1264C19.4345 19.2284 19.4552 19.4146 19.3531 19.5422C19.2947 19.6152 19.2086 19.6532 19.1218 19.6532Z" fill="#49454F"/>
<path d="M17.0089 17.9627C16.8455 17.9627 16.713 17.8303 16.713 17.6669V15.1311C16.713 14.9677 16.8455 14.8353 17.0089 14.8353C17.1723 14.8353 17.3047 14.9677 17.3047 15.1311V17.6669C17.3047 17.8303 17.1723 17.9627 17.0089 17.9627Z" fill="#49454F"/>
<path d="M5.17532 19.6534H2.63954C2.47615 19.6534 2.34369 19.5209 2.34369 19.3575V8.36914C2.34369 8.20576 2.47615 8.0733 2.63954 8.0733H6.02058C6.18396 8.0733 6.31642 8.20576 6.31642 8.36914C6.31642 8.53253 6.18396 8.66499 6.02058 8.66499H2.93538V19.0617H5.17532C5.3387 19.0617 5.47116 19.1941 5.47116 19.3575C5.47116 19.5209 5.3387 19.6534 5.17532 19.6534Z" fill="#49454F"/>
<path d="M6.02052 8.66495H1.79422C1.63083 8.66495 1.49837 8.5325 1.49837 8.36911V6.67859C1.49837 6.5152 1.63083 6.38275 1.79422 6.38275H6.02052C6.18391 6.38275 6.31636 6.5152 6.31636 6.67859C6.31636 6.84198 6.18391 6.97443 6.02052 6.97443H2.09006V8.07327H6.02052C6.18391 8.07327 6.31636 8.20572 6.31636 8.36911C6.31636 8.5325 6.18391 8.66495 6.02052 8.66495Z" fill="#49454F"/>
<path d="M2.42816 4.43855C1.91547 4.43855 1.49837 4.02146 1.49837 3.50877C1.49837 2.99607 1.91547 2.57898 2.42816 2.57898C2.94085 2.57898 3.35795 2.99607 3.35795 3.50877C3.35795 4.02146 2.94081 4.43855 2.42816 4.43855ZM2.42816 3.17066C2.24174 3.17066 2.09006 3.32234 2.09006 3.50877C2.09006 3.69519 2.24174 3.84687 2.42816 3.84687C2.61458 3.84687 2.76627 3.69519 2.76627 3.50877C2.76627 3.32234 2.61458 3.17066 2.42816 3.17066Z" fill="#49454F"/>
<path d="M19.1221 3.17083C18.4929 3.17083 17.981 2.65894 17.981 2.02973C17.981 1.40052 18.4929 0.888626 19.1221 0.888626C19.7513 0.888626 20.2632 1.40052 20.2632 2.02973C20.2632 2.65894 19.7513 3.17083 19.1221 3.17083ZM19.1221 1.48031C18.8192 1.48031 18.5727 1.72679 18.5727 2.02973C18.5727 2.33267 18.8192 2.57915 19.1221 2.57915C19.425 2.57915 19.6715 2.33267 19.6715 2.02973C19.6715 1.72679 19.425 1.48031 19.1221 1.48031Z" fill="#49454F"/>
<path d="M12.6491 18.0678C12.4276 17.994 12.308 17.7547 12.3818 17.5333C12.4556 17.3118 12.6949 17.1922 12.9164 17.266C13.1378 17.3398 13.2574 17.5792 13.1836 17.8006C13.1099 18.022 12.8705 18.1417 12.6491 18.0678Z" fill="#49454F"/>
<path d="M0.815408 12.1512C0.593992 12.0774 0.474304 11.8381 0.548137 11.6166C0.621928 11.3952 0.861264 11.2756 1.08268 11.3494C1.30414 11.4231 1.42378 11.6625 1.34999 11.8839C1.27616 12.1054 1.03682 12.225 0.815408 12.1512Z" fill="#49454F"/>
<path d="M0.815408 12.1512C0.593992 12.0774 0.474304 11.8381 0.548137 11.6166C0.621928 11.3952 0.861264 11.2756 1.08268 11.3494C1.30414 11.4231 1.42378 11.6625 1.34999 11.8839C1.27616 12.1054 1.03682 12.225 0.815408 12.1512Z" fill="#49454F"/>
<path d="M19.411 8.77014C19.1896 8.69631 19.0699 8.45697 19.1437 8.23555C19.2175 8.01414 19.4569 7.89445 19.6783 7.96828C19.8997 8.04208 20.0194 8.28145 19.9456 8.50287C19.8718 8.72428 19.6325 8.84397 19.411 8.77014Z" fill="#49454F"/>
<path d="M5.59794 3.59337C5.43455 3.59337 5.3021 3.46092 5.3021 3.29753V2.02964C5.3021 1.86625 5.43455 1.7338 5.59794 1.7338C5.76133 1.7338 5.89378 1.86625 5.89378 2.02964V3.29753C5.89378 3.46092 5.76133 3.59337 5.59794 3.59337Z" fill="#49454F"/>
<path d="M6.2319 2.95942H4.96401C4.80062 2.95942 4.66817 2.82697 4.66817 2.66358C4.66817 2.50019 4.80062 2.36774 4.96401 2.36774H6.2319C6.39529 2.36774 6.52774 2.50019 6.52774 2.66358C6.52774 2.82697 6.39529 2.95942 6.2319 2.95942Z" fill="#49454F"/>
<path d="M12.994 12.0459C12.8306 12.0459 12.6981 11.9135 12.6981 11.7501V10.4822C12.6981 10.3188 12.8306 10.1863 12.994 10.1863C13.1573 10.1863 13.2898 10.3188 13.2898 10.4822V11.7501C13.2898 11.9135 13.1573 12.0459 12.994 12.0459Z" fill="#49454F"/>
<path d="M13.6278 11.4119H12.3599C12.1965 11.4119 12.0641 11.2795 12.0641 11.1161C12.0641 10.9527 12.1965 10.8203 12.3599 10.8203H13.6278C13.7912 10.8203 13.9237 10.9527 13.9237 11.1161C13.9237 11.2795 13.7912 11.4119 13.6278 11.4119Z" fill="#49454F"/>
<path d="M19.9673 19.6534H0.948942C0.785553 19.6534 0.653101 19.521 0.653101 19.3576C0.653101 19.1942 0.785553 19.0618 0.948942 19.0618H19.9673C20.1307 19.0618 20.2631 19.1942 20.2631 19.3576C20.2631 19.521 20.1307 19.6534 19.9673 19.6534Z" fill="#49454F"/>
</svg>
