<svg width="295" height="52" viewBox="0 0 295 52" fill="none" xmlns="http://www.w3.org/2000/svg">
<path d="M26 0L31.8374 17.9656H50.7275L35.4451 29.0689L41.2824 47.0344L26 35.9311L10.7176 47.0344L16.5549 29.0689L1.27253 17.9656H20.1626L26 0Z" fill="#FA8946"/>
<path d="M86.667 0L92.5044 17.9656H111.394L96.112 29.0689L101.949 47.0344L86.667 35.9311L71.3846 47.0344L77.2219 29.0689L61.9395 17.9656H80.8296L86.667 0Z" fill="#FA8946"/>
<path d="M147.333 0L153.17 17.9656H172.06L156.778 29.0689L162.615 47.0344L147.333 35.9311L132.051 47.0344L137.888 29.0689L122.606 17.9656H141.496L147.333 0Z" fill="#FA8946"/>
<path d="M208 0L213.837 17.9656H232.727L217.445 29.0689L223.282 47.0344L208 35.9311L192.718 47.0344L198.555 29.0689L183.273 17.9656H202.163L208 0Z" fill="#FA8946"/>
<path d="M268.667 0L274.504 17.9656H293.394L278.112 29.0689L283.949 47.0344L268.667 35.9311L253.385 47.0344L259.222 29.0689L243.94 17.9656H262.83L268.667 0Z" fill="#FA8946"/>
</svg>
