<svg width="17" height="17" viewBox="0 0 17 17" fill="none" xmlns="http://www.w3.org/2000/svg">
<g clip-path="url(#clip0)">
<path d="M6.09659 10.7075H14.5655C14.7752 10.7075 14.9591 10.5688 15.0159 10.3674L16.891 3.80481C16.9313 3.66333 16.9037 3.51135 16.815 3.3938C16.7261 3.27661 16.5879 3.2074 16.4405 3.2074H5.01443L4.67935 1.69958C4.63174 1.48486 4.44131 1.3324 4.22159 1.3324H1.37784C1.1188 1.3324 0.909088 1.54211 0.909088 1.80115C0.909088 2.0603 1.1188 2.2699 1.37784 2.2699H3.84537L5.53812 9.88708C5.04007 10.1036 4.69034 10.5994 4.69034 11.1763C4.69034 11.9517 5.3212 12.5825 6.09659 12.5825H14.5655C14.8246 12.5825 15.0342 12.3729 15.0342 12.1138C15.0342 11.8547 14.8246 11.645 14.5655 11.645H6.09659C5.83841 11.645 5.62784 11.4349 5.62784 11.1763C5.62784 10.9176 5.83841 10.7075 6.09659 10.7075Z" fill="#4476DF"/>
<path d="M5.62778 13.9888C5.62778 14.7643 6.25864 15.395 7.03415 15.395C7.80954 15.395 8.4404 14.7643 8.4404 13.9888C8.4404 13.2134 7.80954 12.5825 7.03415 12.5825C6.25864 12.5825 5.62778 13.2134 5.62778 13.9888Z" fill="#4476DF"/>
<path d="M12.2215 13.9888C12.2215 14.7643 12.8524 15.395 13.6278 15.395C14.4033 15.395 15.034 14.7643 15.034 13.9888C15.034 13.2134 14.4033 12.5825 13.6278 12.5825C12.8524 12.5825 12.2215 13.2134 12.2215 13.9888Z" fill="#4476DF"/>
</g>
<defs>
<clipPath id="clip0">
<rect width="16" height="16" fill="white" transform="translate(0.909088 0.363647)"/>
</clipPath>
</defs>
</svg>
