<svg width="22" height="22" viewBox="0 0 22 22" fill="none" xmlns="http://www.w3.org/2000/svg">
<g clip-path="url(#clip0)">
<path d="M10.7272 13.3801L4.43556 11.4436V13.3488V14.6778C4.43556 16.173 7.25336 17.3853 10.7291 17.3853C14.2046 17.3853 17.0229 16.173 17.0229 14.6778C17.0229 14.666 17.019 14.6542 17.0188 14.6427V11.4436L10.7272 13.3801Z" fill="#4476DF"/>
<path d="M0.181824 9.21725L2.4295 10.0213L2.62104 9.61104L3.44677 9.54085L3.56451 9.66336L2.85595 9.83138L2.75268 10.137C2.75249 10.137 1.15217 13.4827 1.38721 15.1194C1.38721 15.1194 2.38613 15.7153 3.38463 15.1194L3.64998 10.6445V10.272L5.1363 9.93667L5.03133 10.1952L3.92314 10.5555L4.43568 10.7386L10.7273 12.6751L17.0189 10.7386L21.2727 9.21727L10.7273 5.16019L0.181824 9.21725Z" fill="#4476DF"/>
</g>
<defs>
<clipPath id="clip0">
<rect width="21.0909" height="21.0909" fill="white" transform="translate(0.181824 0.727264)"/>
</clipPath>
</defs>
</svg>
