<svg width="20" height="20" viewBox="0 0 20 20" fill="none" xmlns="http://www.w3.org/2000/svg">
<g clip-path="url(#clip0)">
<path d="M19.4769 6.88551C19.444 6.75472 19.3572 6.64426 19.2384 6.58049C19.1199 6.51711 18.9798 6.50636 18.8528 6.551C17.7387 6.94241 16.0197 7.19428 14.0864 7.19428C13.6164 7.19428 13.1634 7.17634 12.7242 7.14809C12.4971 8.17411 12.1342 9.11622 11.6707 9.94597C11.6933 9.94505 11.7148 9.94137 11.7375 9.94137C12.3383 9.94137 12.8252 9.89126 12.8252 10.2959C12.8252 10.7006 12.3383 11.407 11.7375 11.407C11.3876 11.407 11.0795 11.2937 10.8807 11.1208C10.2803 11.8662 9.57887 12.454 8.8064 12.8427C9.67734 15.7742 11.7136 17.8307 14.0864 17.8307C17.2521 17.8307 19.8182 14.171 19.8182 9.65641C19.8182 8.68257 19.6966 7.75069 19.4769 6.88551ZM16.3706 15.4439C16.3605 15.4869 16.3284 15.5221 16.2863 15.5359C16.2441 15.55 16.1977 15.5411 16.1638 15.5125C15.7173 15.1373 14.9577 14.888 14.0865 14.888C13.2151 14.888 12.4556 15.1373 12.0091 15.5125C11.9751 15.5408 11.9287 15.5497 11.8866 15.5359C11.8444 15.5217 11.8124 15.4869 11.8022 15.4439C11.7653 15.2866 11.7425 15.1244 11.7425 14.9557C11.7425 13.6612 12.792 12.6118 14.0865 12.6118C15.381 12.6118 16.4304 13.6613 16.4304 14.9557C16.4303 15.1244 16.4076 15.2866 16.3706 15.4439ZM16.4353 11.4069C15.8345 11.4069 15.3476 10.7006 15.3476 10.2959C15.3476 9.89122 15.8345 9.94133 16.4353 9.94133C17.036 9.94133 17.5229 10.2694 17.5229 10.6741C17.5229 11.0788 17.036 11.4069 16.4353 11.4069Z" fill="#4476DF"/>
<path d="M12.3727 4.5745C12.3727 3.60078 12.2511 2.66886 12.0314 1.80371C11.9985 1.67292 11.9117 1.56239 11.7929 1.49869C11.7227 1.46117 11.6448 1.44211 11.5664 1.44211C11.5128 1.44211 11.459 1.45094 11.4073 1.4692C10.2932 1.86061 8.57428 2.11241 6.64095 2.11241C4.70758 2.11241 2.98867 1.86061 1.87457 1.4692C1.82319 1.45094 1.76964 1.44211 1.71609 1.44211C1.63765 1.44211 1.55941 1.46137 1.48892 1.49901C1.37043 1.56271 1.28336 1.6732 1.25039 1.80371C1.03069 2.6689 0.909088 3.60078 0.909088 4.5745C0.909088 9.08912 3.47523 12.7488 6.64095 12.7488C9.80658 12.7488 12.3727 9.08912 12.3727 4.5745ZM3.20438 5.59045C3.20438 5.18569 3.6913 4.85766 4.29207 4.85766C4.89279 4.85766 5.37971 5.56392 5.37971 5.96868C5.37971 6.37336 4.89279 6.32325 4.29207 6.32325C3.6913 6.32325 3.20438 5.99513 3.20438 5.59045ZM6.64095 11.2034C5.34643 11.2034 4.29702 10.154 4.29702 8.85958C4.29702 8.69091 4.31976 8.52867 4.35668 8.37139C4.36683 8.32839 4.39888 8.29358 4.441 8.27936C4.4832 8.26553 4.52963 8.27444 4.56352 8.30277C5.01004 8.67796 5.76961 8.92724 6.64091 8.92724C7.51221 8.92724 8.27178 8.67796 8.71826 8.30277C8.75218 8.27412 8.79862 8.26525 8.84078 8.27936C8.88294 8.29326 8.91494 8.32839 8.92509 8.37139C8.96202 8.52867 8.98479 8.69091 8.98479 8.85958C8.98483 10.154 7.93539 11.2034 6.64095 11.2034ZM7.9021 5.96868C7.9021 5.56392 8.38902 4.85766 8.98979 4.85766C9.59052 4.85766 10.0774 5.18569 10.0774 5.59045C10.0774 5.99513 9.59052 6.32325 8.98979 6.32325C8.38902 6.32325 7.9021 6.37336 7.9021 5.96868Z" fill="#4476DF"/>
</g>
<defs>
<clipPath id="clip0">
<rect width="18.9091" height="18.9091" fill="white" transform="translate(0.909088 0.181824)"/>
</clipPath>
</defs>
</svg>
