<svg width="19" height="19" viewBox="0 0 19 19" fill="none" xmlns="http://www.w3.org/2000/svg">
<g clip-path="url(#clip0)">
<path d="M18.3123 3.74425H17.8094C17.8094 2.80363 17.8094 3.00687 17.8094 2.06034C17.8094 1.88621 17.6683 1.74506 17.4941 1.74506H16.6328C16.4586 1.74506 16.3175 1.88621 16.3175 2.06034C16.3175 3.00691 16.3175 2.80352 16.3175 3.74425H15.2165C15.2624 3.26199 14.9073 2.83972 14.4368 2.78997C13.9528 2.73893 13.5236 3.0927 13.4732 3.56919L13.4547 3.74421H11.9372C11.4896 4.71076 10.5234 5.33479 9.45318 5.33479C8.3682 5.33479 7.41022 4.69657 6.96911 3.74421H5.45719L5.43869 3.56919C5.38791 3.08915 4.95481 2.73919 4.47514 2.78993C4.00526 2.83968 3.64942 3.26148 3.6954 3.74429H2.59154C2.59154 2.80367 2.59154 3.00691 2.59154 2.06038C2.59154 1.88625 2.45039 1.74509 2.27626 1.74509H1.41489C1.24076 1.74509 1.09961 1.88625 1.09961 2.06038C1.09961 3.00694 1.09961 2.80356 1.09961 3.74429H0.596781C0.267165 3.74425 0 4.01141 0 4.34103C0 4.67061 0.267165 4.93781 0.596781 4.93781H1.09964C1.09964 5.87843 1.09964 5.67519 1.09964 6.62172C1.09964 6.79585 1.24084 6.937 1.41493 6.937H2.27629C2.45043 6.937 2.59158 6.79581 2.59158 6.62172C2.59158 5.67516 2.59158 5.87854 2.59158 4.93781H3.82108C3.85886 5.29491 4.12587 7.81982 4.16532 8.19324C4.24454 8.94255 5.18851 9.25935 5.69659 8.67767L6.92811 7.26832V10.6211L3.74156 11.9158C3.36958 12.0669 3.10464 12.4027 3.04407 12.7996L2.40832 16.9674C2.31341 17.5895 2.74078 18.1707 3.36286 18.2656C3.98494 18.3605 4.56618 17.9331 4.66105 17.311L5.19922 13.7832L8.14705 12.5855H10.7638L13.7116 13.7832L14.2498 17.311C14.3447 17.9332 14.9259 18.3605 15.548 18.2656C16.1701 18.1707 16.5974 17.5895 16.5025 16.9674L15.8668 12.7995C15.8062 12.4026 15.5412 12.0669 15.1693 11.9157L11.9575 10.6108V7.23826L13.2152 8.67764C13.7097 9.24366 14.6649 8.9632 14.7464 8.1932C14.7858 7.82041 15.053 5.29424 15.0907 4.93777H16.3175C16.3175 5.87839 16.3175 5.67516 16.3175 6.62168C16.3175 6.79581 16.4587 6.93697 16.6328 6.93697H17.4942C17.6683 6.93697 17.8094 6.79578 17.8094 6.62168C17.8094 5.67512 17.8094 5.8785 17.8094 4.93777H18.3123C18.6419 4.93777 18.9091 4.67061 18.9091 4.34099C18.9091 4.01141 18.6419 3.74425 18.3123 3.74425ZM5.69714 6.0136C5.6499 5.5668 5.63011 5.38003 5.58335 4.93777H6.63716C6.25536 5.37479 6.08426 5.5706 5.69714 6.0136ZM13.2146 6.0136C12.7791 5.51513 13.3386 6.15542 12.2746 4.93777H13.3284C13.2401 5.77317 13.2618 5.56739 13.2146 6.0136Z" fill="#4476DF"/>
<path d="M9.45271 4.56606C10.5395 4.56606 11.4206 3.68501 11.4206 2.59818C11.4206 1.51136 10.5395 0.63031 9.45271 0.63031C8.36588 0.63031 7.48483 1.51136 7.48483 2.59818C7.48483 3.68501 8.36588 4.56606 9.45271 4.56606Z" fill="#4476DF"/>
</g>
<defs>
<clipPath id="clip0">
<rect width="18.9091" height="18.9091" fill="white"/>
</clipPath>
</defs>
</svg>
