<svg width="16" height="13" viewBox="0 0 16 13" fill="none" xmlns="http://www.w3.org/2000/svg">
<path d="M5.1875 10.3439H13.6564C13.8661 10.3439 14.05 10.2052 14.1068 10.0038L15.9819 3.44116C16.0222 3.29968 15.9946 3.14771 15.9059 3.03015C15.817 2.91296 15.6788 2.84375 15.5314 2.84375H4.10535L3.77026 1.33594C3.72266 1.12122 3.53223 0.96875 3.3125 0.96875H0.46875C0.209717 0.96875 0 1.17847 0 1.4375C0 1.69666 0.209717 1.90625 0.46875 1.90625H2.93628L4.62903 9.52344C4.13098 9.73999 3.78125 10.2357 3.78125 10.8126C3.78125 11.588 4.41211 12.2189 5.1875 12.2189H13.6564C13.9155 12.2189 14.1251 12.0093 14.1251 11.7501C14.1251 11.4911 13.9155 11.2814 13.6564 11.2814H5.1875C4.92932 11.2814 4.71875 11.0713 4.71875 10.8126C4.71875 10.554 4.92932 10.3439 5.1875 10.3439V10.3439Z" fill="white"/>
</svg>
