<svg width="19" height="18" viewBox="0 0 19 18" fill="none" xmlns="http://www.w3.org/2000/svg">
<path d="M18.3123 2.74425H17.8094C17.8094 1.80363 17.8094 2.00687 17.8094 1.06034C17.8094 0.88621 17.6683 0.745056 17.4941 0.745056H16.6328C16.4586 0.745056 16.3175 0.88621 16.3175 1.06034C16.3175 2.00691 16.3175 1.80352 16.3175 2.74425H15.2165C15.2624 2.26199 14.9073 1.83972 14.4368 1.78997C13.9528 1.73893 13.5236 2.0927 13.4732 2.56919L13.4547 2.74421H11.9372C11.4896 3.71076 10.5234 4.33479 9.45318 4.33479C8.3682 4.33479 7.41022 3.69657 6.96911 2.74421H5.45719L5.43869 2.56919C5.38791 2.08915 4.95481 1.73919 4.47514 1.78993C4.00526 1.83968 3.64942 2.26148 3.6954 2.74429H2.59154C2.59154 1.80367 2.59154 2.00691 2.59154 1.06038C2.59154 0.886247 2.45039 0.745093 2.27626 0.745093H1.41489C1.24076 0.745093 1.09961 0.886247 1.09961 1.06038C1.09961 2.00694 1.09961 1.80356 1.09961 2.74429H0.596781C0.267165 2.74425 0 3.01141 0 3.34103C0 3.67061 0.267165 3.93781 0.596781 3.93781H1.09964C1.09964 4.87843 1.09964 4.67519 1.09964 5.62172C1.09964 5.79585 1.24084 5.937 1.41493 5.937H2.27629C2.45043 5.937 2.59158 5.79581 2.59158 5.62172C2.59158 4.67516 2.59158 4.87854 2.59158 3.93781H3.82108C3.85886 4.29491 4.12587 6.81982 4.16532 7.19324C4.24454 7.94255 5.18851 8.25935 5.69659 7.67767L6.92811 6.26832V9.62114L3.74156 10.9158C3.36958 11.0669 3.10464 11.4027 3.04407 11.7996L2.40832 15.9674C2.31341 16.5895 2.74078 17.1707 3.36286 17.2656C3.98494 17.3605 4.56618 16.9331 4.66105 16.311L5.19922 12.7832L8.14705 11.5855H10.7638L13.7116 12.7832L14.2498 16.311C14.3447 16.9332 14.9259 17.3605 15.548 17.2656C16.1701 17.1707 16.5974 16.5895 16.5025 15.9674L15.8668 11.7995C15.8062 11.4026 15.5412 11.0669 15.1693 10.9157L11.9575 9.6108V6.23826L13.2152 7.67764C13.7097 8.24366 14.6649 7.9632 14.7464 7.1932C14.7858 6.82041 15.053 4.29424 15.0907 3.93777H16.3175C16.3175 4.87839 16.3175 4.67516 16.3175 5.62168C16.3175 5.79581 16.4587 5.93697 16.6328 5.93697H17.4942C17.6683 5.93697 17.8094 5.79578 17.8094 5.62168C17.8094 4.67512 17.8094 4.8785 17.8094 3.93777H18.3123C18.6419 3.93777 18.9091 3.67061 18.9091 3.34099C18.9091 3.01141 18.6419 2.74425 18.3123 2.74425ZM5.69714 5.0136C5.6499 4.5668 5.63011 4.38003 5.58335 3.93777H6.63716C6.25536 4.37479 6.08426 4.5706 5.69714 5.0136ZM13.2146 5.0136C12.7791 4.51513 13.3386 5.15542 12.2746 3.93777H13.3284C13.2401 4.77317 13.2618 4.56739 13.2146 5.0136Z" fill="white"/>
</svg>
