<svg width="19" height="17" viewBox="0 0 19 17" fill="none" xmlns="http://www.w3.org/2000/svg">
<path d="M18.5678 5.4434C18.5349 5.31261 18.4481 5.20216 18.3293 5.13838C18.2108 5.075 18.0707 5.06425 17.9437 5.10889C16.8296 5.5003 15.1106 5.75217 13.1773 5.75217C12.7073 5.75217 12.2543 5.73423 11.8151 5.70598C11.588 6.73201 11.2251 7.67412 10.7616 8.50386C10.7842 8.50294 10.8057 8.49926 10.8285 8.49926C11.4292 8.49926 11.9161 8.44915 11.9161 8.85383C11.9161 9.25851 11.4292 9.96485 10.8285 9.96485C10.4785 9.96485 10.1704 9.85161 9.97162 9.67866C9.37121 10.4241 8.66979 11.0119 7.89731 11.4006C8.76825 14.3321 10.8045 16.3886 13.1773 16.3886C16.343 16.3886 18.9092 12.7288 18.9092 8.2143C18.9091 7.24046 18.7875 6.30858 18.5678 5.4434ZM15.4616 14.0017C15.4514 14.0448 15.4194 14.08 15.3772 14.0938C15.335 14.1079 15.2886 14.099 15.2547 14.0704C14.8082 13.6952 14.0486 13.4459 13.1774 13.4459C12.306 13.4459 11.5465 13.6952 11.1 14.0704C11.0661 14.0987 11.0196 14.1076 10.9775 14.0938C10.9353 14.0796 10.9033 14.0448 10.8931 14.0017C10.8562 13.8445 10.8334 13.6823 10.8334 13.5136C10.8334 12.2191 11.8829 11.1697 13.1774 11.1697C14.4719 11.1697 15.5213 12.2191 15.5213 13.5136C15.5212 13.6823 15.4985 13.8445 15.4616 14.0017ZM15.5262 9.96481C14.9254 9.96481 14.4385 9.25847 14.4385 8.85379C14.4385 8.44911 14.9254 8.49922 15.5262 8.49922C16.1269 8.49922 16.6138 8.82734 16.6138 9.23202C16.6138 9.6367 16.1269 9.96481 15.5262 9.96481Z" fill="white"/>
<path d="M11.4636 3.13239C11.4636 2.15867 11.342 1.22675 11.1223 0.361603C11.0894 0.230812 11.0026 0.120281 10.8838 0.0565841C10.8136 0.0190611 10.7358 0 10.6573 0C10.6037 0 10.5499 0.00883126 10.4982 0.0270932C9.38409 0.418507 7.66519 0.670298 5.73186 0.670298C3.79849 0.670298 2.07959 0.418507 0.965487 0.0270932C0.914097 0.00883126 0.86055 0 0.807003 0C0.728561 0 0.650318 0.0192611 0.579828 0.0569039C0.461344 0.120601 0.37427 0.231092 0.341303 0.361603C0.1216 1.22679 0 2.15867 0 3.13239C0 7.64701 2.56615 11.3067 5.73186 11.3067C8.8975 11.3067 11.4636 7.64701 11.4636 3.13239ZM2.29529 4.14834C2.29529 3.74358 2.78221 3.41555 3.38298 3.41555C3.98371 3.41555 4.47063 4.12181 4.47063 4.52657C4.47063 4.93125 3.98371 4.88114 3.38298 4.88114C2.78221 4.88114 2.29529 4.55302 2.29529 4.14834ZM5.73186 9.76132C4.43734 9.76132 3.38793 8.71188 3.38793 7.41748C3.38793 7.2488 3.41067 7.08656 3.4476 6.92928C3.45775 6.88628 3.48979 6.85148 3.53191 6.83725C3.57411 6.82342 3.62055 6.83233 3.65443 6.86067C4.10095 7.23586 4.86052 7.48513 5.73182 7.48513C6.60312 7.48513 7.36269 7.23586 7.80917 6.86067C7.8431 6.83201 7.88953 6.82314 7.93169 6.83725C7.97385 6.85116 8.00586 6.88628 8.01601 6.92928C8.05293 7.08656 8.07571 7.2488 8.07571 7.41748C8.07575 8.71188 7.0263 9.76132 5.73186 9.76132ZM6.99302 4.52657C6.99302 4.12181 7.47993 3.41555 8.0807 3.41555C8.68143 3.41555 9.16835 3.74358 9.16835 4.14834C9.16835 4.55302 8.68143 4.88114 8.0807 4.88114C7.47993 4.88114 6.99302 4.93125 6.99302 4.52657Z" fill="white"/>
</svg>
