<svg width="22" height="13" viewBox="0 0 22 13" fill="none" xmlns="http://www.w3.org/2000/svg">
<path d="M10.5454 8.21986L4.25374 6.28339V8.18854V9.5176C4.25374 11.0128 7.07154 12.225 10.5473 12.225C14.0228 12.225 16.8411 11.0128 16.8411 9.5176C16.8411 9.50582 16.8372 9.494 16.837 9.48249V6.28339L10.5454 8.21986Z" fill="white"/>
<path d="M0 4.05706L2.24767 4.86108L2.43922 4.45085L3.26495 4.38067L3.38268 4.50317L2.67412 4.67119L2.57085 4.97685C2.57067 4.97685 0.970343 8.3225 1.20538 9.95921C1.20538 9.95921 2.20431 10.5551 3.20281 9.95921L3.46816 5.48427V5.11179L4.95448 4.77649L4.84951 5.03499L3.74132 5.39536L4.25386 5.57846L10.5455 7.51493L16.8371 5.57846L21.0909 4.05709L10.5455 0L0 4.05706Z" fill="white"/>
</svg>
