<?xml version="1.0" encoding="utf-8"?>
<!-- Generator: Adobe Illustrator 19.0.0, SVG Export Plug-In . SVG Version: 6.00 Build 0)  -->
<svg version="1.1" id="Layer_1" xmlns="http://www.w3.org/2000/svg" xmlns:xlink="http://www.w3.org/1999/xlink" x="0px" y="0px"
	 viewBox="0 0 384 492" style="enable-background:new 0 0 384 492;" xml:space="preserve">
<path style="fill:#FFD37B;" d="M270.6,439.1v36.2c0,0.4,0,0.7-0.1,1.1c-0.1,0.4-0.2,0.8-0.3,1.1c-0.1,0.4-0.3,0.7-0.5,1
	c-0.4,0.7-0.9,1.3-1.4,1.7c0,0,0,0-0.1,0.1c0,0,0,0,0,0c0,0,0,0,0,0c-0.2,0.1-0.4,0.3-0.6,0.4c-0.1,0.1-0.3,0.2-0.4,0.3
	c0,0,0,0-0.1,0c-0.3,0.1-0.5,0.3-0.8,0.4c-0.3,0.1-0.7,0.2-1,0.3c-0.1,0-0.1,0-0.2,0c-0.4,0.1-0.8,0.1-1.1,0.1H13.7
	c-0.4,0-0.8,0-1.1-0.1c-0.1,0-0.1,0-0.2,0c-0.3-0.1-0.7-0.2-1-0.3c-0.3-0.1-0.6-0.2-0.8-0.4c-0.1-0.1-0.2-0.1-0.3-0.2
	c-0.9-0.6-1.7-1.4-2.2-2.3c-0.2-0.3-0.4-0.7-0.5-1c-0.1-0.4-0.2-0.8-0.3-1.1c-0.1-0.4-0.1-0.7-0.1-1.1v-36.2c0-0.4,0-0.8,0.1-1.1
	c0.3-1.5,1.1-2.9,2.2-3.9c1.2-1,2.7-1.5,4.2-1.5H264c1.6,0,3.1,0.5,4.3,1.5c1.2,1,2,2.4,2.3,3.9
	C270.6,438.4,270.6,438.8,270.6,439.1z"/>
<path style="fill:#EEC066;" d="M270.6,432.5H192v49.4h78.6V432.5z"/>
<path style="fill:#FFE8BA;" d="M270.5,438H7.2c0.3-1.5,1.1-2.9,2.2-3.9c1.2-1,2.7-1.5,4.2-1.5H264c1.6,0,3.1,0.5,4.3,1.5
	C269.4,435.1,270.2,436.5,270.5,438z"/>
<path style="fill:#FFE8BA;" d="M270.5,476.5c-0.1,0.4-0.2,0.8-0.3,1.1c-0.1,0.4-0.3,0.7-0.5,1c-0.4,0.7-0.9,1.3-1.4,1.7
	c0,0,0,0-0.1,0.1c0,0,0,0,0,0v0c-0.2,0.1-0.4,0.3-0.6,0.4c-0.1,0.1-0.3,0.2-0.4,0.3c0,0,0,0-0.1,0c-0.3,0.1-0.5,0.3-0.8,0.4
	c-0.3,0.1-0.7,0.2-1,0.3c-0.1,0-0.1,0-0.2,0c-0.4,0.1-0.8,0.1-1.1,0.1H13.7c-0.4,0-0.8,0-1.1-0.1c-0.1,0-0.1,0-0.2,0
	c-0.3-0.1-0.7-0.2-1-0.3c-0.3-0.1-0.6-0.2-0.8-0.4c-0.1-0.1-0.2-0.1-0.3-0.2c-0.9-0.6-1.7-1.4-2.2-2.3c-0.2-0.3-0.4-0.7-0.5-1
	c-0.1-0.4-0.2-0.8-0.3-1.1L270.5,476.5z"/>
<path style="fill:#FFD37B;" d="M369.5,350.4v36.2c0,0.4,0,0.7-0.1,1.1c-0.1,0.4-0.2,0.8-0.3,1.1c-0.1,0.4-0.3,0.7-0.5,1
	c-0.4,0.7-0.9,1.3-1.4,1.7c0,0,0,0-0.1,0.1c0,0,0,0,0,0c0,0,0,0,0,0c-0.2,0.1-0.4,0.3-0.6,0.4c-0.1,0.1-0.3,0.2-0.4,0.3
	c0,0,0,0-0.1,0c-0.3,0.1-0.5,0.3-0.8,0.4c-0.3,0.1-0.7,0.2-1,0.3c-0.1,0-0.1,0-0.2,0c-0.4,0.1-0.8,0.1-1.1,0.1H112.5
	c-0.4,0-0.8,0-1.1-0.1c-0.1,0-0.1,0-0.2,0c-0.3-0.1-0.7-0.2-1-0.3c-0.3-0.1-0.6-0.2-0.8-0.4c-0.1-0.1-0.2-0.1-0.3-0.2
	c-0.9-0.6-1.7-1.4-2.2-2.3c-0.2-0.3-0.3-0.7-0.5-1c-0.1-0.4-0.2-0.8-0.3-1.1c-0.1-0.4-0.1-0.7-0.1-1.1v-36.2c0-0.4,0-0.8,0.1-1.1
	c0.3-1.5,1.1-2.9,2.2-3.9s2.7-1.5,4.2-1.5h250.3c1.6,0,3.1,0.5,4.3,1.5c1.2,1,2,2.4,2.3,3.9C369.5,349.6,369.5,350,369.5,350.4z"/>
<path style="fill:#FFD37B;" d="M346.5,343.8h-55.6v49.4h55.6V343.8z"/>
<path style="fill:#EEC066;" d="M369.4,349.3H106.1c0.3-1.5,1.1-2.9,2.2-3.9c1.2-1,2.7-1.5,4.2-1.5h250.3c1.6,0,3.1,0.5,4.3,1.5
	C368.3,346.3,369.1,347.7,369.4,349.3z"/>
<path style="fill:#EEC066;" d="M369.4,387.7c-0.1,0.4-0.2,0.8-0.3,1.1c-0.1,0.4-0.3,0.7-0.5,1c-0.4,0.7-0.9,1.3-1.4,1.7
	c0,0,0,0-0.1,0.1c0,0,0,0,0,0v0c-0.2,0.1-0.4,0.3-0.6,0.4c-0.1,0.1-0.3,0.2-0.4,0.3c0,0,0,0-0.1,0c-0.3,0.1-0.5,0.3-0.8,0.4
	c-0.3,0.1-0.7,0.2-1,0.3c-0.1,0-0.1,0-0.2,0c-0.4,0.1-0.8,0.1-1.1,0.1H112.5c-0.4,0-0.8,0-1.1-0.1c-0.1,0-0.1,0-0.2,0
	c-0.3-0.1-0.7-0.2-1-0.3c-0.3-0.1-0.6-0.2-0.8-0.4c-0.1-0.1-0.2-0.1-0.3-0.2c-0.9-0.6-1.7-1.4-2.2-2.3c-0.2-0.3-0.3-0.7-0.5-1
	c-0.1-0.4-0.2-0.8-0.3-1.1L369.4,387.7z"/>
<path style="fill:#FFD37B;" d="M311.5,395.1v36.2c0,0.4,0,0.7-0.1,1.1c-0.1,0.4-0.2,0.8-0.3,1.1c-0.1,0.4-0.3,0.7-0.5,1
	c-0.4,0.7-0.9,1.3-1.4,1.7c0,0,0,0-0.1,0.1c0,0,0,0,0,0c0,0,0,0,0,0c0,0,0,0,0,0c0,0,0,0,0,0c-0.2,0.1-0.4,0.3-0.6,0.4
	c-0.1,0.1-0.3,0.2-0.4,0.3c0,0,0,0-0.1,0c-0.3,0.1-0.5,0.3-0.8,0.4c-0.3,0.1-0.7,0.2-1,0.3c-0.1,0-0.1,0-0.2,0
	c-0.4,0.1-0.8,0.1-1.1,0.1H54.5c-0.4,0-0.8,0-1.1-0.1c-0.1,0-0.1,0-0.2,0c-0.3-0.1-0.7-0.2-1-0.3c-0.3-0.1-0.6-0.2-0.8-0.4
	c-0.1-0.1-0.2-0.1-0.3-0.2c-0.9-0.6-1.7-1.4-2.2-2.3c-0.2-0.3-0.4-0.7-0.5-1c-0.1-0.4-0.2-0.8-0.3-1.1c-0.1-0.4-0.1-0.7-0.1-1.1
	v-36.2c0-0.4,0-0.8,0.1-1.1c0.3-1.5,1.1-2.9,2.2-3.9c1.2-1,2.7-1.5,4.2-1.5h250.3c1.6,0,3.1,0.5,4.3,1.5c1.2,1,2,2.4,2.3,3.9
	C311.4,394.3,311.5,394.7,311.5,395.1z"/>
<path style="fill:#EEC066;" d="M288.5,388.5h-55.6v49.4h55.6V388.5z"/>
<path style="fill:#FFE8BA;" d="M311.4,394H48c0.3-1.5,1.1-2.9,2.2-3.9c1.2-1,2.7-1.5,4.2-1.5h250.3c1.6,0,3.1,0.5,4.3,1.5
	C310.3,391,311.1,392.4,311.4,394z"/>
<path style="fill:#FFE8BA;" d="M311.4,432.4c-0.1,0.4-0.2,0.8-0.3,1.1c-0.1,0.4-0.3,0.7-0.5,1c-0.4,0.7-0.9,1.3-1.4,1.7
	c0,0,0,0-0.1,0.1c0,0,0,0,0,0v0c-0.2,0.1-0.4,0.3-0.6,0.4c-0.1,0.1-0.3,0.2-0.4,0.3c0,0,0,0-0.1,0c-0.3,0.1-0.5,0.3-0.8,0.4
	c-0.3,0.1-0.7,0.2-1,0.3c-0.1,0-0.1,0-0.2,0c-0.4,0.1-0.8,0.1-1.1,0.1H54.5c-0.4,0-0.8,0-1.1-0.1c-0.1,0-0.1,0-0.2,0
	c-0.3-0.1-0.7-0.2-1-0.3c-0.3-0.1-0.6-0.2-0.8-0.4c-0.1-0.1-0.2-0.1-0.3-0.2c-0.9-0.6-1.7-1.4-2.2-2.3c-0.2-0.3-0.4-0.7-0.5-1
	c-0.1-0.4-0.2-0.8-0.3-1.1L311.4,432.4z"/>
<path style="fill:#EEC066;" d="M311.5,303.6v36.2c0,0.4,0,0.7-0.1,1.1c-0.1,0.4-0.2,0.8-0.3,1.1c-0.1,0.4-0.3,0.7-0.5,1
	c-0.4,0.7-0.9,1.3-1.4,1.7c0,0,0,0-0.1,0.1c0,0,0,0,0,0c0,0,0,0,0,0c0,0,0,0,0,0c0,0,0,0,0,0c-0.2,0.1-0.4,0.3-0.6,0.4
	c-0.1,0.1-0.3,0.2-0.4,0.3c0,0,0,0-0.1,0c-0.3,0.1-0.5,0.3-0.8,0.4c-0.3,0.1-0.7,0.2-1,0.3c-0.1,0-0.1,0-0.2,0
	c-0.4,0.1-0.8,0.1-1.1,0.1H54.5c-0.4,0-0.8,0-1.1-0.1c-0.1,0-0.1,0-0.2,0c-0.3-0.1-0.7-0.2-1-0.3c-0.3-0.1-0.6-0.2-0.8-0.4
	c-0.1-0.1-0.2-0.1-0.3-0.2c-0.9-0.6-1.7-1.4-2.2-2.3c-0.2-0.3-0.4-0.7-0.5-1c-0.1-0.4-0.2-0.8-0.3-1.1c-0.1-0.4-0.1-0.7-0.1-1.1
	v-36.2c0-0.4,0-0.8,0.1-1.1c0.3-1.5,1.1-2.9,2.2-3.9c1.2-1,2.7-1.5,4.2-1.5h250.3c1.6,0,3.1,0.5,4.3,1.5c1.2,1,2,2.4,2.3,3.9
	C311.4,302.9,311.5,303.3,311.5,303.6z"/>
<path style="fill:#FFD37B;" d="M288.5,297h-55.6v49.4h55.6V297z"/>
<path style="fill:#FFE8BA;" d="M311.4,302.5H48c0.3-1.5,1.1-2.9,2.2-3.9c1.2-1,2.7-1.5,4.2-1.5h250.3c1.6,0,3.1,0.5,4.3,1.5
	C310.3,299.6,311.1,301,311.4,302.5z"/>
<path style="fill:#FFE8BA;" d="M311.4,341c-0.1,0.4-0.2,0.8-0.3,1.1c-0.1,0.4-0.3,0.7-0.5,1c-0.4,0.7-0.9,1.2-1.4,1.7
	c0,0,0,0-0.1,0.1c0,0,0,0,0,0v0c-0.2,0.1-0.4,0.3-0.6,0.4c-0.1,0.1-0.3,0.2-0.4,0.3c0,0,0,0-0.1,0c-0.3,0.1-0.5,0.3-0.8,0.4
	c-0.3,0.1-0.7,0.2-1,0.3c-0.1,0-0.1,0-0.2,0c-0.4,0.1-0.8,0.1-1.1,0.1H54.5c-0.4,0-0.8,0-1.1-0.1c-0.1,0-0.1,0-0.2,0
	c-0.3-0.1-0.7-0.2-1-0.3c-0.3-0.1-0.6-0.2-0.8-0.4c-0.1-0.1-0.2-0.1-0.3-0.2c-0.9-0.6-1.7-1.4-2.2-2.3c-0.2-0.3-0.4-0.7-0.5-1
	c-0.1-0.4-0.2-0.8-0.3-1.1L311.4,341z"/>
<path style="fill:#F9B7B8;" d="M201.7,262.7c-3.1,0-6.2-0.8-8.8-2.5c-2.6-1.7-4.7-4-6-6.9l-43.9-108c-3.8-8.1-2.5-20.7,5.6-24.5
	l-1.1-3.3c8.1-3.8,27.3,2.3,37.5,25.4l32,81.4L201.7,262.7z"/>
<path style="fill:#E1B798;" d="M299.7,274l7.2,46.1l25.9-5.9l-7.2-45.6L299.7,274z"/>
<path style="fill:#151319;" d="M299.8,312.5l-3.4,25.8c0.1,1.8,0.8,3.5,2.2,4.7c1.3,1.2,3.1,1.9,4.9,1.8l68.8-2.4
	c1.5-0.1,3-0.7,4-1.8c1-1.1,1.6-2.6,1.5-4.1c0-0.9-0.3-1.7-0.7-2.5c-0.4-0.8-1-1.4-1.7-2l-41.3-20.8L299.8,312.5z"/>
<path style="fill:#4465AF;" d="M188.9,239.3l88.7-74.6l41.1,27.2L227.6,297c-20.3,21.6-64.2,26.5-80.4,1.7
	c-2.3-3.5-0.1-8.2-2.3-12.6L188.9,239.3z"/>
<path style="fill:#4465AF;" d="M273.1,191.1l21,103.9l45-7.9l-21.3-111c-0.2-2.6-0.9-5.1-2.1-7.3c-1.2-2.3-2.9-4.3-4.9-5.9
	c-4.6-3.7-14.3-5-21.3-3.9c-2,0.3-3.9,1-5.6,2.1l-6.3,3.6L273.1,191.1z"/>
<path style="fill:#E1B798;" d="M280.6,388.6l10.3,47.2l28.3-7.9l-9.7-46.8L280.6,388.6z"/>
<path style="fill:#151319;" d="M286.5,425l-5.9,25.4c-0.1,0.9,0.1,1.8,0.3,2.6c0.3,0.8,0.7,1.6,1.3,2.3s1.3,1.2,2.1,1.6
	c0.8,0.4,1.7,0.6,2.6,0.7l68.7,4.4c1.5,0.1,3-0.4,4.1-1.4c1.1-1,1.8-2.4,1.9-3.9c0.1-0.9-0.1-1.8-0.4-2.6c-0.3-0.8-0.9-1.5-1.5-2.1
	l-39-24.8L286.5,425z"/>
<path style="fill:#5072B8;" d="M176.6,256.1l103.1,8.5c5.9-0.2,11.6,1.7,16.3,5.3s7.9,8.7,9.1,14.5c0.7,3.4,1.3,6.8,1.7,10.3
	c2.7,24.2,16.4,110.9,16.4,110.9l-46.1,6.7l-20.2-92.4l-96.4,3.2c-19.3,1.3-38-8.4-47-25.5c-3.4-6.5-5.4-14-4.2-22.1L176.6,256.1z"
	/>
<path style="fill:#F48385;" d="M94.4,169.9l5,119.1c87.4-2.1,96.5-52.4,96.5-52.4l-12.1-90.8c-0.9-5.1-2.7-10-5.3-14.4
	c-3.8-6.5-9.5-11.7-16.4-14.9c-6.8-3.2-14.5-4.2-21.9-3L136,113C94.4,116.4,92.1,140.4,94.4,169.9z"/>
<path style="fill:#D66D6D;" d="M96.1,209.2l19.5-29.1l-9.5,52.4l-9.3-5.9L96.1,209.2z"/>
<path style="fill:#E1B798;" d="M135.5,266.8c-4.7,8.8-1,16.5,7.8,21.3c8.8,4.7,19.2,4.6,23.9-4.1c1.1-2.1,1.8-4.4,2.1-6.7
	c0.2-2.4,0-4.7-0.7-7c-0.7-2.3-1.8-4.4-3.3-6.2c-1.5-1.8-3.3-3.4-5.4-4.5c-2.1-1.1-4.4-1.8-6.7-2.1c-2.4-0.2-4.7,0-7,0.7
	c-2.3,0.7-4.4,1.8-6.2,3.3C138.1,262.8,136.6,264.7,135.5,266.8L135.5,266.8z"/>
<path style="fill:#E1B798;" d="M119.5,269.7l18.3,9.9c2.3,1.2,5,1.5,7.5,0.8c2.5-0.8,4.6-2.5,5.9-4.8c1.2-2.3,1.5-5,0.8-7.5
	c-0.8-2.5-2.5-4.6-4.8-5.9l-18.3-9.9c-2.3-1.2-5-1.5-7.5-0.8c-2.5,0.8-4.6,2.5-5.9,4.8c-1.2,2.3-1.5,5-0.8,7.5
	C115.5,266.4,117.2,268.5,119.5,269.7z"/>
<path style="fill:#F9B7B8;" d="M117.9,278.6l20-25.9l-49.8-31.6l41.8-62.6c5-9.7,6.3-32.1-12.7-37.5v1.4c-7.5-3-11.9-2.6-25.6,15.6
	l-50.7,84.3c-1.1,2.6-1.3,5.4-0.8,8.2c0.5,2.8,1.8,5.3,3.7,7.3L117.9,278.6z"/>
<path style="fill:#1F2326;" d="M193.9,64.2c-6.1-7-4.1-17.9-4.1-17.9c1.1-6.5,0.4-11.5-1.3-15.3c-6.5-22.3-34.8-23.2-58.1-20
	C103,14.8,97.2,41,97.2,41l14.6,9.4c11.7,4.5,23.8,7.9,36.2,10.2l-0.9,29.7h53.3C202.3,80.6,200,71.2,193.9,64.2z"/>
<path style="fill:#E1B798;" d="M124.4,117.6V80.3h31.4v37.3c0,4.2-1.7,8.2-4.6,11.1c-2.9,2.9-6.9,4.6-11.1,4.6
	c-4.2,0-8.2-1.7-11.1-4.6C126,125.8,124.4,121.8,124.4,117.6z"/>
<path style="fill:#CA8F7E;" d="M123.2,72.6c0,0,3.5,37.5,32.6,35.2l0-18.8L123.2,72.6z"/>
<path style="fill:#CA8F7E;" d="M185.9,64.8c0,2-0.5,3.9-1.6,5.6c-1.1,1.7-2.6,3-4.5,3.7c-1.8,0.8-3.8,1-5.8,0.6
	c-1.9-0.4-3.7-1.3-5.1-2.7c-1.4-1.4-2.4-3.2-2.8-5.1c-0.4-1.9-0.2-4,0.5-5.8c0.7-1.8,2-3.4,3.7-4.5c1.6-1.1,3.6-1.7,5.5-1.7
	c2.7,0,5.2,1,7.1,2.9C184.8,59.6,185.8,62.1,185.9,64.8z"/>
<path style="fill:#E1B798;" d="M120.3,29.6l56-0.5c0.8,0,1.5,0.3,2.1,0.8c0.5,0.5,0.9,1.3,0.9,2l0.6,61.8c0,1.7-0.6,3.3-1.8,4.4
	c-1.2,1.2-2.8,1.9-4.4,1.9l-48,0.4c-1.7,0-3.3-0.6-4.4-1.8c-1.2-1.2-1.9-2.7-1.9-4.4l-0.6-63c0-0.4,0.2-0.8,0.5-1.1
	C119.5,29.8,119.9,29.6,120.3,29.6L120.3,29.6z"/>
<path style="fill:#1F2326;" d="M134.9,43.4c0,0,0.4,17-10.8,18.8s-5.2-18.8-5.2-18.8H134.9z"/>
<path style="fill:#1F2326;" d="M128.3,11.9c0,0-23.5-1-35.3,32.6c-11.7,33.6,3.4,50.2,4,50.8h31.8c1.9-9.6-1.1-18.6-4.5-25.9
	c-3.9-8.4-0.8-18-0.8-18c0.1-0.5,0.2-1,0.2-1.4c11.6-0.8,39.7-4.8,43.9-24.8l0.7-7.4L128.3,11.9z"/>
<path style="fill:#E1B798;" d="M128.9,64.1c0,2-0.6,3.9-1.6,5.6c-1.1,1.7-2.6,3-4.5,3.7c-1.8,0.8-3.8,1-5.8,0.6
	c-1.9-0.4-3.7-1.3-5.2-2.7c-1.4-1.4-2.4-3.2-2.8-5.1c-0.4-1.9-0.2-4,0.5-5.8c0.7-1.8,2-3.4,3.6-4.5c1.6-1.1,3.6-1.7,5.5-1.7
	c1.3,0,2.6,0.2,3.8,0.7c1.2,0.5,2.3,1.2,3.3,2.1c0.9,0.9,1.7,2,2.2,3.2C128.6,61.5,128.9,62.8,128.9,64.1z"/>
</svg>
