<?xml version="1.0" encoding="utf-8"?>
<!-- Generator: Adobe Illustrator 19.0.0, SVG Export Plug-In . SVG Version: 6.00 Build 0)  -->
<svg version="1.1" id="Layer_1" xmlns="http://www.w3.org/2000/svg" xmlns:xlink="http://www.w3.org/1999/xlink" x="0px" y="0px"
	 viewBox="344 0.8 867 851.1" style="enable-background:new 344 0.8 867 851.1;" xml:space="preserve">
<path style="fill:#FFA1A1;" d="M603,688.5l5.1,79.3h-76.9c0,0-71.2-94.3-86.5-252.8L603,688.5z"/>
<path style="fill:#CF7C7C;" d="M512.7,620.5c0,0,9.7,76,92.2,101.3l-2-33.3L512.7,620.5z"/>
<path style="fill:#D56C6C;" d="M738.3,688.5v79.3h-76.9c0,0-51.8-44.8-58.5-133.1L738.3,688.5z"/>
<path style="fill:#D56C6C;" d="M987.7,688.5v79.3h76.9c0,0,51.8-44.8,58.5-133.1L987.7,688.5z"/>
<path style="fill:#FF8484;" d="M987.7,729.1v-20.7l136.6-55.6c0,0-12.8,34.8-70.8,64C1028.9,729.1,987.7,729.1,987.7,729.1z"/>
<path style="fill:#FF8484;" d="M930.7,701.3l-275.4,5.8c-116.8,0-211.5-94.7-211.5-211.6c0-116.8,94.7-211.6,211.5-211.6h341.5
	c102.6,0,185.9,83.2,185.9,185.9v51.4C1182.7,623.9,1033.4,701.3,930.7,701.3z"/>
<path style="fill:none;stroke:#4476DF;stroke-width:6.187;stroke-linecap:round;stroke-linejoin:round;" d="M463.1,473.9
	c0,0-95.6-29.2-89.2-84.9s69.3-27.8,51.4,11.5c-16.9,37-72.1,76.9-72.1,76.9"/>
<path style="fill:#FFFFFF;" d="M796.3,324.1H635.8c-2.5,0-4.9-1-6.7-2.8c-1.8-1.8-2.8-4.2-2.8-6.7c0-2.5,1-4.9,2.8-6.7
	s4.2-2.8,6.7-2.8h160.5c1.2,0,2.5,0.2,3.6,0.7c1.2,0.5,2.2,1.2,3.1,2.1c0.9,0.9,1.6,1.9,2.1,3.1c0.5,1.2,0.7,2.4,0.7,3.6
	c0,1.2-0.2,2.5-0.7,3.6c-0.5,1.2-1.2,2.2-2.1,3.1c-0.9,0.9-1.9,1.6-3.1,2.1C798.7,323.8,797.5,324.1,796.3,324.1z"/>
<path style="fill:#FFA1A1;" d="M928.2,688.5v79.3h-76.9c0,0-51.8-44.8-58.5-133.1L928.2,688.5z"/>
<path style="fill:#FF8484;" d="M802.8,495.5c0,0-30.4,173.1,125.4,231.7v-64.3L802.8,495.5z"/>
<path style="fill:#FEB8B8;" d="M1151.3,196.7v134.2c0,8-1.6,15.9-4.6,23.3c-3.1,7.4-7.5,14.1-13.2,19.7
	c-5.6,5.6-12.3,10.1-19.7,13.2c-7.4,3.1-15.3,4.6-23.3,4.6c-45.3,0-75.2-48.1-54.2-88.3C1054.6,268.3,1088.5,228.8,1151.3,196.7z"/>
<path style="fill:#FF8484;" d="M975.6,281.2c4.2-0.3,138.6-10.4,202.1,75.8l-66.7,34.7l-87.7-65.1L975.6,281.2z"/>
<path style="fill:#FFA1A1;" d="M987.7,708.4c117.6,0,212.9-95.3,212.9-212.9c0-117.6-95.3-212.9-212.9-212.9S774.9,378,774.9,495.5
	C774.9,613.1,870.2,708.4,987.7,708.4z"/>
<path style="fill:#FEB8B8;" d="M976.3,184.6v143.8c0,17.3-6.9,33.8-19.1,46c-12.2,12.2-28.8,19.1-46,19.1
	c-48.6,0-80.5-51.5-58.1-94.6C872.7,261.4,909,219.1,976.3,184.6z"/>
<path style="fill:#D56C6C;" d="M999.1,445.4c0,3.3-1,6.6-2.8,9.4c-1.9,2.8-4.5,4.9-7.6,6.2c-3.1,1.3-6.5,1.6-9.8,1
	c-3.3-0.7-6.3-2.3-8.7-4.6c-2.4-2.4-4-5.4-4.6-8.7c-0.7-3.3-0.3-6.7,1-9.8c1.3-3.1,3.4-5.7,6.2-7.6c2.8-1.9,6-2.8,9.4-2.8
	c4.5,0,8.8,1.8,11.9,4.9C997.3,436.7,999.1,441,999.1,445.4z"/>
<path style="fill:#D56C6C;" d="M1160.8,462.3c9.3,0,16.9-7.6,16.9-16.9c0-9.3-7.6-16.9-16.9-16.9c-9.3,0-16.9,7.6-16.9,16.9
	C1143.9,454.8,1151.5,462.3,1160.8,462.3z"/>
<path style="fill:#FFFFFF;" d="M1092.8,604.1c46.5,0,84.1-26.8,84.1-59.9c0-33.1-37.7-59.9-84.1-59.9c-46.5,0-84.1,26.8-84.1,59.9
	C1008.7,577.3,1046.3,604.1,1092.8,604.1z"/>
<path style="fill:#FF8484;" d="M1087.2,540c0,13.8-5,25-11.3,25s-11.3-11.2-11.3-25s5-25,11.3-25
	C1082.1,515,1087.2,526.2,1087.2,540z"/>
<path style="fill:#FF8484;" d="M1134.4,564.9c6.2,0,11.3-11.2,11.3-25c0-13.8-5-25-11.3-25c-6.2,0-11.3,11.2-11.3,25
	C1123.2,553.8,1128.2,564.9,1134.4,564.9z"/>
<path style="fill:none;stroke:#101829;stroke-width:2.081;stroke-linecap:round;stroke-linejoin:round;" d="M580.2,561.8H486"/>
<path style="fill:none;stroke:#101829;stroke-width:2.081;stroke-linecap:round;stroke-linejoin:round;" d="M583.5,619.7h-94.2"/>
<path style="fill:none;stroke:#101829;stroke-width:2.081;stroke-linecap:round;stroke-linejoin:round;" d="M585.6,677.5h-94.2"/>
<path style="fill:none;stroke:#101829;stroke-width:2.081;stroke-linecap:round;stroke-linejoin:round;" d="M591.1,735.4h-94.2"/>
<path style="fill:none;stroke:#101829;stroke-width:2.081;stroke-linecap:round;stroke-linejoin:round;" d="M594.3,793.2h-94.2"/>
<path style="fill:none;stroke:#101829;stroke-width:2.081;stroke-linecap:round;stroke-linejoin:round;" d="M576,504.3l25.4,345.6"
	/>
<path style="fill:none;stroke:#101829;stroke-width:2.081;stroke-linecap:round;stroke-linejoin:round;" d="M481.8,504.3l25.4,345.6
	"/>
<path style="fill:none;stroke:#101829;stroke-width:2.081;stroke-linecap:round;stroke-linejoin:round;" d="M519.5,849.9L576,504.3
	h-94.9l-56.5,345.6"/>
<path style="fill:none;stroke:#101829;stroke-width:2.081;stroke-linecap:round;stroke-miterlimit:10;" d="M566.6,561.8h-94.9"/>
<path style="fill:none;stroke:#101829;stroke-width:2.081;stroke-linecap:round;stroke-miterlimit:10;" d="M556.9,619.7H463"/>
<path style="fill:none;stroke:#101829;stroke-width:2.081;stroke-linecap:round;stroke-miterlimit:10;" d="M547.2,677.5h-93.1"/>
<path style="fill:none;stroke:#101829;stroke-width:2.081;stroke-linecap:round;stroke-miterlimit:10;" d="M537.5,735.4h-92.2"/>
<path style="fill:none;stroke:#101829;stroke-width:2.081;stroke-linecap:round;stroke-miterlimit:10;" d="M527.8,793.2h-92"/>
<path style="fill:#3863C8;" d="M572,392.6c0,0,11.1,37.2,14.7,72.5c0.4,3.8-0.1,7.6-1.4,11.1c-1.3,3.6-3.4,6.8-6.1,9.4L480.4,577
	l-16.1-25.7l63.5-71.9l13.3-77.4L572,392.6z"/>
<path style="fill:#FFFFFF;" d="M466.1,554.1l-16.4,6.8c-1,0.7-1.8,1.7-2.1,2.9c-0.3,1.2-0.1,2.5,0.6,3.5l24.9,39.8
	c0.3,0.4,0.6,0.8,1,1.1c0.4,0.3,0.9,0.5,1.4,0.6c0.5,0.1,1,0.1,1.5,0c0.5-0.1,1-0.3,1.4-0.5c0.5-0.3,0.9-0.8,1.3-1.3
	c0.3-0.5,0.5-1.1,0.6-1.7l-1.8-31.4L466.1,554.1z"/>
<path style="fill:#4476DF;" d="M554.3,397.5l7,88.4c0.2,3,0.1,5.9-0.5,8.9l-19.6,101h-32.4l6-101.1l-10.6-90.5L554.3,397.5z"/>
<path style="fill:#FFFFFF;" d="M511.9,595.7l-2.9,17.5c0,1.2,0.5,2.4,1.4,3.3c0.9,0.9,2,1.4,3.3,1.4h47c1,0,2-0.4,2.8-1.1
	c0.7-0.7,1.1-1.7,1.1-2.8c0-0.6-0.1-1.2-0.4-1.7c-0.3-0.5-0.7-1-1.1-1.4l-27.6-15.2L511.9,595.7z"/>
<path style="fill:#926150;" d="M569,164.2c0,2.9-0.9,5.8-2.5,8.2c-1.6,2.4-3.9,4.3-6.6,5.4c-2.7,1.1-5.7,1.4-8.5,0.8
	c-2.9-0.6-5.5-2-7.6-4c-2.1-2.1-3.5-4.7-4-7.6c-0.6-2.9-0.3-5.8,0.8-8.5c1.1-2.7,3-5,5.4-6.6c2.4-1.6,5.3-2.5,8.2-2.5
	c3.9,0,7.7,1.6,10.4,4.3C567.5,156.6,569,160.3,569,164.2z"/>
<path style="fill:#926150;" d="M554.3,174.3l8,22.7l16.5-7.3L566,164.2L554.3,174.3z"/>
<path style="fill:#51CE9F;" d="M546.8,283.3l23.4-41.2l-19.1-55.2l28.9-11.4l21.5,64.1c1.1,5.5,0.4,11.3-2.1,16.4l-38.1,70.6
	L546.8,283.3z"/>
<path style="fill:#51CE9F;" d="M491.2,298.2l-67.4,2l-3.6,30.6l71.3,2.8c3.8,0.1,7.5-1,10.6-3.2c3.1-2.2,5.4-5.3,6.6-8.9
	c0.9-2.7,1.1-5.6,0.6-8.4c-0.5-2.8-1.6-5.5-3.3-7.8c-1.7-2.3-4-4.1-6.6-5.3C496.9,298.6,494.1,298.1,491.2,298.2z"/>
<path style="fill:#926150;" d="M462.8,241c-2.1,2-4.7,3.4-7.6,4c-2.9,0.5-5.8,0.2-8.5-0.9c-2.7-1.1-5-3.1-6.6-5.5
	c-1.6-2.4-2.4-5.3-2.4-8.2c0-2.9,0.9-5.8,2.6-8.2c1.7-2.4,4-4.3,6.7-5.4s5.7-1.3,8.5-0.7c2.9,0.6,5.5,2,7.5,4.1
	c1.4,1.4,2.4,3,3.1,4.8c0.7,1.8,1.1,3.7,1.1,5.7c0,1.9-0.4,3.9-1.2,5.6C465.3,238,464.2,239.6,462.8,241z"/>
<path style="fill:#926150;" d="M441.9,237.5L431.3,259l16.8,6.7l9.2-26.9L441.9,237.5z"/>
<path style="fill:#51CE9F;" d="M456.1,254.5L436,319.9c-1.1,3.5-3.4,6.5-6.5,8.5c-3.1,2-6.8,2.7-10.4,2.2c-2.3-0.3-4.6-1.2-6.5-2.5
	c-1.9-1.3-3.5-3.1-4.7-5.2c-1.2-2.1-1.8-4.3-1.9-6.7c-0.1-2.4,0.3-4.7,1.2-6.9l26.6-62.1L456.1,254.5z"/>
<path style="fill:#51CE9F;" d="M518.7,291.4l-28.5,6.8l8.6,108.8c0,0,22.1,19.1,78.6-11.8l-21.1-117.6l-21.9,12.3L518.7,291.4z"/>
<path style="fill:#FFD37B;" d="M369.1,82c7.5-18.6,20.4-34.6,37-45.9c16.6-11.3,36.2-17.4,56.3-17.6c20.1-0.2,39.8,5.6,56.6,16.6
	c16.8,11,29.9,26.8,37.8,45.3c7.8,18.5,10,38.9,6.3,58.6s-13.3,37.9-27.4,52.2c-14.1,14.3-32.1,24.1-51.8,28.2
	c-19.7,4.1-40.1,2.2-58.7-5.3c-25-10.1-44.9-29.7-55.4-54.5C359.2,134.9,359,107,369.1,82L369.1,82z"/>
<path style="fill:#EFC166;" d="M385.4,102.9c3.4-15.4,11.3-29.4,22.7-40.3c11.4-10.9,25.7-18.2,41.2-20.9
	c15.5-2.7,31.5-0.8,45.9,5.5c14.4,6.3,26.6,16.8,35.1,30.1c8.5,13.3,12.8,28.8,12.5,44.5c-0.3,15.7-5.3,31-14.4,43.9
	c-9,12.9-21.7,22.8-36.4,28.5c-14.7,5.7-30.7,6.9-46.1,3.5c-20.6-4.6-38.6-17.1-49.9-34.9C384.7,145.1,380.9,123.5,385.4,102.9
	L385.4,102.9z"/>
<path style="fill:#CC952D;" d="M458.5,39.5c-1.5,0.1-3,0.2-4.5,0.4c41.3,0,71.9,33,74.4,75.4s-24.1,78.7-65.2,83.5
	c1.5,0,3,0,4.5-0.1c43.3-2.5,76.3-40.2,73.7-84.1C538.9,70.6,501.8,37,458.5,39.5z"/>
<path style="fill:#FFFFFF;" d="M473.7,162.4v13.3h-14.3v-12.8c-11.9-0.8-23.3-4.3-30.2-9.1l7.8-17.4c8.3,5.3,17.8,8.1,27.6,8.2
	c9.8,0,13.6-2.7,13.6-6.8c0-13.3-47.5-3.6-47.5-34.6c0-13.1,9.4-24.2,28.8-26.6V63.4h14.3v12.9c8.8,0.7,17.6,3.1,24.2,7l-7.3,17.5
	c-8-4.3-15.9-6.4-23.2-6.4c-9.9,0-13.5,3.3-13.5,7.5c0,12.8,47.4,3.2,47.4,34C501.4,148.6,492.3,159.6,473.7,162.4z"/>
<path style="fill:#926150;" d="M514.8,232.4c-9.7,3.2-3.6,18.3-3.6,18.3l-12.4,5.7c5,11.8,16.4,19.2,28.1,17.2
	c14-2.4,23.2-17.2,20.6-33.1c-0.7-5-2.9-9.7-6.3-13.5C540.8,227.1,524.4,229.3,514.8,232.4z"/>
<path style="fill:#926150;" d="M511.9,294.3l-4.3-26.8l22.5-3.6l4.3,26.8c1,6.2-1.3,11.7-7.5,12.7l-1.9,0.3c-1.5,0.2-3,0.2-4.4-0.2
	c-1.5-0.3-2.8-1-4-1.9c-1.2-0.9-2.2-2-3-3.3S512.1,295.8,511.9,294.3z"/>
<path style="fill:#805042;" d="M506.4,265.1c0,0,4.3,27.3,28,24.8l-2.7-15.6L506.4,265.1z"/>
<path style="fill:#805042;" d="M554.1,248.1c0.3,1.5,0.2,3-0.4,4.3c-0.6,1.4-1.5,2.5-2.7,3.4c-1.2,0.8-2.7,1.3-4.2,1.3
	c-1.5,0-2.9-0.4-4.2-1.2c-1.2-0.8-2.2-2-2.8-3.4c-0.6-1.4-0.7-2.9-0.4-4.3c0.3-1.5,1-2.8,2-3.8c1-1.1,2.4-1.8,3.8-2.1
	c1.9-0.4,4,0,5.6,1.1C552.6,244.4,553.7,246.2,554.1,248.1z"/>
<path style="fill:#926150;" d="M502,235.9l39.5-8.1c0.8-0.2,1.7,0,2.4,0.5c0.7,0.5,1.2,1.2,1.4,2l8.6,42.2c0.4,1.8,0,3.6-1,5.2
	c-1,1.5-2.6,2.6-4.4,2.9l-30.9,6.3c-1.8,0.4-3.6,0-5.2-1s-2.6-2.6-2.9-4.4l-8.9-43.6c-0.1-0.5,0-0.9,0.3-1.3
	C501.2,236.2,501.6,235.9,502,235.9z"/>
<path style="fill:#1F2326;" d="M511.2,250.8L514,265c0.2,1.2,0.7,2.4,1.5,3.4c0.8,1,1.8,1.7,3,2.2c1.5,0.6,2.8,1.5,5,0.6
	c6.2-2.6,2.1-6.1,15.4-8.7c12.2-2.4,12.8,4,12.8,4s0.9,13.3-15.4,18s-27.1-3.6-28.7-17.9l-3.5-14L511.2,250.8z"/>
<path style="fill:#1F2326;" d="M514.8,232.4c9.6-3.1,26-5.3,26.3-5.4c-5.7-6.1-14.2-8.5-23.3-7c-14,2.4-23.9,13.2-21.2,29.1
	c0.4,2.5,1.2,5,2.2,7.3l12.4-5.7C511.2,250.7,505.1,235.6,514.8,232.4z"/>
<path style="fill:#926150;" d="M508.2,257.9c0.6,1.6,0.7,3.3,0.3,4.9s-1.2,3.1-2.5,4.3c-1.2,1.1-2.8,1.9-4.4,2.2
	c-1.7,0.3-3.3,0.1-4.9-0.6c-1.5-0.7-2.8-1.8-3.7-3.2c-0.9-1.4-1.3-3.1-1.3-4.7c0.1-1.7,0.6-3.3,1.6-4.7c1-1.4,2.3-2.4,3.9-3
	c1-0.4,2.1-0.6,3.3-0.5c1.1,0,2.2,0.3,3.2,0.7c1,0.5,1.9,1.1,2.7,1.9C507.2,255.9,507.8,256.9,508.2,257.9z"/>
<path style="fill:#CA8F7E;" d="M978.2,790.8l-17.4-23.3l-17.5,13.9l16.7,24.1L978.2,790.8z"/>
<path style="fill:#131118;" d="M978.7,789.2l15.7,14.5c0.5,0.6,0.8,1.2,1,1.9c0.2,0.7,0.2,1.4,0.2,2.2s-0.3,1.4-0.7,2.1
	c-0.4,0.6-0.8,1.2-1.4,1.6l-44.6,34.7c-0.5,0.4-1,0.7-1.6,0.8c-0.6,0.2-1.2,0.2-1.8,0.1c-0.6-0.1-1.2-0.3-1.7-0.6
	c-0.5-0.3-1-0.7-1.4-1.2c-0.4-0.6-0.8-1.2-0.9-1.9c-0.1-0.7-0.1-1.4,0.1-2.1l15-34.8L978.7,789.2z"/>
<path style="fill:#101829;" d="M823.9,573l42.4,119.1l75.4,103.5l36.8-21.2L915.4,682l-32.2-109.4L823.9,573z"/>
<path style="fill:#CA8F7E;" d="M791.8,824.6l10.7-27.1l-21.1-7.6l-11.7,26.9L791.8,824.6z"/>
<path style="fill:#131118;" d="M793.7,825l-3.6,21.1c-0.5,1.4-1.5,2.5-2.8,3.2c-1.3,0.6-2.9,0.7-4.3,0.3l-53.4-18.5
	c-0.6-0.2-1.1-0.5-1.6-0.9c-0.5-0.4-0.8-0.9-1.1-1.5c-0.3-0.6-0.4-1.2-0.5-1.8c0-0.6,0-1.2,0.3-1.8c0.2-0.7,0.6-1.3,1.1-1.8
	c0.5-0.5,1.1-0.9,1.8-1.1l37.3-6.4L793.7,825z"/>
<path style="fill:#101829;" d="M823.9,573l16.8,20.4l-37.1,83.8L766.3,799l42.5,14.4l41.4-126.2l57.9-114.4l-19.9,0.2L823.9,573z"/>
<path style="fill:#3863C8;" d="M841.4,436.8c-2.2,0.4-4.3,1.2-6.3,2.3c-4.3,2.3-7.9,5.8-10.3,10c-2.4,4.2-3.6,9.1-3.5,13.9
	l-0.2,118.3c0,0,40.4,12.8,86.9-5.8l-0.4-118c0-1.4,4.1-11.9,3-12.9c-2.9-2.6-6.8-6.2-12.9-7.6c-0.8-0.2-1.6-0.2-2.5-0.2
	L841.4,436.8z"/>
<path style="fill:#4476DF;" d="M822.9,453.5l-29.2,76.3l57.2-13.9L822.9,453.5z"/>
<path style="fill:#E1B798;" d="M851.1,420.5l24.4-16.8l4.6,3l-0.4,30.1c0,3.8-1.6,7.4-4.3,10c-2.7,2.7-6.3,4.1-10.1,4.1
	c-1.9,0-3.8-0.4-5.5-1.1c-1.8-0.7-3.3-1.8-4.7-3.2c-1.3-1.4-2.4-3-3.1-4.7c-0.7-1.8-1.1-3.6-1-5.5L851.1,420.5z"/>
<path style="fill:#CA8F7E;" d="M850.9,433c0,0,30.9,0.7,26.2-31.8l-7.8,5.4l-18.3,14.7L850.9,433z"/>
<path style="fill:#FFFFFF;" d="M857.6,448.4l15.3,15.3l14.3-26.9h-7.5L857.6,448.4z"/>
<path style="fill:#FFFFFF;" d="M857.6,448.4l-13.5,12.2l1.5-23.7h5.3L857.6,448.4z"/>
<path style="fill:#CA8F7E;" d="M828.7,393.8c0,1.7,0.4,3.3,1.3,4.8c0.9,1.4,2.2,2.6,3.7,3.2c1.5,0.7,3.2,0.9,4.9,0.6
	c1.7-0.3,3.2-1,4.4-2.2c1.2-1.2,2.1-2.6,2.5-4.3c0.4-1.6,0.3-3.3-0.3-4.9c-0.6-1.6-1.6-2.9-3-3.9c-1.4-1-3-1.5-4.7-1.6
	c-1.1,0-2.2,0.2-3.3,0.6s-2,1-2.8,1.8c-0.8,0.8-1.5,1.7-1.9,2.7C828.9,391.6,828.7,392.7,828.7,393.8z"/>
<path style="fill:#1F2326;" d="M833.3,364.5c0,0-16.4,25.3,8.3,27l6.2-13.2l-5.4-13.8L833.3,364.5z"/>
<path style="fill:#E1B798;" d="M856.1,427.8l0.9,0c3.1,0.1,6.2-0.4,9.1-1.5c2.9-1.1,5.5-2.8,7.8-4.9c2.3-2.1,4.1-4.7,5.3-7.5
	c1.3-2.8,2-5.9,2.1-9l0.8-30.3c0-0.8-0.1-1.6-0.4-2.3c-0.3-0.7-0.7-1.4-1.3-2c-0.6-0.6-1.2-1.1-1.9-1.4c-0.7-0.3-1.5-0.5-2.3-0.5
	l-31-0.9c-1.4,0-2.9,0.2-4.2,0.7c-1.3,0.5-2.6,1.3-3.6,2.3c-1,1-1.9,2.2-2.5,3.5c-0.6,1.3-0.9,2.7-1,4.1l-0.6,25.5
	c-0.2,6.3,2.1,12.3,6.4,16.9C843.9,425,849.8,427.6,856.1,427.8z"/>
<path style="fill:#1F2326;" d="M829.4,379.4c-2.2-2.8-18-14.4-4.1-29c6.8-7.2,13.4-3.3,20.8-0.1c2.9-1.3,11.3-4.9,20.5-4.5
	c9.3,0.4,16.2,6.2,20.1,13.7l0,0c0,0,10.1,0.3,14.6,11.5c8.2,20.2-21.4,46-21.4,46l0-25.4c-11.8-0.8-12.1-11.4-11.1-18
	c-11.5,2.4-23.3,3-35,1.9c0,0,1.2,3.6-2.2,0.4l-1.6-1.2C827.5,373.5,830,380.5,829.4,379.4z"/>
<path style="fill:#E1B798;" d="M885.9,404.6c4.6-0.8,7.7-5.3,6.8-9.9c-0.8-4.6-5.3-7.7-9.9-6.8c-4.6,0.8-7.7,5.3-6.8,9.9
	C876.9,402.3,881.3,405.4,885.9,404.6z"/>
<path style="fill:#FFD37B;" d="M758.6,581.8c3.8-23.4,14.4-45.2,30.5-62.6c16.1-17.4,37.1-29.6,60.2-35.1c23.1-5.5,47.3-4,69.5,4.3
	c22.2,8.3,41.5,22.9,55.4,42.2s21.8,42.1,22.7,65.8c0.9,23.7-5.3,47.1-17.7,67.3C966.7,684,948.6,700,927,709.9
	c-21.6,9.9-45.6,13.1-69,9.4c-31.4-5-59.5-22.4-78.2-48.1C761.2,645.4,753.5,613.3,758.6,581.8L758.6,581.8z"/>
<path style="fill:#EFC166;" d="M786,579.2c4-18.2,13.4-34.8,26.8-47.7s30.5-21.5,48.8-24.8c18.4-3.2,37.3-1,54.3,6.5
	c17.1,7.5,31.5,19.9,41.6,35.6c10,15.7,15.2,34.1,14.8,52.7c-0.4,18.6-6.3,36.7-17,52c-10.7,15.3-25.7,27-43,33.8
	c-17.4,6.8-36.4,8.2-54.6,4.2c-24.4-5.4-45.7-20.3-59.1-41.4C785.1,629.2,780.6,603.7,786,579.2L786,579.2z"/>
<path style="fill:#CC952D;" d="M878.4,506.8c-1.8,0-3.5,0.1-5.3,0.2c48.7,2.8,82.6,43.8,82.6,94c0,50.2-33.8,91.2-82.6,94
	c1.8,0.1,3.5,0.2,5.3,0.2c51.2,0,92.7-42.2,92.7-94.2C971.1,549,929.6,506.8,878.4,506.8z"/>
<path style="fill:#FFFFFF;" d="M886.9,655.8v15.7H870v-15.1c-14.1-1-27.5-5.1-35.7-10.7l9.2-20.6c9.7,6.2,21,9.6,32.6,9.7
	c11.6,0,16.1-3.2,16.1-8c0-15.7-56.1-4.2-56.1-40.9c0-15.5,11.1-28.6,34-31.4v-15.5h16.9v15.2c10.4,0.8,20.7,3.7,28.6,8.3l-8.6,20.7
	c-9.4-5.1-18.8-7.6-27.4-7.6c-11.7,0-15.9,4-15.9,8.9c0,15.1,56,3.8,56,40.2C919.6,639.6,908.9,652.6,886.9,655.8z"/>
<path style="fill:#CA8F7E;" d="M910.3,562.7c6.9,5.5,6.4,13.2,0.9,20s-14.1,10.4-21,4.8c-1.6-1.3-3-2.9-4-4.8c-1-1.8-1.6-3.9-1.9-6
	c-0.2-2.1,0-4.2,0.6-6.2c0.6-2,1.6-3.9,2.9-5.5c1.3-1.6,2.9-3,4.8-4c1.8-1,3.9-1.6,6-1.9c2.1-0.2,4.2,0,6.2,0.6
	C906.8,560.4,908.6,561.3,910.3,562.7z"/>
<path style="fill:#CA8F7E;" d="M924.3,559.6L912.7,574c-1.5,1.8-3.6,3-5.9,3.2c-2.3,0.2-4.6-0.4-6.4-1.9c-1.8-1.5-3-3.6-3.2-5.9
	c-0.2-2.3,0.4-4.6,1.9-6.4l11.6-14.4c1.5-1.8,3.6-3,5.9-3.2c2.3-0.2,4.6,0.4,6.4,1.9c1.8,1.5,3,3.6,3.2,5.9
	C926.5,555.5,925.8,557.8,924.3,559.6z"/>
<path style="fill:#4476DF;" d="M930.4,568.1l-25.2-14.3l29.9-42.9l-46.9-35.5c-7.4-6.2-12.8-22,0.8-32.9c5.1-5,18.4-2.1,23.4,3
	l61.6,50.3c1.8,1.8,3,4,3.5,6.4c0.5,2.4,0.3,5-0.5,7.3L930.4,568.1z"/>
</svg>
