<?xml version="1.0" encoding="UTF-8"?>
<svg enable-background="new 737 -49.5 1688.9 1187.4" version="1.1" viewBox="737 -49.5 1688.9 1187.4" xml:space="preserve" xmlns="http://www.w3.org/2000/svg">
<style type="text/css">
	.st0{opacity:0.15;fill:#CC952D;enable-background:new    ;}
	.st1{fill:#FFFFFF;fill-opacity:0.76;}
</style>
<path class="st0" d="m1628.1 88.6c288.2 207.9 269.9 423.3 741.2 442.6 17.6 0.7 34.5 1.8 50.7 3.2v443.5c-354.6 109.3-1148.2 231.4-1669.7-54.4v-850.9c116.8-79.1 269.5-118 423-118 165.4 0.1 331.8 45.3 454.8 134z"/>
<path class="st1" d="m737 942.1v-129.7c45.1-32.7 106.4-47.9 189.7-26.3 156 40.4 248.8-32.6 335.4-105.7 74.4-62.8 144.1-125.5 245.3-116.3 219.1 19.9 251.5 205.3 245.4 380.6-5.3 151.8 355 67 409.9 152.7-157.9 24.2-333.9 40.4-514 40.5-316.7 0-646-50.2-911.7-195.8z"/>
</svg>
