<svg width="11" height="171" viewBox="0 0 11 171" fill="none" xmlns="http://www.w3.org/2000/svg">
<path d="M3.26221 7.35405C5.0516 7.35405 6.5022 5.83092 6.5022 3.95205C6.5022 2.07318 5.0516 0.550049 3.26221 0.550049C1.47281 0.550049 0.0222168 2.07318 0.0222168 3.95205C0.0222168 5.83092 1.47281 7.35405 3.26221 7.35405Z" fill="#030D4F"/>
<path d="M3.26221 25.4981C5.0516 25.4981 6.5022 23.975 6.5022 22.0961C6.5022 20.2172 5.0516 18.6941 3.26221 18.6941C1.47281 18.6941 0.0222168 20.2172 0.0222168 22.0961C0.0222168 23.975 1.47281 25.4981 3.26221 25.4981Z" fill="#030D4F"/>
<path d="M3.26221 43.642C5.0516 43.642 6.5022 42.1189 6.5022 40.24C6.5022 38.3611 5.0516 36.838 3.26221 36.838C1.47281 36.838 0.0222168 38.3611 0.0222168 40.24C0.0222168 42.1189 1.47281 43.642 3.26221 43.642Z" fill="#030D4F"/>
<path d="M3.26221 61.786C5.0516 61.786 6.5022 60.2629 6.5022 58.3841C6.5022 56.5052 5.0516 54.9821 3.26221 54.9821C1.47281 54.9821 0.0222168 56.5052 0.0222168 58.3841C0.0222168 60.2629 1.47281 61.786 3.26221 61.786Z" fill="#030D4F"/>
<path d="M3.26221 79.9301C5.0516 79.9301 6.5022 78.407 6.5022 76.5281C6.5022 74.6492 5.0516 73.1261 3.26221 73.1261C1.47281 73.1261 0.0222168 74.6492 0.0222168 76.5281C0.0222168 78.407 1.47281 79.9301 3.26221 79.9301Z" fill="#030D4F"/>
<path d="M3.26221 98.074C5.0516 98.074 6.5022 96.5509 6.5022 94.672C6.5022 92.7931 5.0516 91.27 3.26221 91.27C1.47281 91.27 0.0222168 92.7931 0.0222168 94.672C0.0222168 96.5509 1.47281 98.074 3.26221 98.074Z" fill="#030D4F"/>
<path d="M3.26221 116.218C5.0516 116.218 6.5022 114.695 6.5022 112.816C6.5022 110.937 5.0516 109.414 3.26221 109.414C1.47281 109.414 0.0222168 110.937 0.0222168 112.816C0.0222168 114.695 1.47281 116.218 3.26221 116.218Z" fill="#030D4F"/>
<path d="M3.26221 134.362C5.0516 134.362 6.5022 132.839 6.5022 130.96C6.5022 129.081 5.0516 127.558 3.26221 127.558C1.47281 127.558 0.0222168 129.081 0.0222168 130.96C0.0222168 132.839 1.47281 134.362 3.26221 134.362Z" fill="#030D4F"/>
<path d="M3.26221 152.506C5.0516 152.506 6.5022 150.983 6.5022 149.104C6.5022 147.225 5.0516 145.702 3.26221 145.702C1.47281 145.702 0.0222168 147.225 0.0222168 149.104C0.0222168 150.983 1.47281 152.506 3.26221 152.506Z" fill="#030D4F"/>
<path d="M3.26221 170.65C5.0516 170.65 6.5022 169.127 6.5022 167.248C6.5022 165.369 5.0516 163.846 3.26221 163.846C1.47281 163.846 0.0222168 165.369 0.0222168 167.248C0.0222168 169.127 1.47281 170.65 3.26221 170.65Z" fill="#030D4F"/>
</svg>
