<svg xmlns="http://www.w3.org/2000/svg" xmlns:xlink="http://www.w3.org/1999/xlink" width="1228.699" height="863.233" viewBox="0 0 1228.699 863.233">
  <defs>
    <clipPath id="clip-path">
      <path id="Path_10945" data-name="Path 10945" d="M446.478,168.471V302.69A60.775,60.775,0,0,1,385.7,363.463h0c-45.345,0-75.156-48.078-54.2-88.291C349.757,240.148,383.7,200.641,446.478,168.471Z" transform="translate(-324.668 -168.471)" fill="#a4b3dd"/>
    </clipPath>
  </defs>
  <g id="Group_11076" data-name="Group 11076" transform="translate(-171.746 -4051.632)">
    <g id="Group_10981" data-name="Group 10981" transform="translate(193.951 4248.402)">
      <g id="Group_10980" data-name="Group 10980" transform="translate(0)">
        <g id="Group_10974" data-name="Group 10974" transform="translate(0 99.321)">
          <g id="Group_10971" data-name="Group 10971" transform="translate(91.461 231.04)">
            <path id="Path_10933" data-name="Path 10933" d="M279.223,452.831l5.075,79.341H207.445s-71.218-94.347-86.517-252.788Z" transform="translate(-120.928 -279.384)" fill="#ffa1a1"/>
            <path id="Path_10934" data-name="Path 10934" d="M144.647,316.13s9.716,75.994,92.183,101.288L234.861,384.1Z" transform="translate(-76.566 -210.658)" fill="#cf7c7c"/>
          </g>
          <path id="Path_10935" data-name="Path 10935" d="M311.444,374.836v79.341H234.591s-51.829-44.788-58.514-133.091Z" transform="translate(73.679 29.652)" fill="#d56c6c"/>
          <g id="Group_10972" data-name="Group 10972" transform="translate(634.524 350.738)">
            <path id="Path_10936" data-name="Path 10936" d="M310.128,374.836v79.341h76.853s51.829-44.788,58.514-133.091Z" transform="translate(-310.128 -321.086)" fill="#d56c6c"/>
            <path id="Path_10937" data-name="Path 10937" d="M310.128,403.728V383L446.717,327.38s-12.776,34.831-70.831,63.991C351.28,403.728,310.128,403.728,310.128,403.728Z" transform="translate(-310.128 -309.314)" fill="#ff8484"/>
          </g>
          <path id="Path_10938" data-name="Path 10938" d="M607.562,616.174l-275.4,5.821c-116.836,0-211.55-94.715-211.55-211.551h0c0-116.839,94.714-211.553,211.55-211.553h341.55c102.648,0,185.861,83.213,185.861,185.861v51.384C859.575,538.782,710.207,616.174,607.562,616.174Z" transform="translate(-30.054 -198.891)" fill="#ff8484"/>
          <path id="Path_10939" data-name="Path 10939" d="M199.836,326.225s-95.559-29.161-89.188-84.9,69.283-27.819,51.388,11.519c-16.85,37.048-72.093,76.943-72.093,76.943" transform="translate(-89.942 -136.262)" fill="none" stroke="#4476df" stroke-linecap="round" stroke-linejoin="round" stroke-width="6.187"/>
          <path id="Path_10940" data-name="Path 10940" d="M354.162,225.236H193.7a9.494,9.494,0,0,1-9.492-9.495h0a9.494,9.494,0,0,1,9.492-9.492H354.162a9.494,9.494,0,0,1,9.5,9.492h0A9.495,9.495,0,0,1,354.162,225.236Z" transform="translate(88.892 -185.129)" fill="#fff"/>
          <g id="Group_10973" data-name="Group 10973" transform="translate(439.604 211.553)">
            <path id="Path_10941" data-name="Path 10941" d="M377.586,374.836v79.341H300.733S248.9,409.388,242.219,321.086Z" transform="translate(-242.219 -181.902)" fill="#ffa1a1"/>
            <path id="Path_10942" data-name="Path 10942" d="M247.251,272.6S216.809,445.66,372.667,504.263V439.994Z" transform="translate(-237.3 -272.595)" fill="#ff8484"/>
          </g>
        </g>
        <g id="Group_10979" data-name="Group 10979" transform="translate(421.65)">
          <g id="Group_10976" data-name="Group 10976" transform="translate(254.609 12.007)">
            <path id="Path_10943" data-name="Path 10943" d="M446.478,168.471V302.69A60.775,60.775,0,0,1,385.7,363.463h0c-45.345,0-75.156-48.078-54.2-88.291C349.757,240.148,383.7,200.641,446.478,168.471Z" transform="translate(-324.668 -168.471)" fill="#feb8b8"/>
            <g id="Group_10975" data-name="Group 10975" clip-path="url(#clip-path)">
              <path id="Path_10944" data-name="Path 10944" d="M305.9,198.232c4.182-.261,138.556-10.411,202.136,75.765L441.3,308.724l-87.731-65.056Z" transform="translate(-359.765 -113.733)" fill="#ff8484"/>
            </g>
          </g>
          <circle id="Ellipse_10" data-name="Ellipse 10" cx="212.875" cy="212.875" r="212.875" transform="translate(0 97.999)" fill="#ffa1a1"/>
          <path id="Path_10946" data-name="Path 10946" d="M391.147,164.288V308.05a65.1,65.1,0,0,1-65.1,65.1h0c-48.569,0-80.5-51.5-58.052-94.568C287.549,241.063,323.9,198.743,391.147,164.288Z" transform="translate(-189.746 -164.288)" fill="#feb8b8"/>
          <g id="Group_10978" data-name="Group 10978" transform="translate(190.414 243.893)">
            <path id="Path_10947" data-name="Path 10947" d="M336.092,266.154A16.895,16.895,0,1,1,319.2,249.259,16.894,16.894,0,0,1,336.092,266.154Z" transform="translate(-302.303 -249.259)" fill="#d56c6c"/>
            <circle id="Ellipse_11" data-name="Ellipse 11" cx="16.894" cy="16.894" r="16.894" transform="translate(178.679 0.001)" fill="#d56c6c"/>
            <g id="Group_10977" data-name="Group 10977" transform="translate(43.387 55.858)">
              <ellipse id="Ellipse_12" data-name="Ellipse 12" cx="84.108" cy="59.864" rx="84.108" ry="59.864" fill="#fff"/>
              <path id="Path_10948" data-name="Path 10948" d="M359.435,304.344c0,13.786-5.037,24.96-11.254,24.96s-11.252-11.174-11.252-24.96,5.037-24.96,11.252-24.96S359.435,290.561,359.435,304.344Z" transform="translate(-280.929 -248.774)" fill="#ff8484"/>
              <ellipse id="Ellipse_13" data-name="Ellipse 13" cx="11.253" cy="24.96" rx="11.253" ry="24.96" transform="translate(114.514 30.611)" fill="#ff8484"/>
            </g>
          </g>
        </g>
      </g>
    </g>
    <g id="Group_11021" data-name="Group 11021" transform="translate(155.746 4056.609)">
      <g id="Group_11003" data-name="Group 11003" transform="translate(109.596 511.465)">
        <g id="Group_11001" data-name="Group 11001" transform="translate(57.167)">
          <line id="Line_4" data-name="Line 4" x1="94.208" transform="translate(4.226 57.496)" fill="none" stroke="#101829" stroke-linecap="round" stroke-linejoin="round" stroke-width="2.081"/>
          <line id="Line_5" data-name="Line 5" x1="94.209" transform="translate(7.497 115.346)" fill="none" stroke="#101829" stroke-linecap="round" stroke-linejoin="round" stroke-width="2.081"/>
          <line id="Line_6" data-name="Line 6" x1="94.208" transform="translate(9.592 173.196)" fill="none" stroke="#101829" stroke-linecap="round" stroke-linejoin="round" stroke-width="2.081"/>
          <line id="Line_7" data-name="Line 7" x1="94.209" transform="translate(15.142 231.045)" fill="none" stroke="#101829" stroke-linecap="round" stroke-linejoin="round" stroke-width="2.081"/>
          <line id="Line_8" data-name="Line 8" x1="94.209" transform="translate(18.302 288.895)" fill="none" stroke="#101829" stroke-linecap="round" stroke-linejoin="round" stroke-width="2.081"/>
          <line id="Line_9" data-name="Line 9" x2="25.399" y2="345.596" transform="translate(94.208)" fill="none" stroke="#101829" stroke-linecap="round" stroke-linejoin="round" stroke-width="2.081"/>
          <line id="Line_10" data-name="Line 10" x2="25.399" y2="345.596" stroke-width="2.081" stroke="#101829" stroke-linecap="round" stroke-linejoin="round" fill="none"/>
        </g>
        <g id="Group_11002" data-name="Group 11002">
          <path id="Path_10967" data-name="Path 10967" d="M217.919,613.241l56.475-345.6h-94.9l-56.475,345.6" transform="translate(-123.019 -267.645)" fill="none" stroke="#101829" stroke-linecap="round" stroke-linejoin="round" stroke-width="2.081"/>
          <line id="Line_11" data-name="Line 11" x1="94.901" transform="translate(47.08 57.496)" fill="none" stroke="#101829" stroke-linecap="round" stroke-miterlimit="10" stroke-width="2.081"/>
          <line id="Line_12" data-name="Line 12" x1="93.87" transform="translate(38.407 115.346)" fill="none" stroke="#101829" stroke-linecap="round" stroke-miterlimit="10" stroke-width="2.081"/>
          <line id="Line_13" data-name="Line 13" x1="93.07" transform="translate(29.503 173.196)" fill="none" stroke="#101829" stroke-linecap="round" stroke-miterlimit="10" stroke-width="2.081"/>
          <line id="Line_14" data-name="Line 14" x1="92.222" transform="translate(20.648 231.045)" fill="none" stroke="#101829" stroke-linecap="round" stroke-miterlimit="10" stroke-width="2.081"/>
          <line id="Line_15" data-name="Line 15" x1="92" transform="translate(11.168 288.895)" fill="none" stroke="#101829" stroke-linecap="round" stroke-miterlimit="10" stroke-width="2.081"/>
        </g>
      </g>
      <g id="Group_11020" data-name="Group 11020" transform="translate(16 -4.977)">
        <g id="Group_11006" data-name="Group 11006" transform="translate(116.513 404.754)">
          <g id="Group_11004" data-name="Group 11004">
            <path id="Path_10968" data-name="Path 10968" d="M242.97,233.162s11.109,37.221,14.744,72.525a24.8,24.8,0,0,1-7.5,20.551l-98.874,91.337-16.058-25.668,63.473-71.946L212.1,242.61Z" transform="translate(-118.491 -233.162)" fill="#3863c8"/>
            <path id="Path_10969" data-name="Path 10969" d="M148.668,283.021l-16.4,6.841a4.643,4.643,0,0,0-1.467,6.4l24.933,39.783a3.91,3.91,0,0,0,5.39,1.237h0a3.907,3.907,0,0,0,1.814-2.947l-1.817-31.437Z" transform="translate(-130.094 -121.533)" fill="#fff"/>
          </g>
          <g id="Group_11005" data-name="Group 11005" transform="translate(56.557 4.839)">
            <path id="Path_10970" data-name="Path 10970" d="M197.746,234.656l6.983,88.438a32.889,32.889,0,0,1-.5,8.858L184.612,432.906H152.2l5.953-101.112-10.6-90.482Z" transform="translate(-147.556 -234.656)" fill="#4476df"/>
            <path id="Path_10971" data-name="Path 10971" d="M151.995,295.847l-2.912,17.529a4.638,4.638,0,0,0,4.638,4.638l46.954,0a3.91,3.91,0,0,0,3.909-3.909h0a3.914,3.914,0,0,0-1.535-3.1l-27.6-15.152Z" transform="translate(-144.137 -97.656)" fill="#fff"/>
          </g>
        </g>
        <g id="Group_11014" data-name="Group 11014" transform="translate(74.904 161.597)">
          <g id="Group_11009" data-name="Group 11009" transform="translate(133.586)">
            <g id="Group_11008" data-name="Group 11008">
              <g id="Group_11007" data-name="Group 11007">
                <path id="Path_10972" data-name="Path 10972" d="M188.028,172.854a14.768,14.768,0,1,1-14.766-14.766A14.766,14.766,0,0,1,188.028,172.854Z" transform="translate(-158.492 -158.088)" fill="#926150"/>
              </g>
              <path id="Path_10973" data-name="Path 10973" d="M163.052,172.7l7.992,22.687,16.5-7.347-12.761-25.393Z" transform="translate(-148.283 -147.881)" fill="#926150"/>
            </g>
            <path id="Path_10974" data-name="Path 10974" d="M160.736,273.918l23.375-41.182L165.06,177.5l28.9-11.385,21.513,64.1a25.347,25.347,0,0,1-2.079,16.353l-38.07,70.592Z" transform="translate(-153.468 -140.11)" fill="#51ce9f"/>
          </g>
          <g id="Group_11013" data-name="Group 11013" transform="translate(0 66.183)">
            <path id="Path_10975" data-name="Path 10975" d="M192.666,204.013,125.239,206l-3.563,30.6,71.278,2.753A17.675,17.675,0,0,0,210.189,227.2h0A17.675,17.675,0,0,0,192.666,204.013Z" transform="translate(-107.333 -121.485)" fill="#51ce9f"/>
            <g id="Group_11012" data-name="Group 11012">
              <g id="Group_11011" data-name="Group 11011" transform="translate(25.368)">
                <g id="Group_11010" data-name="Group 11010" transform="translate(6.422)">
                  <path id="Path_10976" data-name="Path 10976" d="M152.155,203.848a14.768,14.768,0,1,1,.233-20.884A14.768,14.768,0,0,1,152.155,203.848Z" transform="translate(-127.063 -178.522)" fill="#926150"/>
                </g>
                <path id="Path_10977" data-name="Path 10977" d="M135.711,185.251,125.08,206.828l16.789,6.659,9.232-26.879Z" transform="translate(-125.08 -163.455)" fill="#926150"/>
              </g>
              <path id="Path_10978" data-name="Path 10978" d="M167.481,195.5l-20.14,65.423a15.383,15.383,0,0,1-16.933,10.691h0A15.379,15.379,0,0,1,118.5,250.343l26.591-62.064Z" transform="translate(-117.248 -156.676)" fill="#51ce9f"/>
            </g>
          </g>
          <path id="Path_10979" data-name="Path 10979" d="M171.736,211.484l-28.467,6.75,8.586,108.82s22.073,19.126,78.6-11.812l-21.1-117.608-21.911,12.314Z" transform="translate(-58.989 -69.549)" fill="#51ce9f"/>
        </g>
        <g id="Group_11016" data-name="Group 11016" transform="translate(0)">
          <path id="Path_11043" data-name="Path 11043" d="M101.548,0A101.548,101.548,0,1,1,0,101.548,101.548,101.548,0,0,1,101.548,0Z" transform="matrix(0.375, -0.927, 0.927, 0.375, 0, 188.268)" fill="#ffd37b"/>
          <path id="Path_11047" data-name="Path 11047" d="M79.643,0A79.643,79.643,0,1,1,0,79.643,79.643,79.643,0,0,1,79.643,0Z" transform="matrix(0.216, -0.976, 0.976, 0.216, 37.239, 192.755)" fill="#efc166"/>
          <path id="Path_10980" data-name="Path 10980" d="M133.347,126.009c-1.506,0-2.993.055-4.476.139,41.247,2.358,69.908,37.076,69.908,79.573s-28.661,77.218-69.908,79.573c1.483.087,2.97.139,4.476.139,43.33,0,78.456-35.689,78.456-79.712S176.677,126.009,133.347,126.009Z" transform="translate(0.061 -73.432)" fill="#cc952d"/>
          <g id="Group_11015" data-name="Group 11015" transform="translate(95.044 76.228)">
            <path id="Path_10981" data-name="Path 10981" d="M162.94,232.292v13.25H148.614V232.768c-11.939-.836-23.281-4.3-30.206-9.072l7.76-17.432a52.7,52.7,0,0,0,27.579,8.236c9.791,0,13.61-2.747,13.61-6.8,0-13.254-47.518-3.582-47.518-34.624,0-13.134,9.435-24.24,28.774-26.627V133.311H162.94v12.894c8.836.719,17.552,3.106,24.24,7.045L179.9,170.8c-8-4.3-15.877-6.445-23.161-6.445-9.911,0-13.493,3.343-13.493,7.521,0,12.777,47.4,3.223,47.4,34.028C190.642,218.559,181.567,229.545,162.94,232.292Z" transform="translate(-118.408 -133.311)" fill="#fff"/>
          </g>
        </g>
        <g id="Group_11019" data-name="Group 11019" transform="translate(160.782 231.739)">
          <path id="Path_10982" data-name="Path 10982" d="M161.931,187.4c-9.7,3.155-3.6,18.329-3.6,18.329l-12.41,5.739c4.981,11.777,16.371,19.155,28.127,17.166,14.039-2.371,23.243-17.176,20.561-33.066a25.928,25.928,0,0,0-6.338-13.529C187.933,182.088,171.533,184.278,161.931,187.4Z" transform="translate(-138.931 -174.597)" fill="#926150"/>
          <g id="Group_11018" data-name="Group 11018" transform="translate(14.569 44.321)">
            <g id="Group_11017" data-name="Group 11017" transform="translate(1.247)">
              <path id="Path_10983" data-name="Path 10983" d="M152.918,223.8l-4.272-26.779,22.527-3.592,4.272,26.779c.991,6.219-1.3,11.747-7.521,12.739l-1.947.317A11.4,11.4,0,0,1,152.918,223.8Z" transform="translate(-148.646 -193.428)" fill="#926150"/>
            </g>
            <path id="Path_10984" data-name="Path 10984" d="M148.261,193.784s4.259,27.278,28.013,24.784l-2.675-15.6Z" transform="translate(-148.261 -192.631)" fill="#805042"/>
          </g>
          <path id="Path_10985" data-name="Path 10985" d="M173.268,192.691a7.5,7.5,0,1,1-8.842-5.853A7.5,7.5,0,0,1,173.268,192.691Z" transform="translate(-110.948 -164.202)" fill="#805042"/>
          <path id="Rectangle_17" data-name="Rectangle 17" d="M1.776,0H40.108a3.173,3.173,0,0,1,3.173,3.173v38.04a6.865,6.865,0,0,1-6.865,6.865H6.863A6.863,6.863,0,0,1,0,41.215V1.776A1.776,1.776,0,0,1,1.776,0Z" transform="matrix(0.98, -0.2, 0.2, 0.98, 8.501, 16.59)" fill="#926150"/>
          <path id="Path_10986" data-name="Path 10986" d="M154.669,189.357l2.808,14.2a7.409,7.409,0,0,0,4.5,5.587c1.516.567,2.8,1.493,5.014.577,6.216-2.578,2.112-6.109,15.388-8.7,12.162-2.374,12.842,4.01,12.842,4.01s.881,13.263-15.42,18.031-27.113-3.573-28.732-17.918l-3.511-14.028Z" transform="translate(-135.274 -158.222)" fill="#1f2326"/>
          <path id="Path_10987" data-name="Path 10987" d="M163.727,192.55c9.6-3.126,26.005-5.315,26.342-5.36-5.671-6.135-14.228-8.528-23.278-7-14.044,2.371-23.916,13.224-21.231,29.114a32.654,32.654,0,0,0,2.154,7.31l12.411-5.739S154.03,195.7,163.727,192.55Z" transform="translate(-140.725 -179.744)" fill="#1f2326"/>
          <path id="Path_10988" data-name="Path 10988" d="M160.147,195.359a8.464,8.464,0,1,1-10.905-4.933A8.463,8.463,0,0,1,160.147,195.359Z" transform="translate(-143.762 -157.05)" fill="#926150"/>
        </g>
      </g>
    </g>
    <g id="Group_11042" data-name="Group 11042" transform="translate(567.185 4409.448)">
      <g id="Group_11034" data-name="Group 11034">
        <g id="Group_11026" data-name="Group 11026" transform="translate(0 226.91)">
          <g id="Group_11023" data-name="Group 11023" transform="translate(97.508)">
            <g id="Group_11022" data-name="Group 11022" transform="translate(117.317 194.934)">
              <path id="Path_10989" data-name="Path 10989" d="M304.761,379.374l-17.407-23.3-17.538,13.9,16.693,24.106Z" transform="translate(-267.821 -356.072)" fill="#ca8f7e"/>
              <path id="Path_10990" data-name="Path 10990" d="M306.762,361.622l15.7,14.5a5.58,5.58,0,0,1-.978,7.831l-44.595,34.66a4.7,4.7,0,0,1-6.6-.826h0a4.7,4.7,0,0,1-.838-4.079l15.027-34.769Z" transform="translate(-269.304 -339.997)" fill="#131118"/>
            </g>
            <path id="Path_10991" data-name="Path 10991" d="M239.192,306.481l42.414,119.051,75.362,103.513,36.763-21.151-63.069-92.457-32.206-109.4Z" transform="translate(-239.192 -306.039)" fill="#101829"/>
          </g>
          <g id="Group_11025" data-name="Group 11025" transform="translate(0 0.13)">
            <g id="Group_11024" data-name="Group 11024" transform="translate(0 217.192)">
              <path id="Path_10992" data-name="Path 10992" d="M247.369,396.482l10.661-27.062-21.051-7.6L225.26,388.7Z" transform="translate(-182.035 -361.818)" fill="#ca8f7e"/>
              <path id="Path_10993" data-name="Path 10993" d="M281.391,377.695l-3.592,21.07a5.58,5.58,0,0,1-7.1,3.444l-53.369-18.491a4.7,4.7,0,0,1-2.906-5.981h0a4.715,4.715,0,0,1,2.969-2.926l37.34-6.355Z" transform="translate(-214.165 -342.591)" fill="#131118"/>
            </g>
            <path id="Path_10994" data-name="Path 10994" d="M282.061,306.384l16.754,20.368L261.7,410.575,224.39,532.3,266.9,546.67,308.31,420.438l57.878-114.366-19.934.236Z" transform="translate(-184.553 -306.072)" fill="#101829"/>
          </g>
        </g>
        <g id="Group_11029" data-name="Group 11029" transform="translate(67.226 91.147)">
          <g id="Group_11028" data-name="Group 11028" transform="translate(27.53)">
            <g id="Group_11027" data-name="Group 11027">
              <path id="Path_10995" data-name="Path 10995" d="M258.722,271.193a22.138,22.138,0,0,0-6.3,2.256,26.162,26.162,0,0,0-13.738,23.942l-.195,118.267s40.422,12.779,86.88-5.817l-.4-117.97c.043-1.446,4.1-11.93,3.016-12.9-2.914-2.595-6.764-6.249-12.916-7.558a11.963,11.963,0,0,0-2.47-.222Z" transform="translate(-238.486 -271.193)" fill="#3863c8"/>
            </g>
          </g>
          <path id="Path_10996" data-name="Path 10996" d="M260.639,275.471,231.42,351.755l57.2-13.874Z" transform="translate(-231.42 -258.804)" fill="#4476df"/>
        </g>
        <g id="Group_11033" data-name="Group 11033" transform="translate(93.162)">
          <g id="Group_11031" data-name="Group 11031" transform="translate(24.526 55.548)">
            <g id="Group_11030" data-name="Group 11030" transform="translate(6.768 2.377)">
              <path id="Path_10997" data-name="Path 10997" d="M246.281,279.5l24.362-16.839,4.6,3.015-.382,30.09a14.378,14.378,0,0,1-14.376,14.193h0a14.378,14.378,0,0,1-14.377-14.533Z" transform="translate(-246.109 -262.666)" fill="#e1b798"/>
            </g>
            <path id="Path_10998" data-name="Path 10998" d="M246.119,293.852s30.888.686,26.205-31.8l-7.761,5.42-18.3,14.743Z" transform="translate(-239.311 -262.056)" fill="#ca8f7e"/>
            <path id="Path_10999" data-name="Path 10999" d="M247.828,282.813l15.321,15.3L277.4,271.163h-7.522Z" transform="translate(-234.361 -235.68)" fill="#fff"/>
            <path id="Path_11000" data-name="Path 11000" d="M257.839,282.727l-13.468,12.214,1.507-23.748h5.265Z" transform="translate(-244.372 -235.595)" fill="#fff"/>
          </g>
          <path id="Path_11001" data-name="Path 11001" d="M240.4,266.262a8.491,8.491,0,1,0,8.735-8.236A8.487,8.487,0,0,0,240.4,266.262Z" transform="translate(-231.348 -218.191)" fill="#ca8f7e"/>
          <path id="Path_11002" data-name="Path 11002" d="M245.552,252.672S229.2,278,253.878,279.7l6.172-13.239-5.431-13.835Z" transform="translate(-231.805 -233.833)" fill="#1f2326"/>
          <path id="Path_11003" data-name="Path 11003" d="M264.448,313.725l.88.023a23.573,23.573,0,0,0,24.261-22.87l.787-30.288a6.1,6.1,0,0,0-5.918-6.28l-31.021-.916a10.9,10.9,0,0,0-11.217,10.574l-.647,25.492A23.583,23.583,0,0,0,264.448,313.725Z" transform="translate(-227.979 -231.609)" fill="#e1b798"/>
          <path id="Path_11004" data-name="Path 11004" d="M247.857,281.478c-2.248-2.817-18-14.412-4.138-29.046,6.842-7.227,13.356-3.339,20.821-.086,2.93-1.329,11.306-4.948,20.536-4.512,9.3.436,16.22,6.164,20.135,13.738l.008-.015s10.076.339,14.575,11.466c8.162,20.2-21.417,46.005-21.417,46.005l.016-25.422c-11.755-.842-12.082-11.4-11.1-18.012a118.183,118.183,0,0,1-34.972,1.855s1.208,3.6-2.248.425l-1.593-1.224h0C245.933,275.571,248.523,282.592,247.857,281.478Z" transform="translate(-238.077 -247.799)" fill="#1f2326"/>
          <g id="Group_11032" data-name="Group 11032" transform="translate(54.922 40.631)">
            <circle id="Ellipse_17" data-name="Ellipse 17" cx="8.491" cy="8.491" r="8.491" transform="matrix(0.984, -0.179, 0.179, 0.984, 0, 3.036)" fill="#e1b798"/>
          </g>
        </g>
      </g>
      <g id="Group_11036" data-name="Group 11036" transform="translate(13.124 117.721)">
        <path id="Path_11042" data-name="Path 11042" d="M119.946,0A119.946,119.946,0,1,1,0,119.946,119.946,119.946,0,0,1,119.946,0Z" transform="translate(0 236.854) rotate(-80.871)" fill="#ffd37b"/>
        <circle id="Ellipse_19" data-name="Ellipse 19" cx="94.073" cy="94.073" r="94.073" transform="translate(14.233 87.305) rotate(-22.854)" fill="#efc166"/>
        <path id="Path_11005" data-name="Path 11005" d="M257.1,289.149c-1.777,0-3.534.063-5.287.16,48.725,2.786,82.574,43.8,82.574,93.994s-33.849,91.208-82.574,93.99c1.753.1,3.51.164,5.287.164,51.179,0,92.673-42.156,92.673-94.154S308.283,289.149,257.1,289.149Z" transform="translate(-118.246 -245.764)" fill="#cc952d"/>
        <g id="Group_11035" data-name="Group 11035" transform="translate(93.543 71.32)">
          <path id="Path_11006" data-name="Path 11006" d="M294.145,413.23v15.655H277.224v-15.09c-14.1-.986-27.5-5.077-35.681-10.718l9.168-20.591a62.245,62.245,0,0,0,32.575,9.733c11.568,0,16.079-3.246,16.079-8.038,0-15.659-56.127-4.231-56.127-40.9,0-15.511,11.139-28.629,33.986-31.446V296.319h16.921v15.23c10.438.846,20.731,3.666,28.629,8.322l-8.6,20.731c-9.448-5.08-18.756-7.617-27.355-7.617-11.708,0-15.939,3.951-15.939,8.883,0,15.094,55.987,3.81,55.987,40.2C326.864,397.01,316.146,409.988,294.145,413.23Z" transform="translate(-241.543 -296.319)" fill="#fff"/>
        </g>
      </g>
      <g id="Group_11041" data-name="Group 11041" transform="translate(154.193 94.213)">
        <g id="Group_11040" data-name="Group 11040" transform="translate(0 0)">
          <g id="Group_11038" data-name="Group 11038" transform="translate(3.623 105.44)">
            <g id="Group_11037" data-name="Group 11037">
              <path id="Path_11007" data-name="Path 11007" d="M280.685,306.12c6.865,5.544,6.444,13.169.9,20.034s-14.108,10.371-20.973,4.827a15.976,15.976,0,1,1,20.073-24.861Z" transform="translate(-254.671 -288.813)" fill="#ca8f7e"/>
              <path id="Path_11008" data-name="Path 11008" d="M285.163,313.315l-11.6,14.365a8.793,8.793,0,0,1-12.331,1.313h0a8.794,8.794,0,0,1-1.313-12.331L271.515,302.3a8.79,8.79,0,0,1,12.331-1.317h0A8.8,8.8,0,0,1,285.163,313.315Z" transform="translate(-245.081 -299.043)" fill="#ca8f7e"/>
            </g>
          </g>
          <g id="Group_11039" data-name="Group 11039">
            <path id="Path_11009" data-name="Path 11009" d="M303.071,399.7l-25.227-14.295,29.922-42.857L260.868,307c-7.422-6.176-12.818-22.021.845-32.856h0c5.065-5.046,18.374-2.073,23.42,3l61.64,50.307a12.959,12.959,0,0,1,2.938,13.711Z" transform="translate(-253.294 -271.533)" fill="#4476df"/>
          </g>
        </g>
      </g>
    </g>
    <g id="Group_11075" data-name="Group 11075" transform="translate(1029.657 4441.337)">
      <g id="Group_11055" data-name="Group 11055" transform="translate(0 287.373)">
        <g id="Group_11044" data-name="Group 11044" transform="translate(0 135.491)">
          <path id="Path_11010" data-name="Path 11010" d="M633.962,361.927v36.219a5.155,5.155,0,0,1-.109,1.107,7.4,7.4,0,0,1-.285,1.14,6.9,6.9,0,0,1-.484,1.021,6.034,6.034,0,0,1-1.449,1.734c0,.028-.029.028-.057.057a.028.028,0,0,1-.028.028,4.053,4.053,0,0,1-.57.4,3.131,3.131,0,0,1-.428.28c-.028,0-.028.033-.057.033a7.737,7.737,0,0,1-.822.366,5.747,5.747,0,0,1-1,.285.4.4,0,0,1-.195.029,5,5,0,0,1-1.14.114H377.006a5,5,0,0,1-1.14-.114.451.451,0,0,1-.195-.029,5.75,5.75,0,0,1-1-.285,7.716,7.716,0,0,1-.822-.366c-.114-.085-.228-.143-.313-.2a6.564,6.564,0,0,1-2.247-2.333,6.9,6.9,0,0,1-.484-1.021,7.414,7.414,0,0,1-.285-1.14,5.149,5.149,0,0,1-.109-1.107V361.927a5.206,5.206,0,0,1,.109-1.135,6.551,6.551,0,0,1,6.484-5.458H627.339a6.559,6.559,0,0,1,6.513,5.458A5.212,5.212,0,0,1,633.962,361.927Z" transform="translate(-370.412 -355.332)" fill="#ffd37b"/>
          <g id="Group_11043" data-name="Group 11043" transform="translate(184.949)">
            <rect id="Rectangle_18" data-name="Rectangle 18" width="78.6" height="49.407" fill="#efc166"/>
          </g>
          <path id="Path_11011" data-name="Path 11011" d="M633.766,360.791H370.435a6.551,6.551,0,0,1,6.484-5.458H627.253A6.559,6.559,0,0,1,633.766,360.791Z" transform="translate(-370.326 -355.332)" fill="#ffe8ba"/>
          <path id="Path_11012" data-name="Path 11012" d="M633.766,364.578a7.416,7.416,0,0,1-.285,1.14,6.909,6.909,0,0,1-.485,1.021,6.03,6.03,0,0,1-1.449,1.734c0,.028-.028.028-.057.057,0,0,0,.028-.029,0v.028a4.038,4.038,0,0,1-.57.4,3.125,3.125,0,0,1-.427.28c-.029,0-.029.033-.057.033a7.706,7.706,0,0,1-.822.366,5.753,5.753,0,0,1-1,.285.4.4,0,0,1-.2.029,5,5,0,0,1-1.14.114H376.919a5,5,0,0,1-1.14-.114.453.453,0,0,1-.195-.029,5.752,5.752,0,0,1-1-.285,7.7,7.7,0,0,1-.822-.366c-.114-.085-.228-.143-.314-.2a6.566,6.566,0,0,1-2.247-2.333,6.875,6.875,0,0,1-.484-1.021,7.4,7.4,0,0,1-.285-1.14Z" transform="translate(-370.326 -320.658)" fill="#ffe8ba"/>
        </g>
        <g id="Group_11048" data-name="Group 11048" transform="translate(98.884 46.762)">
          <path id="Path_11013" data-name="Path 11013" d="M654.782,343.283V379.5a4.892,4.892,0,0,1-.114,1.107,7.352,7.352,0,0,1-.285,1.135,6.7,6.7,0,0,1-.484,1.026,6.023,6.023,0,0,1-1.449,1.734c0,.029-.029.029-.057.057a.028.028,0,0,1-.028.028,4.3,4.3,0,0,1-.566.394,3.693,3.693,0,0,1-.427.285c-.029,0-.029.028-.057.028a7.23,7.23,0,0,1-.827.371,5.551,5.551,0,0,1-.993.285.42.42,0,0,1-.2.029,4.981,4.981,0,0,1-1.135.114H397.821a4.954,4.954,0,0,1-1.135-.114.483.483,0,0,1-.2-.029,5.558,5.558,0,0,1-.993-.285,7.2,7.2,0,0,1-.827-.371c-.114-.085-.228-.142-.314-.2a6.548,6.548,0,0,1-2.247-2.328,7.185,7.185,0,0,1-.48-1.026,7.334,7.334,0,0,1-.285-1.135,4.9,4.9,0,0,1-.114-1.107V343.283a4.93,4.93,0,0,1,.114-1.135,6.546,6.546,0,0,1,6.48-5.458H648.159a6.554,6.554,0,0,1,6.508,5.458A4.921,4.921,0,0,1,654.782,343.283Z" transform="translate(-391.227 -336.687)" fill="#ffd37b"/>
          <g id="Group_11046" data-name="Group 11046" transform="translate(184.951)">
            <rect id="Rectangle_19" data-name="Rectangle 19" width="55.576" height="49.407" fill="#ffd37b"/>
          </g>
          <path id="Path_11014" data-name="Path 11014" d="M654.577,342.147H391.251a6.546,6.546,0,0,1,6.48-5.458H648.069A6.553,6.553,0,0,1,654.577,342.147Z" transform="translate(-391.137 -336.687)" fill="#efc166"/>
          <path id="Path_11015" data-name="Path 11015" d="M654.577,345.934a7.327,7.327,0,0,1-.285,1.135,6.75,6.75,0,0,1-.484,1.026,6.022,6.022,0,0,1-1.449,1.734c0,.028-.029.028-.057.057,0,0,0,.029-.028,0v.029a4.306,4.306,0,0,1-.566.394,3.75,3.75,0,0,1-.427.285c-.029,0-.029.028-.057.028a7.163,7.163,0,0,1-.826.371,5.571,5.571,0,0,1-.993.285.422.422,0,0,1-.2.029,4.982,4.982,0,0,1-1.135.114H397.731a4.956,4.956,0,0,1-1.135-.114.482.482,0,0,1-.2-.029,5.571,5.571,0,0,1-.993-.285,7.22,7.22,0,0,1-.827-.371c-.114-.085-.228-.142-.314-.2a6.55,6.55,0,0,1-2.247-2.328,7.182,7.182,0,0,1-.479-1.026,7.282,7.282,0,0,1-.285-1.135Z" transform="translate(-391.137 -302.013)" fill="#efc166"/>
        </g>
        <g id="Group_11051" data-name="Group 11051" transform="translate(40.87 91.464)">
          <path id="Path_11016" data-name="Path 11016" d="M642.569,352.676v36.219a4.9,4.9,0,0,1-.114,1.107,7.934,7.934,0,0,1-.28,1.136,6.744,6.744,0,0,1-.485,1.026,6.181,6.181,0,0,1-1.449,1.734c0,.029-.029.029-.057.057a.028.028,0,0,1-.029.028,4.464,4.464,0,0,1-.57.394,3.693,3.693,0,0,1-.428.285c-.029,0-.029.028-.057.028a7.173,7.173,0,0,1-.822.371,5.733,5.733,0,0,1-1,.285.419.419,0,0,1-.2.029,4.924,4.924,0,0,1-1.136.114H385.614a4.991,4.991,0,0,1-1.14-.114.482.482,0,0,1-.2-.029,5.692,5.692,0,0,1-.993-.285,7.241,7.241,0,0,1-.826-.371c-.114-.086-.224-.142-.309-.2a6.469,6.469,0,0,1-2.248-2.328,6.761,6.761,0,0,1-.485-1.026,7.4,7.4,0,0,1-.285-1.136,4.891,4.891,0,0,1-.114-1.107V352.676a4.986,4.986,0,0,1,.114-1.14,6.548,6.548,0,0,1,6.485-5.454H635.947a6.55,6.55,0,0,1,6.508,5.454A4.991,4.991,0,0,1,642.569,352.676Z" transform="translate(-379.015 -346.08)" fill="#ffd37b"/>
          <g id="Group_11049" data-name="Group 11049" transform="translate(184.953)">
            <rect id="Rectangle_20" data-name="Rectangle 20" width="55.576" height="49.407" fill="#efc166"/>
          </g>
          <path id="Path_11017" data-name="Path 11017" d="M642.365,351.536H379.039a6.548,6.548,0,0,1,6.484-5.454H635.857A6.551,6.551,0,0,1,642.365,351.536Z" transform="translate(-378.925 -346.08)" fill="#ffe8ba"/>
          <path id="Path_11018" data-name="Path 11018" d="M642.365,355.327a7.945,7.945,0,0,1-.28,1.135,6.757,6.757,0,0,1-.484,1.026,6.183,6.183,0,0,1-1.449,1.734c0,.029-.029.029-.057.057,0,0,0,.029-.029,0v.029a4.439,4.439,0,0,1-.57.394,3.718,3.718,0,0,1-.427.285c-.029,0-.029.028-.057.028a7.18,7.18,0,0,1-.822.371,5.73,5.73,0,0,1-1,.285.421.421,0,0,1-.2.029,4.928,4.928,0,0,1-1.136.114H385.523a4.993,4.993,0,0,1-1.14-.114.485.485,0,0,1-.2-.029,5.68,5.68,0,0,1-.993-.285,7.242,7.242,0,0,1-.827-.371c-.114-.086-.223-.143-.309-.2a6.472,6.472,0,0,1-2.247-2.328,6.722,6.722,0,0,1-.484-1.026,7.343,7.343,0,0,1-.285-1.135Z" transform="translate(-378.925 -311.406)" fill="#ffe8ba"/>
        </g>
        <g id="Group_11053" data-name="Group 11053" transform="translate(40.87)">
          <path id="Path_11019" data-name="Path 11019" d="M642.569,333.457v36.219a4.868,4.868,0,0,1-.114,1.107,7.784,7.784,0,0,1-.28,1.135,6.75,6.75,0,0,1-.485,1.026,6.12,6.12,0,0,1-1.449,1.734c0,.028-.029.028-.057.057a.028.028,0,0,1-.029.029,4.069,4.069,0,0,1-.57.4,3.746,3.746,0,0,1-.428.285c-.029,0-.029.024-.057.024a7.188,7.188,0,0,1-.822.371,5.766,5.766,0,0,1-1,.285.421.421,0,0,1-.2.029,4.936,4.936,0,0,1-1.136.114H385.614a5,5,0,0,1-1.14-.114.484.484,0,0,1-.2-.029,5.725,5.725,0,0,1-.993-.285,7.257,7.257,0,0,1-.826-.371c-.114-.081-.224-.138-.309-.195a6.52,6.52,0,0,1-2.248-2.332,6.768,6.768,0,0,1-.485-1.026,7.263,7.263,0,0,1-.285-1.135,4.863,4.863,0,0,1-.114-1.107V333.457a4.947,4.947,0,0,1,.114-1.135,6.551,6.551,0,0,1,6.485-5.458H635.947a6.554,6.554,0,0,1,6.508,5.458A4.952,4.952,0,0,1,642.569,333.457Z" transform="translate(-379.015 -326.862)" fill="#efc166"/>
          <g id="Group_11052" data-name="Group 11052" transform="translate(184.953)">
            <rect id="Rectangle_21" data-name="Rectangle 21" width="55.576" height="49.408" fill="#ffd37b"/>
          </g>
          <path id="Path_11020" data-name="Path 11020" d="M642.365,332.321H379.039a6.552,6.552,0,0,1,6.484-5.458H635.857A6.555,6.555,0,0,1,642.365,332.321Z" transform="translate(-378.925 -326.862)" fill="#ffe8ba"/>
          <path id="Path_11021" data-name="Path 11021" d="M642.365,336.108a7.791,7.791,0,0,1-.28,1.135,6.754,6.754,0,0,1-.484,1.026A6.122,6.122,0,0,1,640.152,340c0,.028-.029.028-.057.057,0,0,0,.029-.029,0v.029a4.023,4.023,0,0,1-.57.4,3.779,3.779,0,0,1-.427.285c-.029,0-.029.024-.057.024a7.154,7.154,0,0,1-.822.371,5.755,5.755,0,0,1-1,.285.421.421,0,0,1-.2.029,4.938,4.938,0,0,1-1.136.114H385.523a5,5,0,0,1-1.14-.114.486.486,0,0,1-.2-.029,5.7,5.7,0,0,1-.993-.285,7.215,7.215,0,0,1-.827-.371c-.114-.08-.223-.138-.309-.195a6.52,6.52,0,0,1-2.247-2.332,6.719,6.719,0,0,1-.484-1.026,7.209,7.209,0,0,1-.285-1.135Z" transform="translate(-378.925 -292.188)" fill="#ffe8ba"/>
        </g>
      </g>
      <g id="Group_11074" data-name="Group 11074" transform="translate(32.759)">
        <g id="Group_11056" data-name="Group 11056" transform="translate(101.075 106.7)">
          <path id="Path_11022" data-name="Path 11022" d="M459.354,435.115a16.183,16.183,0,0,1-14.808-9.359L400.618,317.713c-3.768-8.1-2.518-20.741,5.582-24.508l-1.092-3.34c8.1-3.767,27.254,2.333,37.468,25.4l31.986,81.369Z" transform="translate(-398.584 -288.831)" fill="#feb8b8"/>
        </g>
        <g id="Group_11063" data-name="Group 11063" transform="translate(69.088 148.927)">
          <g id="Group_11058" data-name="Group 11058" transform="translate(35.968)">
            <g id="Group_11057" data-name="Group 11057" transform="translate(151.578 109.874)">
              <path id="Path_11023" data-name="Path 11023" d="M432.022,326.343l7.187,46.058,25.873-5.945-7.235-45.607Z" transform="translate(-428.73 -320.849)" fill="#e1b798"/>
              <path id="Path_11024" data-name="Path 11024" d="M434.683,331.071l-3.354,25.843a6.805,6.805,0,0,0,7.04,6.561l68.827-2.442a5.736,5.736,0,0,0,5.525-5.933h0a5.724,5.724,0,0,0-2.408-4.47l-41.25-20.779Z" transform="translate(-431.329 -287.088)" fill="#131118"/>
            </g>
            <path id="Path_11025" data-name="Path 11025" d="M443.413,373.635,532.13,299l41.107,27.174L482.106,431.35c-20.318,21.587-64.219,26.513-80.385,1.663-2.28-3.506-.114-8.161-2.3-12.613Z" transform="translate(-399.422 -292.928)" fill="#3863c8"/>
            <path id="Path_11026" data-name="Path 11026" d="M426.422,330.252l20.97,103.915,44.988-7.919L471.045,315.2a18.378,18.378,0,0,0-6.964-13.183c-4.58-3.668-14.3-5.026-21.316-3.919a16.262,16.262,0,0,0-5.592,2.066l-6.309,3.629Z" transform="translate(-298.155 -297.72)" fill="#3863c8"/>
          </g>
          <g id="Group_11062" data-name="Group 11062" transform="translate(0 97.463)">
            <g id="Group_11059" data-name="Group 11059" transform="translate(171.697 124.973)">
              <path id="Path_11027" data-name="Path 11027" d="M427.993,352.13l10.292,47.194,28.31-7.931-9.722-46.85Z" transform="translate(-427.993 -344.543)" fill="#e1b798"/>
              <path id="Path_11028" data-name="Path 11028" d="M433.913,353.8l-5.905,25.383a6.8,6.8,0,0,0,6.352,7.226l68.727,4.413a5.738,5.738,0,0,0,6.09-5.354h0a5.729,5.729,0,0,0-1.957-4.689l-38.974-24.774Z" transform="translate(-427.992 -309.804)" fill="#131118"/>
            </g>
            <g id="Group_11061" data-name="Group 11061">
              <g id="Group_11060" data-name="Group 11060">
                <path id="Path_11029" data-name="Path 11029" d="M459.563,318.236l103.121,8.513a25.173,25.173,0,0,1,25.392,19.767,99.9,99.9,0,0,1,1.667,10.3c2.732,24.219,16.385,110.86,16.385,110.86l-46.09,6.746-20.2-92.442-96.4,3.226c-19.259,1.259-38.014-8.38-47-25.459-3.435-6.532-5.421-14-4.247-22.1Z" transform="translate(-391.851 -318.236)" fill="#4476df"/>
              </g>
            </g>
          </g>
        </g>
        <g id="Group_11070" data-name="Group 11070" transform="translate(0 103.316)">
          <g id="Group_11065" data-name="Group 11065" transform="translate(53.987)">
            <g id="Group_11064" data-name="Group 11064">
              <path id="Path_11030" data-name="Path 11030" d="M389.295,344.989l4.974,119.088c87.416-2.128,96.5-52.394,96.5-52.394l-12.109-90.76a42.612,42.612,0,0,0-5.311-14.394,37.375,37.375,0,0,0-38.309-17.862l-4.128-.547C389.271,291.5,386.957,315.578,389.295,344.989Z" transform="translate(-388.672 -288.119)" fill="#ff8484"/>
            </g>
            <path id="Path_11031" data-name="Path 11031" d="M389.149,331.374l19.471-29.13-9.485,52.444-9.257-5.863Z" transform="translate(-386.882 -235.142)" fill="#d56c6c"/>
          </g>
          <g id="Group_11069" data-name="Group 11069" transform="translate(0 8.091)">
            <g id="Group_11067" data-name="Group 11067" transform="translate(74.477 130.051)">
              <g id="Group_11066" data-name="Group 11066">
                <path id="Path_11032" data-name="Path 11032" d="M399.066,327.968c-4.732,8.76-.969,16.518,7.8,21.25s19.211,4.641,23.943-4.124a18.032,18.032,0,0,0-31.739-17.126Z" transform="translate(-377.902 -312.337)" fill="#e1b798"/>
                <path id="Path_11033" data-name="Path 11033" d="M398.177,335.8l18.337,9.9a9.921,9.921,0,0,0,13.411-4.01h0a9.921,9.921,0,0,0-4.009-13.411l-18.337-9.9a9.928,9.928,0,0,0-13.411,4.009h0A9.926,9.926,0,0,0,398.177,335.8Z" transform="translate(-392.985 -317.198)" fill="#e1b798"/>
              </g>
            </g>
            <g id="Group_11068" data-name="Group 11068">
              <path id="Path_11034" data-name="Path 11034" d="M455.395,447.352l20.034-25.881L425.58,389.9l41.815-62.556c5.036-9.667,6.252-32.138-12.7-37.458v1.359c-7.473-3.04-11.862-2.589-25.587,15.6L378.387,391.19a14.614,14.614,0,0,0,2.917,15.553Z" transform="translate(-377.308 -289.822)" fill="#feb8b8"/>
            </g>
          </g>
        </g>
        <g id="Group_11073" data-name="Group 11073" transform="translate(48.819)">
          <path id="Path_11035" data-name="Path 11035" d="M486.049,320.927c-6.1-6.974-4.137-17.867-4.137-17.867,1.135-6.466.432-11.463-1.288-15.344-6.513-22.285-34.77-23.193-58.09-19.972-27.4,3.781-33.145,29.929-33.145,29.929l14.646,9.42a210.265,210.265,0,0,0,36.167,10.2l-.855,29.691h53.274C494.5,337.34,492.149,327.9,486.049,320.927Z" transform="translate(-380.818 -266.371)" fill="#1f2326"/>
          <g id="Group_11072" data-name="Group 11072" transform="translate(34.574 62.945)">
            <g id="Group_11071" data-name="Group 11071" transform="translate(1.159 7.644)">
              <path id="Path_11036" data-name="Path 11036" d="M395.106,318.575V281.23h31.416v37.345a15.713,15.713,0,0,1-15.71,15.71h0A15.709,15.709,0,0,1,395.106,318.575Z" transform="translate(-395.106 -281.23)" fill="#e1b798"/>
            </g>
            <path id="Path_11037" data-name="Path 11037" d="M394.862,279.621s3.477,37.511,32.575,35.24l-.033-18.793Z" transform="translate(-394.862 -279.621)" fill="#ca8f7e"/>
          </g>
          <path id="Path_11038" data-name="Path 11038" d="M423.862,285.8a10.015,10.015,0,1,1-10.1-9.919A10.019,10.019,0,0,1,423.862,285.8Z" transform="translate(-326.641 -230.711)" fill="#ca8f7e"/>
          <path id="Rectangle_22" data-name="Rectangle 22" d="M1.617,0H57.592a2.889,2.889,0,0,1,2.889,2.889V64.64a6.248,6.248,0,0,1-6.248,6.248H6.25A6.25,6.25,0,0,1,0,64.639V1.617A1.617,1.617,0,0,1,1.617,0Z" transform="matrix(1, -0.009, 0.009, 1, 30.036, 19.943)" fill="#e1b798"/>
          <path id="Path_11039" data-name="Path 11039" d="M411.255,273.467s.428,16.95-10.827,18.807-5.188-18.807-5.188-18.807Z" transform="translate(-364.99 -239.757)" fill="#1f2326"/>
          <path id="Path_11040" data-name="Path 11040" d="M427.28,266.836s-23.511-.95-35.254,32.627,3.449,50.2,4.043,50.841h31.777c1.886-9.644-1.15-18.58-4.527-25.891-3.886-8.413-.812-18.033-.812-18.033.09-.494.157-.96.233-1.435,11.592-.793,39.715-4.779,43.938-24.822l.694-7.444Z" transform="translate(-387.584 -264.637)" fill="#1f2326"/>
          <path id="Path_11041" data-name="Path 11041" d="M411.868,285.671a10.012,10.012,0,1,1-10.1-9.924A10,10,0,0,1,411.868,285.671Z" transform="translate(-371.607 -231.206)" fill="#e1b798"/>
        </g>
      </g>
    </g>
  </g>
</svg>
