<svg width="262" height="50" viewBox="0 0 262 50" fill="none" xmlns="http://www.w3.org/2000/svg">
<path d="M12.3211 35.5148C12.3211 36.9253 12.5359 37.8969 12.9756 38.4246C13.4103 38.9573 14.1697 39.2236 15.2489 39.2236V40.3037C11.4917 40.1656 9.01846 40.0966 7.83432 40.0966C6.65018 40.0966 4.04207 40.1656 0 40.3037V39.2236C1.07922 39.2236 1.83367 38.9573 2.27335 38.4246C2.70804 37.892 2.92788 36.9204 2.92788 35.5148V6.18464C2.92788 4.60642 2.70804 3.45235 2.27335 2.73229C1.83367 2.01223 1.07922 1.64726 0 1.64726V0.567172C1.07922 0.670742 2.15843 0.720061 3.23765 0.720061C6.86002 0.720061 9.88783 0.478397 12.3211 0V35.5148Z" fill="url(#paint0_linear)"/>
<path d="M30.6478 35.515C30.6478 36.9255 30.8627 37.8971 31.3024 38.4249C31.737 38.9575 32.4965 39.2238 33.5757 39.2238V40.3039C29.8184 40.1658 22.3639 40.1658 18.3268 40.3039V39.2238C19.406 39.2238 20.1605 38.9575 20.6001 38.4249C21.0348 37.8922 21.2547 36.9206 21.2547 35.515V19.1755C21.2547 17.5973 21.0348 16.4433 20.6001 15.7232C20.1654 15.0031 19.406 14.6431 18.3268 14.6431V13.563C19.441 13.6666 20.5202 13.7159 21.5644 13.7159C25.1868 13.7159 28.2146 13.4742 30.6478 12.9958V35.515Z" fill="url(#paint1_linear)"/>
<path d="M60.5405 18.0165C60.0009 17.5184 59.7311 16.823 59.7311 15.9303C59.7311 15.1067 59.9759 14.214 60.4606 13.2523C58.9267 13.8688 57.7975 14.7466 57.068 15.881C58.3571 17.2225 59.0016 18.9585 59.0016 21.0891C59.0016 23.8017 57.9824 25.8583 55.9488 27.2491C53.9103 28.6399 51.1873 29.3353 47.7748 29.3353C47.1152 29.3353 46.6256 29.3205 46.3108 29.286C45.4065 29.9024 44.9518 30.6274 44.9518 31.4511C44.9518 32.5509 45.5764 33.0983 46.8304 33.0983H51.8968C55.4492 33.0983 58.2222 33.6902 60.2257 34.8788C62.2293 36.0624 63.2285 37.9119 63.2285 40.4173C63.2285 42.2027 62.644 43.8203 61.4798 45.2605C60.3157 46.7055 58.522 47.8547 56.1037 48.7128C53.6855 49.571 50.6627 50 47.0453 50C43.4579 50 40.6399 49.6055 38.5864 48.8164C36.5329 48.0273 35.5037 46.9077 35.5037 45.4676C35.5037 44.4714 36.0083 43.559 37.0176 42.7353C38.0268 41.9117 39.5557 41.2557 41.6142 40.7773L42.1339 41.601C41.1945 42.7353 40.7249 43.8351 40.7249 44.9004C40.7249 46.2419 41.3444 47.2776 42.5785 48.0174C43.8126 48.7572 45.5464 49.1271 47.7748 49.1271C50.0731 49.1271 51.8368 48.6734 53.0759 47.761C54.31 46.8485 54.9296 45.6402 54.9296 44.1261C54.9296 43.0608 54.5199 42.2125 53.7005 41.5763C52.8811 40.9401 51.4471 40.6245 49.3936 40.6245H46.5756C44.2073 40.6245 42.3987 40.1806 41.1446 39.283C39.8905 38.3903 39.2659 37.1869 39.2659 35.6728C39.2659 34.2968 39.7606 33.0934 40.7549 32.0626C41.7491 31.0319 43.1831 30.0701 45.0617 29.1775C42.4137 28.8322 40.3352 27.9839 38.8213 26.6276C37.3074 25.2714 36.5479 23.4219 36.5479 21.0891C36.5479 18.3765 37.5672 16.3199 39.6007 14.9291C41.6392 13.5383 44.3622 12.8429 47.7748 12.8429C51.4321 12.8429 54.2501 13.5975 56.2336 15.1116C56.8931 14.2189 57.6976 13.5137 58.6369 13.0007C59.5762 12.4878 60.5705 12.2264 61.6147 12.2264C62.7639 12.2264 63.6532 12.547 64.2778 13.1783C64.9023 13.8145 65.2171 14.6283 65.2171 15.6245C65.2171 16.5862 64.9573 17.3507 64.4327 17.9179C63.9081 18.485 63.2485 18.7662 62.4491 18.7662C61.7196 18.7612 61.0801 18.5146 60.5405 18.0165ZM49.3686 26.7263C49.7333 25.6117 49.9182 23.7277 49.9182 21.0842C49.9182 18.4406 49.7333 16.5567 49.3686 15.442C49.0039 14.3274 48.4743 13.7652 47.7748 13.7652C47.0803 13.7652 46.5457 14.3225 46.1809 15.442C45.8162 16.5616 45.6313 18.4406 45.6313 21.0842C45.6313 23.7326 45.8162 25.6117 46.1809 26.7263C46.5457 27.8458 47.0753 28.4031 47.7748 28.4031C48.4693 28.3982 49.0039 27.8409 49.3686 26.7263Z" fill="url(#paint2_linear)"/>
<path d="M78.5326 16.6995C80.1015 14.1201 82.8645 12.8329 86.8366 12.8329C89.6196 12.8329 91.5881 13.5184 92.7373 14.8944C93.2569 15.5109 93.6416 16.3444 93.8865 17.3949C94.1313 18.4454 94.2512 19.8263 94.2512 21.5427V35.5099C94.2512 36.9204 94.466 37.892 94.9057 38.4197C95.3404 38.9524 96.0999 39.2187 97.1791 39.2187V40.2988C93.4218 40.1607 86.212 40.1607 82.4548 40.2988V39.2187C83.3591 39.2187 83.9836 38.9524 84.3334 38.4197C84.6831 37.8871 84.853 36.9155 84.853 35.5099V18.761C84.853 17.6612 84.6532 16.8475 84.2535 16.3148C83.8537 15.7822 83.1992 15.5158 82.2949 15.5158C81.2856 15.5158 80.4062 15.8709 79.6568 16.5713C78.9073 17.2765 78.5326 18.1594 78.5326 19.2246V35.5099C78.5326 36.9204 78.7075 37.892 79.0572 38.4197C79.407 38.9524 80.0315 39.2187 80.9359 39.2187V40.2988C77.4534 40.1607 70.2486 40.1607 66.2115 40.2988V39.2187C67.2908 39.2187 68.0452 38.9524 68.4849 38.4197C68.9196 37.8871 69.1394 36.9155 69.1394 35.5099V6.18464C69.1394 4.60642 68.9196 3.45235 68.4849 2.73229C68.0502 2.01223 67.2908 1.6522 66.2115 1.6522V0.567172C67.2908 0.670742 68.37 0.720061 69.4492 0.720061C73.0716 0.720061 76.0994 0.478397 78.5326 0V16.6995Z" fill="url(#paint3_linear)"/>
<path d="M111.949 13.5578H117.066V14.5885H111.949V35.9783C111.949 36.6638 112.069 37.1472 112.314 37.4234C112.559 37.6995 112.959 37.8376 113.513 37.8376C113.933 37.8376 114.403 37.7193 114.922 37.4776C115.442 37.2359 115.916 36.8611 116.331 36.3433L117.116 36.9598C115.512 39.6723 113.043 41.0335 109.701 41.0335C107.298 41.0335 105.504 40.4466 104.325 39.2827C103.595 38.5626 103.116 37.67 102.891 36.6047C102.666 35.5394 102.551 34.045 102.551 32.1215V14.5885H98.584V13.5578H102.551V7.47177C104.43 7.47177 106.129 7.28928 107.642 6.92925C109.156 6.56922 110.59 5.99219 111.949 5.20308V13.5578Z" fill="url(#paint4_linear)"/>
<path d="M131.016 16.7989C132.585 14.2195 135.348 12.9323 139.32 12.9323C142.103 12.9323 144.071 13.6178 145.22 14.9938C145.74 15.6103 146.125 16.4438 146.37 17.4943C146.614 18.5448 146.734 19.9258 146.734 21.6421V35.6093C146.734 37.0198 146.949 37.9914 147.389 38.5191C147.824 39.0518 148.583 39.3181 149.662 39.3181V40.3982C145.905 40.2601 138.695 40.2601 134.938 40.3982V39.3181C135.842 39.3181 136.467 39.0518 136.817 38.5191C137.166 37.9865 137.336 37.0149 137.336 35.6093V18.8605C137.336 17.7606 137.136 16.9469 136.737 16.4142C136.337 15.8816 135.682 15.6153 134.778 15.6153C133.769 15.6153 132.889 15.9704 132.14 16.6707C131.391 17.376 131.016 18.2588 131.016 19.3241V35.6093C131.016 37.0198 131.191 37.9914 131.54 38.5191C131.89 39.0518 132.515 39.3181 133.419 39.3181V40.3982C129.937 40.2601 122.732 40.2601 118.695 40.3982V39.3181C119.774 39.3181 120.528 39.0518 120.968 38.5191C121.403 37.9865 121.623 37.0149 121.623 35.6093V6.28405C121.623 4.70583 121.403 3.55176 120.968 2.8317C120.533 2.11164 119.774 1.75161 118.695 1.75161V0.666586C119.774 0.770157 120.853 0.819476 121.932 0.819476C125.555 0.819476 128.583 0.577812 131.016 0.0994148V16.7989Z" fill="url(#paint5_linear)"/>
<path d="M175.195 16.2557C177.528 18.4701 178.692 22.0704 178.692 27.0517C178.692 32.0329 177.523 35.6234 175.195 37.823C172.861 40.0226 169.554 41.1225 165.272 41.1225C160.99 41.1225 157.682 40.0226 155.349 37.823C153.016 35.6234 151.851 32.0329 151.851 27.0517C151.851 22.0704 153.016 18.4701 155.349 16.2557C157.682 14.0413 160.99 12.9316 165.272 12.9316C169.554 12.9316 172.861 14.0413 175.195 16.2557ZM162.609 17.2125C161.949 19.3776 161.614 22.6573 161.614 27.0566C161.614 31.4559 161.944 34.7307 162.609 36.8761C163.268 39.0215 164.158 40.0966 165.272 40.0966C166.386 40.0966 167.275 39.0215 167.935 36.8761C168.594 34.7307 168.929 31.4559 168.929 27.0566C168.929 22.6573 168.599 19.3776 167.935 17.2125C167.275 15.0474 166.386 13.9673 165.272 13.9673C164.158 13.9623 163.268 15.0474 162.609 17.2125Z" fill="url(#paint6_linear)"/>
<path d="M207.879 34.7852C207.879 36.3684 208.094 37.5175 208.534 38.2376C208.969 38.9576 209.728 39.3176 210.807 39.3176V40.3977C209.728 40.2942 208.649 40.2449 207.57 40.2449C203.947 40.2449 200.919 40.4865 198.486 40.9649V37.2561C196.917 39.8355 194.154 41.1227 190.182 41.1227C187.394 41.1227 185.431 40.4372 184.281 39.0612C183.762 38.4447 183.377 37.6112 183.132 36.5607C182.887 35.5151 182.768 34.1293 182.768 32.413V19.2743C182.768 17.6961 182.548 16.542 182.113 15.822C181.678 15.1019 180.919 14.7419 179.84 14.7419V13.1686C180.919 13.2721 189.728 13.5779 192.161 13.0946V35.2044C192.161 36.3042 192.361 37.118 192.76 37.6507C193.16 38.1833 193.815 38.4496 194.719 38.4496C195.728 38.4496 196.608 38.0995 197.357 37.3942C198.106 36.6889 198.481 35.8061 198.481 34.7408V19.2743C198.481 17.6961 198.261 16.542 197.827 15.822C197.392 15.1019 196.633 14.7419 195.553 14.7419V13.1686C196.633 13.2721 205.441 13.5779 207.874 13.0946V34.7852H207.879Z" fill="url(#paint7_linear)"/>
<path d="M227.641 13.3704C228.84 13.6613 229.754 13.9819 230.384 14.3222C230.768 14.5294 231.078 14.6329 231.323 14.6329C232.053 14.6329 232.487 14.0855 232.627 12.9857H233.671C233.531 14.771 233.462 17.8633 233.462 22.2626H232.417C232.137 19.9939 231.488 18.0804 230.459 16.5169C229.429 14.9535 227.946 14.1743 225.992 14.1743C225.123 14.1743 224.388 14.4307 223.799 14.9486C223.204 15.4615 222.909 16.1668 222.909 17.0594C222.909 18.1938 223.294 19.1999 224.058 20.0728C224.823 20.9507 226.027 22.0259 227.661 23.2934C227.731 23.3279 228.235 23.7225 229.175 24.4771C231.123 26.0602 232.552 27.4559 233.457 28.6791C234.361 29.8972 234.816 31.4015 234.816 33.1868C234.816 34.7009 234.346 36.0671 233.407 37.2853C232.467 38.5035 231.188 39.4504 229.569 40.1211C227.951 40.7919 226.182 41.1272 224.268 41.1272C222.075 41.1272 220.281 40.6982 218.892 39.84C218.298 39.5293 217.813 39.3074 217.428 39.1693C217.043 39.0312 216.664 38.9621 216.279 38.9621C215.619 38.9621 215.13 39.5638 214.815 40.7672H213.771C213.911 38.8092 213.981 35.3717 213.981 30.4595H215.025C215.34 33.2756 216.104 35.5443 217.323 37.2606C218.542 38.9769 220.071 39.84 221.92 39.84C222.789 39.84 223.514 39.5983 224.088 39.1199C224.663 38.6416 224.948 37.9363 224.948 37.0091C224.948 36.0474 224.748 35.1892 224.348 34.4297C223.948 33.6751 223.459 32.9945 222.884 32.3928C222.31 31.7911 221.38 30.9231 220.091 29.7887C218.627 28.4473 217.513 27.382 216.749 26.5929C215.984 25.8037 215.33 24.8864 214.79 23.8359C214.25 22.7903 213.981 21.6264 213.981 20.3589C213.981 18.8843 214.43 17.5773 215.34 16.4429C216.244 15.3086 217.443 14.4406 218.942 13.8389C220.441 13.2372 222.055 12.9363 223.799 12.9363C225.163 12.9314 226.442 13.0794 227.641 13.3704Z" fill="url(#paint8_linear)"/>
<path d="M260.092 32.0573L260.981 32.368C260.217 34.7748 258.918 36.8363 257.089 38.5527C255.261 40.269 252.922 41.1321 250.064 41.1321C246.407 41.1321 243.484 40.0174 241.291 37.7833C239.097 35.5491 238.003 31.9784 238.003 27.0613C238.003 22.3562 239.232 18.825 241.685 16.4675C244.139 14.115 247.386 12.9362 251.423 12.9362C258.004 12.9362 261.291 16.7831 261.291 24.4819H247.821C247.786 24.8962 247.771 25.5126 247.771 26.3363C247.771 29.6357 248.356 31.9883 249.52 33.3988C250.684 34.8093 252.103 35.5097 253.777 35.5097C256.315 35.5097 258.423 34.3556 260.092 32.0573ZM247.616 23.5004H253.672C253.707 20.7533 253.507 18.4994 253.072 16.7486C252.637 14.9978 251.968 14.1199 251.064 14.1199C249.11 14.1199 247.961 17.2467 247.616 23.5004Z" fill="url(#paint9_linear)"/>
<path d="M25.7311 11.3285C22.2736 11.4321 15.9232 5.42502 26.8852 0.0393596C27.2799 -0.157917 27.3549 0.404322 28.1593 1.44496C29.4534 3.12181 34.4547 11.0622 25.7311 11.3285Z" fill="url(#paint10_linear)"/>
<defs>
<linearGradient id="paint0_linear" x1="0" y1="25" x2="261.291" y2="25" gradientUnits="userSpaceOnUse">
<stop stop-color="#030D4F"/>
<stop offset="1" stop-color="#7985FE"/>
</linearGradient>
<linearGradient id="paint1_linear" x1="0" y1="25" x2="261.291" y2="25" gradientUnits="userSpaceOnUse">
<stop stop-color="#030D4F"/>
<stop offset="1" stop-color="#7985FE"/>
</linearGradient>
<linearGradient id="paint2_linear" x1="0" y1="25" x2="261.291" y2="25" gradientUnits="userSpaceOnUse">
<stop stop-color="#030D4F"/>
<stop offset="1" stop-color="#7985FE"/>
</linearGradient>
<linearGradient id="paint3_linear" x1="0" y1="25" x2="261.291" y2="25" gradientUnits="userSpaceOnUse">
<stop stop-color="#030D4F"/>
<stop offset="1" stop-color="#7985FE"/>
</linearGradient>
<linearGradient id="paint4_linear" x1="0" y1="25" x2="261.291" y2="25" gradientUnits="userSpaceOnUse">
<stop stop-color="#030D4F"/>
<stop offset="1" stop-color="#7985FE"/>
</linearGradient>
<linearGradient id="paint5_linear" x1="0" y1="25" x2="261.291" y2="25" gradientUnits="userSpaceOnUse">
<stop stop-color="#030D4F"/>
<stop offset="1" stop-color="#7985FE"/>
</linearGradient>
<linearGradient id="paint6_linear" x1="0" y1="25" x2="261.291" y2="25" gradientUnits="userSpaceOnUse">
<stop stop-color="#030D4F"/>
<stop offset="1" stop-color="#7985FE"/>
</linearGradient>
<linearGradient id="paint7_linear" x1="0" y1="25" x2="261.291" y2="25" gradientUnits="userSpaceOnUse">
<stop stop-color="#030D4F"/>
<stop offset="1" stop-color="#7985FE"/>
</linearGradient>
<linearGradient id="paint8_linear" x1="0" y1="25" x2="261.291" y2="25" gradientUnits="userSpaceOnUse">
<stop stop-color="#030D4F"/>
<stop offset="1" stop-color="#7985FE"/>
</linearGradient>
<linearGradient id="paint9_linear" x1="0" y1="25" x2="261.291" y2="25" gradientUnits="userSpaceOnUse">
<stop stop-color="#030D4F"/>
<stop offset="1" stop-color="#7985FE"/>
</linearGradient>
<linearGradient id="paint10_linear" x1="0" y1="25" x2="261.291" y2="25" gradientUnits="userSpaceOnUse">
<stop stop-color="#030D4F"/>
<stop offset="1" stop-color="#7985FE"/>
</linearGradient>
</defs>
</svg>
