<svg width="189" height="36" viewBox="0 0 189 36" fill="none" xmlns="http://www.w3.org/2000/svg">
<path d="M8.87117 25.5707C8.87117 26.5863 9.02586 27.2858 9.34243 27.6658C9.6554 28.0493 10.2022 28.241 10.9792 28.241V29.0187C8.274 28.9193 6.49329 28.8695 5.64071 28.8695C4.78813 28.8695 2.91029 28.9193 0 29.0187V28.241C0.777037 28.241 1.32024 28.0493 1.63681 27.6658C1.94979 27.2823 2.10807 26.5827 2.10807 25.5707V4.45294C2.10807 3.31662 1.94979 2.48569 1.63681 1.96725C1.32024 1.4488 0.777037 1.18603 0 1.18603V0.408364C0.777037 0.482935 1.55407 0.518444 2.33111 0.518444C4.93922 0.518444 7.11924 0.344446 8.87117 0V25.5707Z" fill="#030D4F"/>
<path d="M22.0667 25.5708C22.0667 26.5863 22.2214 27.2859 22.5379 27.6658C22.8509 28.0493 23.3977 28.2411 24.1747 28.2411V29.0188C21.4695 28.9193 16.1022 28.9193 13.1955 29.0188V28.2411C13.9725 28.2411 14.5157 28.0493 14.8323 27.6658C15.1453 27.2823 15.3036 26.5828 15.3036 25.5708V13.8063C15.3036 12.67 15.1453 11.8391 14.8323 11.3206C14.5193 10.8022 13.9725 10.543 13.1955 10.543V9.7653C13.9977 9.83987 14.7748 9.87538 15.5266 9.87538C18.1347 9.87538 20.3147 9.70138 22.0667 9.35693V25.5708Z" fill="#030D4F"/>
<path d="M43.5897 12.9718C43.2012 12.6132 43.0069 12.1125 43.0069 11.4698C43.0069 10.8768 43.1832 10.234 43.5321 9.54158C42.4277 9.98546 41.6147 10.6175 41.0895 11.4343C42.0176 12.4001 42.4817 13.6501 42.4817 15.1841C42.4817 17.1371 41.7478 18.6179 40.2837 19.6193C38.816 20.6207 36.8554 21.1214 34.3984 21.1214C33.9235 21.1214 33.571 21.1107 33.3443 21.0858C32.6932 21.5297 32.3658 22.0517 32.3658 22.6447C32.3658 23.4366 32.8155 23.8308 33.7185 23.8308H37.3662C39.924 23.8308 41.9205 24.2569 43.3631 25.1127C44.8056 25.9649 45.5251 27.2965 45.5251 29.1004C45.5251 30.3859 45.1042 31.5506 44.266 32.5875C43.4278 33.6279 42.1364 34.4553 40.3952 35.0732C38.6541 35.6911 36.4777 36 33.8731 36C31.2902 36 29.2613 35.7159 27.7828 35.1478C26.3042 34.5796 25.5632 33.7735 25.5632 32.7366C25.5632 32.0193 25.9265 31.3624 26.6532 30.7694C27.3799 30.1764 28.4807 29.7041 29.9628 29.3597L30.3369 29.9527C29.6606 30.7694 29.3224 31.5613 29.3224 32.3283C29.3224 33.2942 29.7685 34.0399 30.6571 34.5725C31.5456 35.1052 32.7939 35.3715 34.3984 35.3715C36.0532 35.3715 37.323 35.0448 38.2152 34.3879C39.1038 33.7309 39.5498 32.8609 39.5498 31.7708C39.5498 31.0038 39.2548 30.393 38.6649 29.9349C38.0749 29.4768 37.0424 29.2496 35.5639 29.2496H33.535C31.8298 29.2496 30.5276 28.93 29.6246 28.2837C28.7217 27.641 28.272 26.7745 28.272 25.6844C28.272 24.6937 28.6281 23.8272 29.344 23.0851C30.0599 22.3429 31.0924 21.6505 32.445 21.0077C30.5384 20.7592 29.0418 20.1484 27.9518 19.1719C26.8618 18.1953 26.315 16.8637 26.315 15.1841C26.315 13.2311 27.0489 11.7503 28.513 10.7489C29.9808 9.74754 31.9413 9.24685 34.3984 9.24685C37.0317 9.24685 39.0606 9.79015 40.4888 10.8803C40.9636 10.2376 41.5428 9.72979 42.2191 9.36048C42.8954 8.99118 43.6113 8.80298 44.3631 8.80298C45.1905 8.80298 45.8309 9.03379 46.2805 9.48832C46.7302 9.9464 46.9569 10.5323 46.9569 11.2496C46.9569 11.9421 46.7698 12.4925 46.3921 12.9008C46.0143 13.3092 45.5395 13.5116 44.9639 13.5116C44.4387 13.508 43.9782 13.3305 43.5897 12.9718ZM35.5459 19.2429C35.8085 18.4404 35.9416 17.0839 35.9416 15.1806C35.9416 13.2772 35.8085 11.9207 35.5459 11.1182C35.2833 10.3157 34.902 9.91089 34.3984 9.91089C33.8983 9.91089 33.5134 10.3121 33.2508 11.1182C32.9882 11.9243 32.8551 13.2772 32.8551 15.1806C32.8551 17.0874 32.9882 18.4404 33.2508 19.2429C33.5134 20.049 33.8947 20.4502 34.3984 20.4502C34.8984 20.4467 35.2833 20.0454 35.5459 19.2429Z" fill="#030D4F"/>
<path d="M56.5434 12.0237C57.673 10.1665 59.6623 9.23967 62.5223 9.23967C64.526 9.23967 65.9434 9.73326 66.7708 10.724C67.1449 11.1679 67.4219 11.768 67.5982 12.5243C67.7745 13.2807 67.8608 14.275 67.8608 15.5107V25.5671C67.8608 26.5827 68.0155 27.2823 68.3321 27.6622C68.645 28.0457 69.1918 28.2375 69.9689 28.2375V29.0151C67.2636 28.9157 62.0726 28.9157 59.3674 29.0151V28.2375C60.0185 28.2375 60.4682 28.0457 60.72 27.6622C60.9718 27.2787 61.0941 26.5792 61.0941 25.5671V13.508C61.0941 12.7161 60.9502 12.1302 60.6624 11.7467C60.3746 11.3632 59.9034 11.1714 59.2522 11.1714C58.5256 11.1714 57.8924 11.4271 57.3528 11.9313C56.8132 12.4391 56.5434 13.0747 56.5434 13.8418V25.5671C56.5434 26.5827 56.6693 27.2823 56.9211 27.6622C57.1729 28.0457 57.6226 28.2375 58.2738 28.2375V29.0151C55.7664 28.9157 50.5789 28.9157 47.6722 29.0151V28.2375C48.4493 28.2375 48.9925 28.0457 49.3091 27.6622C49.622 27.2787 49.7803 26.5792 49.7803 25.5671V4.45294C49.7803 3.31662 49.622 2.48569 49.3091 1.96725C48.9961 1.4488 48.4493 1.18958 47.6722 1.18958V0.408364C48.4493 0.482935 49.2263 0.518444 50.0033 0.518444C52.6115 0.518444 54.7915 0.344446 56.5434 0V12.0237Z" fill="#030D4F"/>
<path d="M80.6036 9.76147H84.2874V10.5036H80.6036V25.9043C80.6036 26.3979 80.69 26.7459 80.8663 26.9447C81.0425 27.1436 81.3303 27.243 81.7296 27.243C82.0318 27.243 82.37 27.1578 82.7441 26.9838C83.1182 26.8098 83.46 26.5399 83.7586 26.167L84.3233 26.6109C83.1686 28.564 81.3915 29.544 78.9848 29.544C77.2545 29.544 75.963 29.1215 75.114 28.2834C74.5888 27.765 74.2435 27.1223 74.0816 26.3552C73.9197 25.5882 73.837 24.5123 73.837 23.1274V10.5036H70.9806V9.76147H73.837V5.37955C75.1896 5.37955 76.4127 5.24816 77.5027 4.98894C78.5927 4.72972 79.6252 4.31425 80.6036 3.74609V9.76147Z" fill="#030D4F"/>
<path d="M94.3312 12.0952C95.4608 10.238 97.4502 9.31121 100.31 9.31121C102.314 9.31121 103.731 9.80479 104.559 10.7955C104.933 11.2394 105.21 11.8395 105.386 12.5959C105.562 13.3522 105.649 14.3465 105.649 15.5823V25.6387C105.649 26.6542 105.803 27.3538 106.12 27.7337C106.433 28.1172 106.98 28.309 107.757 28.309V29.0867C105.051 28.9872 99.8604 28.9872 97.1552 29.0867V28.309C97.8063 28.309 98.256 28.1172 98.5078 27.7337C98.7596 27.3502 98.8819 26.6507 98.8819 25.6387V13.5795C98.8819 12.7876 98.738 12.2017 98.4502 11.8182C98.1624 11.4347 97.6912 11.2429 97.0401 11.2429C96.3134 11.2429 95.6802 11.4986 95.1406 12.0029C94.601 12.5106 94.3312 13.1463 94.3312 13.9133V25.6387C94.3312 26.6542 94.4571 27.3538 94.7089 27.7337C94.9608 28.1172 95.4104 28.309 96.0616 28.309V29.0867C93.5542 28.9872 88.3667 28.9872 85.4601 29.0867V28.309C86.2371 28.309 86.7803 28.1172 87.0969 27.7337C87.4098 27.3502 87.5681 26.6507 87.5681 25.6387V4.52447C87.5681 3.38816 87.4098 2.55723 87.0969 2.03878C86.7839 1.52034 86.2371 1.26111 85.4601 1.26111V0.479897C86.2371 0.554468 87.0141 0.589978 87.7912 0.589978C90.3993 0.589978 92.5793 0.415979 94.3312 0.0715332V12.0952Z" fill="#030D4F"/>
<path d="M126.14 11.7042C127.82 13.2986 128.658 15.8908 128.658 19.4773C128.658 23.0638 127.816 25.6489 126.14 27.2326C124.46 28.8164 122.078 29.6082 118.995 29.6082C115.912 29.6082 113.531 28.8164 111.851 27.2326C110.171 25.6489 109.333 23.0638 109.333 19.4773C109.333 15.8908 110.171 13.2986 111.851 11.7042C113.531 10.1098 115.912 9.31079 118.995 9.31079C122.078 9.31079 124.46 10.1098 126.14 11.7042ZM117.078 12.3931C116.603 13.9519 116.362 16.3133 116.362 19.4808C116.362 22.6483 116.6 25.0062 117.078 26.5508C117.553 28.0955 118.193 28.8696 118.995 28.8696C119.798 28.8696 120.438 28.0955 120.913 26.5508C121.388 25.0062 121.629 22.6483 121.629 19.4808C121.629 16.3133 121.391 13.9519 120.913 12.3931C120.438 10.8342 119.798 10.0565 118.995 10.0565C118.193 10.0529 117.553 10.8342 117.078 12.3931Z" fill="#030D4F"/>
<path d="M149.673 25.0455C149.673 26.1853 149.828 27.0127 150.145 27.5312C150.458 28.0496 151.004 28.3088 151.781 28.3088V29.0865C151.004 29.0119 150.227 28.9764 149.45 28.9764C146.842 28.9764 144.662 29.1504 142.91 29.4949V26.8245C141.781 28.6817 139.791 29.6085 136.931 29.6085C134.924 29.6085 133.51 29.1149 132.683 28.1242C132.309 27.6803 132.032 27.0802 131.855 26.3238C131.679 25.571 131.593 24.5732 131.593 23.3374V13.8776C131.593 12.7413 131.435 11.9104 131.122 11.3919C130.809 10.8735 130.262 10.6143 129.485 10.6143V9.48149C130.262 9.55606 136.604 9.77622 138.356 9.42822V25.3473C138.356 26.1392 138.5 26.7251 138.788 27.1086C139.075 27.4921 139.547 27.6839 140.198 27.6839C140.924 27.6839 141.558 27.4317 142.097 26.9239C142.637 26.4162 142.907 25.7805 142.907 25.0135V13.8776C142.907 12.7413 142.748 11.9104 142.435 11.3919C142.122 10.8735 141.576 10.6143 140.799 10.6143V9.48149C141.576 9.55606 147.918 9.77622 149.67 9.42822V25.0455H149.673Z" fill="#030D4F"/>
<path d="M163.901 9.62678C164.765 9.83629 165.423 10.0671 165.876 10.3121C166.153 10.4613 166.376 10.5358 166.553 10.5358C167.078 10.5358 167.391 10.1417 167.492 9.3498H168.243C168.143 10.6353 168.092 12.8617 168.092 16.0292H167.34C167.139 14.3958 166.671 13.018 165.93 11.8923C165.189 10.7667 164.121 10.2056 162.714 10.2056C162.088 10.2056 161.559 10.3902 161.135 10.7631C160.707 11.1324 160.495 11.6402 160.495 12.2829C160.495 13.0996 160.772 13.8241 161.322 14.4526C161.872 15.0847 162.739 15.8588 163.916 16.7714C163.966 16.7962 164.329 17.0803 165.006 17.6236C166.409 18.7635 167.438 19.7684 168.089 20.6491C168.74 21.5261 169.067 22.6092 169.067 23.8947C169.067 24.9848 168.729 25.9684 168.053 26.8455C167.376 27.7226 166.455 28.4044 165.29 28.8873C164.124 29.3703 162.851 29.6117 161.473 29.6117C159.894 29.6117 158.602 29.3028 157.602 28.6849C157.174 28.4612 156.825 28.3014 156.548 28.202C156.271 28.1026 155.998 28.0529 155.721 28.0529C155.246 28.0529 154.893 28.4861 154.667 29.3525H153.915C154.016 27.9428 154.066 25.4677 154.066 21.931H154.818C155.045 23.9586 155.595 25.592 156.473 26.8278C157.35 28.0635 158.451 28.6849 159.782 28.6849C160.408 28.6849 160.93 28.5109 161.344 28.1665C161.757 27.8221 161.962 27.3143 161.962 26.6467C161.962 25.9542 161.818 25.3364 161.531 24.7895C161.243 24.2462 160.89 23.7562 160.477 23.3229C160.063 22.8897 159.394 22.2648 158.466 21.448C157.412 20.4822 156.609 19.7151 156.059 19.147C155.509 18.5788 155.037 17.9183 154.649 17.162C154.26 16.4092 154.066 15.5711 154.066 14.6585C154.066 13.5968 154.39 12.6558 155.045 11.839C155.696 11.0223 156.559 10.3973 157.638 9.96413C158.718 9.53091 159.879 9.31429 161.135 9.31429C162.117 9.31074 163.038 9.41727 163.901 9.62678Z" fill="#030D4F"/>
<path d="M187.266 23.0814L187.907 23.3051C187.356 25.038 186.421 26.5223 185.104 27.758C183.788 28.9938 182.104 29.6152 180.046 29.6152C177.413 29.6152 175.308 28.8127 173.729 27.2041C172.15 25.5955 171.362 23.0246 171.362 19.4842C171.362 16.0966 172.247 13.5541 174.013 11.8567C175.78 10.1629 178.118 9.31421 181.025 9.31421C185.763 9.31421 188.13 12.084 188.13 17.6271H178.431C178.406 17.9254 178.395 18.3692 178.395 18.9622C178.395 21.3379 178.816 23.0317 179.654 24.0473C180.492 25.0628 181.514 25.5671 182.719 25.5671C184.547 25.5671 186.065 24.7362 187.266 23.0814ZM178.284 16.9204H182.644C182.669 14.9425 182.525 13.3197 182.212 12.0591C181.899 10.7985 181.417 10.1664 180.766 10.1664C179.359 10.1664 178.532 12.4178 178.284 16.9204Z" fill="#030D4F"/>
<path d="M18.5264 8.15659C16.037 8.23116 11.4647 3.90605 19.3574 0.0283743C19.6416 -0.113665 19.6955 0.291148 20.2747 1.04041C21.2064 2.24774 24.8074 7.96484 18.5264 8.15659Z" fill="#030D4F"/>
</svg>
