<svg width="189" height="36" viewBox="0 0 189 36" fill="none" xmlns="http://www.w3.org/2000/svg">
<path d="M8.87117 25.5707C8.87117 26.5863 9.02586 27.2858 9.34243 27.6658C9.6554 28.0493 10.2022 28.241 10.9792 28.241V29.0187C8.274 28.9193 6.49329 28.8695 5.64071 28.8695C4.78813 28.8695 2.91029 28.9193 0 29.0187V28.241C0.777037 28.241 1.32024 28.0493 1.63681 27.6658C1.94979 27.2823 2.10807 26.5827 2.10807 25.5707V4.45294C2.10807 3.31662 1.94979 2.48569 1.63681 1.96725C1.32024 1.4488 0.777037 1.18603 0 1.18603V0.408364C0.777037 0.482935 1.55407 0.518444 2.33111 0.518444C4.93922 0.518444 7.11924 0.344446 8.87117 0V25.5707Z" fill="#030D4F"/>
<path d="M21.8712 25.2138C21.8712 26.2294 22.0259 26.9289 22.3424 27.3089C22.6554 27.6924 23.2022 27.8842 23.9792 27.8842V28.6618C21.274 28.5624 15.9067 28.5624 13 28.6618V27.8842C13.777 27.8842 14.3202 27.6924 14.6368 27.3089C14.9498 26.9254 15.1081 26.2259 15.1081 25.2138V13.4494C15.1081 12.3131 14.9498 11.4821 14.6368 10.9637C14.3238 10.4453 13.777 10.186 13 10.186V9.40836C13.8022 9.48293 14.5793 9.51844 15.3311 9.51844C17.9392 9.51844 20.1192 9.34445 21.8712 9V25.2138Z" fill="#030D4F"/>
<path d="M43.5895 12.9716C43.201 12.6129 43.0067 12.1123 43.0067 11.4695C43.0067 10.8765 43.183 10.2338 43.532 9.54134C42.4276 9.98521 41.6146 10.6173 41.0893 11.434C42.0175 12.3999 42.4815 13.6498 42.4815 15.1839C42.4815 17.1369 41.7477 18.6177 40.2835 19.619C38.8158 20.6204 36.8552 21.1211 34.3982 21.1211C33.9233 21.1211 33.5708 21.1105 33.3441 21.0856C32.693 21.5295 32.3657 22.0515 32.3657 22.6445C32.3657 23.4364 32.8153 23.8305 33.7183 23.8305H37.366C39.9238 23.8305 41.9203 24.2566 43.3629 25.1124C44.8054 25.9647 45.5249 27.2963 45.5249 29.1002C45.5249 30.3856 45.104 31.5504 44.2658 32.5873C43.4276 33.6277 42.1362 34.4551 40.395 35.073C38.6539 35.6908 36.4775 35.9998 33.873 35.9998C31.29 35.9998 29.2611 35.7157 27.7826 35.1475C26.3041 34.5794 25.563 33.7733 25.563 32.7364C25.563 32.0191 25.9263 31.3622 26.653 30.7692C27.3797 30.1761 28.4805 29.7039 29.9626 29.3594L30.3367 29.9524C29.6604 30.7692 29.3223 31.561 29.3223 32.328C29.3223 33.2939 29.7683 34.0396 30.6569 34.5723C31.5455 35.1049 32.7937 35.3712 34.3982 35.3712C36.053 35.3712 37.3229 35.0445 38.215 34.3876C39.1036 33.7307 39.5496 32.8607 39.5496 31.7705C39.5496 31.0035 39.2547 30.3927 38.6647 29.9347C38.0747 29.4766 37.0423 29.2493 35.5637 29.2493H33.5348C31.8296 29.2493 30.5274 28.9297 29.6244 28.2835C28.7215 27.6407 28.2718 26.7743 28.2718 25.6841C28.2718 24.6934 28.628 23.827 29.3438 23.0848C30.0597 22.3427 31.0922 21.6502 32.4448 21.0075C30.5382 20.7589 29.0417 20.1481 27.9517 19.1716C26.8616 18.1951 26.3148 16.8635 26.3148 15.1839C26.3148 13.2308 27.0487 11.7501 28.5129 10.7487C29.9806 9.7473 31.9412 9.24661 34.3982 9.24661C37.0315 9.24661 39.0604 9.78991 40.4886 10.8801C40.9634 10.2373 41.5426 9.72954 42.2189 9.36024C42.8952 8.99094 43.6111 8.80273 44.363 8.80273C45.1904 8.80273 45.8307 9.03355 46.2804 9.48807C46.73 9.94615 46.9567 10.5321 46.9567 11.2494C46.9567 11.9418 46.7696 12.4922 46.3919 12.9006C46.0142 13.3089 45.5393 13.5113 44.9637 13.5113C44.4385 13.5078 43.978 13.3302 43.5895 12.9716ZM35.5457 19.2426C35.8084 18.4401 35.9415 17.0836 35.9415 15.1803C35.9415 13.277 35.8084 11.9205 35.5457 11.118C35.2831 10.3155 34.9018 9.91064 34.3982 9.91064C33.8981 9.91064 33.5132 10.3119 33.2506 11.118C32.988 11.9241 32.8549 13.277 32.8549 15.1803C32.8549 17.0872 32.988 18.4401 33.2506 19.2426C33.5132 20.0487 33.8945 20.45 34.3982 20.45C34.8982 20.4464 35.2831 20.0452 35.5457 19.2426Z" fill="#030D4F"/>
<path d="M56.5435 12.0237C57.6731 10.1665 59.6625 9.23967 62.5224 9.23967C64.5261 9.23967 65.9435 9.73326 66.7709 10.724C67.145 11.1679 67.422 11.768 67.5983 12.5243C67.7746 13.2807 67.8609 14.275 67.8609 15.5107V25.5671C67.8609 26.5827 68.0156 27.2823 68.3322 27.6622C68.6452 28.0457 69.192 28.2375 69.969 28.2375V29.0151C67.2638 28.9157 62.0727 28.9157 59.3675 29.0151V28.2375C60.0186 28.2375 60.4683 28.0457 60.7201 27.6622C60.9719 27.2787 61.0942 26.5792 61.0942 25.5671V13.508C61.0942 12.7161 60.9503 12.1302 60.6625 11.7467C60.3748 11.3632 59.9035 11.1714 59.2524 11.1714C58.5257 11.1714 57.8925 11.4271 57.3529 11.9313C56.8133 12.4391 56.5435 13.0747 56.5435 13.8418V25.5671C56.5435 26.5827 56.6694 27.2823 56.9213 27.6622C57.1731 28.0457 57.6227 28.2375 58.2739 28.2375V29.0151C55.7665 28.9157 50.5791 28.9157 47.6724 29.0151V28.2375C48.4494 28.2375 48.9926 28.0457 49.3092 27.6622C49.6222 27.2787 49.7804 26.5792 49.7804 25.5671V4.45294C49.7804 3.31662 49.6222 2.48569 49.3092 1.96725C48.9962 1.4488 48.4494 1.18958 47.6724 1.18958V0.408364C48.4494 0.482935 49.2264 0.518444 50.0035 0.518444C52.6116 0.518444 54.7916 0.344446 56.5435 0V12.0237Z" fill="#030D4F"/>
<path d="M80.6035 9.76147H84.2872V10.5036H80.6035V25.9043C80.6035 26.3979 80.6898 26.7459 80.8661 26.9447C81.0424 27.1436 81.3302 27.243 81.7295 27.243C82.0317 27.243 82.3698 27.1578 82.7439 26.9838C83.1181 26.8098 83.4598 26.5399 83.7584 26.167L84.3232 26.6109C83.1684 28.564 81.3913 29.544 78.9847 29.544C77.2543 29.544 75.9629 29.1215 75.1139 28.2834C74.5887 27.765 74.2433 27.1223 74.0814 26.3552C73.9195 25.5882 73.8368 24.5123 73.8368 23.1274V10.5036H70.9805V9.76147H73.8368V5.37955C75.1894 5.37955 76.4125 5.24816 77.5025 4.98894C78.5926 4.72972 79.625 4.31425 80.6035 3.74609V9.76147Z" fill="#030D4F"/>
<path d="M94.3311 12.0949C95.4607 10.2378 97.4501 9.31096 100.31 9.31096C102.314 9.31096 103.731 9.80455 104.559 10.7953C104.933 11.2392 105.21 11.8393 105.386 12.5956C105.562 13.352 105.649 14.3463 105.649 15.582V25.6384C105.649 26.654 105.803 27.3535 106.12 27.7335C106.433 28.117 106.98 28.3088 107.757 28.3088V29.0864C105.051 28.987 99.8603 28.987 97.1551 29.0864V28.3088C97.8062 28.3088 98.2559 28.117 98.5077 27.7335C98.7595 27.35 98.8818 26.6504 98.8818 25.6384V13.5793C98.8818 12.7874 98.7379 12.2015 98.4501 11.818C98.1624 11.4345 97.6911 11.2427 97.04 11.2427C96.3133 11.2427 95.6802 11.4984 95.1405 12.0026C94.6009 12.5104 94.3311 13.146 94.3311 13.913V25.6384C94.3311 26.654 94.457 27.3535 94.7089 27.7335C94.9607 28.117 95.4103 28.3088 96.0615 28.3088V29.0864C93.5541 28.987 88.3667 28.987 85.46 29.0864V28.3088C86.237 28.3088 86.7802 28.117 87.0968 27.7335C87.4097 27.35 87.568 26.6504 87.568 25.6384V4.52423C87.568 3.38791 87.4097 2.55698 87.0968 2.03854C86.7838 1.52009 86.237 1.26087 85.46 1.26087V0.479653C86.237 0.554224 87.014 0.589733 87.7911 0.589733C90.3992 0.589733 92.5792 0.415735 94.3311 0.0712891V12.0949Z" fill="#030D4F"/>
<path d="M126.14 11.7039C127.82 13.2983 128.658 15.8905 128.658 19.477C128.658 23.0635 127.816 25.6486 126.14 27.2324C124.46 28.8161 122.079 29.608 118.996 29.608C115.913 29.608 113.531 28.8161 111.851 27.2324C110.171 25.6486 109.333 23.0635 109.333 19.477C109.333 15.8905 110.171 13.2983 111.851 11.7039C113.531 10.1095 115.913 9.31055 118.996 9.31055C122.079 9.31055 124.46 10.1095 126.14 11.7039ZM117.078 12.3928C116.603 13.9517 116.362 16.3131 116.362 19.4806C116.362 22.6481 116.6 25.0059 117.078 26.5506C117.553 28.0953 118.193 28.8694 118.996 28.8694C119.798 28.8694 120.438 28.0953 120.913 26.5506C121.388 25.0059 121.629 22.6481 121.629 19.4806C121.629 16.3131 121.391 13.9517 120.913 12.3928C120.438 10.8339 119.798 10.0563 118.996 10.0563C118.193 10.0527 117.553 10.8339 117.078 12.3928Z" fill="#030D4F"/>
<path d="M149.673 25.045C149.673 26.1849 149.828 27.0122 150.145 27.5307C150.458 28.0491 151.004 28.3083 151.781 28.3083V29.086C151.004 29.0114 150.227 28.9759 149.45 28.9759C146.842 28.9759 144.662 29.1499 142.91 29.4944V26.824C141.781 28.6812 139.791 29.608 136.931 29.608C134.924 29.608 133.51 29.1144 132.683 28.1237C132.309 27.6798 132.032 27.0797 131.856 26.3233C131.679 25.5705 131.593 24.5727 131.593 23.337V13.8771C131.593 12.7408 131.435 11.9099 131.122 11.3914C130.809 10.873 130.262 10.6138 129.485 10.6138V9.481C130.262 9.55557 136.604 9.77573 138.356 9.42773V25.3468C138.356 26.1387 138.5 26.7246 138.788 27.1081C139.076 27.4916 139.547 27.6834 140.198 27.6834C140.925 27.6834 141.558 27.4312 142.097 26.9235C142.637 26.4157 142.907 25.78 142.907 25.013V13.8771C142.907 12.7408 142.748 11.9099 142.435 11.3914C142.122 10.873 141.576 10.6138 140.799 10.6138V9.481C141.576 9.55557 147.918 9.77573 149.67 9.42773V25.045H149.673Z" fill="#030D4F"/>
<path d="M163.901 9.62703C164.765 9.83653 165.423 10.0673 165.876 10.3124C166.153 10.4615 166.376 10.5361 166.553 10.5361C167.078 10.5361 167.391 10.1419 167.492 9.35005H168.243C168.143 10.6355 168.092 12.862 168.092 16.0295H167.341C167.139 14.396 166.671 13.0182 165.93 11.8926C165.189 10.7669 164.121 10.2058 162.714 10.2058C162.088 10.2058 161.559 10.3905 161.135 10.7633C160.707 11.1326 160.495 11.6404 160.495 12.2832C160.495 13.0999 160.772 13.8243 161.322 14.4528C161.872 15.0849 162.739 15.859 163.916 16.7716C163.966 16.7965 164.329 17.0806 165.006 17.6239C166.409 18.7637 167.438 19.7687 168.089 20.6493C168.74 21.5264 169.067 22.6094 169.067 23.8949C169.067 24.9851 168.729 25.9687 168.053 26.8458C167.376 27.7229 166.456 28.4047 165.29 28.8876C164.124 29.3705 162.851 29.612 161.473 29.612C159.894 29.612 158.602 29.3031 157.602 28.6852C157.174 28.4615 156.825 28.3017 156.548 28.2022C156.271 28.1028 155.998 28.0531 155.721 28.0531C155.246 28.0531 154.894 28.4863 154.667 29.3528H153.915C154.016 27.943 154.066 25.468 154.066 21.9312H154.818C155.045 23.9588 155.595 25.5923 156.473 26.828C157.351 28.0638 158.451 28.6852 159.782 28.6852C160.408 28.6852 160.93 28.5112 161.344 28.1667C161.757 27.8223 161.962 27.3145 161.962 26.6469C161.962 25.9545 161.819 25.3366 161.531 24.7897C161.243 24.2464 160.89 23.7564 160.477 23.3232C160.063 22.89 159.394 22.265 158.466 21.4483C157.412 20.4824 156.609 19.7154 156.059 19.1472C155.509 18.5791 155.037 17.9186 154.649 17.1622C154.26 16.4094 154.066 15.5714 154.066 14.6588C154.066 13.597 154.39 12.656 155.045 11.8393C155.696 11.0226 156.559 10.3976 157.638 9.96437C158.718 9.53115 159.88 9.31454 161.135 9.31454C162.117 9.31099 163.038 9.41752 163.901 9.62703Z" fill="#030D4F"/>
<path d="M187.266 23.0816L187.907 23.3054C187.356 25.0382 186.421 26.5225 185.104 27.7583C183.788 28.994 182.104 29.6155 180.046 29.6155C177.413 29.6155 175.309 28.8129 173.729 27.2043C172.15 25.5957 171.362 23.0248 171.362 19.4845C171.362 16.0968 172.247 13.5543 174.014 11.857C175.78 10.1631 178.118 9.31445 181.025 9.31445C185.763 9.31445 188.13 12.0842 188.13 17.6273H178.431C178.406 17.9256 178.395 18.3695 178.395 18.9625C178.395 21.3381 178.816 23.0319 179.654 24.0475C180.492 25.0631 181.514 25.5673 182.719 25.5673C184.547 25.5673 186.065 24.7364 187.266 23.0816ZM178.284 16.9207H182.644C182.669 14.9428 182.525 13.32 182.212 12.0594C181.899 10.7988 181.417 10.1667 180.766 10.1667C179.359 10.1667 178.532 12.418 178.284 16.9207Z" fill="#030D4F"/>
<path d="M18.5263 8.15634C16.0369 8.23092 11.4646 3.90581 19.3573 0.0281302C19.6415 -0.113909 19.6955 0.290904 20.2746 1.04016C21.2064 2.2475 24.8074 7.96459 18.5263 8.15634Z" fill="#030D4F"/>
</svg>
