<?xml version="1.0" encoding="UTF-8"?>
<svg enable-background="new 676 -233.1 409.9 1105" version="1.1" viewBox="676 -233.1 409.9 1105" xml:space="preserve" xmlns="http://www.w3.org/2000/svg">
<style type="text/css">
	.st0{opacity:5.000000e-002;fill:#4476DF;enable-background:new    ;}
</style>
	<path class="st0" d="m1054.9 848.9c-138.3-131.5-116.7-188.9-92.7-401.9 24.1-212.9-235.3-285-103.7-536 46.2-88.1 132.4-127.6 227.4-144.2v1105c-11.1-6.5-21.5-14.2-31-22.9z"/>
	<path class="st0" d="m827.4 400c0-10.3 3.1-20.3 8.8-28.9s13.8-15.2 23.3-19.2c9.5-3.9 20-5 30-3 10.1 2 19.4 7 26.6 14.2 7.3 7.3 12.2 16.5 14.2 26.6s1 20.5-3 30c-3.9 9.5-10.6 17.6-19.2 23.3s-18.6 8.8-28.9 8.8c-13.8 0-27-5.5-36.8-15.2-9.5-9.6-15-22.8-15-36.6z"/>
<path class="st0" d="M676-233.1C766.5-132.5,816.5-2,816.5,133.3s-50,265.8-140.5,366.4V-233.1z"/>
</svg>
