<?xml version="1.0" encoding="utf-8"?>
<!-- Generator: Adobe Illustrator 19.0.0, SVG Export Plug-In . SVG Version: 6.00 Build 0)  -->
<svg version="1.1" id="Layer_1" xmlns="http://www.w3.org/2000/svg" xmlns:xlink="http://www.w3.org/1999/xlink" x="0px" y="0px"
	 viewBox="72 -23.1 712 887" style="enable-background:new 72 -23.1 712 887;" xml:space="preserve">
<g id="Group_11086" transform="translate(301 -6816.871)">
	<g id="Group_11085" transform="translate(-883.938 5074.933)">
		
			<circle id="Ellipse_1" style="opacity:5.000000e-002;fill:#CC952D;enable-background:new    ;" cx="1015.1" cy="2139.8" r="295.7"/>
		<g id="Ellipse_2" transform="translate(582.938 1741.938)" style="opacity:0.18;">
			<circle style="fill:none;" cx="432.1" cy="397.9" r="318.5"/>
			
				<circle style="fill:none;stroke:#101829;stroke-width:9;stroke-linecap:round;stroke-linejoin:round;stroke-dasharray:0,51;" cx="432.1" cy="397.9" r="316.2"/>
		</g>
	</g>
</g>
<path style="fill:#4476DF;" d="M597-23H260c-25.4,0-46,20.6-46,46v794c0,25.4,20.6,46,46,46h337c25.4,0,46-20.6,46-46V23
	C643-2.4,622.4-23,597-23z"/>
<path style="fill:#3863C8;" d="M596-3H261c-16.6,0-30,13.4-30,30v792c0,16.6,13.4,30,30,30h335c16.6,0,30-13.4,30-30V27
	C626,10.4,612.6-3,596-3z"/>
<path style="fill:#51CE9F;" d="M320.8-3H261c-16.6,0-30,13.4-30,30v207.4c65.9-19.6,114-80.6,114-152.9C345,50.4,336.1,21.5,320.8-3
	z"/>
<path style="fill:#FF8484;" d="M231,734c32.1-7.7,56-36.5,56-71c0-34.5-23.9-63.3-56-71V734z"/>
<path style="fill:#51CE9F;" d="M626,714.4c-27.3-22.1-62.1-35.4-100-35.4c-87.8,0-159,71.2-159,159c0,3.7,0.1,7.4,0.4,11H596
	c16.6,0,30-13.4,30-30V714.4z"/>
<path style="fill:#FFFFFF;" d="M305.8,428.8c-0.1,1.1,0.1,2.1,0.7,3c0.3,0.3,0.7,0.5,1.1,0.7c0.4,0.1,0.8,0.2,1.3,0.1v1.1
	c-3.9-0.1-6.5-0.2-7.7-0.2s-3.9,0.1-8.1,0.2v-1.1c0.4,0,0.9,0,1.3-0.1c0.4-0.1,0.8-0.4,1.1-0.7c0.5-0.9,0.8-2,0.7-3v-30.4
	c0.1-1.2-0.1-2.5-0.7-3.6c-0.3-0.4-0.6-0.7-1-0.9c-0.4-0.2-0.9-0.3-1.3-0.2v-1.1c1.1,0.1,2.2,0.2,3.4,0.2c3.2,0,6.3-0.2,9.4-0.7
	V428.8z"/>
<path style="fill:#FFFFFF;" d="M324.8,428.8c-0.1,1.1,0.1,2.1,0.7,3c0.3,0.3,0.7,0.5,1.1,0.7c0.4,0.1,0.8,0.2,1.3,0.1v1.1
	c-3.9-0.1-11.6-0.1-15.8,0v-1.1c0.4,0,0.9,0,1.3-0.1c0.4-0.1,0.8-0.4,1.1-0.7c0.5-0.9,0.8-2,0.7-3v-16.9c0.1-1.2-0.1-2.5-0.7-3.6
	c-0.3-0.4-0.6-0.7-1-0.9c-0.4-0.2-0.9-0.3-1.3-0.2V406c1.2,0.1,2.3,0.2,3.4,0.2c3.2,0,6.3-0.2,9.4-0.7L324.8,428.8z"/>
<path style="fill:#FFFFFF;" d="M355.8,410.7c-0.3-0.3-0.5-0.6-0.7-1c-0.1-0.4-0.2-0.8-0.2-1.2c0-1,0.3-1.9,0.8-2.8
	c-1.4,0.5-2.7,1.5-3.5,2.7c0.7,0.7,1.2,1.6,1.5,2.5c0.3,0.9,0.5,1.9,0.5,2.9c0.1,1.2-0.2,2.5-0.7,3.6c-0.6,1.1-1.4,2.1-2.4,2.8
	c-2.5,1.6-5.5,2.3-8.5,2.2c-0.7,0-1.2,0-1.5-0.1c-0.4,0.2-0.7,0.5-1,0.9c-0.2,0.4-0.4,0.8-0.4,1.3c0,1.1,0.6,1.7,1.9,1.7h5.3
	c3.7,0,6.6,0.6,8.6,1.8c1,0.6,1.8,1.4,2.4,2.4c0.6,1,0.8,2.2,0.7,3.3c0,1.8-0.6,3.6-1.8,5c-1.5,1.7-3.4,2.9-5.6,3.6
	c-3,1-6.2,1.4-9.4,1.3c-3,0.1-5.9-0.3-8.8-1.2c-2.1-0.8-3.2-2-3.2-3.5c0-0.6,0.2-1.1,0.5-1.6s0.7-0.9,1.1-1.2c1.4-1,3-1.7,4.8-2
	l0.5,0.9c-0.9,0.9-1.4,2.1-1.5,3.4c0,0.7,0.2,1.3,0.5,1.9c0.3,0.6,0.8,1,1.4,1.3c1.7,0.9,3.5,1.3,5.4,1.2c1.9,0.1,3.9-0.4,5.5-1.4
	c0.6-0.4,1.1-1,1.4-1.6c0.3-0.7,0.5-1.4,0.5-2.1c0-0.5-0.1-1-0.3-1.5c-0.2-0.5-0.6-0.9-1-1.2c-0.8-0.7-2.3-1-4.5-1h-2.9
	c-2,0.1-3.9-0.4-5.6-1.4c-0.6-0.4-1.1-1-1.5-1.6s-0.5-1.4-0.5-2.1c0-0.7,0.1-1.4,0.4-2c0.3-0.6,0.7-1.2,1.2-1.7
	c1.3-1.3,2.8-2.3,4.5-3c-2.4-0.2-4.6-1.1-6.5-2.6c-0.8-0.7-1.4-1.6-1.8-2.6c-0.4-1-0.6-2.1-0.5-3.1c-0.1-1.2,0.2-2.5,0.7-3.6
	c0.6-1.1,1.4-2.1,2.4-2.8c2.5-1.6,5.5-2.3,8.5-2.2c3.8,0,6.7,0.8,8.8,2.4c0.7-0.9,1.5-1.7,2.5-2.2c0.9-0.5,2-0.8,3.1-0.8
	c0.5,0,1,0,1.5,0.2c0.5,0.2,0.9,0.4,1.3,0.8c0.3,0.3,0.6,0.7,0.7,1.2c0.2,0.4,0.2,0.9,0.2,1.4c0,0.9-0.2,1.7-0.8,2.4
	c-0.3,0.3-0.6,0.5-0.9,0.7c-0.4,0.2-0.7,0.2-1.1,0.2C357,411.5,356.3,411.2,355.8,410.7z M344.2,419.7c0.5-1.9,0.7-3.9,0.6-5.9
	c0.1-2-0.1-3.9-0.6-5.9c-0.4-1.2-0.9-1.7-1.7-1.7c-0.7,0-1.3,0.6-1.7,1.7c-0.5,1.9-0.7,3.9-0.6,5.9c-0.1,2,0.1,3.9,0.6,5.9
	c0.4,1.2,0.9,1.7,1.7,1.7C343.3,421.4,343.8,420.9,344.2,419.7z"/>
<path style="fill:#FFFFFF;" d="M374.4,409.3c1.6-2.7,4.5-4,8.6-4c2.9,0,4.9,0.7,6.1,2.1c0.6,0.8,1,1.6,1.2,2.6
	c0.3,1.4,0.4,2.9,0.4,4.3v14.5c-0.1,1.1,0.1,2.1,0.7,3c0.3,0.3,0.7,0.5,1.1,0.7c0.4,0.1,0.8,0.2,1.3,0.1v1.1
	c-3.9-0.1-11.4-0.1-15.3,0v-1.1c0.4,0,0.7,0,1.1-0.2c0.3-0.1,0.6-0.4,0.9-0.7c0.4-0.9,0.6-2,0.5-3v-17.4c0.1-0.9-0.2-1.8-0.6-2.5
	c-0.2-0.3-0.6-0.5-0.9-0.7c-0.4-0.1-0.7-0.2-1.1-0.2c-1,0-2,0.4-2.7,1.1c-0.4,0.3-0.7,0.8-0.9,1.3c-0.2,0.5-0.3,1-0.3,1.5v16.9
	c-0.1,1,0.1,2.1,0.5,3c0.2,0.3,0.5,0.5,0.9,0.7c0.3,0.1,0.7,0.2,1.1,0.2v1.1c-3.6-0.1-11.1-0.1-15.3,0v-1.1c0.4,0,0.9,0,1.3-0.1
	c0.4-0.1,0.8-0.4,1.1-0.7c0.5-0.9,0.8-2,0.7-3v-30.4c0.1-1.2-0.1-2.5-0.7-3.6c-0.3-0.4-0.6-0.7-1-0.9c-0.4-0.2-0.9-0.3-1.3-0.2v-1.1
	c1.1,0.1,2.2,0.2,3.4,0.2c3.2,0,6.3-0.2,9.4-0.7V409.3z"/>
<path style="fill:#FFFFFF;" d="M409.1,406h5.3v1.1h-5.3v22.2c-0.1,0.5,0.1,1.1,0.4,1.5c0.2,0.2,0.4,0.3,0.6,0.3
	c0.2,0.1,0.4,0.1,0.7,0.1c0.5,0,1-0.1,1.5-0.4c0.6-0.3,1.1-0.7,1.5-1.2l0.8,0.6c-0.8,1.4-1.9,2.5-3.2,3.2c-1.4,0.7-2.9,1.1-4.4,1
	c-2.5,0-4.4-0.6-5.6-1.8c-0.8-0.8-1.3-1.7-1.5-2.8c-0.3-1.5-0.4-3.1-0.4-4.6v-18.2h-4.1V406h4.1v-6.3c1.8,0,3.5-0.2,5.3-0.6
	c1.6-0.4,3.1-1,4.5-1.8V406z"/>
<path style="fill:#FFFFFF;" d="M428.9,409.4c1.6-2.7,4.5-4,8.6-4c2.9,0,4.9,0.7,6.1,2.1c0.6,0.8,1,1.6,1.2,2.6
	c0.3,1.4,0.4,2.9,0.4,4.3v14.5c-0.1,1.1,0.1,2.1,0.7,3c0.3,0.3,0.7,0.5,1.1,0.7c0.4,0.1,0.8,0.2,1.3,0.1v1.1
	c-3.9-0.1-11.4-0.1-15.3,0v-1.1c0.4,0,0.7,0,1.1-0.2c0.3-0.1,0.6-0.4,0.9-0.7c0.4-0.9,0.6-2,0.5-3v-17.4c0.1-0.9-0.2-1.8-0.6-2.5
	c-0.2-0.3-0.6-0.5-0.9-0.7c-0.4-0.1-0.7-0.2-1.1-0.2c-1,0-2,0.4-2.7,1.1c-0.4,0.3-0.7,0.8-0.9,1.3c-0.2,0.5-0.3,1-0.3,1.5v16.9
	c-0.1,1,0.1,2.1,0.5,3c0.2,0.3,0.5,0.5,0.9,0.7c0.3,0.1,0.7,0.2,1.1,0.2v1.1c-3.6-0.1-11.1-0.1-15.3,0v-1.1c0.4,0,0.9,0,1.3-0.1
	c0.4-0.1,0.8-0.4,1.1-0.7c0.5-0.9,0.8-2,0.7-3v-30.4c0.1-1.2-0.1-2.5-0.7-3.6c-0.3-0.4-0.6-0.7-1-0.9c-0.4-0.2-0.9-0.3-1.3-0.2v-1.1
	c1.1,0.1,2.2,0.2,3.4,0.2c3.2,0,6.3-0.2,9.4-0.7V409.4z"/>
<path style="fill:#FFFFFF;" d="M474.7,408.8c2.4,2.3,3.6,6,3.6,11.2c0,5.2-1.2,8.9-3.6,11.2c-2.4,2.3-5.9,3.4-10.3,3.4
	c-4.4,0-7.9-1.1-10.3-3.4c-2.4-2.3-3.6-6-3.6-11.2c0-5.2,1.2-8.9,3.6-11.2c2.4-2.3,5.8-3.4,10.3-3.4
	C468.8,405.4,472.3,406.5,474.7,408.8z M461.6,409.8c-0.8,3.3-1.2,6.8-1,10.2c-0.1,3.4,0.2,6.9,1,10.2c0.7,2.2,1.6,3.3,2.8,3.3
	c1.2,0,2.1-1.1,2.8-3.3c0.8-3.3,1.2-6.8,1-10.2c0.1-3.4-0.2-6.9-1-10.2c-0.7-2.2-1.6-3.4-2.8-3.4
	C463.2,406.5,462.3,407.6,461.6,409.8L461.6,409.8z"/>
<path style="fill:#FFFFFF;" d="M508.6,428.1c-0.1,1.2,0.1,2.5,0.7,3.6c0.3,0.4,0.6,0.7,1,0.9c0.4,0.2,0.9,0.3,1.3,0.2v1.1
	c-1.1-0.1-2.2-0.2-3.4-0.2c-3.2,0-6.3,0.2-9.4,0.7v-3.8c-1.6,2.7-4.5,4-8.6,4c-2.9,0-4.9-0.7-6.1-2.1c-0.6-0.8-1-1.6-1.2-2.6
	c-0.3-1.4-0.4-2.9-0.4-4.3V412c0.1-1.2-0.1-2.5-0.7-3.6c-0.3-0.4-0.6-0.7-1-0.9c-0.4-0.2-0.9-0.3-1.3-0.2v-1.6
	c1.1,0.1,10.3,0.4,12.8-0.1v22.9c-0.1,0.9,0.2,1.8,0.6,2.5c0.2,0.3,0.6,0.5,0.9,0.7c0.4,0.1,0.7,0.2,1.1,0.2c1,0,2-0.4,2.7-1.1
	c0.4-0.3,0.7-0.8,0.9-1.3c0.2-0.5,0.3-1,0.3-1.5v-16c0.1-1.2-0.2-2.5-0.7-3.6c-0.3-0.4-0.6-0.7-1-0.9c-0.4-0.2-0.9-0.3-1.3-0.2v-1.6
	c1.1,0.1,10.3,0.4,12.8-0.1L508.6,428.1L508.6,428.1z"/>
<path style="fill:#FFFFFF;" d="M529.1,405.9c1,0.2,1.9,0.5,2.8,1c0.3,0.2,0.6,0.3,1,0.3c0.8,0,1.2-0.6,1.4-1.7h1.1
	c-0.1,1.9-0.2,5.1-0.2,9.6H534c-0.2-2.1-0.9-4.2-2-6c-0.5-0.8-1.2-1.4-2-1.8c-0.8-0.4-1.7-0.6-2.6-0.6c-0.8,0-1.6,0.3-2.3,0.8
	c-0.3,0.3-0.6,0.6-0.7,1c-0.2,0.4-0.2,0.8-0.2,1.2c0,1.2,0.4,2.3,1.2,3.1c1.1,1.2,2.4,2.3,3.7,3.3c0.1,0,0.6,0.4,1.6,1.2
	c1.7,1.3,3.1,2.7,4.4,4.4c1,1.4,1.5,3,1.4,4.7c0,1.5-0.5,3-1.5,4.3c-1,1.3-2.4,2.3-4,2.9c-1.7,0.7-3.6,1.1-5.5,1
	c-1.9,0.1-3.9-0.4-5.6-1.3c-0.5-0.3-1-0.5-1.5-0.7c-0.4-0.1-0.8-0.2-1.2-0.2c-0.7,0-1.2,0.6-1.5,1.9h-1.1c0.1-2,0.2-5.6,0.2-10.7
	h1.1c0.2,2.5,1,4.9,2.4,7.1c0.5,0.8,1.2,1.5,2,2c0.8,0.5,1.8,0.7,2.7,0.7c0.8,0,1.6-0.2,2.2-0.7c0.3-0.3,0.5-0.6,0.7-1
	c0.2-0.4,0.2-0.8,0.2-1.2c0-0.9-0.2-1.8-0.6-2.7c-0.4-0.8-0.9-1.5-1.5-2.1c-0.6-0.6-1.6-1.5-2.9-2.7c-1.5-1.4-2.7-2.5-3.5-3.3
	c-0.8-0.8-1.5-1.8-2-2.9c-0.6-1.1-0.9-2.4-0.8-3.6c0-1.5,0.5-2.9,1.4-4.1c1-1.2,2.3-2.1,3.7-2.7c1.6-0.6,3.3-1,5-0.9
	C526.4,405.4,527.8,405.5,529.1,405.9z"/>
<path style="fill:#FFFFFF;" d="M562.7,425.2l0.9,0.3c-0.8,2.5-2.2,4.7-4,6.4c-2,1.8-4.6,2.8-7.3,2.7c-1.7,0.1-3.3-0.2-4.9-0.8
	c-1.6-0.6-3-1.5-4.2-2.7c-2.3-2.3-3.4-6-3.4-11.1c0-4.9,1.3-8.5,3.8-11c1.4-1.2,3-2.2,4.7-2.8c1.7-0.6,3.6-0.9,5.4-0.8
	c6.8,0,10.2,4,10.2,12h-14c0,0.4-0.1,1.1-0.1,1.9c0,3.4,0.6,5.9,1.8,7.3c0.5,0.7,1.2,1.2,1.9,1.6c0.8,0.4,1.6,0.6,2.5,0.6
	c1.3,0,2.6-0.3,3.7-1C561,427.2,562,426.3,562.7,425.2z M549.8,416.4h6.3c0.1-2.4-0.1-4.7-0.6-7c-0.5-1.8-1.1-2.7-2.1-2.7
	C551.3,406.6,550.1,409.9,549.8,416.4z"/>
<path style="fill:#FFFFFF;" d="M319.7,403.7c-3.6,0.1-10.2-6.1,1.2-11.7c0.4-0.2,0.5,0.4,1.3,1.5
	C323.5,395.2,328.7,403.5,319.7,403.7z"/>
<path style="fill:#4476DF;" d="M488.8,17h-121c-7.6,0.3-15.7-7.6-17.6-27l3.7-7.1c0-7.2,8.3-5.9,13.9-5.9h121
	c5.6,0,13.9-1.3,13.9,5.9l3.7,7.1c-1.9,19.1-9.7,27-17.2,27C489,17,488.9,17,488.8,17z"/>
<path style="fill:#FF8484;" d="M626,81c-36.7,17.7-62,55.2-62,98.7c0,43.5,25.3,81,62,98.7V81z"/>
</svg>
