<svg xmlns="http://www.w3.org/2000/svg" xmlns:xlink="http://www.w3.org/1999/xlink" width="1444.746" height="1209.368" viewBox="0 0 1444.746 1209.368">
  <defs>
    <linearGradient id="linear-gradient" x1="-94.58" y1="0.5" x2="2.115" y2="0.5" gradientUnits="objectBoundingBox">
      <stop offset="0.025" stop-color="#bcbcbc"/>
      <stop offset="1" stop-color="#999"/>
    </linearGradient>
    <linearGradient id="linear-gradient-2" y1="0.5" x2="1" y2="0.5" gradientUnits="objectBoundingBox">
      <stop offset="0" stop-color="#4476df"/>
      <stop offset="1" stop-color="#8eb2ff"/>
    </linearGradient>
    <linearGradient id="linear-gradient-3" y1="0.5" x2="1" y2="0.5" gradientUnits="objectBoundingBox">
      <stop offset="0" stop-color="#ff8484"/>
      <stop offset="1" stop-color="#be3737"/>
    </linearGradient>
    <linearGradient id="linear-gradient-4" y1="0.5" x2="1" y2="0.5" gradientUnits="objectBoundingBox">
      <stop offset="0" stop-color="#bdbdbd"/>
      <stop offset="1" stop-color="#d1d1d1"/>
    </linearGradient>
    <linearGradient id="linear-gradient-6" x1="0.5" y1="-0.123" x2="0.5" y2="2.931" xlink:href="#linear-gradient-4"/>
    <linearGradient id="linear-gradient-7" x1="9.008" y1="1.022" x2="8.61" y2="0.157" gradientUnits="objectBoundingBox">
      <stop offset="0" stop-color="#ff8484"/>
      <stop offset="1" stop-color="#ff8484"/>
    </linearGradient>
  </defs>
  <g id="Group_11132" data-name="Group 11132" transform="translate(-237.254 -7654.336)">
    <g id="Group_11129" data-name="Group 11129" transform="translate(114.532 7614.18)" opacity="0.35">
      <path id="Path_11056" data-name="Path 11056" d="M969.1,355.272S583.4,357.944,560.618,406.03s-433.942,13.828-420.3,93.051,539.585,37.916,583.57,74.1-82.088,62.486,151.677,77.78,611.54,19.59,618.3-85.777S1305.325,452.8,1236.037,452.8C1087.9,452.8,1174.569,367.919,969.1,355.272Z" transform="translate(32.352 590.436)" fill="#f1f1f1"/>
      <ellipse id="Ellipse_28" data-name="Ellipse 28" cx="99.594" cy="12.622" rx="99.594" ry="12.622" transform="translate(527.508 1012.533)" fill="#f1f1f1"/>
      <path id="Path_11057" data-name="Path 11057" d="M1179.7,842.363s405.42,47.333,381.246-316.249S1189.362-56.772,842.712,82.4C642.837,162.648,629.471,305.367,301.495,411.077S128.483,909.933,509.781,900.521,1096.24,724.975,1179.7,842.363Z" transform="translate(0 0)" fill="#4476df" opacity="0.16"/>
      <path id="Path_11058" data-name="Path 11058" d="M538.958,228.744l5.181,4.739A25.455,25.455,0,0,0,538.958,228.744Z" transform="translate(779.905 353.359)" fill="url(#linear-gradient)"/>
      <g id="Group_11089" data-name="Group 11089" transform="translate(430.703 647.781)">
        <g id="Group_11088" data-name="Group 11088">
          <path id="Path_11059" data-name="Path 11059" d="M246.265,264.952s1.167.917,3.247,2.756,5.02,4.658,8.684,8.3,7.894,8.294,12.561,13.756c4.65,5.486,9.6,11.909,14.872,18.987,5.161,7.164,10.512,15.093,15.742,23.737,5.17,8.682,10.38,17.972,15.282,27.829,5.04,9.788,9.523,20.248,14.012,30.884,4.267,10.733,8.385,21.725,11.874,32.93,1.8,5.584,3.583,11.17,5.086,16.82q1.19,4.22,2.368,8.417,1.043,4.237,2.081,8.443t2.046,8.38q.888,4.2,1.767,8.357c1.207,5.532,2.411,10.995,3.311,16.429.917,5.426,2.069,10.719,2.742,15.978q1.116,7.871,2.31,15.363c1.167,10.029,2.569,19.487,3.2,28.292.408,4.394.8,8.6,1.175,12.607q.414,6.026.784,11.4c.5,7.161.908,13.412,1.006,18.57.172,5.155.31,9.207.405,11.969a29.617,29.617,0,0,0,.167,3.155,4.832,4.832,0,0,0,2.081.816l1.575.279,1.569-.27a4.634,4.634,0,0,0,2.061-.808,31.536,31.536,0,0,0,.089-3.19c.026-2.793.063-6.891.109-12.1.124-5.219-.014-11.552-.21-18.82-.095-3.635-.193-7.5-.3-11.584-.256-4.072-.523-8.354-.8-12.822-.454-8.952-1.667-18.59-2.641-28.818-1.328-10.19-2.905-20.918-5.026-31.936-.928-5.532-2.161-11.1-3.4-16.742q-.957-4.22-1.92-8.495l-2.224-8.518q-1.129-4.272-2.262-8.575-1.272-4.267-2.552-8.555c-1.632-5.736-3.538-11.414-5.477-17.078-3.851-11.34-8.337-22.458-12.969-33.292-4.816-10.762-9.9-21.194-15.371-31-5.3-9.894-11.182-19.03-16.892-27.565-5.785-8.495-11.644-16.245-17.262-23.22a255.029,255.029,0,0,0-29.97-31.082A122.246,122.246,0,0,0,246.265,264.952Z" transform="translate(-199.219 -226.579)" fill="#51ce9f"/>
          <path id="Path_11060" data-name="Path 11060" d="M280.151,339.451s3.71-9.069-11.911-31.64-24.154-58.561-8.006-56.092S289.137,319.557,280.151,339.451Z" transform="translate(-189.316 -251.599)" fill="#51ce9f"/>
          <path id="Path_11061" data-name="Path 11061" d="M278.153,356.777s.986-21.248-3.88-49.388c-5.184-29.993-9.707-44.385,5.474-36.855S290.427,340.239,278.153,356.777Z" transform="translate(-155.928 -219.816)" fill="#51ce9f"/>
          <path id="Path_11062" data-name="Path 11062" d="M300.418,298.826s-38.473-50.043-65.207-37.548S290.751,287.5,300.418,298.826Z" transform="translate(-229.894 -237.217)" fill="#51ce9f"/>
          <path id="Path_11063" data-name="Path 11063" d="M321.124,309.881s-64.561-53.549-82.889-31.381S315.307,300.007,321.124,309.881Z" transform="translate(-218.641 -211.267)" fill="#51ce9f"/>
          <path id="Path_11064" data-name="Path 11064" d="M323.3,312.756S256.718,272.944,247.85,296.7C237.981,323.144,313.456,299.821,323.3,312.756Z" transform="translate(-197.913 -181.258)" fill="#51ce9f"/>
          <path id="Path_11065" data-name="Path 11065" d="M281.137,380.261s-1.273-79.464,6.144-91.913S309.121,310.324,281.137,380.261Z" transform="translate(-134.035 -187.438)" fill="#51ce9f"/>
          <path id="Path_11066" data-name="Path 11066" d="M321.8,324.935s-54.733-31.229-66.15-26.682S262.768,333.513,321.8,324.935Z" transform="translate(-187.626 -165.031)" fill="#51ce9f"/>
          <path id="Path_11067" data-name="Path 11067" d="M331.965,377.009s-49.428-43.951-61.247-42.212S272.893,371.276,331.965,377.009Z" transform="translate(-160.622 -95.805)" fill="#51ce9f"/>
          <path id="Path_11068" data-name="Path 11068" d="M321.208,401.238s-29.611-52.7-41.126-49.839S268.881,397.309,321.208,401.238Z" transform="translate(-147.294 -64.813)" fill="#51ce9f"/>
          <path id="Path_11069" data-name="Path 11069" d="M291.2,443.945s20.148-95.465,33.43-105.586S347.619,378.407,291.2,443.945Z" transform="translate(-115.02 -91.475)" fill="#51ce9f"/>
          <path id="Path_11070" data-name="Path 11070" d="M287.375,410.078s4.221-90.867,17.475-101.109S339.194,345.367,287.375,410.078Z" transform="translate(-122.191 -146.751)" fill="#51ce9f"/>
          <path id="Path_11071" data-name="Path 11071" d="M323.073,354.828s-39.4-53.29-58.259-33.37C247.971,339.256,323.073,354.828,323.073,354.828Z" transform="translate(-169.076 -129.055)" fill="#51ce9f"/>
        </g>
      </g>
      <g id="Group_11090" data-name="Group 11090" transform="translate(1153.537 360.146)">
        <path id="Path_11072" data-name="Path 11072" d="M746.936,324.136c-7.859-54.609-21.507-109.46-11.851-172.629A416.554,416.554,0,0,0,641.23,361.791c-6.739,48.571-5.431,100.31-29.556,143-17.055,30.185-45.045,52.37-67.584,78.714-45.695,53.4-67.955,125.854-61.6,195.729a41.771,41.771,0,0,0,39.786,37.735h0c49.982,16.676,110.649-14.455,126.248-64.785,7.472-24.116,5.538-50.224,11.641-74.722,9.328-37.439,36.255-67.512,55.741-100.813C761.716,498.384,762.475,432.1,746.936,324.136Z" transform="translate(-481.428 -151.507)" fill="url(#linear-gradient-2)"/>
        <path id="Path_11073" data-name="Path 11073" d="M669.677,175.057s-.6,2.425-1.727,6.972c-.98,4.575-2.575,11.245-3.885,19.857A225.4,225.4,0,0,0,661.6,233.1c-.221,12.087.721,25.705,2,40.623,1.322,14.912,2.486,31.214,2.469,48.52a427.9,427.9,0,0,1-3.477,54.287,266.508,266.508,0,0,1-13.667,56.853,338.2,338.2,0,0,1-26.067,54.359c-20.518,34.74-44.761,66.587-63.549,98.591a382.387,382.387,0,0,0-24.093,47.557,344.5,344.5,0,0,0-15.13,45.183c-1.7,7.19-3.425,14.058-4.535,20.711-1.362,6.6-2.2,12.946-3.023,18.906-.96,5.937-1.247,11.575-1.8,16.754-.586,5.178-.693,9.972-.931,14.291-.56,8.635-.434,15.446-.489,20.084-.029,4.641-.043,7.115-.043,7.115l-7.768.161s-.014-2.517-.04-7.239c0-4.725-.207-11.65.259-20.469.193-4.405.247-9.294.782-14.6.506-5.3.736-11.061,1.647-17.156.764-6.11,1.555-12.616,2.874-19.409,1.063-6.837,2.75-13.914,4.414-21.323a327.066,327.066,0,0,1,15.386-46.514,391.517,391.517,0,0,1,24.6-48.709c9.6-16.271,20.332-32.525,31.47-48.73,11.087-16.239,22.369-32.628,32.528-49.615a329.485,329.485,0,0,0,25.823-52.776,263.039,263.039,0,0,0,13.736-55.069,420.183,420.183,0,0,0,4.564-53.313c.379-17.03-.5-33.154-1.095-48.132-.675-14.966-1.081-28.818-.359-41.068a205.393,205.393,0,0,1,4.207-31.412c1.819-8.59,3.793-15.193,5.152-19.679C668.9,177.431,669.677,175.057,669.677,175.057Z" transform="translate(-443.995 -107.381)" fill="#fff"/>
      </g>
      <g id="Group_11091" data-name="Group 11091" transform="translate(1181.318 554.575)">
        <path id="Path_11074" data-name="Path 11074" d="M496.788,657.7c-13.173-31.323-2.8-70.889,24.041-91.726,25.108-19.492,64.044-26.2,74.211-56.313,3.282-9.728,2.7-20.334,5.006-30.341,6.247-27.131,32.119-44.979,57.647-56.1s53.48-18.731,74.257-37.263c34.246-30.548,39.462-81.024,54.971-124.216,8.25-22.972,28.22-48.569,51.534-41.335,19.567,6.069,25.3,31.752,21.062,51.793s-14.923,38.83-15.271,59.313c-.56,32.68,24.9,60.066,31.473,92.085,7.224,35.166-11.811,74.041-44.017,89.9-19.217,9.463-41.261,11.029-61.736,17.317s-41.333,19.978-45.2,41.045c-4.368,23.806,14.544,47.074,11.052,71.027-2.56,17.55-16.676,31.211-31.737,40.58C661.2,710.144,529.066,732.64,496.788,657.7" transform="translate(-491.095 -219.165)" fill="#8f8f8f"/>
        <path id="Path_11075" data-name="Path 11075" d="M496.788,657.7c-13.173-31.323-2.8-70.889,24.041-91.726,25.108-19.492,64.044-26.2,74.211-56.313,3.282-9.728,2.7-20.334,5.006-30.341,6.247-27.131,32.119-44.979,57.647-56.1s53.48-18.731,74.257-37.263c34.246-30.548,39.462-81.024,54.971-124.216,8.25-22.972,28.22-48.569,51.534-41.335,19.567,6.069,25.3,31.752,21.062,51.793s-14.923,38.83-15.271,59.313c-.56,32.68,24.9,60.066,31.473,92.085,7.224,35.166-11.811,74.041-44.017,89.9-19.217,9.463-41.261,11.029-61.736,17.317s-41.333,19.978-45.2,41.045c-4.368,23.806,14.544,47.074,11.052,71.027-2.56,17.55-16.676,31.211-31.737,40.58C661.2,710.144,529.066,732.64,496.788,657.7" transform="translate(-491.095 -219.165)" fill="#ff8484"/>
        <path id="Path_11076" data-name="Path 11076" d="M792.678,239.1l-.767,1.359c-.483.911-1.319,2.2-2.149,4.012a91.907,91.907,0,0,0-6.158,16.1,221.667,221.667,0,0,0-5.546,26.231c-1.672,10.228-3.161,21.834-5.377,34.421-2.25,12.561-5.25,26.168-10.538,39.9a126.033,126.033,0,0,1-23.829,39.407,77.612,77.612,0,0,1-18.875,15.653,140.828,140.828,0,0,1-22.691,10.7c-15.662,6.052-32.289,10.489-46.511,19.28a59.362,59.362,0,0,0-17.943,16.708,64.884,64.884,0,0,0-9.535,22.392,119.848,119.848,0,0,0-2.721,24.268,85.735,85.735,0,0,1-4.509,24.53c-5.4,15.739-16.07,28.478-27.435,38.028-11.391,9.69-23.3,17.009-33.76,24.168-10.492,7.092-19.665,14.055-26.177,21.5a51.035,51.035,0,0,0-11.805,21.872,54.124,54.124,0,0,0-1.345,16.05c.1,1.882.25,3.325.379,4.3l.167,1.477-7.7,1s-.055-.555-.164-1.632-.267-2.672-.351-4.776a61.678,61.678,0,0,1,1.816-18.234,58.339,58.339,0,0,1,13.759-24.743c7.308-8.1,17.076-15.211,27.794-22.24,10.693-7.084,22.524-14.147,33.568-23.277,11.041-9.023,21.053-20.7,26.3-35.255a80.51,80.51,0,0,0,4.563-23.024,124.25,124.25,0,0,1,3.25-25.064,69.181,69.181,0,0,1,10.572-23.688,63.329,63.329,0,0,1,19.375-17.481c15.047-8.923,31.841-13.041,47.433-18.794,15.613-5.572,30.579-13.124,41.06-25.065a124.264,124.264,0,0,0,23.949-38.6c5.394-13.529,8.544-27.03,10.935-39.536,2.353-12.527,3.977-24.119,5.773-34.338a221.686,221.686,0,0,1,5.862-26.211,92.279,92.279,0,0,1,6.357-16.061c.853-1.8,1.7-3.081,2.2-3.986Z" transform="translate(-460.79 -181.82)" fill="#8f8f8f"/>
        <path id="Path_11077" data-name="Path 11077" d="M792.678,239.1l-.767,1.359c-.483.911-1.319,2.2-2.149,4.012a91.907,91.907,0,0,0-6.158,16.1,221.667,221.667,0,0,0-5.546,26.231c-1.672,10.228-3.161,21.834-5.377,34.421-2.25,12.561-5.25,26.168-10.538,39.9a126.033,126.033,0,0,1-23.829,39.407,77.612,77.612,0,0,1-18.875,15.653,140.828,140.828,0,0,1-22.691,10.7c-15.662,6.052-32.289,10.489-46.511,19.28a59.362,59.362,0,0,0-17.943,16.708,64.884,64.884,0,0,0-9.535,22.392,119.848,119.848,0,0,0-2.721,24.268,85.735,85.735,0,0,1-4.509,24.53c-5.4,15.739-16.07,28.478-27.435,38.028-11.391,9.69-23.3,17.009-33.76,24.168-10.492,7.092-19.665,14.055-26.177,21.5a51.035,51.035,0,0,0-11.805,21.872,54.124,54.124,0,0,0-1.345,16.05c.1,1.882.25,3.325.379,4.3l.167,1.477-7.7,1s-.055-.555-.164-1.632-.267-2.672-.351-4.776a61.678,61.678,0,0,1,1.816-18.234,58.339,58.339,0,0,1,13.759-24.743c7.308-8.1,17.076-15.211,27.794-22.24,10.693-7.084,22.524-14.147,33.568-23.277,11.041-9.023,21.053-20.7,26.3-35.255a80.51,80.51,0,0,0,4.563-23.024,124.25,124.25,0,0,1,3.25-25.064,69.181,69.181,0,0,1,10.572-23.688,63.329,63.329,0,0,1,19.375-17.481c15.047-8.923,31.841-13.041,47.433-18.794,15.613-5.572,30.579-13.124,41.06-25.065a124.264,124.264,0,0,0,23.949-38.6c5.394-13.529,8.544-27.03,10.935-39.536,2.353-12.527,3.977-24.119,5.773-34.338a221.686,221.686,0,0,1,5.862-26.211,92.279,92.279,0,0,1,6.357-16.061c.853-1.8,1.7-3.081,2.2-3.986Z" transform="translate(-460.79 -181.82)" fill="#fff6f6"/>
      </g>
      <g id="Group_11092" data-name="Group 11092" transform="translate(938.023 436.005)">
        <rect id="Rectangle_38" data-name="Rectangle 38" width="368.816" height="612.711" rx="4.662" fill="#51ce9f"/>
        <rect id="Rectangle_39" data-name="Rectangle 39" width="328.359" height="516.775" transform="translate(20.229 45.637)" fill="#fff"/>
        <path id="Path_11078" data-name="Path 11078" d="M566.285,190.9H452.676a2.823,2.823,0,0,1-2.822-2.822h0a2.823,2.823,0,0,1,2.822-2.822H566.285a2.823,2.823,0,0,1,2.822,2.822h0A2.823,2.823,0,0,1,566.285,190.9Z" transform="translate(-325.073 -164.127)" fill="#fff"/>
        <rect id="Rectangle_40" data-name="Rectangle 40" width="169.076" height="164.731" transform="translate(32.728 73.867)" fill="#ededed"/>
        <rect id="Rectangle_41" data-name="Rectangle 41" width="301.309" height="24.572" transform="translate(32.728 259.135)" fill="#ededed"/>
        <rect id="Rectangle_42" data-name="Rectangle 42" width="301.309" height="24.572" transform="translate(32.728 303.469)" fill="#ededed"/>
        <rect id="Rectangle_43" data-name="Rectangle 43" width="301.309" height="24.572" transform="translate(32.728 347.804)" fill="#ededed"/>
        <rect id="Rectangle_44" data-name="Rectangle 44" width="301.309" height="24.572" transform="translate(32.728 437.663)" fill="#ededed"/>
        <rect id="Rectangle_45" data-name="Rectangle 45" width="301.309" height="24.571" transform="translate(32.728 527.523)" fill="#ededed"/>
        <rect id="Rectangle_46" data-name="Rectangle 46" width="233.723" height="24.571" transform="translate(32.728 392.138)" fill="#ededed"/>
        <rect id="Rectangle_47" data-name="Rectangle 47" width="110.413" height="40.67" transform="translate(223.625 75.581)" fill="#ededed"/>
        <rect id="Rectangle_48" data-name="Rectangle 48" width="110.413" height="40.669" transform="translate(223.625 136.641)" fill="#ededed"/>
        <rect id="Rectangle_49" data-name="Rectangle 49" width="110.413" height="40.67" transform="translate(223.625 197.699)" fill="#ededed"/>
      </g>
      <g id="Group_11094" data-name="Group 11094" transform="translate(539.774 213.047)">
        <g id="Group_11093" data-name="Group 11093">
          <path id="Path_11079" data-name="Path 11079" d="M381.332,152.807c0,20.734-8.624,33.194-23.01,33.194-7.67,0-13.179-3.592-15.216-10.426-4.673,6.834-11.98,10.426-21.57,10.426-16.538,0-28.757-12.584-28.757-30.559,0-17.734,12.219-30.318,28.757-30.318,8.391,0,15.337,2.877,20.01,8.509v-7.791h13.3V166.59c0,6.109,2.877,8.15,6.233,8.15,6.472,0,10.067-7.552,10.067-21.691,0-25.648-18.7-42.9-46.017-42.9-27.8,0-46.255,18.579-46.255,44.7,0,26.484,18.214,44.939,45.778,44.939a52.935,52.935,0,0,0,23.248-5.276l3.236,9.587c-7.311,3.716-17.616,5.635-26.484,5.635-34.036,0-56.8-23.13-56.8-54.885,0-31.4,23.007-54.526,57.282-54.526C358.207,100.319,381.332,122.248,381.332,152.807Zm-39.548,2.635c0-11.863-7.667-18.693-17.728-18.693-10.429,0-17.736,7.19-17.736,18.693,0,11.627,7.308,18.935,17.736,18.935C334.117,174.377,341.784,167.426,341.784,155.443Z" transform="translate(-267.849 -100.319)" fill="#4476df"/>
        </g>
      </g>
      <g id="Group_11098" data-name="Group 11098" transform="translate(1146.472 328.92)">
        <g id="Group_11097" data-name="Group 11097">
          <path id="Path_11081" data-name="Path 11081" d="M482.349,144.14" transform="translate(-472.636 -134.085)" fill="#ff8484"/>
          <g id="Group_11096" data-name="Group 11096">
            <path id="Path_11082" data-name="Path 11082" d="M488.682,160.751c12.938,0,12.96-20.11,0-20.11-12.94,0-12.96,20.11,0,20.11Z" transform="translate(-478.969 -140.641)" fill="#ff8484"/>
          </g>
        </g>
      </g>
      <g id="Group_11102" data-name="Group 11102" transform="translate(154.348 374.035)">
        <g id="Group_11099" data-name="Group 11099" transform="translate(191.91)">
          <rect id="Rectangle_50" data-name="Rectangle 50" width="371.168" height="218.191" rx="5.972" transform="translate(0 0.001)" fill="rgba(68,118,223,0.89)"/>
          <path id="Path_11083" data-name="Path 11083" d="M538.6,308.711a25.14,25.14,0,0,0,13.748-4.081L383.992,191.469,204.667,304.88A25.124,25.124,0,0,0,218,308.711Z" transform="translate(-192.717 -90.518)" fill="#7fa5f5"/>
          <path id="Path_11084" data-name="Path 11084" d="M556.726,164.51a21.264,21.264,0,0,0-16.757-8.17H211.427a21.352,21.352,0,0,0-5.371.71L355.207,271.866a35.715,35.715,0,0,0,41.873,1.23Z" transform="translate(-190.115 -156.34)" fill="#4476df"/>
        </g>
        <g id="Group_11101" data-name="Group 11101" transform="translate(0 61.031)">
          <g id="Group_11100" data-name="Group 11100">
            <rect id="Rectangle_51" data-name="Rectangle 51" width="160.552" height="10.981" transform="translate(20.999)" fill="#bdbdbd"/>
            <rect id="Rectangle_52" data-name="Rectangle 52" width="107.556" height="10.98" transform="translate(79.111 35.357)" fill="#bdbdbd"/>
            <rect id="Rectangle_53" data-name="Rectangle 53" width="148.176" height="10.98" transform="translate(0 68.942)" fill="#bdbdbd"/>
          </g>
        </g>
      </g>
      <path id="Path_11085" data-name="Path 11085" d="M178.875,416.645c0,7.342,78.346,13.291,174.986,13.291s174.986-5.949,174.986-13.291S450.5,403.351,353.861,403.351,178.875,409.3,178.875,416.645Z" transform="translate(105.214 680.522)" fill="#f1f1f1"/>
      <path id="Path_11086" data-name="Path 11086" d="M378.554,401.025c0,8.613,114.79,15.593,256.392,15.593s256.4-6.98,256.4-15.593-114.793-15.593-256.4-15.593S378.554,392.415,378.554,401.025Z" transform="translate(479.354 646.947)" fill="#f1f1f1"/>
      <g id="Group_11103" data-name="Group 11103" transform="translate(439.352 632.545)">
        <path id="Path_11087" data-name="Path 11087" d="M287.594,261.858s1.394-5.831,2.756-9.6c1.126-3.115,3.339,1.813,3.405,2.48l.063.667s5.141-10.722,8.564-8.894,5.957,4.178,6.845,11.529c.718,5.94-.586,3.785-4.529,8.032a57.779,57.779,0,0,1-8.851,7.541Z" transform="translate(-130.43 -246.297)" fill="#7e7e7e"/>
        <path id="Path_11088" data-name="Path 11088" d="M267.648,288.939s34.031,6.357,63.782-2.874c29.4-9.118,58.437-35.723,58.437-35.723l13.576,13.228s-27.749,52.96-72.1,76.084c-32.916,17.165-80.145,28.266-94.212,24.225S246.868,286.062,267.648,288.939Z" transform="translate(-232.904 -238.718)" fill="#b6b6b6"/>
      </g>
      <g id="Group_11106" data-name="Group 11106" transform="translate(365.616 644.405)">
        <g id="Group_11105" data-name="Group 11105">
          <path id="Path_11089" data-name="Path 11089" d="M210.625,253.922" transform="translate(-200.912 -243.87)" fill="#ff8484"/>
          <g id="Group_11104" data-name="Group 11104">
            <path id="Path_11090" data-name="Path 11090" d="M216.958,270.531c12.937,0,12.96-20.107,0-20.107-12.94,0-12.96,20.107,0,20.107Z" transform="translate(-207.245 -250.424)" fill="#ff8484"/>
          </g>
        </g>
      </g>
      <g id="Group_11109" data-name="Group 11109" transform="translate(468.493 322.265)">
        <g id="Group_11108" data-name="Group 11108">
          <path id="Path_11091" data-name="Path 11091" d="M249.288,144.476" transform="translate(-231.345 -126.8)" fill="#ff8484"/>
          <g id="Group_11107" data-name="Group 11107">
            <path id="Path_11092" data-name="Path 11092" d="M260.987,173.674c23.9,0,23.941-35.35,0-35.35-23.9,0-23.944,35.35,0,35.35Z" transform="translate(-243.044 -138.325)" fill="#ff8484"/>
          </g>
        </g>
      </g>
      <g id="Group_11112" data-name="Group 11112" transform="translate(622.036 915.068)">
        <g id="Group_11111" data-name="Group 11111" transform="translate(0)">
          <path id="Path_11093" data-name="Path 11093" d="M298.237,346.435" transform="translate(-293.172 -341.19)" fill="#464646"/>
          <g id="Group_11110" data-name="Group 11110">
            <path id="Path_11094" data-name="Path 11094" d="M301.539,355.1c6.75,0,6.762-10.489,0-10.489s-6.759,10.489,0,10.489Z" transform="translate(-296.474 -344.61)" fill="#464646"/>
          </g>
        </g>
      </g>
      <g id="Group_11119" data-name="Group 11119" transform="translate(604.815 348.324)">
        <path id="Path_11095" data-name="Path 11095" d="M779.029,370.317,556.874,167.146a25.191,25.191,0,0,0-34.424.4L305.6,367.406l-14.308,13.187L539.476,526.187,784.21,375.056Z" transform="translate(-288.966 -122.751)" fill="#bf3c3c"/>
        <g id="Group_11115" data-name="Group 11115" transform="translate(104.176 0)">
          <rect id="Rectangle_54" data-name="Rectangle 54" width="366.292" height="414.668" rx="4.398" transform="matrix(0.993, 0.118, -0.118, 0.993, 49.064, 0)" fill="#d2b4b4"/>
          <g id="Group_11114" data-name="Group 11114" transform="translate(47.628 62.377)">
            <g id="Group_11113" data-name="Group 11113" transform="translate(0 0)">
              <rect id="Rectangle_55" data-name="Rectangle 55" width="22.864" height="302.015" transform="translate(23.664 22.703) rotate(-83.205)" fill="#fff"/>
              <rect id="Rectangle_56" data-name="Rectangle 56" width="22.864" height="302.015" transform="translate(17.567 73.871) rotate(-83.205)" fill="#fff"/>
              <rect id="Rectangle_57" data-name="Rectangle 57" width="22.864" height="112.399" transform="matrix(0.118, -0.993, 0.993, 0.118, 11.47, 125.039)" fill="#fff"/>
              <rect id="Rectangle_58" data-name="Rectangle 58" width="22.864" height="249.999" transform="translate(5.735 173.167) rotate(-83.205)" fill="#fff"/>
              <rect id="Rectangle_59" data-name="Rectangle 59" width="22.864" height="302.015" transform="translate(0 221.297) rotate(-83.205)" fill="#fff"/>
            </g>
          </g>
        </g>
        <g id="Group_11118" data-name="Group 11118" transform="translate(67.363 67.293)">
          <rect id="Rectangle_60" data-name="Rectangle 60" width="366.292" height="414.668" rx="4.398" fill="#fff"/>
          <g id="Group_11117" data-name="Group 11117" transform="translate(32.138 58.988)">
            <g id="Group_11116" data-name="Group 11116">
              <rect id="Rectangle_61" data-name="Rectangle 61" width="302.015" height="22.864" fill="rgba(68,118,223,0.25)"/>
              <rect id="Rectangle_62" data-name="Rectangle 62" width="302.015" height="22.864" transform="translate(0 51.53)" fill="rgba(68,118,223,0.25)"/>
              <rect id="Rectangle_63" data-name="Rectangle 63" width="112.399" height="22.864" transform="translate(0 103.06)" fill="rgba(68,118,223,0.25)"/>
              <rect id="Rectangle_64" data-name="Rectangle 64" width="250" height="22.864" transform="translate(0 151.529)" fill="rgba(68,118,223,0.25)"/>
              <rect id="Rectangle_65" data-name="Rectangle 65" width="302.015" height="22.864" transform="translate(0 199.998)" fill="rgba(68,118,223,0.25)"/>
            </g>
          </g>
        </g>
        <path id="Path_11096" data-name="Path 11096" d="M785.726,240.179,540.992,391.31,292.807,245.716l14.308-13.187a25.273,25.273,0,0,0-16.633,23.734V500.221A25.283,25.283,0,0,0,315.765,525.5H766.216A25.284,25.284,0,0,0,791.5,500.221V256.263A25.173,25.173,0,0,0,785.726,240.179Z" transform="translate(-290.482 12.126)" fill="url(#linear-gradient-3)"/>
      </g>
      <g id="Group_11123" data-name="Group 11123" transform="translate(341.629 622.951)">
        <g id="Group_11120" data-name="Group 11120" transform="translate(144.824 426.368)">
          <path id="Path_11097" data-name="Path 11097" d="M249.294,396.054l6.853,28.249h22.218l-4.3-32.976Z" transform="translate(-249.294 -391.327)" fill="#7e7e7e"/>
          <path id="Path_11098" data-name="Path 11098" d="M251.679,402.8l1.845,18.714s32.565,2.063,37.424,2.106c23.458.216-17.052-20.82-17.052-20.82Z" transform="translate(-244.826 -369.826)" fill="#343434"/>
        </g>
        <g id="Group_11121" data-name="Group 11121" transform="translate(0 397.489)">
          <path id="Path_11099" data-name="Path 11099" d="M225.055,381.278l-20.87,20.234,11.269,19.149,26.241-20.429Z" transform="translate(-188.993 -381.278)" fill="#7e7e7e"/>
          <path id="Path_11100" data-name="Path 11100" d="M214.088,388.319,198.9,399.4s14.739,29.111,17.165,33.324c11.713,20.323,9.3-25.257,9.3-25.257Z" transform="translate(-198.898 -368.084)" fill="#343434"/>
        </g>
        <path id="Path_11101" data-name="Path 11101" d="M264.56,324.108s-8.739-4.035-8.739,0,11.429,100.853,8.739,106.232-58.494,71.94-58.494,71.94L226.909,523.8s81.7-55.132,92.623-79.337S264.56,324.108,264.56,324.108Z" transform="translate(-185.467 -94.267)" fill="#454545"/>
        <path id="Path_11102" data-name="Path 11102" d="M220.387,320.672s-1.345,28.91,7.4,53.115,47.735,110.264,54.46,127.748,18.826,59.839,18.826,59.839h31.6V407.4c0-34.289-3.359-70.6-16.136-90.094S220.387,320.672,220.387,320.672Z" transform="translate(-158.774 -118.396)" fill="#6d6d6d"/>
        <path id="Path_11103" data-name="Path 11103" d="M220.387,320.672s-1.345,28.91,7.4,53.115,47.735,110.264,54.46,127.748,18.826,59.839,18.826,59.839h31.6V407.4c0-34.289-3.359-70.6-16.136-90.094S220.387,320.672,220.387,320.672Z" transform="translate(-158.774 -118.396)" fill="#6d6d6d"/>
        <path id="Path_11104" data-name="Path 11104" d="M240.869,313.878s9.716,78.168,22.1,142.211,16.645,96.965,16.645,96.965" transform="translate(-120.256 -110.075)" fill="none" stroke="#454545" stroke-miterlimit="10" stroke-width="1"/>
        <g id="Group_11122" data-name="Group 11122" transform="translate(101.968)">
          <path id="Path_11105" data-name="Path 11105" d="M266.077,261.524s-5.836,9.811,0,25.478c0,0-26.659-9.046-29.795-12.9,0,0,9.1-11.949,13.449-16.219Z" transform="translate(-230.819 -214.988)" fill="#7e7e7e"/>
          <path id="Path_11106" data-name="Path 11106" d="M277.015,259.257s5.977-6.8,5.891-13.15-9.026-.08-12.466.012c-3.954.106-17.518-8.259-23.909,1.808-6.609,10.411-10.351,6.664-11.86,14.1s3.371,9.282,2.77,16.107,6.839,7.112,8.015,14c.77,4.509,4.857.67,9.041-2.7,2.73-2.2,9.021-2.02,9.567-3.48C265.451,282.267,277.015,259.257,277.015,259.257Z" transform="translate(-234.381 -242.958)" fill="#131313"/>
          <path id="Path_11107" data-name="Path 11107" d="M265.086,247.747s3.813,3.316,5.486,19c0,0,4.641-.279,4.176,3.848-.267,2.368-3.078,2.167-3.078,2.167s.948,14.4-6.314,15.94-16.13.193-20.538-3.224-4.6-10.409-1.138-11.366,5.04,4.676,5.04,4.676,2.109-4.293-1.618-11.072-3.023-9.894,1.753-9.865,1.468-6.647,5.492-9.084S261.327,254.828,265.086,247.747Z" transform="translate(-221.457 -233.986)" fill="#7e7e7e"/>
        </g>
        <path id="Path_11108" data-name="Path 11108" d="M266.63,263.53s-30.74,40.2-39.7,95.919-8.521,74.165-2.152,76.274,77,18.449,105.468,0c0,0-3.563-74.415-17.067-113.376s-16.751-47.974-16.751-47.974Z" transform="translate(-159.2 -204.413)" fill="url(#linear-gradient-4)"/>
      </g>
      <g id="Group_11124" data-name="Group 11124" transform="translate(419.901 695.542)">
        <path id="Path_11109" data-name="Path 11109" d="M291.3,282.3s3.862-4.584,6.773-7.342c2.405-2.279,2.17,3.121,1.928,3.747l-.241.624s9.406-7.273,11.644-4.1,3.446,6.408.94,13.374c-2.026,5.63-2.221,3.121-7.653,5.144A57.473,57.473,0,0,1,293.4,296.5Z" transform="translate(-104.039 -256.637)" fill="#7e7e7e"/>
        <path id="Path_11110" data-name="Path 11110" d="M288.445,269.889S316,290.847,346.727,295.96c30.358,5.049,68.253-5.684,68.253-5.684l6.19,17.915S372.6,343.051,322.591,343.8c-37.117.56-84.3-10.728-95.059-20.653S271.168,257.989,288.445,269.889Z" transform="translate(-226.135 -268.219)" fill="url(#linear-gradient-4)"/>
      </g>
      <g id="Group_11125" data-name="Group 11125" transform="translate(849.367 176.275)">
        <rect id="Rectangle_66" data-name="Rectangle 66" width="276.231" height="162.382" rx="5.972" transform="translate(0)" fill="#51ce9f"/>
        <path id="Path_11111" data-name="Path 11111" d="M379.447,196.571a25.15,25.15,0,0,0,14.176,4.348H619.287a25.142,25.142,0,0,0,14.374-4.5L510.537,113.667Z" transform="translate(-368.339 -38.537)" fill="#73e6bb"/>
        <path id="Path_11112" data-name="Path 11112" d="M635.665,94.084a25.667,25.667,0,0,0-3.586-2.716L632,91.319a24.944,24.944,0,0,0-3.96-2c-.072-.029-.146-.055-.221-.083A25.036,25.036,0,0,0,623.57,88c-.089-.017-.181-.026-.267-.04a25.109,25.109,0,0,0-4.584-.437H393.055a25.146,25.146,0,0,0-3.276.236c-.25.032-.5.075-.75.115a25.079,25.079,0,0,0-2.877.626c-.072.02-.144.034-.216.057a25.392,25.392,0,0,0-6.23,2.8l-.006,0L486.4,173.5a26.232,26.232,0,0,0,3.164,2.058,26.563,26.563,0,0,0,28-1.141l4.923-3.351L635.668,94.084Z" transform="translate(-367.863 -87.523)" fill="#32b584"/>
      </g>
      <path id="Path_11113" data-name="Path 11113" d="M721.409,372.712,694.585,353,590.658,276.63l-51.9,32.048-45.4-26.634-55.012,40.424L359.787,380.2l-68.113,50.054a25.248,25.248,0,0,0,21.857,12.618H763.983A25.278,25.278,0,0,0,788.82,422.25Z" transform="translate(316.567 443.083)" opacity="0.3" fill="url(#linear-gradient-6)"/>
      <g id="Group_11127" data-name="Group 11127" transform="translate(1080.782 531.922)">
        <g id="Group_11126" data-name="Group 11126">
          <path id="Path_11114" data-name="Path 11114" d="M587.627,249.09l-44.192-37.808L456.11,320.377Z" transform="translate(-456.11 -211.282)" fill="#fff" stroke="#353535" stroke-linecap="square" stroke-linejoin="round" stroke-width="1.3"/>
          <path id="Path_11115" data-name="Path 11115" d="M617.069,228.679l64.2,30.243L456.11,287.78Z" transform="translate(-456.11 -178.685)" fill="#fff" stroke="#353535" stroke-linecap="square" stroke-linejoin="round" stroke-width="1.3"/>
        </g>
        <path id="Path_11116" data-name="Path 11116" d="M457.2,291.817l128.388-67.378-1.675,23.61Z" transform="translate(-454.07 -186.63)" fill="#fff" stroke="#353535" stroke-linecap="round" stroke-linejoin="round" stroke-width="1.3"/>
      </g>
      <path id="Path_11117" data-name="Path 11117" stroke="#4476df" d="M316.971,226.6S384.4,112.333,549.115,214.49c195.277,121.115,442.844,39.137,432.26-56.42C965.99,19.161,744.731,155.441,879.764,310.018c99.494,113.9-18.119,142.263-18.119,142.263" fill="none" transform="translate(363.966 112.844)" stroke-linecap="round" stroke-linejoin="round" stroke-width="1.5" stroke-dasharray="5 3"/>
      <path id="Path_11118" data-name="Path 11118" stroke="#4476df" d="M325.991,255.9s-29.708,72.254-75.035,88-122.874,64.414-51.089,148.045" fill="none" transform="translate(89.823 404.247)" stroke-linecap="round" stroke-linejoin="round" stroke-width="1.5" stroke-dasharray="5 3"/>
      <ellipse id="Ellipse_29" data-name="Ellipse 29" cx="120.728" cy="71.873" rx="120.728" ry="71.873" transform="translate(253.364 222.072) rotate(-10.394)" fill="#f1f1f1"/>
      <g id="Group_11128" data-name="Group 11128" transform="translate(775.821 1017.057)">
        <path id="Path_11119" data-name="Path 11119" d="M378.318,422.582s-1.115-39.361-14.679-42.269-15.5,24.544,0,51.669Z" transform="translate(-344.857 -380.1)" opacity="0.56" fill="url(#linear-gradient-7)"/>
        <path id="Path_11120" data-name="Path 11120" d="M355.963,383.77s2.739,9.558,9.282,36.424" transform="translate(-338.795 -373.224)" fill="none" stroke="#fff" stroke-linecap="round" stroke-miterlimit="10" stroke-width="0.566"/>
        <path id="Path_11121" data-name="Path 11121" d="M375.9,419.351s20.668-20.021,12.917-29.708-27.128,7.1-32.295,29.708Z" transform="translate(-337.742 -367.47)" fill="url(#linear-gradient-7)"/>
        <path id="Path_11122" data-name="Path 11122" d="M375.637,389.726s-10.012,9.365-15.179,21.311" transform="translate(-330.373 -362.064)" fill="none" stroke="#fff" stroke-linecap="round" stroke-miterlimit="10" stroke-width="0.566"/>
        <path id="Path_11123" data-name="Path 11123" d="M370.657,411.811s-5.276-22.765-15.932-20.829,0,20.668,0,20.668Z" transform="translate(-349.989 -359.93)" fill="url(#linear-gradient-7)"/>
        <line id="Line_20" data-name="Line 20" x2="3.552" y2="13.24" transform="translate(6.674 35.573)" fill="none" stroke="#fff" stroke-linecap="round" stroke-miterlimit="10" stroke-width="0.566"/>
      </g>
    </g>
  </g>
</svg>
