<svg width="87" height="159" viewBox="0 0 87 159" fill="none" xmlns="http://www.w3.org/2000/svg">
<path d="M-2.75512 6.85C-0.965715 6.85 0.484882 5.43969 0.484882 3.69999C0.484882 1.96029 -0.965715 0.549988 -2.75512 0.549988C-4.54452 0.549988 -5.99512 1.96029 -5.99512 3.69999C-5.99512 5.43969 -4.54452 6.85 -2.75512 6.85Z" fill="#CC952D"/>
<path d="M14.5249 6.85C16.3143 6.85 17.7649 5.43969 17.7649 3.69999C17.7649 1.96029 16.3143 0.549988 14.5249 0.549988C12.7355 0.549988 11.2849 1.96029 11.2849 3.69999C11.2849 5.43969 12.7355 6.85 14.5249 6.85Z" fill="#CC952D"/>
<path d="M31.8049 6.85C33.5943 6.85 35.0449 5.43969 35.0449 3.69999C35.0449 1.96029 33.5943 0.549988 31.8049 0.549988C30.0155 0.549988 28.5649 1.96029 28.5649 3.69999C28.5649 5.43969 30.0155 6.85 31.8049 6.85Z" fill="#CC952D"/>
<path d="M49.0849 6.85C50.8743 6.85 52.3249 5.43969 52.3249 3.69999C52.3249 1.96029 50.8743 0.549988 49.0849 0.549988C47.2955 0.549988 45.8449 1.96029 45.8449 3.69999C45.8449 5.43969 47.2955 6.85 49.0849 6.85Z" fill="#CC952D"/>
<path d="M66.3648 6.85C68.1543 6.85 69.6048 5.43969 69.6048 3.69999C69.6048 1.96029 68.1543 0.549988 66.3648 0.549988C64.5754 0.549988 63.1248 1.96029 63.1248 3.69999C63.1248 5.43969 64.5754 6.85 66.3648 6.85Z" fill="#CC952D"/>
<path d="M83.6449 6.85C85.4343 6.85 86.8849 5.43969 86.8849 3.69999C86.8849 1.96029 85.4343 0.549988 83.6449 0.549988C81.8555 0.549988 80.4049 1.96029 80.4049 3.69999C80.4049 5.43969 81.8555 6.85 83.6449 6.85Z" fill="#CC952D"/>
<path d="M-2.75512 23.65C-0.965715 23.65 0.484882 22.2397 0.484882 20.5C0.484882 18.7603 -0.965715 17.35 -2.75512 17.35C-4.54452 17.35 -5.99512 18.7603 -5.99512 20.5C-5.99512 22.2397 -4.54452 23.65 -2.75512 23.65Z" fill="#CC952D"/>
<path d="M14.5249 23.65C16.3143 23.65 17.7649 22.2397 17.7649 20.5C17.7649 18.7603 16.3143 17.35 14.5249 17.35C12.7355 17.35 11.2849 18.7603 11.2849 20.5C11.2849 22.2397 12.7355 23.65 14.5249 23.65Z" fill="#CC952D"/>
<path d="M31.8049 23.65C33.5943 23.65 35.0449 22.2397 35.0449 20.5C35.0449 18.7603 33.5943 17.35 31.8049 17.35C30.0155 17.35 28.5649 18.7603 28.5649 20.5C28.5649 22.2397 30.0155 23.65 31.8049 23.65Z" fill="#CC952D"/>
<path d="M49.0849 23.65C50.8743 23.65 52.3249 22.2397 52.3249 20.5C52.3249 18.7603 50.8743 17.35 49.0849 17.35C47.2955 17.35 45.8449 18.7603 45.8449 20.5C45.8449 22.2397 47.2955 23.65 49.0849 23.65Z" fill="#CC952D"/>
<path d="M66.3648 23.65C68.1543 23.65 69.6048 22.2397 69.6048 20.5C69.6048 18.7603 68.1543 17.35 66.3648 17.35C64.5754 17.35 63.1248 18.7603 63.1248 20.5C63.1248 22.2397 64.5754 23.65 66.3648 23.65Z" fill="#CC952D"/>
<path d="M83.6449 23.65C85.4343 23.65 86.8849 22.2397 86.8849 20.5C86.8849 18.7603 85.4343 17.35 83.6449 17.35C81.8555 17.35 80.4049 18.7603 80.4049 20.5C80.4049 22.2397 81.8555 23.65 83.6449 23.65Z" fill="#CC952D"/>
<path d="M-2.75512 40.45C-0.965715 40.45 0.484882 39.0397 0.484882 37.3C0.484882 35.5603 -0.965715 34.15 -2.75512 34.15C-4.54452 34.15 -5.99512 35.5603 -5.99512 37.3C-5.99512 39.0397 -4.54452 40.45 -2.75512 40.45Z" fill="#CC952D"/>
<path d="M14.5249 40.45C16.3143 40.45 17.7649 39.0397 17.7649 37.3C17.7649 35.5603 16.3143 34.15 14.5249 34.15C12.7355 34.15 11.2849 35.5603 11.2849 37.3C11.2849 39.0397 12.7355 40.45 14.5249 40.45Z" fill="#CC952D"/>
<path d="M31.8049 40.45C33.5943 40.45 35.0449 39.0397 35.0449 37.3C35.0449 35.5603 33.5943 34.15 31.8049 34.15C30.0155 34.15 28.5649 35.5603 28.5649 37.3C28.5649 39.0397 30.0155 40.45 31.8049 40.45Z" fill="#CC952D"/>
<path d="M49.0849 40.45C50.8743 40.45 52.3249 39.0397 52.3249 37.3C52.3249 35.5603 50.8743 34.15 49.0849 34.15C47.2955 34.15 45.8449 35.5603 45.8449 37.3C45.8449 39.0397 47.2955 40.45 49.0849 40.45Z" fill="#CC952D"/>
<path d="M66.3648 40.45C68.1543 40.45 69.6048 39.0397 69.6048 37.3C69.6048 35.5603 68.1543 34.15 66.3648 34.15C64.5754 34.15 63.1248 35.5603 63.1248 37.3C63.1248 39.0397 64.5754 40.45 66.3648 40.45Z" fill="#CC952D"/>
<path d="M83.6449 40.45C85.4343 40.45 86.8849 39.0397 86.8849 37.3C86.8849 35.5603 85.4343 34.15 83.6449 34.15C81.8555 34.15 80.4049 35.5603 80.4049 37.3C80.4049 39.0397 81.8555 40.45 83.6449 40.45Z" fill="#CC952D"/>
<path d="M-2.75512 57.25C-0.965715 57.25 0.484882 55.8397 0.484882 54.1C0.484882 52.3603 -0.965715 50.95 -2.75512 50.95C-4.54452 50.95 -5.99512 52.3603 -5.99512 54.1C-5.99512 55.8397 -4.54452 57.25 -2.75512 57.25Z" fill="#CC952D"/>
<path d="M14.5249 57.25C16.3143 57.25 17.7649 55.8397 17.7649 54.1C17.7649 52.3603 16.3143 50.95 14.5249 50.95C12.7355 50.95 11.2849 52.3603 11.2849 54.1C11.2849 55.8397 12.7355 57.25 14.5249 57.25Z" fill="#CC952D"/>
<path d="M31.8049 57.25C33.5943 57.25 35.0449 55.8397 35.0449 54.1C35.0449 52.3603 33.5943 50.95 31.8049 50.95C30.0155 50.95 28.5649 52.3603 28.5649 54.1C28.5649 55.8397 30.0155 57.25 31.8049 57.25Z" fill="#CC952D"/>
<path d="M49.0849 57.25C50.8743 57.25 52.3249 55.8397 52.3249 54.1C52.3249 52.3603 50.8743 50.95 49.0849 50.95C47.2955 50.95 45.8449 52.3603 45.8449 54.1C45.8449 55.8397 47.2955 57.25 49.0849 57.25Z" fill="#CC952D"/>
<path d="M66.3648 57.25C68.1543 57.25 69.6048 55.8397 69.6048 54.1C69.6048 52.3603 68.1543 50.95 66.3648 50.95C64.5754 50.95 63.1248 52.3603 63.1248 54.1C63.1248 55.8397 64.5754 57.25 66.3648 57.25Z" fill="#CC952D"/>
<path d="M83.6449 57.25C85.4343 57.25 86.8849 55.8397 86.8849 54.1C86.8849 52.3603 85.4343 50.95 83.6449 50.95C81.8555 50.95 80.4049 52.3603 80.4049 54.1C80.4049 55.8397 81.8555 57.25 83.6449 57.25Z" fill="#CC952D"/>
<path d="M-2.75512 74.05C-0.965715 74.05 0.484882 72.6397 0.484882 70.9C0.484882 69.1603 -0.965715 67.75 -2.75512 67.75C-4.54452 67.75 -5.99512 69.1603 -5.99512 70.9C-5.99512 72.6397 -4.54452 74.05 -2.75512 74.05Z" fill="#CC952D"/>
<path d="M14.5249 74.05C16.3143 74.05 17.7649 72.6397 17.7649 70.9C17.7649 69.1603 16.3143 67.75 14.5249 67.75C12.7355 67.75 11.2849 69.1603 11.2849 70.9C11.2849 72.6397 12.7355 74.05 14.5249 74.05Z" fill="#CC952D"/>
<path d="M31.8049 74.05C33.5943 74.05 35.0449 72.6397 35.0449 70.9C35.0449 69.1603 33.5943 67.75 31.8049 67.75C30.0155 67.75 28.5649 69.1603 28.5649 70.9C28.5649 72.6397 30.0155 74.05 31.8049 74.05Z" fill="#CC952D"/>
<path d="M49.0849 74.05C50.8743 74.05 52.3249 72.6397 52.3249 70.9C52.3249 69.1603 50.8743 67.75 49.0849 67.75C47.2955 67.75 45.8449 69.1603 45.8449 70.9C45.8449 72.6397 47.2955 74.05 49.0849 74.05Z" fill="#CC952D"/>
<path d="M66.3648 74.05C68.1543 74.05 69.6048 72.6397 69.6048 70.9C69.6048 69.1603 68.1543 67.75 66.3648 67.75C64.5754 67.75 63.1248 69.1603 63.1248 70.9C63.1248 72.6397 64.5754 74.05 66.3648 74.05Z" fill="#CC952D"/>
<path d="M83.6449 74.05C85.4343 74.05 86.8849 72.6397 86.8849 70.9C86.8849 69.1603 85.4343 67.75 83.6449 67.75C81.8555 67.75 80.4049 69.1603 80.4049 70.9C80.4049 72.6397 81.8555 74.05 83.6449 74.05Z" fill="#CC952D"/>
<path d="M-2.75512 90.85C-0.965715 90.85 0.484882 89.4397 0.484882 87.7C0.484882 85.9603 -0.965715 84.55 -2.75512 84.55C-4.54452 84.55 -5.99512 85.9603 -5.99512 87.7C-5.99512 89.4397 -4.54452 90.85 -2.75512 90.85Z" fill="#CC952D"/>
<path d="M14.5249 90.85C16.3143 90.85 17.7649 89.4397 17.7649 87.7C17.7649 85.9603 16.3143 84.55 14.5249 84.55C12.7355 84.55 11.2849 85.9603 11.2849 87.7C11.2849 89.4397 12.7355 90.85 14.5249 90.85Z" fill="#CC952D"/>
<path d="M31.8049 90.85C33.5943 90.85 35.0449 89.4397 35.0449 87.7C35.0449 85.9603 33.5943 84.55 31.8049 84.55C30.0155 84.55 28.5649 85.9603 28.5649 87.7C28.5649 89.4397 30.0155 90.85 31.8049 90.85Z" fill="#CC952D"/>
<path d="M49.0849 90.85C50.8743 90.85 52.3249 89.4397 52.3249 87.7C52.3249 85.9603 50.8743 84.55 49.0849 84.55C47.2955 84.55 45.8449 85.9603 45.8449 87.7C45.8449 89.4397 47.2955 90.85 49.0849 90.85Z" fill="#CC952D"/>
<path d="M66.3648 90.85C68.1543 90.85 69.6048 89.4397 69.6048 87.7C69.6048 85.9603 68.1543 84.55 66.3648 84.55C64.5754 84.55 63.1248 85.9603 63.1248 87.7C63.1248 89.4397 64.5754 90.85 66.3648 90.85Z" fill="#CC952D"/>
<path d="M83.6449 90.85C85.4343 90.85 86.8849 89.4397 86.8849 87.7C86.8849 85.9603 85.4343 84.55 83.6449 84.55C81.8555 84.55 80.4049 85.9603 80.4049 87.7C80.4049 89.4397 81.8555 90.85 83.6449 90.85Z" fill="#CC952D"/>
<path d="M-2.75512 107.65C-0.965715 107.65 0.484882 106.24 0.484882 104.5C0.484882 102.76 -0.965715 101.35 -2.75512 101.35C-4.54452 101.35 -5.99512 102.76 -5.99512 104.5C-5.99512 106.24 -4.54452 107.65 -2.75512 107.65Z" fill="#CC952D"/>
<path d="M14.5249 107.65C16.3143 107.65 17.7649 106.24 17.7649 104.5C17.7649 102.76 16.3143 101.35 14.5249 101.35C12.7355 101.35 11.2849 102.76 11.2849 104.5C11.2849 106.24 12.7355 107.65 14.5249 107.65Z" fill="#CC952D"/>
<path d="M31.8049 107.65C33.5943 107.65 35.0449 106.24 35.0449 104.5C35.0449 102.76 33.5943 101.35 31.8049 101.35C30.0155 101.35 28.5649 102.76 28.5649 104.5C28.5649 106.24 30.0155 107.65 31.8049 107.65Z" fill="#CC952D"/>
<path d="M49.0849 107.65C50.8743 107.65 52.3249 106.24 52.3249 104.5C52.3249 102.76 50.8743 101.35 49.0849 101.35C47.2955 101.35 45.8449 102.76 45.8449 104.5C45.8449 106.24 47.2955 107.65 49.0849 107.65Z" fill="#CC952D"/>
<path d="M66.3648 107.65C68.1543 107.65 69.6048 106.24 69.6048 104.5C69.6048 102.76 68.1543 101.35 66.3648 101.35C64.5754 101.35 63.1248 102.76 63.1248 104.5C63.1248 106.24 64.5754 107.65 66.3648 107.65Z" fill="#CC952D"/>
<path d="M83.6449 107.65C85.4343 107.65 86.8849 106.24 86.8849 104.5C86.8849 102.76 85.4343 101.35 83.6449 101.35C81.8555 101.35 80.4049 102.76 80.4049 104.5C80.4049 106.24 81.8555 107.65 83.6449 107.65Z" fill="#CC952D"/>
<path d="M-2.75512 124.45C-0.965715 124.45 0.484882 123.04 0.484882 121.3C0.484882 119.56 -0.965715 118.15 -2.75512 118.15C-4.54452 118.15 -5.99512 119.56 -5.99512 121.3C-5.99512 123.04 -4.54452 124.45 -2.75512 124.45Z" fill="#CC952D"/>
<path d="M14.5249 124.45C16.3143 124.45 17.7649 123.04 17.7649 121.3C17.7649 119.56 16.3143 118.15 14.5249 118.15C12.7355 118.15 11.2849 119.56 11.2849 121.3C11.2849 123.04 12.7355 124.45 14.5249 124.45Z" fill="#CC952D"/>
<path d="M31.8049 124.45C33.5943 124.45 35.0449 123.04 35.0449 121.3C35.0449 119.56 33.5943 118.15 31.8049 118.15C30.0155 118.15 28.5649 119.56 28.5649 121.3C28.5649 123.04 30.0155 124.45 31.8049 124.45Z" fill="#CC952D"/>
<path d="M49.0849 124.45C50.8743 124.45 52.3249 123.04 52.3249 121.3C52.3249 119.56 50.8743 118.15 49.0849 118.15C47.2955 118.15 45.8449 119.56 45.8449 121.3C45.8449 123.04 47.2955 124.45 49.0849 124.45Z" fill="#CC952D"/>
<path d="M66.3648 124.45C68.1543 124.45 69.6048 123.04 69.6048 121.3C69.6048 119.56 68.1543 118.15 66.3648 118.15C64.5754 118.15 63.1248 119.56 63.1248 121.3C63.1248 123.04 64.5754 124.45 66.3648 124.45Z" fill="#CC952D"/>
<path d="M83.6449 124.45C85.4343 124.45 86.8849 123.04 86.8849 121.3C86.8849 119.56 85.4343 118.15 83.6449 118.15C81.8555 118.15 80.4049 119.56 80.4049 121.3C80.4049 123.04 81.8555 124.45 83.6449 124.45Z" fill="#CC952D"/>
<path d="M-2.75512 141.25C-0.965715 141.25 0.484882 139.84 0.484882 138.1C0.484882 136.36 -0.965715 134.95 -2.75512 134.95C-4.54452 134.95 -5.99512 136.36 -5.99512 138.1C-5.99512 139.84 -4.54452 141.25 -2.75512 141.25Z" fill="#CC952D"/>
<path d="M14.5249 141.25C16.3143 141.25 17.7649 139.84 17.7649 138.1C17.7649 136.36 16.3143 134.95 14.5249 134.95C12.7355 134.95 11.2849 136.36 11.2849 138.1C11.2849 139.84 12.7355 141.25 14.5249 141.25Z" fill="#CC952D"/>
<path d="M31.8049 141.25C33.5943 141.25 35.0449 139.84 35.0449 138.1C35.0449 136.36 33.5943 134.95 31.8049 134.95C30.0155 134.95 28.5649 136.36 28.5649 138.1C28.5649 139.84 30.0155 141.25 31.8049 141.25Z" fill="#CC952D"/>
<path d="M49.0849 141.25C50.8743 141.25 52.3249 139.84 52.3249 138.1C52.3249 136.36 50.8743 134.95 49.0849 134.95C47.2955 134.95 45.8449 136.36 45.8449 138.1C45.8449 139.84 47.2955 141.25 49.0849 141.25Z" fill="#CC952D"/>
<path d="M66.3648 141.25C68.1543 141.25 69.6048 139.84 69.6048 138.1C69.6048 136.36 68.1543 134.95 66.3648 134.95C64.5754 134.95 63.1248 136.36 63.1248 138.1C63.1248 139.84 64.5754 141.25 66.3648 141.25Z" fill="#CC952D"/>
<path d="M83.6449 141.25C85.4343 141.25 86.8849 139.84 86.8849 138.1C86.8849 136.36 85.4343 134.95 83.6449 134.95C81.8555 134.95 80.4049 136.36 80.4049 138.1C80.4049 139.84 81.8555 141.25 83.6449 141.25Z" fill="#CC952D"/>
<path d="M-2.75512 158.05C-0.965715 158.05 0.484882 156.64 0.484882 154.9C0.484882 153.16 -0.965715 151.75 -2.75512 151.75C-4.54452 151.75 -5.99512 153.16 -5.99512 154.9C-5.99512 156.64 -4.54452 158.05 -2.75512 158.05Z" fill="#CC952D"/>
<path d="M14.5249 158.05C16.3143 158.05 17.7649 156.64 17.7649 154.9C17.7649 153.16 16.3143 151.75 14.5249 151.75C12.7355 151.75 11.2849 153.16 11.2849 154.9C11.2849 156.64 12.7355 158.05 14.5249 158.05Z" fill="#CC952D"/>
<path d="M31.8049 158.05C33.5943 158.05 35.0449 156.64 35.0449 154.9C35.0449 153.16 33.5943 151.75 31.8049 151.75C30.0155 151.75 28.5649 153.16 28.5649 154.9C28.5649 156.64 30.0155 158.05 31.8049 158.05Z" fill="#CC952D"/>
<path d="M49.0849 158.05C50.8743 158.05 52.3249 156.64 52.3249 154.9C52.3249 153.16 50.8743 151.75 49.0849 151.75C47.2955 151.75 45.8449 153.16 45.8449 154.9C45.8449 156.64 47.2955 158.05 49.0849 158.05Z" fill="#CC952D"/>
<path d="M66.3648 158.05C68.1543 158.05 69.6048 156.64 69.6048 154.9C69.6048 153.16 68.1543 151.75 66.3648 151.75C64.5754 151.75 63.1248 153.16 63.1248 154.9C63.1248 156.64 64.5754 158.05 66.3648 158.05Z" fill="#CC952D"/>
<path d="M83.6449 158.05C85.4343 158.05 86.8849 156.64 86.8849 154.9C86.8849 153.16 85.4343 151.75 83.6449 151.75C81.8555 151.75 80.4049 153.16 80.4049 154.9C80.4049 156.64 81.8555 158.05 83.6449 158.05Z" fill="#CC952D"/>
</svg>
